<svg width="351" height="361" viewBox="0 0 351 361" fill="none" xmlns="http://www.w3.org/2000/svg">
<path d="M176.085 8.59828C174.296 9.14406 172.518 9.71136 170.753 10.2987C120.102 27.1382 74.2186 59.5616 44.1209 103.643C26.3442 129.678 15.0887 159.857 8.91366 190.656C2.87377 220.782 -0.201864 251.016 12.7021 279.974C31.2673 321.636 73.9802 345.375 118.301 349.127C146.483 351.512 174.725 345.178 201.591 336.338C231.917 326.359 265.824 312.794 289.818 291.353C312.201 271.354 328.575 244.921 337.679 216.395C349.104 180.598 349.388 141.71 341.249 105.026C333.163 68.5761 315.022 31.9603 282.596 13.4523C250.832 -4.677 211.267 -2.13822 176.085 8.59828Z" fill="#BEBEE6"/>
<path d="M331.845 304.64C330.545 312.504 328.889 320.36 327.441 326.709C325.578 334.87 324.055 340.543 324.055 340.543L294.108 259.872C294.108 259.872 329.105 257.258 333.33 273.75C335.03 280.396 333.857 292.522 331.845 304.64Z" fill="#F7A285"/>
<path d="M324.991 289.931C322.548 285.765 319.756 281.792 316.653 278.087C313.846 274.731 310.749 271.5 307.296 268.79C307.148 268.166 306.999 267.55 306.866 266.926C306.509 265.315 304.052 266.006 304.401 267.602C307.051 279.706 313.185 290.591 318.227 301.789C320.558 306.965 322.652 312.237 324.516 317.598C325.489 320.382 326.395 323.189 327.241 326.018C327.308 326.249 327.375 326.479 327.442 326.709C328.89 320.36 330.546 312.504 331.845 304.64C330.026 299.539 327.724 294.601 324.991 289.931Z" fill="#B36146"/>
<path d="M136.963 259.872L107.023 340.543C107.023 340.543 105.501 334.862 103.637 326.694C102.182 320.345 100.526 312.489 99.2264 304.633C97.2141 292.522 96.0408 280.396 97.7413 273.75C101.966 257.258 136.963 259.872 136.963 259.872Z" fill="#F7A285"/>
<path d="M124.213 266.926C124.072 267.55 123.931 268.166 123.775 268.79C120.322 271.5 117.226 274.731 114.419 278.087C111.323 281.792 108.523 285.765 106.088 289.931C103.355 294.601 101.046 299.532 99.2266 304.633C100.526 312.489 102.182 320.345 103.637 326.694C103.697 326.471 103.764 326.241 103.83 326.018C104.677 323.189 105.583 320.382 106.556 317.598C108.419 312.237 110.513 306.965 112.845 301.789C117.894 290.591 124.02 279.706 126.671 267.602C127.02 266.006 124.562 265.315 124.213 266.926Z" fill="#B36146"/>
<path d="M217.797 214.777C228.84 214.777 247.105 182.12 254.036 168.921C252.885 168.714 251.851 168.52 250.956 168.338C250.528 168.252 250.115 168.13 249.716 167.978C241.222 183.177 227.001 205.864 217.796 205.864C208.082 205.864 192.78 180.593 184.519 165.526C183.51 166.623 182.365 167.465 181.059 167.967C187.569 180.463 206.477 214.777 217.797 214.777Z" fill="#FFFCFB"/>
<path d="M249.719 167.982C241.224 183.174 227.005 205.867 217.797 205.867C208.084 205.867 192.781 180.59 184.523 165.524C190.011 159.554 191.362 145.891 191.607 136.654C191.756 131.263 191.526 127.379 191.526 127.379H239.227C239.227 127.379 238.997 131.359 239.145 136.847C239.457 147.814 241.321 164.789 249.719 167.982Z" fill="#F7A285"/>
<path d="M239.145 136.847C233.383 140.092 225.645 142.186 215.539 142.186C205.24 142.186 197.399 140.01 191.607 136.654C191.756 131.263 191.525 127.379 191.525 127.379H239.227C239.227 127.379 238.997 131.359 239.145 136.847Z" fill="#B36146"/>
<path d="M303.91 277.396C303.91 277.396 307.311 341.307 304.668 360.183H126.085C123.441 341.307 126.842 277.396 126.842 277.396C115.125 275.503 80.3511 279.282 80.3511 279.282C80.3511 279.282 80.5367 275.495 81.0342 269.488C81.0862 268.931 81.1307 268.359 81.1827 267.765C82.2594 255.491 84.539 235.576 88.9646 218.935C91.9571 207.715 95.9223 197.988 101.142 193.109C118.525 176.863 165.826 171.175 179.793 168.338C180.231 168.249 180.655 168.123 181.063 167.967C182.667 171.048 185.021 175.444 187.828 180.33C196.419 195.278 209.265 214.777 217.797 214.777C226.321 214.777 239.152 195.315 247.736 180.367C250.283 175.949 252.452 171.925 254.033 168.917C270.867 171.947 313.341 177.902 329.61 193.109C333.82 197.045 337.206 204.121 339.924 212.594C348.448 239.118 350.401 279.282 350.401 279.282C350.401 279.282 315.628 275.503 303.91 277.396Z" fill="#F5604A"/>
<path d="M181.063 167.967C182.667 171.048 185.021 175.444 187.828 180.33C133.265 184.815 104.261 201.322 88.9648 218.935C91.9573 207.715 95.9225 197.988 101.143 193.109C118.526 176.863 165.826 171.175 179.793 168.338C180.231 168.249 180.655 168.123 181.063 167.967Z" fill="#FF725A"/>
<path d="M339.924 212.594C323.461 197.535 295.386 184.355 247.736 180.368C250.283 175.949 252.451 171.925 254.033 168.917C270.867 171.947 313.34 177.902 329.61 193.11C333.82 197.045 337.206 204.122 339.924 212.594Z" fill="#FF725A"/>
<path d="M201.135 277.552C201.135 277.552 216.087 237.506 220.162 239.354C224.238 241.202 230.751 276.32 230.751 276.32C230.751 276.32 265.438 272.316 266.247 275.396C267.057 278.476 237.484 298.191 237.484 298.191C237.484 298.191 250.863 333.001 246.946 334.849C243.029 336.698 217.118 307.741 217.118 307.741C217.118 307.741 180.742 336.251 177.846 334.935C174.95 333.618 194.755 295.728 194.755 295.728C194.755 295.728 163.552 287.41 165.708 283.714C167.865 280.017 201.135 277.552 201.135 277.552Z" fill="#FFFCFB"/>
<path d="M144.037 265.211C142.938 265.137 141.832 265.062 140.733 264.988C139.604 264.914 138.476 264.847 137.347 264.788C127.501 264.29 117.669 264.454 107.853 265.426C102.351 265.976 96.878 266.755 91.4202 267.602C87.9451 268.144 84.4923 268.842 81.032 269.488C81.084 268.931 81.1285 268.359 81.1805 267.765C85.0863 266.763 89.0589 265.991 93.0019 265.278C103.91 263.317 115.011 262.308 126.097 262.256C129.773 262.241 133.434 262.36 137.102 262.56C138.906 262.649 140.703 262.768 142.508 262.887C142.886 262.909 143.265 262.939 143.644 262.961C143.785 263.704 143.933 264.454 144.037 265.211Z" fill="#FFFCFB"/>
<path d="M144.037 265.211C143.933 264.454 143.785 263.704 143.643 262.961C143.591 262.694 143.547 262.419 143.502 262.152C143.161 260.095 142.812 258.031 142.47 255.974C141.111 247.791 139.708 239.623 138.26 231.462C137.451 226.866 136.597 222.284 135.832 217.681C135.735 217.131 134.815 217.131 134.725 217.681C133.522 224.675 136.129 253.338 136.894 260.607C136.96 261.261 137.035 261.907 137.102 262.56C137.183 263.303 137.265 264.045 137.347 264.788C137.644 267.558 137.956 270.32 138.275 273.09C138.342 273.721 139.329 273.728 139.262 273.09C139.233 272.785 139.203 272.488 139.173 272.184C140.265 272.525 141.401 272.28 142.359 271.567C143.614 270.624 144.134 269.169 144.2 267.639C144.23 266.837 144.156 266.021 144.037 265.211Z" fill="#D74F3C"/>
<path d="M177.934 170.284C177.37 171.784 176.702 173.246 176.026 174.65C174.793 177.226 173.323 179.692 171.586 181.956C170.902 182.848 170.175 183.746 169.38 184.6C169.365 182.929 169.358 181.258 169.343 179.588C169.313 175.021 169.276 170.454 169.247 165.888C169.239 164.611 168.987 161.915 170.011 160.883C171.17 159.71 173.657 160.779 174.697 161.611C175.343 162.13 175.863 162.776 176.286 163.482C176.843 164.425 177.214 165.494 177.452 166.571C177.719 167.796 177.838 169.036 177.934 170.284Z" fill="#F2C0A2"/>
<path d="M177.452 166.571C177.214 165.494 176.843 164.425 176.286 163.482C175.648 167.091 174.088 170.514 172.469 173.863C171.519 175.823 170.502 177.746 169.343 179.588C169.358 181.259 169.366 182.929 169.38 184.6C170.175 183.746 170.903 182.848 171.586 181.957C173.323 179.692 174.794 177.227 176.026 174.65C176.702 173.246 177.37 171.784 177.935 170.284C177.838 169.036 177.719 167.796 177.452 166.571Z" fill="#B36146"/>
<path d="M261.544 79.5477C263.819 78.7554 266.377 78.2609 268.596 79.1979C271.127 80.2665 272.621 82.9924 273.072 85.7027C273.734 89.6798 272.519 93.8321 270.245 97.1609C267.97 100.49 264.705 103.05 261.168 104.984C260.009 105.619 258.794 106.198 257.488 106.401C256.183 106.604 254.762 106.389 253.729 105.567C252.71 104.756 252.183 103.453 252.031 102.16C251.88 100.867 252.062 99.5609 252.227 98.2696C252.518 96.0033 252.76 93.7311 252.954 91.4545C253.101 89.7161 252.899 87.6281 253.487 85.9737C254.661 82.6746 258.459 80.6222 261.544 79.5477Z" fill="#F7A285"/>
<path d="M264.63 85.0398C260.338 86.1269 256.447 89.0444 253.237 91.9967C252.315 92.844 252.753 94.5838 253.991 94.8548C257.42 95.6063 258.587 98.0997 260.903 100.163C261.972 101.116 263.02 100.656 262.729 99.2618C262.181 96.631 260.157 94.1598 257.729 92.7103C260.264 90.8213 262.732 89.1453 265.341 87.2214C267.838 85.3806 266.297 84.6173 264.63 85.0398Z" fill="#B36146"/>
<path d="M169.203 79.5477C166.928 78.7554 164.37 78.2609 162.151 79.1979C159.62 80.2665 158.126 82.9924 157.675 85.7027C157.013 89.6798 158.228 93.8321 160.502 97.1609C162.777 100.49 166.042 103.05 169.579 104.984C170.738 105.619 171.953 106.198 173.259 106.401C174.564 106.604 175.985 106.389 177.018 105.567C178.037 104.756 178.564 103.453 178.716 102.16C178.867 100.867 178.685 99.5609 178.52 98.2696C178.229 96.0033 177.986 93.7311 177.793 91.4545C177.646 89.7161 177.848 87.6281 177.26 85.9737C176.087 82.6746 172.289 80.6222 169.203 79.5477Z" fill="#F7A285"/>
<path d="M166.117 85.0398C170.41 86.1269 174.301 89.0444 177.511 91.9967C178.433 92.844 177.995 94.5838 176.757 94.8548C173.327 95.6063 172.161 98.0997 169.845 100.163C168.776 101.116 167.728 100.656 168.018 99.2618C168.566 96.631 170.59 94.1598 173.019 92.7103C170.484 90.8213 168.015 89.1453 165.407 87.2214C162.91 85.3806 164.451 84.6173 166.117 85.0398Z" fill="#B36146"/>
<path d="M169.351 61.5004C169.351 61.5004 175.707 109.468 180.085 118.747C184.464 128.025 195.198 136.5 215.536 136.5C235.875 136.5 246.61 128.025 250.988 118.747C254.813 110.641 259.761 53.0599 261.297 38.2468C261.497 36.3236 261.576 32.9821 259.676 32.6197C248.814 30.5443 214.127 25.0799 195.097 35.6516C172.336 48.2957 169.351 61.5004 169.351 61.5004Z" fill="#FECFB4"/>
<path d="M260.505 39.0859C262.492 37.035 262.991 33.9423 261.643 31.425C261.114 30.4367 260.335 29.4268 259.195 28.515C254.393 24.6723 243.914 22.1053 232.227 21.7511C210.209 21.0835 188.835 20.9172 173.5 31.7592C158.166 42.6011 147.657 52.4428 150.993 56.1125C154.329 59.7822 167.34 51.4419 167.34 51.4419C167.34 51.4419 151.66 63.1185 156.164 65.9535C160.667 68.7893 176.514 59.448 187.69 49.1066C187.69 49.1066 182.686 56.9464 194.696 53.1097C206.706 49.2729 225.388 37.9565 225.388 37.9565C225.388 37.9565 222.219 46.5284 230.726 43.9808C239.233 41.4331 243.236 37.9565 243.236 37.9565C243.236 37.9565 237.732 47.4381 246.072 47.271C251.807 47.1581 257.504 42.1838 260.505 39.0859Z" fill="#8A432E"/>
<path d="M206.686 90.6231C207.109 93.8013 210.926 95.071 215.374 95.071C219.822 95.071 223.638 93.8013 224.062 90.6231C215.374 83.9476 206.686 90.6231 206.686 90.6231Z" fill="#B36146"/>
<path d="M215.374 72.8242C212.411 72.8242 206.263 87.445 206.686 90.6231C206.686 90.6231 215.374 83.9476 224.061 90.6231C224.485 87.445 218.344 72.8242 215.374 72.8242Z" fill="#F7A285"/>
<path d="M200.28 74.434C200.28 76.8517 198.32 78.8113 195.902 78.8113C193.485 78.8113 191.525 76.8517 191.525 74.434C191.525 72.0162 193.485 70.0566 195.902 70.0566C198.32 70.0566 200.28 72.017 200.28 74.434Z" fill="#1C1C1C"/>
<path d="M230.468 74.434C230.468 76.8517 232.427 78.8113 234.845 78.8113C237.263 78.8113 239.222 76.8517 239.222 74.434C239.222 72.0162 237.263 70.0566 234.845 70.0566C232.428 70.0566 230.468 72.017 230.468 74.434Z" fill="#1C1C1C"/>
<path d="M249.214 61.5266C246.48 58.754 242.906 58.0285 239.101 58.0226C236.87 58.0188 234.583 58.0159 232.41 58.5854C230.949 58.9686 227.002 60.6556 228.48 62.7778C229.903 64.8199 233.071 63.9563 235.087 63.7833C239.536 63.4016 243.915 63.8018 248.347 63.6214C249.396 63.579 249.98 62.3041 249.214 61.5266Z" fill="#8A432E"/>
<path d="M182.735 66.3802C184.825 63.0952 188.166 61.6346 191.886 60.8289C194.066 60.3567 196.301 59.8725 198.545 59.9728C200.054 60.0403 204.268 60.8601 203.269 63.2452C202.307 65.5404 199.028 65.3622 197.022 65.6169C192.591 66.179 188.395 67.4911 184.023 68.2455C182.988 68.4245 182.149 67.301 182.735 66.3802Z" fill="#8A432E"/>
<path d="M226.192 107.137C226.148 106.849 226.003 106.528 225.745 106.187C225.019 105.228 223.985 104.54 222.914 104.021C220.706 102.951 218.155 102.455 215.712 102.388C213.501 102.328 211.23 102.635 209.182 103.497C208.158 103.928 207.19 104.504 206.363 105.249C205.845 105.716 204.354 107.032 204.745 107.85C204.924 108.222 205.359 108.413 205.772 108.421C206.185 108.43 206.584 108.288 206.974 108.153C208.207 107.727 209.458 107.35 210.72 107.022C212.314 106.607 213.954 106.27 215.598 106.377C218.613 106.573 221.388 108.24 224.404 108.426C225.629 108.501 226.319 107.957 226.192 107.137Z" fill="#B36146"/>
<path d="M187.102 35.5132C183.238 37.6146 179.48 40.1749 176.295 43.2216C175.614 43.8735 176.535 45.1477 177.329 44.5611C179.076 43.2683 180.779 41.9176 182.548 40.6538C184.323 39.3863 186.118 38.1433 187.934 36.9359C188.811 36.3515 188.041 35.0023 187.102 35.5132Z" fill="#B95E41"/>
<path d="M203.474 33.6577C199.714 35.973 196.002 38.687 193.099 42.0403C192.375 42.8772 193.478 43.9858 194.313 43.2544C197.562 40.4119 200.767 37.5992 204.41 35.2609C205.411 34.6178 204.497 33.0273 203.474 33.6577Z" fill="#B95E41"/>
<path d="M216.977 31.2169C215.256 32.0397 213.601 32.9626 211.998 33.9963C210.387 35.0344 208.779 36.1341 207.373 37.4424C206.633 38.13 207.586 39.3552 208.449 38.8362C210.047 37.8724 211.561 36.7682 213.121 35.7435C214.685 34.7151 216.259 33.6978 217.837 32.6894C218.772 32.0924 217.961 30.7469 216.977 31.2169Z" fill="#B95E41"/>
<path d="M205.728 197.832C205.728 197.832 207.711 203.431 206.991 219.507C206.27 235.591 190.231 245.43 190.231 245.43C190.231 245.43 187.528 252.321 159.237 299.933C138.216 335.3 120.677 342.162 113.192 343.624C110.675 344.114 108.142 342.852 107.021 340.543C100.212 326.62 100.643 308.962 109.16 292.091C127.241 256.308 169.351 222.27 169.351 222.27C169.351 222.27 166.796 191.424 168.371 185.558C169.952 179.699 189.296 149.76 193.677 148.089C194.857 147.636 195.682 147.673 196.253 147.963C197.122 148.393 197.419 149.418 197.516 150.242V150.28C197.53 150.391 197.538 150.502 197.538 150.599C197.545 150.614 197.545 150.629 197.545 150.636C197.568 151.096 197.53 151.423 197.53 151.423C197.53 151.423 199.231 145.787 204.28 146.998C204.592 147.072 204.852 147.183 205.082 147.324C207.332 148.728 205.795 153.131 205.55 153.807C205.535 153.844 205.52 153.874 205.52 153.888C205.647 153.68 208.067 149.812 211.617 151.067C212.359 151.327 212.805 151.854 213.035 152.522C213.317 153.339 213.295 154.364 213.117 155.411V155.418C213.117 155.433 213.109 155.44 213.109 155.455V155.463C212.708 157.764 211.609 160.111 211.498 160.341C211.498 160.341 211.498 160.341 211.498 160.349C211.721 160.141 214.661 157.512 216.748 160.98C218.916 164.596 205.728 197.832 205.728 197.832Z" fill="#FECFB4"/>
<path d="M213.117 155.41V155.418C213.102 155.448 213.095 155.47 213.08 155.5C213.087 155.485 213.095 155.477 213.109 155.462C212.708 157.764 211.609 160.111 211.498 160.341C211.498 160.341 211.498 160.341 211.498 160.348C210.124 162.739 208.847 165.205 207.525 167.625C203.932 174.197 200.338 180.769 196.751 187.333C196.417 187.949 194.509 187.466 194.783 186.82C197.731 180.019 201.37 174.828 204.659 169.021C206.426 165.903 208.09 162.725 209.701 159.517C210.496 157.943 211.298 156.376 212.062 154.787C212.419 154.059 212.768 153.302 213.035 152.522C213.317 153.339 213.295 154.363 213.117 155.41Z" fill="#B36146"/>
<path d="M205.55 153.807C205.067 154.497 204.599 155.203 204.154 155.923C202.29 158.96 200.664 162.153 198.956 165.272C195.362 171.843 191.776 178.415 188.182 184.986C187.847 185.595 185.939 185.113 186.221 184.474C189.162 177.672 192.8 172.474 196.09 166.675C197.857 163.549 199.52 160.371 201.139 157.17C201.926 155.596 202.736 154.022 203.5 152.44C204.25 150.888 204.985 149.188 205.06 147.443C205.06 147.398 205.067 147.361 205.082 147.324C207.332 148.728 205.795 153.131 205.55 153.807Z" fill="#B36146"/>
<path d="M197.53 151.423C197.048 152.121 183.429 176.588 179.835 183.159C179.501 183.768 177.593 183.285 177.875 182.647C180.816 175.845 184.454 170.647 187.744 164.848C189.511 161.722 191.174 158.544 192.785 155.343C193.58 153.769 194.389 152.195 195.154 150.613C195.555 149.767 195.964 148.876 196.253 147.962C197.122 148.393 197.419 149.418 197.515 150.242V150.279C197.515 150.405 197.53 150.502 197.538 150.598C197.545 150.613 197.545 150.628 197.545 150.636C197.575 150.858 197.605 151.059 197.53 151.423Z" fill="#B36146"/>
<path d="M287.037 265.211C288.136 265.137 289.242 265.062 290.341 264.988C291.47 264.914 292.598 264.847 293.727 264.788C303.573 264.29 313.405 264.454 323.221 265.426C328.723 265.976 334.196 266.755 339.654 267.602C343.129 268.144 346.582 268.842 350.042 269.488C349.99 268.931 349.945 268.359 349.893 267.765C345.988 266.763 342.015 265.991 338.072 265.278C327.164 263.317 316.063 262.308 304.977 262.256C301.301 262.241 297.64 262.36 293.972 262.56C292.168 262.649 290.371 262.768 288.566 262.887C288.188 262.909 287.809 262.939 287.43 262.961C287.289 263.704 287.141 264.454 287.037 265.211Z" fill="#FFFCFB"/>
<path d="M286.873 267.639C286.94 269.169 287.46 270.624 288.715 271.567C289.673 272.28 290.809 272.525 291.9 272.184C291.871 272.488 291.841 272.785 291.811 273.09C291.744 273.728 292.732 273.721 292.799 273.09C293.118 270.32 293.43 267.558 293.727 264.788C293.809 264.045 293.89 263.303 293.972 262.56C294.039 261.907 294.113 261.261 294.18 260.607C294.945 253.338 297.551 224.675 296.348 217.681C296.259 217.131 295.338 217.131 295.242 217.681C294.477 222.284 293.623 226.866 292.814 231.462C291.366 239.623 289.962 247.791 288.603 255.974C288.262 258.031 287.913 260.095 287.571 262.152C287.527 262.419 287.482 262.694 287.43 262.961C287.289 263.704 287.141 264.454 287.037 265.211C286.918 266.021 286.844 266.837 286.873 267.639Z" fill="#D74F3C"/>
<path d="M256.545 166.252C257.082 167.895 257.733 169.503 258.394 171.048C259.6 173.883 261.068 176.609 262.833 179.133C263.526 180.125 264.268 181.128 265.083 182.086C265.178 180.286 265.266 178.487 265.361 176.687C265.61 171.766 265.867 166.847 266.116 161.928C266.184 160.552 266.585 157.659 265.53 156.498C264.337 155.179 261.605 156.213 260.446 157.06C259.725 157.589 259.135 158.26 258.645 159.001C257.999 159.99 257.549 161.125 257.241 162.274C256.896 163.581 256.709 164.911 256.545 166.252Z" fill="#F2C0A2"/>
<path d="M256.545 166.252C257.082 167.895 257.733 169.503 258.394 171.048C259.6 173.883 261.068 176.61 262.833 179.133C263.526 180.126 264.268 181.128 265.083 182.087C265.178 180.287 265.266 178.487 265.361 176.687C264.2 174.647 263.195 172.526 262.264 170.368C260.678 166.682 259.161 162.92 258.644 159C257.999 159.99 257.548 161.124 257.24 162.273C256.896 163.581 256.709 164.911 256.545 166.252Z" fill="#B36146"/>
<path d="M324.18 340.817C322.962 343.075 320.378 344.226 317.883 343.624C310.472 341.835 293.253 334.209 273.805 297.95C247.638 249.135 245.24 242.133 245.24 242.133C245.24 242.133 229.653 231.596 229.639 215.498C229.639 209.914 229.832 204.278 230.73 198.753C230.931 197.52 231.161 196.28 231.495 195.07C231.569 194.788 231.71 194.246 231.77 193.919C230.062 191.662 221.084 176.521 218.426 170.343C217.877 169.073 217.401 167.477 218.3 166.43C218.812 165.836 219.659 165.621 220.438 165.732C221.211 165.843 221.916 166.244 222.525 166.727C223.713 167.648 231.837 179.194 234.68 183.011C234.651 182.922 234.621 182.84 234.591 182.751C233.195 178.719 231.807 174.68 230.418 170.648C228.681 165.621 226.936 160.549 226.089 155.292C225.777 153.294 225.206 149.025 227.114 147.413C227.374 147.191 227.678 147.027 228.035 146.916C231.636 145.824 233.879 149.797 233.997 150.005C233.997 149.997 233.99 149.983 233.99 149.975C233.99 149.96 233.982 149.938 233.975 149.923C233.968 149.893 233.953 149.864 233.945 149.834C233.7 149.017 232.75 145.631 234.094 143.998C234.265 143.79 234.473 143.611 234.725 143.47C234.963 143.337 235.23 143.24 235.542 143.173C239.255 142.461 241.037 145.297 241.727 146.886C241.928 147.354 242.039 147.71 242.076 147.844C242.076 147.859 242.084 147.881 242.091 147.896C242.091 147.896 242.069 147.569 242.106 147.109C242.113 147.101 242.113 147.087 242.121 147.072C242.121 146.975 242.136 146.864 242.158 146.752V146.715C242.269 146.047 242.514 145.245 243.094 144.77C243.22 144.658 243.361 144.562 243.517 144.495C244.103 144.228 244.928 144.228 246.086 144.733C250.393 146.597 264.011 175.445 265.333 181.363C266.647 187.296 267.367 224.817 267.367 224.817C267.367 224.817 305.111 258.662 321.603 295.203C329.37 312.43 331.598 327.207 324.18 340.817Z" fill="#FECFB4"/>
<path d="M234.591 182.751C233.195 178.719 231.807 174.679 230.418 170.647C228.681 165.62 226.936 160.549 226.089 155.292C225.777 153.294 225.205 149.024 227.114 147.413C227.381 159.39 231.547 170.937 235.698 182.046C235.958 182.729 235.074 183.115 234.591 182.751Z" fill="#B36146"/>
<path d="M245.425 178.719C243.606 175.779 242.522 172.482 241.341 169.252C240.093 165.828 238.668 162.487 237.257 159.138C235.876 155.878 235.148 153.309 233.99 149.975C233.99 149.96 233.982 149.938 233.975 149.923C233.967 149.893 233.953 149.864 233.945 149.834C233.7 149.017 232.75 145.631 234.094 143.998C234.68 146.203 235.505 148.349 236.232 150.487C237.272 153.524 238.349 156.554 239.47 159.561C241.764 165.732 244.229 171.843 246.866 177.88C247.281 178.838 246.004 179.655 245.425 178.719Z" fill="#B36146"/>
<path d="M253.86 177.241C252.026 174.301 250.942 171.011 249.746 167.781C248.491 164.365 247.051 161.024 245.625 157.682C244.237 154.415 243.271 151.245 242.091 147.896C242.091 147.896 242.068 147.569 242.105 147.109C242.113 147.101 242.113 147.086 242.12 147.071C242.12 146.975 242.135 146.864 242.157 146.752V146.715C242.269 146.047 242.514 145.245 243.093 144.77C243.561 146.21 244.088 147.621 244.578 149.039C245.625 152.076 246.717 155.091 247.845 158.098C250.155 164.269 252.642 170.365 255.293 176.395C255.716 177.353 254.439 178.169 253.86 177.241Z" fill="#B36146"/>
<path d="M133.53 138.432L215.376 145.66L141.81 113.549L133.53 138.432Z" fill="#FFFCFB"/>
<path d="M71.3167 32.7603C32.0255 32.7603 0.173096 64.6126 0.173096 103.904C0.173096 143.195 32.0255 175.047 71.3167 175.047C110.608 175.047 142.46 143.195 142.46 103.904C142.46 64.6126 110.609 32.7603 71.3167 32.7603ZM71.3167 169.228C35.2392 169.228 5.99245 139.981 5.99245 103.904C5.99245 67.8264 35.2392 38.5796 71.3167 38.5796C107.394 38.5796 136.641 67.8264 136.641 103.904C136.641 139.981 107.395 169.228 71.3167 169.228Z" fill="#FFFCFB"/>
<path d="M71.3167 169.228C107.394 169.228 136.641 139.981 136.641 103.904C136.641 67.8262 107.394 38.5796 71.3167 38.5796C35.2391 38.5796 5.99243 67.8262 5.99243 103.904C5.99243 139.981 35.2391 169.228 71.3167 169.228Z" fill="#FFC130"/>
<path d="M84.5357 84.5353C84.5357 84.5353 76.3899 92.3989 70.6278 92.3989C64.873 92.3989 56.7272 84.5353 56.7272 84.5353C57.4401 77.1395 53.0071 66.0161 53.0071 66.0161H88.2484C88.2484 66.0161 83.8228 77.1402 84.5357 84.5353Z" fill="#C3C3C3"/>
<path d="M77.8452 134.213C77.6373 134.614 77.5185 135.081 77.5185 135.638C77.5185 136.321 77.7041 136.871 78.0011 137.339C79.1521 139.158 81.9738 139.707 81.9738 142.395C81.9738 145.262 78.7882 145.7 77.8006 147.809C77.6224 148.195 77.5185 148.64 77.5185 149.16C77.5185 149.888 77.7264 150.452 78.0457 150.935C79.2263 152.695 81.9738 153.266 81.9738 155.925H59.2815C59.2815 153.266 62.0289 152.695 63.2096 150.935C63.5289 150.452 63.7368 149.888 63.7368 149.16C63.7368 148.64 63.6328 148.195 63.4546 147.809C62.467 145.7 59.2815 145.262 59.2815 142.395C59.2815 139.707 62.1032 139.158 63.2541 137.339C63.5511 136.871 63.7368 136.321 63.7368 135.638C63.7368 135.081 63.618 134.614 63.4101 134.213C62.3853 132.171 59.2815 131.703 59.2815 128.874C59.2815 126.148 62.1849 125.621 63.3061 123.743C63.5734 123.297 63.7368 122.77 63.7368 122.116C63.7368 121.522 63.6031 121.032 63.3729 120.616C62.3111 118.634 59.2815 118.144 59.2815 115.359C59.2815 111.981 63.7368 111.981 63.7368 108.602H77.5185C77.5185 111.981 81.9738 111.981 81.9738 115.359C81.9738 118.144 78.9442 118.634 77.8823 120.616C77.6521 121.032 77.5185 121.522 77.5185 122.116C77.5185 122.77 77.6818 123.297 77.9492 123.743C79.0704 125.621 81.9738 126.148 81.9738 128.874C81.9738 131.702 78.8699 132.171 77.8452 134.213Z" fill="#EBEBEB"/>
<path d="M88.252 66.0162C88.252 66.0162 83.3957 75.8401 70.6313 75.8401C57.8743 75.8401 53.0107 66.0162 53.0107 66.0162C53.0107 66.0162 51.8968 60.0461 53.0107 55.5908C54.1245 51.1355 59.2926 51.6405 64.1489 52.3459C69.0126 53.0587 67.3938 61.4644 70.6313 61.4644C73.8763 61.4644 72.2501 53.0587 77.1138 52.3459C81.9775 51.6405 87.1382 51.1355 88.252 55.5908C89.3658 60.0461 88.252 66.0162 88.252 66.0162Z" fill="#FFFCFB"/>
<path d="M63.3542 123.79C63.6216 123.344 63.7849 122.817 63.7849 122.164C63.7849 121.569 63.6513 121.079 63.4211 120.664H77.9305C77.7003 121.079 77.5666 121.569 77.5666 122.164C77.5666 122.817 77.73 123.344 77.9973 123.79H63.3542Z" fill="#C3C3C3"/>
<path d="M63.3025 137.386C63.5995 136.918 63.7851 136.369 63.7851 135.685C63.7851 135.129 63.6663 134.661 63.4584 134.26H77.8936C77.6856 134.661 77.5668 135.129 77.5668 135.685C77.5668 136.369 77.7525 136.918 78.0495 137.386H63.3025Z" fill="#C3C3C3"/>
<path d="M63.2095 150.935C63.5288 150.452 63.7367 149.888 63.7367 149.16C63.7367 148.64 63.6327 148.195 63.4545 147.809H77.8005C77.6223 148.195 77.5184 148.64 77.5184 149.16C77.5184 149.888 77.7263 150.452 78.0456 150.935H63.2095Z" fill="#C3C3C3"/>
<path d="M110.482 117.503C110.303 117.949 110.066 118.365 109.799 118.758C108.692 120.355 106.984 121.587 105.908 123.243C105.224 124.305 104.816 125.516 104.177 126.6C103.064 128.501 101.244 129.956 99.1652 130.676C98.6603 130.847 98.1331 130.973 97.6059 131.055C97.0712 131.137 96.5366 131.174 95.9945 131.211C94.0639 131.345 92.6085 132.384 90.5145 131.998C88.5765 131.634 86.735 130.513 85.7102 128.798C84.9528 127.543 84.5964 126.05 83.6682 124.907C82.3836 123.318 80.2154 122.694 78.1659 122.679C76.3987 122.664 74.5274 123.021 72.9384 122.241C72.2255 121.892 71.6241 121.335 70.8964 121.001C69.5895 120.399 68.0598 120.607 66.6416 120.897C64.8966 121.253 63.1293 121.729 61.6517 122.724C59.7953 123.979 58.4141 126.028 56.2682 126.659C55.3029 126.934 54.2707 126.897 53.3128 127.194C51.6941 127.691 50.5209 129.065 49.4887 130.409C49.11 130.906 48.7165 131.426 48.1447 131.686C47.6546 131.901 47.1051 131.894 46.5705 131.894C44.0681 131.857 41.187 131.649 39.7019 129.629C39.4272 129.258 39.2193 128.842 38.9965 128.434C38.8628 128.174 38.7143 127.914 38.551 127.676C37.1476 125.649 34.2071 125.3 32.7145 123.377C31.1775 121.409 31.8977 118.602 32.0537 116.115C32.2913 112.328 31.0438 108.4 32.2319 104.798C33.1081 102.118 35.1872 100.054 36.6946 97.6626C36.9768 97.2171 37.2367 96.7641 37.4669 96.2963C38.3134 94.5513 38.7143 92.5984 39.7688 90.9722C39.843 90.8534 39.9247 90.7346 40.0138 90.6232C41.5806 88.4624 44.0978 87.1778 46.1398 85.4328C48.2635 83.6284 49.9194 81.2894 52.2287 79.73C54.5306 78.1707 57.9092 77.6063 59.9512 79.4998C60.471 79.9825 60.8646 80.5914 61.4289 81.0146C63.0773 82.2473 65.7431 81.6607 67.0723 83.22C68.1787 84.512 68.5871 87.2595 70.4731 87.7124C71.9954 88.0689 71.5647 87.059 72.3072 85.9303C72.9161 85.0021 73.8517 84.2819 74.921 83.97C75.5522 83.7918 76.2056 83.7398 76.8219 83.5245C78.5818 82.9007 79.5768 81.0963 80.9431 79.8117C84.3068 76.6485 90.4774 77.3242 93.0763 81.1483C93.4847 81.7498 93.8411 82.4329 94.4723 82.7893C95.1109 83.1532 95.8906 83.1012 96.6034 83.2646C97.8806 83.5616 98.9424 84.6234 99.232 85.9006C99.4399 86.8065 99.2914 87.7941 99.6553 88.648C100.635 90.9722 104.549 90.846 105.425 93.2073C106.175 95.2196 104.103 97.5883 105.113 99.4744C105.573 100.351 106.561 100.796 107.237 101.509C108.046 102.378 108.365 103.573 108.662 104.717C108.863 105.504 109.063 106.291 109.271 107.078C109.576 108.296 109.895 109.506 110.207 110.717C110.779 112.952 111.343 115.365 110.482 117.503Z" fill="#F5604A"/>
<path d="M99.165 130.676C98.6601 130.847 98.1329 130.973 97.6057 131.055C97.0711 131.137 96.5364 131.174 95.9944 131.211C94.0637 131.345 92.6083 132.384 90.5144 131.998C88.5763 131.634 86.7348 130.513 85.7101 128.798C84.9527 127.543 84.5962 126.05 83.6681 124.907C82.3834 123.318 80.2152 122.694 78.1658 122.679C76.3985 122.664 74.5273 123.021 72.9382 122.241C72.2254 121.892 71.6239 121.335 70.8962 121.001C69.5893 120.399 68.0597 120.607 66.6414 120.897C64.8964 121.253 63.1292 121.729 61.6515 122.724C59.7951 123.979 58.414 126.028 56.268 126.659C55.3027 126.934 54.2706 126.897 53.3127 127.194C51.6939 127.691 50.5207 129.065 49.4885 130.409C49.1098 130.906 48.7163 131.426 48.1445 131.686C47.6545 131.902 47.105 131.894 46.5703 131.894C44.0679 131.857 41.1869 131.649 39.7018 129.629C39.427 129.258 39.2191 128.842 38.9963 128.434C40.4814 127.907 41.8106 126.912 42.917 125.775C43.6076 125.063 44.4169 124.216 45.4045 124.357C45.761 124.409 46.0877 124.587 46.4218 124.721C48.2188 125.434 50.3054 124.647 51.783 123.399C53.2533 122.152 54.3003 120.489 55.5626 119.018C57.4264 116.85 59.7803 115.105 62.4015 113.954C63.0326 113.679 63.7381 113.427 64.4063 113.613C65.0152 113.776 65.4682 114.266 65.988 114.622C67.5176 115.677 69.5819 115.558 71.3789 115.075C73.1833 114.593 74.906 113.791 76.7624 113.598C78.6187 113.405 80.735 113.999 81.6186 115.64C82.3537 117.021 82.1087 118.877 83.1928 119.998C84.7447 121.625 87.6555 120.459 89.601 121.58C91.0416 122.412 91.5168 124.209 92.2816 125.686C93.5291 128.1 95.8607 129.926 98.5042 130.55C98.7195 130.602 98.9423 130.647 99.165 130.676Z" fill="#D74F3C"/>
<path d="M50.1037 87.2377C49.8312 88.4488 50.0666 89.7669 50.7423 90.8079C51.0244 91.243 51.3853 91.6351 51.8308 91.9017C52.664 92.3992 53.7377 92.4044 54.634 92.0324C55.5302 91.6604 56.2557 90.946 56.7658 90.121C57.368 89.1468 57.6948 87.9803 57.5485 86.8442C57.4022 85.7088 56.7502 84.6202 55.7485 84.0648C53.3694 82.7461 50.6264 84.915 50.1037 87.2377Z" fill="#FF725A"/>
<path d="M98.5088 97.6805C98.7813 98.8916 98.5459 100.21 97.8702 101.251C97.588 101.686 97.2271 102.078 96.7816 102.344C95.9485 102.841 94.8748 102.846 93.9785 102.474C93.0822 102.102 92.3568 101.388 91.8466 100.563C91.2444 99.5896 90.9177 98.4223 91.064 97.2862C91.2103 96.1508 91.8622 95.0623 92.8632 94.5068C95.2431 93.1888 97.986 95.3578 98.5088 97.6805Z" fill="#FF725A"/>
<path d="M43.9545 116.169C43.682 117.38 43.9174 118.697 44.5931 119.739C44.8753 120.174 45.2361 120.566 45.6817 120.833C46.5148 121.33 47.5885 121.335 48.4848 120.963C49.3811 120.591 50.1065 119.877 50.6167 119.052C51.2189 118.079 51.5456 116.911 51.3993 115.775C51.253 114.64 50.6011 113.551 49.5994 112.996C47.2202 111.676 44.4773 113.845 43.9545 116.169Z" fill="#FF725A"/>
<path d="M101.647 122.074C101.92 123.285 101.685 124.602 101.009 125.644C100.727 126.079 100.366 126.471 99.9203 126.738C99.0871 127.235 98.0134 127.24 97.1172 126.868C96.2209 126.496 95.4954 125.782 94.9853 124.957C94.3831 123.983 94.0564 122.816 94.2027 121.68C94.3489 120.544 95.0009 119.456 96.0026 118.901C98.3817 117.582 101.125 119.751 101.647 122.074Z" fill="#FF725A"/>
<path d="M110.482 117.504C110.304 117.949 110.066 118.365 109.799 118.758C109.041 118.84 108.247 118.714 107.541 118.424C106.309 117.912 105.314 116.932 104.608 115.796C103.784 114.452 103.331 112.848 103.532 111.288C103.732 109.729 104.631 108.229 106.012 107.472C107.088 106.87 108.217 106.796 109.271 107.078C109.576 108.296 109.895 109.506 110.207 110.717C110.779 112.952 111.343 115.365 110.482 117.504Z" fill="#FF725A"/>
<path d="M69.4878 108.654C69.9994 109.785 70.9811 110.695 72.1484 111.119C72.6362 111.297 73.1597 111.393 73.6758 111.337C74.6404 111.232 75.501 110.589 75.9925 109.753C76.4841 108.917 76.6326 107.909 76.5435 106.943C76.4381 105.803 75.9955 104.675 75.1951 103.856C74.3946 103.037 73.2184 102.561 72.0845 102.721C69.3898 103.101 68.5062 106.484 69.4878 108.654Z" fill="#FF725A"/>
<path d="M93.7906 114.057C94.1685 114.893 94.894 115.565 95.7561 115.878C96.1162 116.009 96.5038 116.08 96.8848 116.038C97.5976 115.961 98.2332 115.486 98.5963 114.868C98.9594 114.25 99.0693 113.506 99.0033 112.792C98.9253 111.949 98.5978 111.116 98.0068 110.511C97.415 109.906 96.5462 109.555 95.7086 109.673C93.7178 109.953 93.0651 112.453 93.7906 114.057Z" fill="#FF725A"/>
<path d="M43.8156 94.5887C43.6745 95.7248 43.0656 96.7718 42.2414 97.5663C41.536 98.242 40.6598 98.7544 39.6945 98.888C38.7366 99.0217 37.697 98.7544 37.0139 98.0638C36.8951 97.9376 36.7837 97.8039 36.6946 97.6628C36.9767 97.2173 37.2366 96.7643 37.4668 96.2965C38.3133 94.5515 38.7143 92.5986 39.7687 90.9725C39.843 90.8536 39.9247 90.7348 40.0138 90.6235C40.9791 90.4749 41.9667 90.6977 42.7612 91.4477C43.5929 92.2348 43.9567 93.4526 43.8156 94.5887Z" fill="#FF725A"/>
<path d="M46.9075 105.269C46.7575 105.936 46.8874 106.662 47.2594 107.237C47.4154 107.477 47.6144 107.693 47.8594 107.84C48.3183 108.114 48.9109 108.117 49.4047 107.912C49.8984 107.707 50.2987 107.314 50.5801 106.858C50.912 106.321 51.0917 105.678 51.0115 105.052C50.9313 104.426 50.5719 103.826 50.0195 103.52C48.7081 102.792 47.1956 103.988 46.9075 105.269Z" fill="#FF725A"/>
<path d="M79.9323 100.665C80.0341 101.342 80.418 101.972 80.9726 102.373C81.2043 102.54 81.4679 102.67 81.7501 102.718C82.2773 102.807 82.8305 102.595 83.2166 102.225C83.6028 101.855 83.8337 101.343 83.931 100.817C84.0461 100.197 83.9807 99.532 83.6792 98.9773C83.3778 98.4226 82.8253 97.9934 82.2001 97.908C80.715 97.7053 79.7378 99.3671 79.9323 100.665Z" fill="#FF725A"/>
<path d="M89.0156 110.001C89.1173 110.678 89.5012 111.308 90.0559 111.708C90.2876 111.875 90.5512 112.005 90.8334 112.052C91.3606 112.142 91.9138 111.93 92.2999 111.56C92.686 111.19 92.9169 110.678 93.0142 110.152C93.1293 109.532 93.0647 108.867 92.7625 108.312C92.461 107.758 91.9086 107.328 91.2833 107.243C89.7982 107.04 88.821 108.702 89.0156 110.001Z" fill="#FF725A"/>
<path d="M37.2915 105.269C37.1415 105.936 37.2714 106.662 37.6435 107.237C37.7994 107.477 37.9977 107.693 38.2434 107.84C38.7023 108.114 39.2949 108.117 39.7887 107.912C40.2825 107.707 40.6827 107.314 40.9641 106.858C41.2961 106.321 41.4758 105.678 41.3956 105.052C41.3154 104.426 40.9552 103.826 40.4035 103.52C39.0922 102.792 37.5796 103.988 37.2915 105.269Z" fill="#FF725A"/>
<path d="M56.7056 99.204C56.5557 99.8871 56.5274 100.647 56.8972 101.241C57.3747 102.006 58.3652 102.272 59.2667 102.307C59.6922 102.323 60.1243 102.303 60.5327 102.182C61.6065 101.863 62.3802 100.882 62.7448 99.8233C62.9579 99.204 63.0559 98.535 62.9423 97.8897C62.8294 97.2444 62.4908 96.6266 61.9577 96.2472C61.3533 95.8165 60.5446 95.7281 59.8281 95.9197C58.1209 96.3749 57.0777 97.5095 56.7056 99.204Z" fill="#FF725A"/>
<path d="M82.2744 88.1166C82.4244 88.7997 82.4534 89.5594 82.0829 90.1534C81.6054 90.919 80.6149 91.1848 79.7134 91.2197C79.2879 91.236 78.8558 91.2152 78.4481 91.0942C77.3744 90.7756 76.6006 89.7947 76.236 88.7359C76.0229 88.1166 75.9249 87.4475 76.0385 86.8023C76.1521 86.157 76.49 85.5392 77.0231 85.1598C77.6276 84.7291 78.4362 84.6407 79.1528 84.8323C80.8592 85.2875 81.9017 86.4221 82.2744 88.1166Z" fill="#FF725A"/>
<path d="M34.6444 117.508C34.4944 118.191 34.4662 118.95 34.8359 119.545C35.3134 120.31 36.304 120.576 37.2054 120.611C37.6309 120.627 38.0631 120.606 38.4707 120.485C39.5444 120.167 40.3182 119.185 40.6828 118.127C40.8959 117.508 40.9939 116.839 40.8803 116.193C40.7667 115.548 40.4288 114.93 39.8957 114.551C39.2912 114.12 38.4826 114.032 37.766 114.223C36.0597 114.679 35.0164 115.813 34.6444 117.508Z" fill="#FF725A"/>
<path d="M103.875 88.4251C103.641 88.4251 103.403 88.3509 103.202 88.1979C102.712 87.8259 102.617 87.1272 102.989 86.6371L109.626 77.9092C109.874 77.5832 110.283 77.4206 110.688 77.4829C111.093 77.5475 111.431 77.8297 111.565 78.2173L113.068 82.5442L118.411 76.3416C118.813 75.8753 119.516 75.8241 119.982 76.2251C120.447 76.6268 120.5 77.33 120.098 77.7956L113.493 85.4624C113.234 85.7638 112.831 85.9027 112.441 85.8299C112.05 85.7549 111.728 85.4772 111.598 85.1015L110.142 80.9105L104.763 87.9848C104.543 88.2729 104.212 88.4251 103.875 88.4251Z" fill="#FFFCFB"/>
<path d="M120.704 100.193C120.519 100.193 120.333 100.146 120.164 100.053C119.816 99.86 119.597 99.4954 119.59 99.0974L119.517 94.6622L112.197 99.7033C111.69 100.053 110.997 99.9246 110.648 99.4174C110.299 98.911 110.427 98.2175 110.934 97.8685L119.965 91.6489C120.303 91.415 120.741 91.3883 121.106 91.5761C121.471 91.764 121.703 92.1375 121.71 92.5481L121.786 97.1274L128.799 92.9038C129.327 92.5867 130.011 92.7575 130.328 93.2832C130.645 93.8105 130.475 94.4943 129.948 94.8122L121.28 100.033C121.102 100.139 120.903 100.193 120.704 100.193Z" fill="#FFFCFB"/>
<path d="M37.3873 88.4254C37.0509 88.4254 36.719 88.274 36.4999 87.9858L31.1202 80.9108L29.6648 85.1018C29.5341 85.4775 29.2126 85.756 28.8212 85.8302C28.4321 85.9037 28.0289 85.7649 27.7691 85.4627L21.1641 77.7959C20.7624 77.3295 20.8151 76.6263 21.2807 76.2254C21.7462 75.8236 22.4494 75.8756 22.8512 76.3419L28.1945 82.5445L29.6967 78.2176C29.8311 77.83 30.1682 77.5478 30.5737 77.4832C30.9791 77.4209 31.3867 77.5827 31.6355 77.9095L38.2724 86.6374C38.6452 87.1267 38.5501 87.8255 38.06 88.1982C37.8595 88.3512 37.6219 88.4254 37.3873 88.4254Z" fill="#FFFCFB"/>
<path d="M20.5582 100.193C20.3592 100.193 20.1602 100.139 19.9835 100.033L11.3149 94.8122C10.7885 94.4943 10.6184 93.8097 10.9355 93.2832C11.2533 92.756 11.9365 92.5867 12.4644 92.9038L19.477 97.1274L19.5535 92.5481C19.5602 92.1375 19.7926 91.764 20.1572 91.5761C20.5225 91.3883 20.9606 91.415 21.2985 91.6489L30.3286 97.8685C30.8358 98.2175 30.9628 98.911 30.6145 99.4174C30.2655 99.9253 29.5735 100.054 29.0656 99.7033L21.7463 94.6622L21.6727 99.0974C21.6661 99.4961 21.447 99.86 21.0988 100.053C20.9302 100.147 20.7438 100.193 20.5582 100.193Z" fill="#FFFCFB"/>
</svg>
