<svg width="250" height="250" viewBox="0 0 250 250" fill="none" xmlns="http://www.w3.org/2000/svg">
<path d="M135.02 5.61858C135.02 2.51533 130.592 0 125.131 0C119.67 0 115.242 2.51533 115.242 5.61858C115.242 7.86847 117.572 9.80819 120.937 10.7032C122.295 11.0643 123.207 12.3575 123.081 13.7756L122.664 18.4945C122.553 19.7491 121.651 20.783 120.44 21.0685C118.131 21.6132 116.607 22.5483 116.607 23.6115C116.607 24.5482 117.789 25.3831 119.647 25.9417C120.972 26.3398 121.858 27.6052 121.735 29.0002L120.542 56.1826H129.482L128.296 29.0696C128.174 27.6916 129.018 26.3846 130.335 26.0204C132.353 25.4633 133.654 24.593 133.654 23.61C133.654 22.5144 132.036 21.5546 129.609 21.0191C128.383 20.7475 127.467 19.7043 127.355 18.439L126.946 13.8327C126.82 12.4007 127.749 11.0983 129.126 10.7526C132.597 9.88072 135.02 7.91322 135.02 5.61858Z" fill="#ADBF53"/>
<path d="M96.4958 30.6406C95.8546 28.8536 92.7842 28.3459 89.6392 29.5048C86.4943 30.6652 84.4656 33.0525 85.1083 34.8395C85.5744 36.1357 87.3167 36.7576 89.4397 36.5585C90.2972 36.4782 91.0891 37.0292 91.31 37.8717L92.0456 40.6771C92.2405 41.4225 91.9359 42.2095 91.2978 42.6323C90.0809 43.4363 89.3971 44.2989 89.6164 44.91C89.8098 45.4485 90.6627 45.68 91.8491 45.6075C92.6944 45.555 93.4665 46.0951 93.6843 46.9253L98.6203 62.8304L103.768 60.9324L97.4766 45.572C97.1217 44.805 97.3364 43.873 98.0203 43.3838C99.0666 42.6354 99.6362 41.8561 99.4336 41.2913C99.2067 40.6602 98.0766 40.4518 96.5689 40.6586C95.8074 40.762 95.0641 40.3561 94.7367 39.6509L93.5488 37.0847C93.1802 36.2869 93.4452 35.3394 94.1671 34.8487C95.9825 33.6095 96.9709 31.9615 96.4958 30.6406Z" fill="#ADBF53"/>
<path d="M41.1805 72.0429C39.5555 71.0923 36.8811 72.7018 35.2089 75.6384C33.5351 78.575 33.497 81.7261 35.1221 82.6767C36.3009 83.3665 38.031 82.7076 39.5296 81.1721C40.1358 80.5518 41.0922 80.4577 41.7958 80.9592L44.1397 82.6289C44.7626 83.0733 45.0276 83.8742 44.8068 84.6133C44.3849 86.0222 44.4078 87.1271 44.9636 87.4527C45.4541 87.7397 46.2536 87.3601 47.1156 86.533C47.7294 85.9435 48.6645 85.854 49.3575 86.3478L63.2289 95.3181L65.9688 90.5112L51.4044 82.8418C50.6459 82.4853 50.2195 81.6304 50.4327 80.811C50.7602 79.5549 50.7023 78.5889 50.1875 78.288C49.6133 77.9531 48.6158 78.5287 47.5908 79.6691C47.073 80.2447 46.246 80.4175 45.5485 80.0904L43.0112 78.8975C42.2223 78.5272 41.8248 77.6275 42.0654 76.7819C42.6715 74.6524 42.3822 72.7466 41.1805 72.0429Z" fill="#ADBF53"/>
<path d="M25.0733 139.785C23.2259 140.115 22.1979 143.091 22.7796 146.428C23.3614 149.768 25.3291 152.207 27.178 151.877C28.5183 151.638 29.4245 150.007 29.6011 147.854C29.6727 146.985 30.3443 146.29 31.2018 146.215L34.0574 145.969C34.8159 145.902 35.5286 146.344 35.8271 147.055C36.3967 148.408 37.1171 149.242 37.7491 149.127C38.3066 149.027 38.6797 148.217 38.8137 147.021C38.9097 146.169 39.5691 145.492 40.4129 145.419L56.7302 143.256L55.7783 137.79L39.7564 141.401C38.9493 141.622 38.0796 141.245 37.7233 140.478C37.1765 139.304 36.5201 138.6 35.9353 138.705C35.2834 138.822 34.8829 139.913 34.8219 141.453C34.7915 142.231 34.2676 142.902 33.5244 143.106L30.8241 143.845C29.9849 144.075 29.1107 143.645 28.7574 142.841C27.8695 140.813 26.4394 139.541 25.0733 139.785Z" fill="#ADBF53"/>
<path d="M55.7098 202.17C54.5036 203.626 55.6047 206.574 58.1679 208.753C60.7311 210.932 63.7878 211.518 64.994 210.061C65.8682 209.004 65.5286 207.165 64.298 205.401C63.8015 204.69 63.8746 203.719 64.4853 203.103L66.5155 201.055C67.0546 200.511 67.88 200.386 68.5593 200.735C69.8554 201.4 70.9337 201.569 71.3464 201.071C71.7104 200.631 71.4804 199.767 70.8255 198.764C70.358 198.048 70.4341 197.1 71.0342 196.496L82.1612 184.212L77.9638 180.644L67.9806 193.846C67.5024 194.542 66.5977 194.818 65.8377 194.463C64.6741 193.918 63.7238 193.809 63.3431 194.27C62.9166 194.784 63.3035 195.881 64.234 197.1C64.7046 197.718 64.729 198.573 64.2888 199.211L62.6897 201.537C62.1932 202.259 61.2489 202.5 60.4692 202.113C58.503 201.136 56.6008 201.093 55.7098 202.17Z" fill="#ADBF53"/>
<path d="M118.754 230.006C118.754 231.907 121.467 233.449 124.813 233.449C128.159 233.449 130.871 231.907 130.871 230.006C130.871 228.627 129.443 227.438 127.382 226.891C126.549 226.668 125.99 225.877 126.068 225.008L126.323 222.116C126.392 221.348 126.945 220.713 127.687 220.539C129.101 220.206 130.035 219.632 130.035 218.981C130.035 218.406 129.312 217.894 128.172 217.552C127.361 217.308 126.817 216.532 126.893 215.678L127.624 199.022H122.146L122.874 215.635C122.948 216.479 122.432 217.28 121.625 217.504C120.388 217.845 119.59 218.379 119.59 218.981C119.59 219.652 120.582 220.24 122.068 220.568C122.819 220.735 123.381 221.374 123.45 222.15L123.699 224.973C123.777 225.849 123.207 226.648 122.364 226.86C120.239 227.394 118.754 228.6 118.754 230.006Z" fill="#ADBF53"/>
<path d="M184.709 210.27C185.915 211.726 188.972 211.14 191.535 208.961C194.098 206.782 195.199 203.835 193.993 202.378C193.119 201.321 191.27 201.341 189.343 202.264C188.565 202.636 187.635 202.393 187.143 201.677L185.504 199.296C185.068 198.664 185.09 197.818 185.547 197.201C186.419 196.023 186.771 194.977 186.357 194.477C185.993 194.037 185.114 194.116 184.024 194.596C183.247 194.938 182.339 194.698 181.855 193.994L171.847 180.759L167.65 184.326L178.746 196.579C179.339 197.178 179.452 198.128 178.975 198.824C178.244 199.89 177.973 200.819 178.354 201.281C178.78 201.795 179.912 201.6 181.259 200.883C181.94 200.52 182.776 200.645 183.32 201.194L185.301 203.194C185.917 203.816 185.988 204.799 185.475 205.51C184.19 207.302 183.818 209.192 184.709 210.27Z" fill="#ADBF53"/>
<path d="M222.712 152.195C224.56 152.525 226.529 150.086 227.111 146.746C227.692 143.407 226.664 140.433 224.817 140.103C223.477 139.864 222.074 141.083 221.183 143.044C220.824 143.837 219.957 144.257 219.126 144.029L216.36 143.271C215.624 143.071 215.105 142.409 215.064 141.637C214.985 140.168 214.59 139.136 213.957 139.023C213.399 138.923 212.775 139.557 212.245 140.634C211.867 141.401 211.019 141.808 210.201 141.584L194.138 137.963L193.186 143.43L209.461 145.589C210.294 145.661 210.984 146.316 211.06 147.16C211.177 148.453 211.558 149.342 212.143 149.447C212.794 149.564 213.539 148.677 214.116 147.249C214.409 146.529 215.128 146.08 215.894 146.146L218.681 146.387C219.547 146.462 220.224 147.169 220.283 148.047C220.431 150.26 221.346 151.95 222.712 152.195Z" fill="#ADBF53"/>
<path d="M214.982 82.9561C216.607 82.0055 216.569 78.8544 214.895 75.9178C213.221 72.9812 210.548 71.3717 208.923 72.3223C207.744 73.012 207.443 74.8592 208.005 76.9424C208.232 77.7835 207.834 78.6707 207.053 79.0365L204.453 80.2571C203.762 80.5811 202.944 80.413 202.423 79.8497C201.43 78.7757 200.474 78.2417 199.916 78.5673C199.426 78.8544 199.35 79.7463 199.627 80.916C199.825 81.7508 199.433 82.615 198.664 82.9761L184.062 90.6625L186.802 95.4693L200.638 86.5238C201.322 86.0361 202.266 86.0886 202.86 86.6858C203.769 87.6009 204.625 88.033 205.14 87.7321C205.714 87.3972 205.72 86.2321 205.259 84.7631C205.026 84.0208 205.291 83.2091 205.92 82.7601L208.207 81.1289C208.919 80.6228 209.886 80.7231 210.489 81.3573C212.007 82.9591 213.78 83.6582 214.982 82.9561Z" fill="#ADBF53"/>
<path d="M165.135 34.9505C165.777 33.1636 163.748 30.7748 160.603 29.6159C157.458 28.457 154.389 28.9647 153.748 30.7516C153.282 32.0479 154.223 33.6589 155.975 34.8888C156.683 35.3857 156.94 36.3239 156.575 37.1125L155.358 39.7404C155.035 40.4395 154.301 40.8422 153.545 40.7496C152.103 40.5737 151.032 40.7882 150.812 41.4008C150.618 41.9394 151.125 42.6724 152.08 43.3884C152.761 43.8992 153.009 44.8158 152.65 45.592L146.34 60.991L151.488 62.8891L156.413 47.024C156.628 46.2046 157.385 45.6306 158.218 45.7016C159.496 45.8096 160.425 45.5843 160.627 45.0179C160.854 44.3868 160.12 43.4918 158.835 42.6662C158.184 42.2496 157.874 41.4548 158.07 40.7018L158.788 37.9627C159.01 37.1109 159.816 36.5585 160.679 36.6526C162.858 36.8902 164.66 36.2714 165.135 34.9505Z" fill="#ADBF53"/>
<path d="M54.8175 27.7857C52.8498 25.4093 47.8619 26.3645 43.6783 29.9214C39.4946 33.4784 37.699 38.2883 39.6682 40.6648C41.0968 42.3885 44.1108 42.3561 47.2573 40.8515C48.5275 40.2435 50.0459 40.6401 50.8501 41.8082L53.5229 45.6954C54.2342 46.7293 54.1991 48.1073 53.4529 49.115C52.0304 51.0362 51.4547 52.7444 52.1294 53.5592C52.7233 54.2768 54.1595 54.1472 55.9369 53.3648C57.204 52.8062 58.6859 53.1997 59.4763 54.3478L75.8074 75.9486L82.6563 70.1264L64.5448 50.1288C63.5777 49.152 63.3934 47.6012 64.1732 46.4654C65.3657 44.7248 65.8104 43.2094 65.1875 42.4579C64.493 41.6184 62.6441 41.9379 60.4449 43.1076C59.3347 43.6986 57.9701 43.4964 57.0806 42.5983L53.8458 39.3346C52.8406 38.3207 52.7264 36.7174 53.561 35.5554C55.6658 32.6281 56.2734 29.5434 54.8175 27.7857Z" fill="#ADBF53"/>
<path d="M7.44317 97.0001C4.42764 96.4615 1.21413 100.441 0.265302 105.892C-0.683523 111.34 0.993294 116.195 4.00882 116.734C6.19584 117.124 8.4849 115.135 9.94088 111.935C10.5288 110.641 11.9421 109.956 13.2991 110.328L17.8132 111.564C19.0134 111.893 19.8617 112.973 19.9287 114.231C20.0566 116.629 20.7008 118.312 21.7349 118.498C22.6442 118.66 23.6631 117.626 24.5281 115.87C25.1449 114.617 26.5293 113.953 27.8635 114.317L54.0772 120.229L55.6292 111.308L29.0697 107.785C27.7097 107.668 26.5842 106.598 26.4608 105.222C26.2704 103.112 25.649 101.662 24.6941 101.491C23.6296 101.301 22.4157 102.748 21.473 105.077C20.9963 106.253 19.8236 106.986 18.5732 106.878L14.0256 106.484C12.6122 106.362 11.5065 105.208 11.4106 103.775C11.1654 100.157 9.67283 97.3982 7.44317 97.0001Z" fill="#ADBF53"/>
<path d="M15.0612 180.877C12.4096 182.428 12.4721 187.571 15.2028 192.363C17.9335 197.154 22.2969 199.782 24.9484 198.23C26.872 197.105 27.3639 194.09 26.4471 190.69C26.077 189.317 26.7258 187.871 28.0005 187.272L32.2421 185.278C33.3706 184.749 34.7047 185.024 35.5546 185.943C37.175 187.696 38.7361 188.567 39.6453 188.036C40.4449 187.568 40.5698 186.113 40.1175 184.204C39.7961 182.843 40.4342 181.433 41.6877 180.843L65.5179 168.299L61.048 160.454L38.4681 175.052C37.3517 175.848 35.812 175.762 34.8433 174.788C33.3584 173.296 31.9634 172.589 31.1242 173.08C30.1875 173.628 30.1769 175.527 30.9308 177.925C31.3115 179.137 30.879 180.462 29.8525 181.194L26.1196 183.854C24.9591 184.681 23.3813 184.518 22.3974 183.482C19.915 180.871 17.0213 179.731 15.0612 180.877Z" fill="#ADBF53"/>
<path d="M74.1076 240.168C73.0598 243.083 76.3708 246.981 81.5033 248.874C86.6343 250.766 91.6449 249.937 92.6912 247.021C93.4512 244.907 91.916 242.277 89.0558 240.27C87.9014 239.46 87.481 237.929 88.0765 236.64L90.061 232.35C90.5895 231.21 91.785 230.551 93.0202 230.702C95.3732 230.991 97.1216 230.64 97.481 229.641C97.7963 228.761 96.9693 227.565 95.4113 226.397C94.301 225.564 93.8959 224.067 94.4822 222.8L104.779 197.67L96.3784 194.571L88.3415 220.46C87.9912 221.797 86.7576 222.733 85.3961 222.619C83.3126 222.443 81.7942 222.811 81.4637 223.733C81.0936 224.763 82.2907 226.226 84.3894 227.571C85.4494 228.25 85.958 229.548 85.6367 230.778L84.464 235.248C84.1 236.637 82.7857 237.54 81.3754 237.387C77.8237 237.003 74.8828 238.012 74.1076 240.168Z" fill="#ADBF53"/>
<path d="M156.955 247.132C158.003 250.047 163.012 250.877 168.143 248.985C173.274 247.093 176.585 243.195 175.539 240.279C174.779 238.163 171.934 237.149 168.471 237.473C167.071 237.605 165.78 236.707 165.419 235.33L164.219 230.752C163.899 229.534 164.398 228.25 165.44 227.562C167.426 226.25 168.542 224.843 168.183 223.844C167.868 222.965 166.474 222.588 164.54 222.707C163.16 222.792 161.901 221.911 161.546 220.558L153.491 194.6L145.09 197.699L155.358 222.766C155.938 224.019 155.586 225.539 154.471 226.337C152.763 227.559 151.834 228.829 152.166 229.752C152.536 230.781 154.38 231.122 156.841 230.786C158.084 230.616 159.298 231.278 159.831 232.429L161.768 236.617C162.371 237.918 161.937 239.466 160.76 240.267C157.793 242.286 156.18 244.976 156.955 247.132Z" fill="#ADBF53"/>
<path d="M224.837 198.509C227.488 200.06 231.852 197.434 234.582 192.642C237.313 187.851 237.377 182.708 234.724 181.157C232.801 180.032 229.978 181.107 227.531 183.612C226.543 184.623 224.982 184.777 223.833 183.957L220.009 181.232C218.992 180.507 218.559 179.2 218.922 177.993C219.61 175.695 219.573 173.89 218.664 173.358C217.865 172.89 216.558 173.509 215.152 174.859C214.15 175.822 212.624 175.967 211.494 175.162L188.856 160.523L184.386 168.369L208.154 180.884C209.392 181.465 210.088 182.859 209.741 184.197C209.208 186.246 209.302 187.823 210.141 188.314C211.078 188.862 212.706 187.922 214.378 186.061C215.222 185.121 216.573 184.839 217.711 185.373L221.852 187.318C223.139 187.923 223.787 189.391 223.395 190.77C222.405 194.252 222.877 197.361 224.837 198.509Z" fill="#ADBF53"/>
<path d="M245.991 117.05C249.007 116.512 250.684 111.657 249.735 106.208C248.786 100.759 245.572 96.7779 242.557 97.3164C240.37 97.7068 238.889 100.37 238.603 103.882C238.487 105.301 237.389 106.435 235.99 106.557L231.331 106.959C230.093 107.066 228.931 106.345 228.443 105.188C227.513 102.978 226.34 101.62 225.306 101.805C224.397 101.967 223.789 103.293 223.568 105.244C223.411 106.634 222.335 107.739 220.958 107.858L194.33 111.387L195.882 120.308L222.028 114.414C223.346 114.053 224.764 114.667 225.345 115.919C226.236 117.836 227.31 118.984 228.265 118.812C229.33 118.623 229.981 116.842 230.082 114.326C230.132 113.056 230.988 111.961 232.199 111.629L236.605 110.422C237.974 110.047 239.403 110.748 239.977 112.063C241.427 115.373 243.762 117.448 245.991 117.05Z" fill="#ADBF53"/>
<path d="M210.519 40.8731C212.487 38.4967 210.691 33.6867 206.509 30.1297C202.326 26.5728 197.339 25.6161 195.37 27.9941C193.943 29.7177 194.497 32.7207 196.506 35.5987C197.318 36.7606 197.196 38.3439 196.2 39.3485L192.886 42.6909C192.006 43.5797 190.658 43.7835 189.549 43.214C187.435 42.1277 185.675 41.8514 185 42.6662C184.406 43.3838 184.781 44.7942 185.85 46.4315C186.611 47.5996 186.488 49.1458 185.509 50.1334L167.35 70.1803L174.199 76.0026L190.49 54.4604C191.272 53.3262 192.747 52.8725 193.986 53.4527C195.885 54.3416 197.434 54.5206 198.057 53.7675C198.751 52.9281 198.121 51.1396 196.602 49.1474C195.835 48.1413 195.795 46.7462 196.512 45.7031L199.123 41.9085C199.934 40.7296 201.473 40.3361 202.747 40.9687C205.959 42.5597 209.063 42.6292 210.519 40.8731Z" fill="#ADBF53"/>
<path d="M124.973 204.597C166.541 204.597 200.239 170.453 200.239 128.335C200.239 86.2168 166.541 52.0732 124.973 52.0732C83.4041 52.0732 49.7062 86.2168 49.7062 128.335C49.7062 170.453 83.4041 204.597 124.973 204.597Z" fill="#ADBF53"/>
<path d="M186.407 126.357C186.407 131.698 183.171 136.026 179.178 136.026C175.184 136.026 171.948 131.698 171.948 126.357C171.948 121.018 175.184 116.687 179.178 116.687C183.171 116.687 186.407 121.016 186.407 126.357Z" fill="#7CA566"/>
<path d="M96.6983 74.3916C97.8954 76.3051 97.3577 79.0133 96.0221 81.9391C94.662 84.8772 92.5253 88.0869 89.8936 91.3383C87.2755 94.6005 84.5981 97.3627 82.0288 99.3009C79.4671 101.211 76.9542 102.287 74.8647 101.481C72.8177 100.694 71.6192 98.0078 71.8826 94.1561C72.1278 90.3338 73.9585 85.4142 77.4644 81.0564C80.9764 76.7032 85.3687 73.904 89.0163 72.8963C92.6898 71.8639 95.5286 72.5167 96.6983 74.3916Z" fill="#7CA566"/>
<path d="M92.1034 79.2139C92.8451 80.4006 92.5131 82.0795 91.6846 83.8943C90.8408 85.7167 89.5173 87.7058 87.8847 89.7227C86.2612 91.7457 84.6011 93.4586 83.0081 94.6592C81.4196 95.8443 79.8616 96.5109 78.567 96.011C77.2968 95.5233 76.5551 93.8567 76.7181 91.468C76.8704 89.0977 78.005 86.0469 80.1783 83.3464C82.3562 80.6475 85.0793 78.9115 87.341 78.2865C89.6179 77.6461 91.3769 78.0504 92.1034 79.2139Z" fill="#4D8C84"/>
<path d="M121.528 176.001C121.059 179.594 117.099 182.612 110.454 183.061C107.155 183.305 103.299 182.789 99.2325 181.475C95.2026 180.107 90.9916 177.901 87.1308 174.827C83.2974 171.717 80.2179 168.065 77.9852 164.401C75.7951 160.69 74.4214 157.002 73.9051 153.692C72.8223 147.035 74.8219 142.439 78.1664 141.159C81.6252 139.816 85.7205 141.492 89.9666 143.978C92.0759 145.256 94.3224 146.734 96.5596 148.408C98.8533 150.045 101.168 151.865 103.568 153.825C105.999 155.746 108.275 157.615 110.37 159.505C112.49 161.332 114.421 163.21 116.13 165.002C119.487 168.625 122.03 172.284 121.528 176.001Z" fill="#7CA566"/>
<path d="M164.852 160.772C165.952 161.878 165.965 163.948 164.77 166.35C163.591 168.741 161.153 171.404 157.814 173.331C154.473 175.256 150.969 176.021 148.338 175.827C145.69 175.642 143.94 174.574 143.564 173.051C143.178 171.501 144.138 169.799 145.736 168.148C147.35 166.494 149.595 164.853 152.21 163.352C154.819 161.841 157.358 160.722 159.586 160.161C161.8 159.613 163.734 159.645 164.852 160.772Z" fill="#7CA566"/>
<path d="M176.065 106.407C173.742 107.231 171.022 105.987 168.252 103.923C165.474 101.822 162.577 98.9074 159.682 95.5017C156.768 92.1115 154.334 88.7906 152.68 85.7043C151.058 82.6319 150.233 79.7262 151.371 77.5149C152.475 75.3545 155.551 74.3684 159.712 75.265C163.839 76.1307 168.937 79.0303 173.019 83.8017C177.096 88.5761 179.2 94.1036 179.455 98.3658C179.736 102.667 178.334 105.609 176.065 106.407Z" fill="#7CA566"/>
<path d="M174.481 100.015C172.961 100.554 171.18 99.7406 169.369 98.3904C167.552 97.017 165.656 95.1097 163.763 92.8814C161.858 90.6639 160.265 88.4912 159.182 86.4728C158.121 84.4636 157.581 82.5624 158.325 81.115C159.048 79.7014 161.058 79.0564 163.782 79.6428C166.482 80.2092 169.817 82.1057 172.487 85.2274C175.154 88.3523 176.531 91.9679 176.698 94.7563C176.882 97.5679 175.966 99.4938 174.481 100.015Z" fill="#4D8C84"/>
<path d="M119.391 114.555C132.684 114.555 132.705 93.6237 119.391 93.6237C106.1 93.6222 106.077 114.555 119.391 114.555Z" fill="#7CA566"/>
<path d="M67.5572 121.962C73.139 121.962 73.1481 113.172 67.5572 113.172C61.9754 113.171 61.9663 121.962 67.5572 121.962Z" fill="#7CA566"/>
<path d="M132.621 190.815C138.203 190.815 138.212 182.025 132.621 182.025C127.039 182.025 127.03 190.815 132.621 190.815Z" fill="#7CA566"/>
<path d="M145.056 155.866C158.349 155.866 158.37 134.935 145.056 134.935C131.764 134.935 131.741 155.866 145.056 155.866Z" fill="#7CA566"/>
<path d="M127.705 138.662C133.287 138.662 133.296 129.872 127.705 129.872C122.123 129.872 122.114 138.662 127.705 138.662Z" fill="#7CA566"/>
<path d="M101.389 137.49C99.5691 138.273 97.146 137.287 94.9285 134.677C92.7156 132.096 90.8073 127.858 90.2209 122.903C89.6407 117.948 90.5103 113.374 92.0607 110.337C93.6096 107.273 95.7357 105.737 97.6866 106.063C99.6741 106.392 101.153 108.393 102.26 111.112C103.361 113.853 104.138 117.326 104.584 121.167C105.044 125.006 105.096 128.568 104.662 131.494C104.217 134.4 103.243 136.697 101.389 137.49Z" fill="#7CA566"/>
<path d="M137.243 68.8131C136.908 70.435 135.225 71.5877 132.885 72.3083C130.532 73.0243 127.513 73.3361 124.223 73.1972C120.934 73.0645 117.95 72.5043 115.663 71.5954C113.387 70.685 111.803 69.3964 111.599 67.7515C111.398 66.1234 112.674 64.4368 115.05 63.1714C117.414 61.906 120.879 61.1051 124.705 61.2625C128.529 61.423 131.919 62.5063 134.172 63.963C136.439 65.4213 137.575 67.2083 137.243 68.8131Z" fill="#7CA566"/>
<path d="M133.055 90.9031C138.637 90.9031 138.646 82.1134 133.055 82.1134C127.473 82.1134 127.464 90.9031 133.055 90.9031Z" fill="#7CA566"/>
<path d="M142.164 97.7162C145.513 97.7162 145.519 92.4417 142.164 92.4417C138.815 92.4417 138.809 97.7162 142.164 97.7162Z" fill="#7CA566"/>
<path d="M114.837 89.8044C118.186 89.8044 118.192 84.53 114.837 84.53C111.488 84.5315 111.482 89.8044 114.837 89.8044Z" fill="#7CA566"/>
<path d="M67.7735 138.149C71.1226 138.149 71.1287 132.875 67.7735 132.875C64.4245 132.875 64.4199 138.149 67.7735 138.149Z" fill="#7CA566"/>
<path d="M120.693 191.548C124.042 191.548 124.048 186.274 120.693 186.274C117.344 186.275 117.338 191.548 120.693 191.548Z" fill="#7CA566"/>
<path d="M125.031 162.102C130.612 162.102 130.621 153.312 125.031 153.312C119.449 153.312 119.44 162.102 125.031 162.102Z" fill="#7CA566"/>
<path d="M114.621 148.478C117.97 148.478 117.976 143.203 114.621 143.203C111.272 143.203 111.266 148.478 114.621 148.478Z" fill="#7CA566"/>
<path d="M173.149 160.752C171.73 159.002 173.289 155.334 175.795 151.805C178.341 148.305 181.307 145.675 183.387 146.507C184.395 146.947 184.934 148.296 184.802 150.169C184.677 152.033 183.844 154.4 182.275 156.585C180.705 158.767 178.736 160.298 177.024 160.991C175.304 161.695 173.873 161.59 173.149 160.752Z" fill="#7CA566"/>
<path d="M163.183 131.981C161.684 132.086 160.27 130.886 159.013 129.08C157.758 127.258 156.627 124.829 155.698 122.07C154.759 119.314 154.179 116.694 154.065 114.475C153.961 112.268 154.35 110.441 155.597 109.59C156.823 108.754 158.733 109.124 160.728 110.691C162.716 112.24 164.727 115.021 165.914 118.518C167.096 122.016 167.195 125.462 166.564 127.921C165.941 130.398 164.657 131.88 163.183 131.981Z" fill="#7CA566"/>
<path d="M137.379 126.938C135.423 126.383 134.732 122.733 135.053 118.664C135.405 114.598 136.689 111.117 138.708 110.899C140.694 110.672 142.732 114.436 142.324 119.283C141.928 124.132 139.299 127.499 137.379 126.938Z" fill="#7CA566"/>
<path d="M66.4363 158.832C65.1951 159.837 62.1963 158.093 60.6063 154.464C59.0087 150.839 59.7336 147.414 61.3008 147.151C62.8969 146.865 64.6285 149.181 65.917 152.067C67.1734 154.968 67.7141 157.821 66.4363 158.832Z" fill="#7CA566"/>
<path d="M81.6708 122.142C80.8956 122.28 80.0428 121.676 79.4153 120.462C78.7878 119.258 78.4269 117.437 78.6447 115.461C78.8655 113.484 79.6163 111.791 80.4936 110.759C81.3723 109.714 82.3349 109.319 83.0613 109.628C84.5204 110.314 84.6742 113.11 84.3665 116.113C84.0086 119.11 83.2441 121.801 81.6708 122.142Z" fill="#7CA566"/>
<path d="M109.376 172.308C109.088 174.512 106.659 176.364 102.583 176.638C100.561 176.788 98.1938 176.472 95.6992 175.665C93.2274 174.825 90.6428 173.472 88.2746 171.586C85.9231 169.679 84.0331 167.438 82.6639 165.19C81.3206 162.914 80.4784 160.651 80.1601 158.621C79.4961 154.536 80.7221 151.718 82.7751 150.933C84.8966 150.11 87.4095 151.138 90.0138 152.663C91.3084 153.447 92.6852 154.352 94.0589 155.382C95.4662 156.386 96.8856 157.502 98.3583 158.704C99.8493 159.883 101.244 161.03 102.531 162.188C103.832 163.309 105.017 164.461 106.065 165.56C108.122 167.784 109.683 170.028 109.376 172.308Z" fill="#4D8C84"/>
<path opacity="0.3" d="M86.6252 101.171C86.6252 90.076 89.3635 79.632 94.1792 70.4797C73.8381 81.4699 59.988 103.173 59.988 128.161C59.988 164.245 88.8579 193.497 124.47 193.497C149.132 193.497 170.551 179.464 181.398 158.854C172.365 163.733 162.058 166.508 151.107 166.508C115.495 166.508 86.6252 137.256 86.6252 101.171Z" fill="#456179"/>
</svg>
