<svg width="275" height="285" viewBox="0 0 275 285" fill="none" xmlns="http://www.w3.org/2000/svg">
<path d="M137.684 284.796C213.344 284.796 274.679 249.501 274.679 205.963C274.679 162.425 213.344 127.131 137.684 127.131C62.0232 127.131 0.688385 162.425 0.688385 205.963C0.688385 249.501 62.0232 284.796 137.684 284.796Z" fill="#F5F5F5"/>
<path d="M94.8886 245.666C116.43 245.666 133.892 235.584 133.892 223.147C133.892 210.711 116.43 200.629 94.8886 200.629C73.3475 200.629 55.885 210.711 55.885 223.147C55.885 235.584 73.3475 245.666 94.8886 245.666Z" fill="#E0E0E0"/>
<path d="M148.104 272.959L231.134 225.033C231.288 224.979 231.422 224.879 231.516 224.746C231.61 224.613 231.661 224.454 231.661 224.29C231.661 224.127 231.61 223.968 231.516 223.835C231.422 223.702 231.288 223.601 231.134 223.547L187.317 198.267C186.919 198.063 186.478 197.957 186.031 197.957C185.584 197.957 185.144 198.063 184.745 198.267L101.734 246.205C101.577 246.256 101.44 246.356 101.343 246.489C101.246 246.622 101.194 246.783 101.194 246.948C101.194 247.113 101.246 247.274 101.343 247.408C101.44 247.541 101.577 247.64 101.734 247.691L145.551 272.978C145.95 273.172 146.387 273.271 146.83 273.267C147.273 273.264 147.709 273.159 148.104 272.959Z" fill="#E0E0E0"/>
<path d="M203.174 209.786C202.418 204.604 204.59 193.326 208.984 185.814C213.379 178.301 219.196 172.262 225.495 173.437C231.363 174.529 231.433 182.245 225.362 188.1C219.291 193.955 208.559 204.611 206.806 213.425L205.79 221.21L203.174 209.786Z" fill="#A6BC35"/>
<path opacity="0.15" d="M203.174 209.786C202.418 204.604 204.59 193.326 208.984 185.814C213.379 178.301 219.196 172.262 225.495 173.437C231.363 174.529 231.433 182.245 225.362 188.1C219.291 193.955 208.559 204.611 206.806 213.425L205.79 221.21L203.174 209.786Z" fill="black"/>
<path d="M203.828 216.93C203.91 216.911 203.983 216.866 204.036 216.802C204.09 216.738 204.122 216.658 204.127 216.575C205.009 198.387 217.208 181.921 225.298 177.495C225.343 177.471 225.382 177.439 225.414 177.399C225.446 177.36 225.469 177.315 225.484 177.266C225.498 177.218 225.502 177.167 225.497 177.117C225.491 177.067 225.475 177.018 225.451 176.974C225.428 176.929 225.397 176.89 225.358 176.857C225.32 176.825 225.275 176.801 225.227 176.787C225.178 176.773 225.128 176.768 225.078 176.774C225.028 176.78 224.98 176.797 224.936 176.822C216.681 181.331 204.254 198.07 203.345 216.537C203.343 216.587 203.35 216.637 203.367 216.684C203.384 216.731 203.41 216.775 203.443 216.812C203.477 216.849 203.518 216.879 203.563 216.901C203.608 216.922 203.657 216.934 203.707 216.937L203.828 216.93Z" fill="white"/>
<path d="M203.707 232.222C204.114 229.186 206.965 223.858 212.141 219.051C217.856 213.73 225.616 210.529 226.969 206.839C228.601 202.394 224.574 199.041 218.154 200.807C211.734 202.572 201.555 213.171 201.682 226.843L203.707 232.222Z" fill="#A6BC35"/>
<path opacity="0.3" d="M203.707 232.222C204.114 229.186 206.965 223.858 212.141 219.051C217.856 213.73 225.616 210.529 226.969 206.839C228.601 202.394 224.574 199.041 218.154 200.807C211.734 202.572 201.555 213.171 201.682 226.843L203.707 232.222Z" fill="black"/>
<path d="M201.999 229.351C202.07 229.333 202.134 229.295 202.184 229.243C202.235 229.19 202.27 229.124 202.285 229.053C205.492 213.107 216.256 206.103 221.52 204.623C221.568 204.61 221.614 204.586 221.653 204.555C221.692 204.524 221.725 204.485 221.75 204.441C221.774 204.397 221.79 204.349 221.796 204.299C221.801 204.249 221.797 204.199 221.784 204.15C221.77 204.102 221.747 204.057 221.715 204.017C221.684 203.978 221.645 203.945 221.602 203.92C221.558 203.896 221.509 203.88 221.459 203.875C221.409 203.869 221.359 203.873 221.31 203.887C215.506 205.525 204.8 212.631 201.536 228.901C201.517 229 201.537 229.102 201.593 229.187C201.649 229.271 201.735 229.33 201.834 229.351C201.889 229.361 201.945 229.361 201.999 229.351Z" fill="white"/>
<path d="M75.4188 202.845C75.4188 202.845 76.4348 189.84 72.015 178.714C67.5952 167.588 60.0955 159.765 52.1068 157.548C44.1181 155.332 36.1168 161.536 43.807 168.344C51.4972 175.152 65.906 183.375 69.2908 203.906L75.4188 202.845Z" fill="#A6BC35"/>
<path opacity="0.15" d="M75.4188 202.845C75.4188 202.845 76.4348 189.84 72.015 178.714C67.5952 167.588 60.0955 159.765 52.1068 157.548C44.1181 155.332 36.1168 161.536 43.807 168.344C51.4972 175.152 65.906 183.375 69.2908 203.906L75.4188 202.845Z" fill="black"/>
<path d="M73.6784 199.079H73.7673C73.8825 199.056 73.9839 198.989 74.0494 198.891C74.1148 198.793 74.139 198.674 74.1166 198.559C69.6333 175.812 55.0657 163.848 47.947 160.698C47.839 160.653 47.7176 160.651 47.6086 160.694C47.4995 160.737 47.4114 160.82 47.3627 160.927C47.3386 160.979 47.3251 161.036 47.3233 161.093C47.3214 161.151 47.3311 161.209 47.3518 161.263C47.3725 161.316 47.4038 161.366 47.4439 161.407C47.4839 161.449 47.5319 161.482 47.585 161.505C54.5322 164.584 68.8141 176.333 73.2593 198.724C73.2791 198.821 73.3313 198.91 73.4073 198.974C73.4833 199.039 73.5788 199.076 73.6784 199.079Z" fill="white"/>
<path d="M41.1269 187.516C41.3936 189.033 42.7081 190.119 43.9591 191.021C45.2101 191.923 46.5627 192.926 46.9946 194.38C47.8519 197.371 44.4544 200.426 45.4451 203.372C45.6985 203.975 46.0719 204.52 46.5423 204.974C47.0128 205.428 47.5707 205.782 48.1821 206.014C49.1857 206.422 50.2094 206.778 51.2493 207.081C51.7496 207.196 52.2565 207.281 52.767 207.335C54.2593 207.481 55.8405 207.805 56.9773 208.872C58.7617 210.555 58.7426 213.317 59.5174 215.667C59.9995 217.054 60.7765 218.32 61.7949 219.378C62.8134 220.436 64.049 221.26 65.4168 221.795C67.6902 222.69 71.348 223.065 72.218 222.15C72.853 221.477 72.091 218.747 72.2942 217.819C72.8028 215.449 73.0877 213.036 73.1451 210.612C73.1233 209.508 73.2364 208.405 73.4817 207.329C73.7929 206.128 74.1167 204.922 74.3834 203.722C74.701 202.414 75.2598 201.474 75.1137 200.045C74.9056 198.683 74.4946 197.36 73.8945 196.12C73.3695 194.884 72.834 193.648 72.2878 192.412C71.6953 190.936 70.9233 189.539 69.989 188.252C69.1287 187.167 68.0557 186.27 66.8359 185.615C65.6161 184.959 64.2753 184.56 62.8957 184.442C60.616 184.264 58.1711 184.963 55.9104 184.296C53.6497 183.629 51.7382 182.531 49.4585 182.124C47.0771 181.705 44.4417 182.124 42.6002 183.782C42.0676 184.236 41.6547 184.814 41.3979 185.465C41.141 186.116 41.0479 186.82 41.1269 187.516Z" fill="#A6BC35"/>
<path opacity="0.3" d="M41.1269 187.516C41.3936 189.033 42.7081 190.119 43.9591 191.021C45.2101 191.923 46.5627 192.926 46.9946 194.38C47.8519 197.371 44.4544 200.426 45.4451 203.372C45.6985 203.975 46.0719 204.52 46.5423 204.974C47.0128 205.428 47.5707 205.782 48.1821 206.014C49.1857 206.422 50.2094 206.778 51.2493 207.081C51.7496 207.196 52.2565 207.281 52.767 207.335C54.2593 207.481 55.8405 207.805 56.9773 208.872C58.7617 210.555 58.7426 213.317 59.5174 215.667C59.9995 217.054 60.7765 218.32 61.7949 219.378C62.8134 220.436 64.049 221.26 65.4168 221.795C67.6902 222.69 71.348 223.065 72.218 222.15C72.853 221.477 72.091 218.747 72.2942 217.819C72.8028 215.449 73.0877 213.036 73.1451 210.612C73.1233 209.508 73.2364 208.405 73.4817 207.329C73.7929 206.128 74.1167 204.922 74.3834 203.722C74.701 202.414 75.2598 201.474 75.1137 200.045C74.9056 198.683 74.4946 197.36 73.8945 196.12C73.3695 194.884 72.834 193.648 72.2878 192.412C71.6953 190.936 70.9233 189.539 69.989 188.252C69.1287 187.167 68.0557 186.27 66.8359 185.615C65.6161 184.959 64.2753 184.56 62.8957 184.442C60.616 184.264 58.1711 184.963 55.9104 184.296C53.6497 183.629 51.7382 182.531 49.4585 182.124C47.0771 181.705 44.4417 182.124 42.6002 183.782C42.0676 184.236 41.6547 184.814 41.3979 185.465C41.141 186.116 41.0479 186.82 41.1269 187.516Z" fill="black"/>
<path d="M66.6869 197.733C66.6615 197.679 66.622 197.633 66.5726 197.6C59.7206 189.205 49.6553 185.699 46.3024 185.198C46.2547 185.184 46.2048 185.182 46.1559 185.189C46.107 185.197 46.0603 185.215 46.0189 185.242C45.9774 185.269 45.9422 185.304 45.9155 185.346C45.8888 185.387 45.8712 185.434 45.8639 185.483C45.8567 185.532 45.8599 185.582 45.8734 185.63C45.8869 185.677 45.9103 185.721 45.9422 185.759C45.974 185.797 46.0136 185.828 46.0581 185.849C46.1027 185.871 46.1513 185.882 46.2008 185.883C49.3759 186.36 58.7045 189.592 65.3851 197.251C62.8388 196.589 60.183 196.461 57.5851 196.877C54.9872 197.292 52.5034 198.241 50.2904 199.664C50.2532 199.69 50.2217 199.724 50.1979 199.763C50.1741 199.802 50.1585 199.845 50.152 199.89C50.1454 199.935 50.1481 199.981 50.1599 200.025C50.1717 200.069 50.1923 200.11 50.2205 200.146C50.2525 200.192 50.2955 200.228 50.3455 200.253C50.3954 200.277 50.4507 200.289 50.5063 200.286C50.5778 200.285 50.647 200.261 50.7031 200.216C52.9778 198.771 55.5409 197.84 58.213 197.489C60.8851 197.138 63.6017 197.375 66.1725 198.184C70.1775 203.139 72.4443 209.272 72.6244 215.641C72.6276 215.728 72.6634 215.81 72.7246 215.871C72.7859 215.932 72.868 215.968 72.9546 215.971C73.0461 215.968 73.1327 215.929 73.1956 215.862C73.2586 215.796 73.2929 215.707 73.2912 215.616C73.1168 209.091 70.7955 202.805 66.6869 197.733Z" fill="white"/>
<path d="M74.1809 217.495C76.8226 218.765 79.6866 218.581 82.7284 217.19L83.7 200.317L72.9807 199.143L74.1809 217.495Z" fill="#FFA8A7"/>
<path d="M94.8831 207.176C96.242 209.672 102.351 210.237 104.091 206.966L104.834 190.456L93.6003 190.697L94.8831 207.176Z" fill="#FFA8A7"/>
<path d="M93.6829 232.73C93.975 232.99 93.956 234.825 93.6829 235.333C93.4098 235.841 91.4857 237.6 87.9676 237.975C84.6274 238.331 81.6173 237.975 79.6043 236.807C77.5912 235.638 76.5942 234.267 76.3402 232.361C76.0862 230.456 76.2386 228.608 75.2734 227.173C74.3843 225.846 72.9936 224.366 72.6761 223.642C71.9839 222.068 72.511 219.756 72.511 219.756L93.6829 232.73Z" fill="#263238"/>
<path d="M83.8969 216.403C83.9742 217.123 84.1384 217.831 84.3859 218.511C84.9477 219.971 85.6855 221.358 86.5831 222.639C87.0286 223.306 87.5187 223.943 88.05 224.544C89.1105 225.713 90.3996 226.659 91.5173 227.776C92.6968 228.828 93.4774 230.255 93.7272 231.815C93.9685 234.438 91.1489 235.429 88.9644 235.898C86.6054 236.398 84.1643 236.364 81.8203 235.797C80.5875 235.521 79.4607 234.894 78.5752 233.993C77.6898 233.092 77.0834 231.954 76.829 230.717C76.683 229.993 76.6957 229.243 76.5877 228.513C76.2325 226.848 75.4736 225.295 74.3778 223.992C73.7423 223.236 73.1869 222.417 72.7204 221.547C71.9774 219.947 72.4663 218.099 72.841 216.467C73.1712 215.057 73.4252 213.387 73.9206 213.501L73.9904 214.587C74.1619 214.885 74.4921 214.873 74.6255 215.222C74.7385 215.589 74.883 215.946 75.0573 216.289C75.3228 216.826 75.7459 217.269 76.2702 217.559C76.2702 216.568 76.2702 215.571 76.2702 214.581C76.2366 214.273 76.3058 213.962 76.467 213.698C76.6914 213.479 76.9816 213.341 77.2926 213.304C79.1171 212.799 81.0078 212.574 82.8999 212.637C83.0411 212.633 83.1817 212.657 83.3128 212.71C83.444 212.762 83.5629 212.841 83.6619 212.942C83.7767 213.133 83.8299 213.355 83.8143 213.577C83.7926 214.52 83.8201 215.463 83.8969 216.403Z" fill="#455A64"/>
<path d="M86.9579 223.172C85.9545 222.474 83.7827 222.537 82.5698 222.715C81.3553 222.864 80.1978 223.316 79.2041 224.03C79.0601 224.145 78.8796 224.204 78.6954 224.197C78.5112 224.19 78.3356 224.117 78.2008 223.992C78.1211 223.92 78.0579 223.832 78.0156 223.734C77.9734 223.636 77.9531 223.529 77.9561 223.422C77.9591 223.315 77.9854 223.21 78.0331 223.114C78.0809 223.019 78.1489 222.934 78.2325 222.868C79.3313 222.001 80.6517 221.462 82.0427 221.312C84.9829 221.001 85.8529 221.477 85.8529 221.477C85.8529 221.477 87.2309 222.296 86.9579 223.172Z" fill="#F5F5F5"/>
<path d="M89.301 225.782C88.0309 225.103 85.6432 225.293 84.4494 225.465C83.257 225.628 82.1289 226.104 81.179 226.843C81.0332 226.954 80.8527 227.011 80.6692 227.003C80.4857 226.995 80.3109 226.922 80.1756 226.798C80.096 226.727 80.0329 226.64 79.9907 226.542C79.9485 226.444 79.9282 226.339 79.9312 226.232C79.9342 226.126 79.9605 226.021 80.0082 225.926C80.0559 225.83 80.1239 225.747 80.2074 225.681C81.3136 224.774 82.6506 224.193 84.0684 224.004C87.0086 223.693 87.8023 224.271 87.8023 224.271C88.1501 224.393 88.4657 224.593 88.7253 224.854C88.9849 225.116 89.1817 225.433 89.301 225.782Z" fill="#F5F5F5"/>
<path d="M80.7409 218.53C81.9742 218.272 83.2529 218.333 84.4559 218.708C84.9893 218.981 85.3576 219.794 85.0337 220.009C83.9764 219.632 82.8428 219.519 81.7316 219.679C80.6237 219.823 79.5493 220.158 78.5564 220.67C78.3024 220.791 78.0103 220.956 77.7563 221.108C77.675 221.158 77.5842 221.191 77.4896 221.205C77.395 221.219 77.2986 221.213 77.2063 221.188C77.1141 221.163 77.0279 221.119 76.9532 221.06C76.8785 221 76.8168 220.926 76.772 220.841C76.6926 220.697 76.6721 220.528 76.7147 220.37C76.7573 220.211 76.8598 220.075 77.0006 219.99C78.1287 219.242 79.4041 218.744 80.7409 218.53Z" fill="#F5F5F5"/>
<path d="M122.863 217.394C123.135 218.157 123.105 218.995 122.78 219.737C122.469 220.429 118.97 222.518 114.112 222.277C110.529 222.105 107.058 220.975 104.059 219.007C102.199 217.832 100.281 217.641 97.8868 217.559C95.4927 217.476 92.8065 216.34 92.254 215.235C91.7016 214.13 92.254 212.193 92.254 212.193L122.863 217.394Z" fill="#263238"/>
<path d="M103.164 202.978L104.434 202.496C104.652 202.38 104.904 202.347 105.145 202.401C105.456 202.509 105.583 202.871 105.672 203.188C105.796 203.899 105.987 204.596 106.244 205.271C106.614 205.818 107.083 206.289 107.628 206.662C108.845 207.597 110.156 208.403 111.54 209.068C113.134 209.881 114.715 210.504 116.334 211.202C117.954 211.901 120.221 212.32 121.535 213.164C123.44 214.434 123.771 217.61 121.637 218.911C119.802 220.042 114.937 221.331 109.775 219.985C106.961 219.254 103.793 216.333 100.116 216.124C97.7788 215.997 93.8162 215.425 92.2794 213.685C91.7079 212.91 92.3938 210.402 92.9589 208.237C93.594 205.881 93.7464 202.197 94.5275 202.388C94.5973 203.169 95.2831 203.607 95.7086 204.255C96.0464 204.848 96.3394 205.466 96.585 206.103C96.8707 206.738 96.7818 207.341 97.3724 207.69C97.6613 207.882 98.0059 207.971 98.3512 207.943C98.6966 207.915 99.0227 207.773 99.2775 207.538C99.9506 206.814 99.5125 205.576 99.9951 204.718C100.396 204.174 100.969 203.78 101.621 203.601L103.164 202.978Z" fill="#455A64"/>
<path d="M109.304 207.843C109.129 207.524 108.877 207.255 108.571 207.06C108.265 206.864 107.914 206.749 107.552 206.725C106.485 206.554 104.624 207.36 103.481 208.363C103.372 208.456 103.288 208.573 103.235 208.706C103.182 208.838 103.163 208.981 103.178 209.123C103.194 209.265 103.244 209.401 103.325 209.519C103.405 209.636 103.514 209.732 103.64 209.799C103.799 209.881 103.979 209.912 104.156 209.888C104.334 209.864 104.499 209.787 104.631 209.665C105.891 208.471 107.568 207.817 109.304 207.843Z" fill="#F5F5F5"/>
<path d="M112.632 209.614C112.632 209.329 111.94 208.535 110.568 208.605C110.568 208.605 107.793 208.744 106.123 210.383C106.02 210.474 105.941 210.588 105.892 210.716C105.843 210.844 105.825 210.981 105.84 211.118C105.855 211.254 105.902 211.384 105.978 211.498C106.054 211.613 106.156 211.707 106.275 211.773C106.428 211.853 106.602 211.882 106.773 211.858C106.944 211.835 107.103 211.758 107.228 211.64C107.92 210.92 108.765 210.365 109.7 210.014C110.635 209.664 111.637 209.527 112.632 209.614Z" fill="#F5F5F5"/>
<path d="M116.309 211.202C116.038 210.905 115.705 210.671 115.335 210.514C114.964 210.357 114.565 210.282 114.162 210.294C112.588 210.425 111.096 211.052 109.901 212.085C109.799 212.175 109.719 212.288 109.669 212.415C109.619 212.542 109.601 212.679 109.615 212.815C109.629 212.951 109.676 213.081 109.751 213.195C109.827 213.309 109.928 213.403 110.047 213.469C110.201 213.55 110.375 213.581 110.547 213.558C110.719 213.535 110.879 213.46 111.006 213.342C111.661 212.596 112.482 212.013 113.403 211.642C114.324 211.27 115.319 211.12 116.309 211.202Z" fill="#F5F5F5"/>
<path d="M68.8147 92.4897C66.9096 110.81 71.5708 156.228 71.5708 156.228C71.2152 158.501 70.1801 161.721 70.2118 169.563C70.2563 181.534 73.0059 207.164 73.0059 207.164C73.0059 207.164 78.3465 208.878 83.7253 207.075C83.7253 207.075 87.129 174.212 88.615 163.258C89.6501 155.637 90.0819 147.496 90.0819 147.496L90.7931 154.907C90.1491 159.827 90.0236 164.801 90.4185 169.748C90.8757 175.222 93.9111 197.644 93.9111 197.644C97.5687 198.717 101.443 198.818 105.151 197.937C105.151 197.937 107.799 159.39 108.256 154.386C108.771 148.671 108.968 93.4232 108.968 93.4232L68.8147 92.4897Z" fill="#455A64"/>
<path d="M90.0568 147.534L92.4509 115.065C94.7222 114.664 96.8884 113.806 98.8174 112.541C100.747 111.277 102.398 109.634 103.672 107.711C103.672 107.711 102.567 113.553 94.7052 117.078L91.2062 147.223L90.768 154.932L90.0568 147.534Z" fill="#37474F"/>
<path d="M125.161 105.946V105.851C125.25 104.383 125.161 102.909 124.894 101.463C124.653 100.402 123.358 99.4496 122.627 98.6749C119.058 94.8965 113.699 90.4195 109.679 86.3426C105.799 82.4372 106.301 76.9822 105.92 70.162C105.234 58.0202 104.739 52.4828 104.739 52.4828L103.106 40.5378C109.546 41.1729 112.549 44.5766 113.146 46.7103C115.318 54.4704 118.493 76.906 118.493 76.906C119.992 79.1477 120.284 79.2938 123.675 84.4947C125.479 87.2634 127.422 89.9305 129.39 92.5913C129.829 93.1882 130.292 93.7661 130.705 94.3821C131.118 94.9981 131.34 95.7029 131.772 96.338C132.627 97.7112 133.758 98.8918 135.093 99.8052C136.179 100.548 137.404 101.113 138.325 102.053C139.003 102.807 139.639 103.598 140.23 104.422C140.878 105.116 141.638 105.695 142.478 106.136C142.173 106.559 141.752 106.883 141.266 107.07C140.781 107.257 140.251 107.299 139.741 107.191C138.713 107.032 137.887 105.978 137.004 105.432C137.5 107.019 137.741 111.147 137.29 111.915C136.611 113.071 134.413 114.411 132.521 115.173C131.265 115.646 129.872 115.603 128.647 115.052C127.047 114.36 126.469 112.588 126.012 110.899C125.491 109.298 125.205 107.629 125.161 105.946Z" fill="#F28F8F"/>
<path d="M103.106 40.0938C107.177 40.9828 109.622 41.3638 112.353 44.3421C115.083 47.3204 116.048 57.7095 116.671 62.0277C117.293 66.3459 117.941 70.6197 117.941 70.6197C117.941 70.6197 113.559 75.0649 103.487 72.8359L103.106 40.0938Z" fill="#455A64"/>
<path d="M121.929 97.6013C122.105 97.2645 122.367 96.9798 122.688 96.7759C123.009 96.572 123.378 96.4559 123.758 96.4392C124.521 96.416 125.276 96.6075 125.936 96.9917C126.071 96.8252 126.247 96.6958 126.446 96.6156C126.645 96.5353 126.861 96.5069 127.074 96.5329C127.288 96.5589 127.491 96.6385 127.665 96.7643C127.839 96.89 127.978 97.0579 128.069 97.2521C128.24 96.8789 128.542 96.5822 128.919 96.4192C129.295 96.2562 129.718 96.2386 130.107 96.3697C130.496 96.5008 130.822 96.7714 131.023 97.1291C131.223 97.4868 131.284 97.9062 131.194 98.3062C131.363 98.2899 131.533 98.3186 131.687 98.3894C131.841 98.4603 131.973 98.5707 132.071 98.7095C132.168 98.8483 132.227 99.0105 132.242 99.1795C132.256 99.3485 132.225 99.5183 132.153 99.6715C132.566 99.66 132.973 99.7836 133.31 100.023C133.647 100.263 133.897 100.607 134.022 101.001C134.147 101.396 134.14 101.82 134.002 102.211C133.864 102.601 133.603 102.936 133.258 103.164C132.82 103.375 132.334 103.463 131.851 103.418C131.367 103.373 130.905 103.198 130.514 102.91C129.739 102.329 129.033 101.66 128.412 100.916C127.785 100.169 126.935 99.644 125.987 99.4175C124.907 99.2461 123.834 99.7414 122.761 99.5636C121.903 99.4239 121.592 98.3253 121.929 97.6013Z" fill="#FAFAFA"/>
<path d="M134.502 103.209C132.305 99.4374 128.152 96.186 124.266 98.2753C124.075 98.3769 122.761 99.0437 122.303 99.2913C120.182 100.428 118.969 104.283 121.402 108.455C123.516 112.074 127.568 114.659 131.016 112.9C131.278 112.763 131.531 112.609 131.772 112.436C132.177 112.34 132.569 112.195 132.94 112.005C136.388 110.22 136.407 106.474 134.502 103.209Z" fill="#A6BC35"/>
<path d="M124.266 98.2751C122.145 99.4118 120.894 103.387 123.332 107.566C125.44 111.179 129.492 113.77 132.94 112.011C136.388 110.252 136.407 106.492 134.502 103.228C132.318 99.4372 128.158 96.1858 124.266 98.2751Z" fill="#A6BC35"/>
<path opacity="0.5" d="M124.266 98.2751C122.145 99.4118 120.894 103.387 123.332 107.566C125.44 111.179 129.492 113.77 132.94 112.011C136.388 110.252 136.407 106.492 134.502 103.228C132.318 99.4372 128.158 96.1858 124.266 98.2751Z" fill="white"/>
<path d="M117.401 107.127C116.797 105.408 116.849 103.526 117.547 101.844C117.808 101.254 118.215 100.741 118.728 100.351C118.985 100.157 119.278 100.017 119.59 99.9394C119.902 99.8618 120.227 99.8486 120.544 99.9003C120.862 99.9563 121.158 100.1 121.398 100.316C121.638 100.531 121.813 100.81 121.903 101.12C122.124 100.918 122.392 100.775 122.683 100.704C122.974 100.633 123.278 100.636 123.567 100.713C124.037 100.834 124.901 101.348 124.418 101.983C124.719 101.608 125.145 101.353 125.618 101.265C126.091 101.177 126.58 101.262 126.995 101.504C127.411 101.747 127.726 102.131 127.882 102.586C128.038 103.041 128.026 103.537 127.847 103.984C128.027 103.892 128.224 103.838 128.426 103.825C128.628 103.813 128.83 103.842 129.02 103.911C129.21 103.98 129.384 104.088 129.531 104.227C129.677 104.366 129.794 104.534 129.873 104.72C129.952 104.906 129.992 105.106 129.99 105.308C129.988 105.51 129.945 105.71 129.863 105.895C129.781 106.08 129.661 106.245 129.512 106.382C129.363 106.519 129.188 106.623 128.997 106.689C129.386 106.604 129.792 106.665 130.14 106.86C130.314 106.928 130.47 107.035 130.597 107.173C130.723 107.31 130.817 107.475 130.87 107.654C130.92 107.922 130.889 108.198 130.781 108.448C130.673 108.697 130.535 108.932 130.368 109.146C130.478 108.983 130.628 108.85 130.804 108.761C130.979 108.672 131.175 108.63 131.372 108.638C131.571 108.652 131.764 108.717 131.93 108.829C132.096 108.94 132.23 109.094 132.318 109.273C132.303 109.052 132.361 108.832 132.481 108.646C132.601 108.46 132.777 108.317 132.985 108.238C133.206 108.163 133.443 108.146 133.673 108.188C133.903 108.23 134.119 108.331 134.299 108.48C134.469 108.636 134.604 108.827 134.695 109.039C134.786 109.251 134.83 109.481 134.826 109.712C134.803 110.27 134.633 110.813 134.333 111.284C134.033 111.756 133.614 112.14 133.118 112.398C132.12 112.904 131.023 113.181 129.905 113.211C127.407 113.484 124.881 113.171 122.526 112.296C121.353 111.848 120.289 111.156 119.406 110.264C118.522 109.373 117.838 108.303 117.401 107.127Z" fill="#FAFAFA"/>
<path d="M75.4317 39.5283C75.4317 39.5283 74.2505 40.7602 72.4216 44.9578C69.9033 50.4807 68.5583 56.466 68.4718 62.5354C68.3765 72.3022 68.332 74.8296 68.332 80.1194V99.2402C74.4283 104.054 100.623 107.438 109.882 98.2305C109.882 98.2305 109.336 93.9694 108.707 80.2528C109.977 72.5117 111.101 63.6086 111.406 58.2045C111.94 48.7934 110.771 42.9638 105.316 40.5824C103.174 39.8179 100.993 39.1671 98.7818 38.6329C98.7818 38.6329 95.2764 37.4962 88.9007 37.7819C84.3764 38.0552 79.8761 38.6387 75.4317 39.5283Z" fill="#A6BC35"/>
<path d="M94.743 6.24615C94.743 6.24615 92.2854 5.03959 89.8405 7.3511C87.7068 9.3705 87.8656 14.3745 87.9354 19.5818C87.9082 22.8613 88.3008 26.1307 89.1039 29.3105C89.382 30.2621 90.0167 31.0697 90.8756 31.5648L92.1076 25.6908L92.8569 21.5758C92.8569 21.5758 95.6955 21.398 97.3021 15.7653C98.3626 12.0313 98.134 10.3675 98.134 10.3675L94.743 6.24615Z" fill="#455A64"/>
<path d="M97.0229 13.7394C96.5204 15.8986 96.6695 18.1582 97.4512 20.2326C98.2329 22.307 99.6123 24.1031 101.415 25.3935C103.217 26.684 105.362 27.411 107.578 27.4826C109.793 27.5541 111.98 26.967 113.862 25.7956C115.744 24.6241 117.237 22.9208 118.151 20.9012C119.065 18.8815 119.359 16.6362 118.997 14.4491C118.635 12.2621 117.632 10.2315 116.116 8.61428C114.6 6.99703 112.638 5.8657 110.479 5.36338C109.046 5.029 107.56 4.98046 106.108 5.22052C104.656 5.46058 103.265 5.98454 102.015 6.76244C100.765 7.54035 99.6812 8.55694 98.8246 9.7541C97.968 10.9513 97.3558 12.3055 97.0229 13.7394Z" fill="#455A64"/>
<path d="M93.1491 20.9279C91.8156 20.839 91.6886 19.1562 91.0662 18.1021C90.4439 17.0479 88.0244 15.2444 86.0241 17.7591C84.0238 20.2739 84.9826 23.9697 86.5702 25.6018C87.0616 26.1375 87.7138 26.4991 88.4285 26.6319C89.1432 26.7648 89.8817 26.6618 90.5328 26.3384L88.8246 38.9057C92.1712 45.7005 104.948 47.2373 101.525 40.036L102.046 37.4387C103.646 38.1073 105.337 38.5353 107.063 38.7088C109.844 38.9247 112.029 37.1974 113.515 34.4795C115.909 30.1232 117.249 23.0489 117.598 13.5679C115.14 10.5325 105.367 7.85266 98.1278 10.3547C97.1752 15.7524 95.4861 19.0673 94.9145 19.7595C94.343 20.4517 93.6635 20.966 93.1491 20.9279Z" fill="#FFA8A7"/>
<path d="M121.313 6.88144C121.299 6.79377 121.261 6.71155 121.204 6.64339C121.147 6.57524 121.073 6.52367 120.989 6.49408C120.852 6.47294 120.711 6.49748 120.589 6.56393C119.697 6.9876 118.77 7.33596 117.82 7.60538C118.297 6.57931 118.573 5.47129 118.633 4.34132C118.671 3.64914 118.843 2.08061 118.061 1.71864C117.598 1.50908 117.077 1.8139 116.639 2.06791C112.632 4.34132 108.695 1.94091 104.713 1.16617C101.386 0.486686 97.0928 0.893106 94.8384 3.75074C93.8097 5.05891 93.3207 6.57663 94.432 7.91019C95.4473 9.00422 96.7042 9.8458 98.1025 10.3678C104.408 13.0666 112.708 17.4102 119.058 12.4253C119.992 11.7397 120.703 10.7944 121.103 9.70733C121.44 8.8269 121.519 7.86878 121.332 6.94495L121.313 6.88144Z" fill="#263238"/>
<path d="M102.02 37.4388C102.02 37.4388 97.0926 35.756 94.5335 33.3048C93.4917 32.2765 92.7553 30.9796 92.4061 29.5581C92.3195 30.868 92.6175 32.1746 93.2634 33.3175C95.4416 36.9689 101.665 39.0836 101.665 39.0836L102.02 37.4388Z" fill="#F28F8F"/>
<path d="M104.154 22.0078C104.117 22.1654 104.049 22.3142 103.955 22.4456C103.86 22.577 103.741 22.6885 103.603 22.7737C103.465 22.8589 103.312 22.9162 103.152 22.9422C102.992 22.9682 102.829 22.9625 102.671 22.9254C102.514 22.8883 102.365 22.8205 102.234 22.7259C102.102 22.6313 101.991 22.5118 101.906 22.3741C101.82 22.2364 101.763 22.0833 101.737 21.9234C101.711 21.7636 101.717 21.6002 101.754 21.4426C101.791 21.285 101.859 21.1363 101.953 21.0048C102.048 20.8734 102.167 20.7619 102.305 20.6767C102.443 20.5915 102.596 20.5343 102.756 20.5082C102.916 20.4822 103.079 20.4879 103.237 20.525C103.394 20.5621 103.543 20.6299 103.674 20.7245C103.806 20.8191 103.917 20.9387 104.002 21.0764C104.088 21.2141 104.145 21.3672 104.171 21.527C104.197 21.6868 104.191 21.8502 104.154 22.0078Z" fill="#263238"/>
<path d="M103.932 17.175L101.036 17.9942C100.935 17.5995 100.991 17.1812 101.191 16.8263C101.39 16.4713 101.72 16.2073 102.11 16.0891C102.301 16.037 102.5 16.0239 102.696 16.0506C102.893 16.0773 103.081 16.1434 103.252 16.2447C103.422 16.3461 103.57 16.4807 103.687 16.6406C103.803 16.8004 103.887 16.9822 103.932 17.175Z" fill="#263238"/>
<path d="M115.68 20.9667L113.775 18.6171C113.921 18.4838 114.093 18.3818 114.28 18.3173C114.468 18.2529 114.666 18.2273 114.863 18.2421C115.061 18.257 115.253 18.312 115.428 18.4038C115.604 18.4955 115.759 18.6222 115.883 18.7758C116.137 19.0972 116.258 19.504 116.22 19.912C116.183 20.3199 115.989 20.6976 115.68 20.9667Z" fill="#263238"/>
<path d="M114.213 23.9886C114.148 24.2212 114.017 24.4296 113.835 24.588C113.652 24.7463 113.428 24.8477 113.188 24.8795C112.949 24.9112 112.706 24.872 112.489 24.7667C112.271 24.6613 112.09 24.4945 111.967 24.2869C111.844 24.0793 111.784 23.8401 111.796 23.599C111.807 23.3579 111.89 23.1255 112.032 22.9307C112.175 22.7359 112.371 22.5873 112.598 22.5033C112.824 22.4193 113.07 22.4036 113.305 22.4582C113.627 22.5435 113.902 22.7516 114.072 23.0378C114.242 23.324 114.292 23.6654 114.213 23.9886Z" fill="#263238"/>
<path d="M108.212 20.6802L107.247 27.964L111.254 27.9132L108.212 20.6802Z" fill="#F28F8F"/>
<path d="M102.344 29.5581L107.272 31.387C107.166 31.7175 106.994 32.0233 106.767 32.2859C106.54 32.5486 106.262 32.7628 105.95 32.9157C105.638 33.0686 105.299 33.1571 104.952 33.176C104.605 33.1948 104.258 33.1436 103.932 33.0254C103.269 32.7661 102.733 32.2596 102.437 31.6127C102.141 30.9658 102.108 30.2291 102.344 29.5581Z" fill="#B16668"/>
<path d="M102.84 30.4724C102.631 30.4231 102.419 30.3955 102.205 30.3899C102.182 30.9536 102.335 31.5104 102.644 31.9828C102.952 32.4552 103.4 32.8196 103.926 33.0253C104.193 33.12 104.474 33.1694 104.757 33.1713C104.844 32.5615 104.693 31.9418 104.336 31.4397C103.98 30.9377 103.444 30.5915 102.84 30.4724Z" fill="#F28F8F"/>
<path d="M135.664 104.797C135.144 103.965 133.232 102.58 132.331 101.863C131.429 101.145 131.016 102.46 131.219 103.406C131.372 104.117 132.445 104.981 133.435 105.813L133.791 108.353L131.213 110.778C131.213 110.778 127.669 110.817 127.212 110.486C126.431 109.928 125.942 109.312 126.577 108.581C127.212 107.851 127.796 107.584 129.536 107.667C130.385 107.741 131.24 107.696 132.076 107.533C132.997 107.197 133.283 106.657 132.8 106.06C132 105.051 130.349 105.285 128.463 104.79C126.101 104.155 125.383 103.355 123.338 102.656C121.566 102.147 119.839 101.491 118.176 100.694C116.321 99.729 91.2567 85.7519 91.2567 85.7519L83.5919 59.5252C83.5919 59.5252 82.0551 42.5063 78.2069 39.0073C69.2529 40.5377 68.0972 46.8754 68.3321 54.2481C68.5671 61.6208 74.784 82.0561 77.5591 88.3429C80.239 94.4201 81.0772 94.9472 85.0715 96.8396C91.0345 99.6655 107.571 105.73 111.419 107.718C113.454 108.675 115.412 109.79 117.274 111.052C119.103 112.411 122.754 115.059 123.72 115.319C126.095 115.954 130.832 114.532 132.324 114.004C133.816 113.477 136.433 109.756 136.623 109.051C136.814 108.346 136.185 105.628 135.664 104.797Z" fill="#FFA8A7"/>
<path d="M80.639 38.6331C78.0989 38.7601 74.2887 39.0458 71.3358 41.8082C68.383 44.5706 67.9384 49.6699 68.3703 54.9216C68.6941 58.954 71.628 75.2426 71.628 75.2426C71.628 75.2426 80.1628 77.1032 87.1799 70.8609C87.0719 70.5878 83.7761 52.8958 83.7761 52.8958C83.7761 52.8958 83.4713 40.5826 80.639 38.6331Z" fill="#455A64"/>
<path d="M199.986 234.742V235.733L201.707 236.73V235.733L199.986 234.742Z" fill="#37474F"/>
<path d="M203.434 234.742V235.733L201.707 236.73V235.733L203.434 234.742Z" fill="#455A64"/>
<path d="M203.434 216.835V234.743L201.707 235.733V217.832L203.434 216.835Z" fill="#37474F"/>
<path d="M201.707 235.733L199.986 234.743V216.835L201.707 217.832V235.733Z" fill="#263238"/>
<path d="M153.464 261.604V262.595L155.185 263.592V262.595L153.464 261.604Z" fill="#37474F"/>
<path d="M156.912 261.604V262.595L155.185 263.592V262.595L156.912 261.604Z" fill="#455A64"/>
<path d="M156.912 243.696V261.604L155.185 262.595V244.687L156.912 243.696Z" fill="#37474F"/>
<path d="M155.185 262.595L153.464 261.604V243.696L155.185 244.687V262.595Z" fill="#263238"/>
<path d="M117.28 240.711V241.702L119.001 242.699V241.702L117.28 240.711Z" fill="#37474F"/>
<path d="M120.728 240.711V241.702L119.001 242.699V241.702L120.728 240.711Z" fill="#455A64"/>
<path d="M120.728 222.804V240.712L119.001 241.702V223.801L120.728 222.804Z" fill="#455A64"/>
<path d="M119.001 241.702L117.28 240.712V222.804L119.001 223.801V241.702Z" fill="#263238"/>
<path d="M146.574 176.047L206.876 141.228V216.835L146.574 251.654V176.047Z" fill="#455A64"/>
<path d="M146.574 176.047L112.111 156.151V231.758L146.574 251.654V176.047Z" fill="#37474F"/>
<path d="M143.126 183.991L217.215 141.228L172.413 115.363L98.3242 158.126L143.126 183.991Z" fill="#A6BC35"/>
<path opacity="0.6" d="M143.126 183.991L217.215 141.228L172.413 115.363L98.3242 158.126L143.126 183.991Z" fill="white"/>
<path opacity="0.1" d="M167.727 160.742C166.088 161.689 166.088 163.225 167.727 164.172C168.647 164.635 169.662 164.876 170.692 164.876C171.722 164.876 172.738 164.635 173.658 164.172C175.296 163.225 175.296 161.689 173.658 160.742C172.739 160.276 171.723 160.033 170.692 160.033C169.662 160.033 168.646 160.276 167.727 160.742Z" fill="black"/>
<path d="M98.3242 158.126V160.114L143.126 185.978V183.991L98.3242 158.126Z" fill="#A6BC35"/>
<path opacity="0.5" d="M98.3242 158.126V160.114L143.126 185.978V183.991L98.3242 158.126Z" fill="white"/>
<path opacity="0.15" d="M98.3242 158.126V160.114L143.126 185.978V183.991L98.3242 158.126Z" fill="black"/>
<path d="M143.126 185.979L217.215 143.222V141.228L143.126 183.991V185.979Z" fill="#A6BC35"/>
<path opacity="0.5" d="M143.126 185.979L217.215 143.222V141.228L143.126 183.991V185.979Z" fill="white"/>
<path opacity="0.05" d="M143.126 185.979L217.215 143.222V141.228L143.126 183.991V185.979Z" fill="black"/>
<path opacity="0.1" d="M148.295 161.771C158.129 161.771 166.101 157.168 166.101 151.49C166.101 145.812 158.129 141.208 148.295 141.208C138.461 141.208 130.488 145.812 130.488 151.49C130.488 157.168 138.461 161.771 148.295 161.771Z" fill="black"/>
<path d="M160.1 153.18C161.37 151.91 164.914 148.379 172.401 142.918H154.544C150.447 141.75 146.105 141.75 142.008 142.918H124.189C131.676 148.379 135.232 151.935 136.483 153.18L136.585 153.281L136.794 153.485C139.138 155.682 143.411 157.149 148.295 157.149C153.178 157.149 157.446 155.682 159.795 153.485C159.852 153.427 159.922 153.364 159.998 153.281L160.1 153.18Z" fill="#E0E0E0"/>
<path d="M148.295 149.598C165.098 149.598 178.719 141.927 178.719 132.464C178.719 123.002 165.098 115.331 148.295 115.331C131.492 115.331 117.871 123.002 117.871 132.464C117.871 141.927 131.492 149.598 148.295 149.598Z" fill="#FAFAFA"/>
<path d="M148.295 147.127C163.726 147.127 176.236 140.315 176.236 131.912C176.236 123.509 163.726 116.697 148.295 116.697C132.863 116.697 120.353 123.509 120.353 131.912C120.353 140.315 132.863 147.127 148.295 147.127Z" fill="#EBEBEB"/>
<path d="M148.295 147.127C152.188 147.141 156.069 146.683 159.852 145.762C157.522 143.533 153.216 142.041 148.295 142.041C143.373 142.041 139.068 143.533 136.731 145.762C140.516 146.683 144.399 147.142 148.295 147.127Z" fill="#E0E0E0"/>
<path d="M168.971 137.252L156.912 130.286L160.354 128.298L172.413 135.258L168.971 137.252Z" fill="#A6BC35"/>
<path opacity="0.8" d="M168.971 137.252L156.912 130.286L160.354 128.298L172.413 135.258L168.971 137.252Z" fill="white"/>
<path opacity="0.05" d="M168.971 137.252L156.912 130.286L160.354 128.298L172.413 135.258L168.971 137.252Z" fill="black"/>
<path opacity="0.05" d="M168.971 137.253L172.413 135.259L170.241 134.008L166.8 135.995L168.971 137.253Z" fill="black"/>
<path d="M156.912 130.286L151.737 131.283L155.185 129.295L160.354 128.298L156.912 130.286Z" fill="#A6BC35"/>
<path opacity="0.7" d="M156.912 130.286L151.737 131.283L155.185 129.295L160.354 128.298L156.912 130.286Z" fill="white"/>
<path opacity="0.05" d="M156.912 130.286L151.737 131.283L155.185 129.295L160.354 128.298L156.912 130.286Z" fill="black"/>
<path d="M151.737 133.271L156.912 132.28L168.971 139.24V137.252L156.912 130.286L151.737 131.283V133.271Z" fill="#A6BC35"/>
<path opacity="0.7" d="M151.737 133.271L156.912 132.28L168.971 139.24V137.252L156.912 130.286L151.737 131.283V133.271Z" fill="white"/>
<path opacity="0.1" d="M151.737 133.271L156.912 132.28L168.971 139.24V137.252L156.912 130.286L151.737 131.283V133.271Z" fill="black"/>
<path opacity="0.1" d="M166.8 137.989L168.971 139.24V137.252L166.8 135.995V137.989Z" fill="black"/>
<path d="M173.512 162.177V129.099H167.879V162.177C167.902 162.425 167.99 162.662 168.136 162.864C168.281 163.066 168.477 163.226 168.705 163.327C169.322 163.64 170.004 163.803 170.696 163.803C171.387 163.803 172.069 163.64 172.686 163.327C172.913 163.225 173.109 163.065 173.254 162.863C173.399 162.661 173.488 162.425 173.512 162.177Z" fill="#A6BC35"/>
<path opacity="0.8" d="M173.512 162.177V129.099H167.879V162.177C167.902 162.425 167.99 162.662 168.136 162.864C168.281 163.066 168.477 163.226 168.705 163.327C169.322 163.64 170.004 163.803 170.696 163.803C171.387 163.803 172.069 163.64 172.686 163.327C172.913 163.225 173.109 163.065 173.254 162.863C173.399 162.661 173.488 162.425 173.512 162.177Z" fill="white"/>
<path opacity="0.03" d="M173.512 162.177V129.099H167.879V162.177C167.902 162.425 167.99 162.662 168.136 162.864C168.281 163.066 168.477 163.226 168.705 163.327C169.322 163.64 170.004 163.803 170.696 163.803C171.387 163.803 172.069 163.64 172.686 163.327C172.913 163.225 173.109 163.065 173.254 162.863C173.399 162.661 173.488 162.425 173.512 162.177Z" fill="black"/>
<path d="M171.537 163.733C171.94 163.668 172.328 163.535 172.686 163.339C172.913 163.238 173.109 163.078 173.254 162.876C173.399 162.674 173.488 162.437 173.512 162.19V129.099H171.537V163.733Z" fill="#A6BC35"/>
<path opacity="0.8" d="M171.537 163.733C171.94 163.668 172.328 163.535 172.686 163.339C172.913 163.238 173.109 163.078 173.254 162.876C173.399 162.674 173.488 162.437 173.512 162.19V129.099H171.537V163.733Z" fill="white"/>
<path opacity="0.1" d="M171.537 163.733C171.94 163.668 172.328 163.535 172.686 163.339C172.913 163.238 173.109 163.078 173.254 162.876C173.399 162.674 173.488 162.437 173.512 162.19V129.099H171.537V163.733Z" fill="black"/>
<path d="M168.705 130.248C169.322 130.561 170.004 130.724 170.695 130.724C171.387 130.724 172.069 130.561 172.686 130.248C173.785 129.613 173.785 128.584 172.686 127.949C172.069 127.636 171.387 127.473 170.695 127.473C170.004 127.473 169.322 127.636 168.705 127.949C167.6 128.584 167.6 129.613 168.705 130.248Z" fill="#A6BC35"/>
<path opacity="0.8" d="M168.705 130.248C169.322 130.561 170.004 130.724 170.695 130.724C171.387 130.724 172.069 130.561 172.686 130.248C173.785 129.613 173.785 128.584 172.686 127.949C172.069 127.636 171.387 127.473 170.695 127.473C170.004 127.473 169.322 127.636 168.705 127.949C167.6 128.584 167.6 129.613 168.705 130.248Z" fill="white"/>
<path d="M199.259 41.437C205.508 39.7439 209.201 33.3056 207.508 27.0567C205.815 20.8077 199.377 17.1145 193.128 18.8076C186.879 20.5008 183.186 26.9391 184.879 33.188C186.572 39.4369 193.01 43.1302 199.259 41.437Z" fill="#A6BC35"/>
<path d="M203.885 21.4426C203.043 21.1176 202.293 20.5923 201.7 19.9121C202.12 20.1027 202.824 19.728 203.733 18.5659C204.469 17.6197 205.149 16.6608 205.638 16.0258L205.841 15.7336L206.406 16.1337L206.209 16.4258C205.739 17.1053 205.092 18.0706 204.457 19.0866C203.675 20.3186 203.561 21.1124 203.885 21.4426Z" fill="#A6BC35"/>
<path opacity="0.2" d="M206.152 16.4766C206.049 16.4231 205.95 16.3637 205.854 16.2988C205.759 16.2295 205.668 16.1553 205.581 16.0766C205.676 15.9496 205.758 15.8289 205.835 15.7146L206.4 16.1147L206.152 16.4766Z" fill="black"/>
<path d="M207.321 16.2675C207.359 16.2099 207.385 16.1451 207.397 16.077C207.4 16.0624 207.4 16.0471 207.397 16.0325C207.4 16.0094 207.4 15.9858 207.397 15.9627C207.397 15.9627 207.397 15.9627 207.397 15.9309C207.397 15.8992 207.397 15.8928 207.397 15.8738C207.25 15.5527 207.021 15.2768 206.731 15.0746C206.442 14.8725 206.104 14.7515 205.752 14.7244H205.663H205.593H205.555C205.498 14.7607 205.448 14.8082 205.409 14.8641C205.37 14.9186 205.343 14.9817 205.333 15.0482C205.263 15.3149 205.536 15.7468 206.006 16.077C206.476 16.4072 206.978 16.5152 207.206 16.3564C207.249 16.3336 207.288 16.3035 207.321 16.2675Z" fill="#A6BC35"/>
<path opacity="0.3" d="M207.028 15.8609C206.92 16.0133 206.571 15.9562 206.247 15.7339C205.923 15.5117 205.746 15.1942 205.854 15.0417C205.961 14.8893 206.082 14.9338 206.273 14.9909C206.05 14.9909 205.961 15.1624 206.101 15.3783C206.268 15.5824 206.487 15.7363 206.736 15.8228C206.895 15.8609 207.009 15.8228 207.035 15.7149C207.043 15.7384 207.047 15.7635 207.046 15.7885C207.045 15.8136 207.039 15.8382 207.028 15.8609Z" fill="black"/>
<path d="M199.719 19.017C198.821 19.039 197.928 18.8657 197.103 18.509C197.56 18.509 197.941 18.4455 198.265 17.1755C198.532 16.1404 198.576 16.0768 198.722 15.3529C198.722 15.2386 198.767 15.137 198.786 15.0417L199.465 15.1751C199.465 15.2682 199.446 15.3698 199.408 15.4799C199.268 16.2102 199.268 16.2801 199.129 17.3406C198.957 18.6424 199.287 18.8583 199.719 19.017Z" fill="#A6BC35"/>
<path opacity="0.2" d="M199.383 15.6069C199.267 15.6011 199.153 15.5862 199.04 15.5625C198.924 15.5404 198.809 15.5107 198.697 15.4736C198.728 15.3212 198.76 15.1751 198.786 15.0417L199.465 15.1751C199.44 15.3085 199.414 15.4482 199.383 15.6069Z" fill="black"/>
<path d="M200.602 14.8639C200.621 14.7846 200.621 14.7019 200.602 14.6226C200.605 14.6058 200.605 14.5886 200.602 14.5718L200.564 14.4956C200.566 14.4829 200.566 14.4701 200.564 14.4575L200.526 14.4067C200.224 14.1132 199.837 13.9222 199.421 13.8605C199.013 13.7611 198.583 13.7945 198.195 13.9558H198.138H198.106L198.043 14.0129L198.011 14.0511C197.961 14.1165 197.926 14.1925 197.909 14.2733C197.897 14.3511 197.897 14.4305 197.909 14.5083C197.967 14.8321 198.475 15.1433 199.141 15.2957C199.808 15.4481 200.411 15.2957 200.577 15.0226C200.594 14.9714 200.602 14.9178 200.602 14.8639Z" fill="#A6BC35"/>
<path opacity="0.3" d="M200.094 14.5652C200.049 14.7811 199.643 14.889 199.186 14.8001C198.728 14.7112 198.386 14.4636 198.43 14.2413C198.474 14.0191 198.621 14.0127 198.849 13.9873C198.608 14.0826 198.601 14.3239 198.849 14.4826C199.134 14.632 199.457 14.6917 199.776 14.6541C199.967 14.616 200.087 14.5398 200.049 14.3874C200.068 14.4125 200.082 14.4412 200.09 14.4718C200.097 14.5023 200.099 14.5341 200.094 14.5652Z" fill="black"/>
<path d="M194.715 18.5914C194.026 18.9041 193.281 19.0768 192.524 19.0994C192.886 18.9597 193.077 18.4135 192.912 17.4165C192.884 17.1095 192.84 16.8042 192.778 16.5021C192.778 16.4217 192.759 16.3455 192.721 16.2735L193.293 16.1401C193.293 16.21 193.324 16.2862 193.35 16.3751C193.421 16.6744 193.517 16.9674 193.636 17.2514C193.915 18.2167 194.334 18.6231 194.715 18.5914Z" fill="#A6BC35"/>
<path opacity="0.2" d="M193.375 16.4958C193.285 16.5338 193.192 16.5636 193.096 16.5847C193 16.6083 192.902 16.6232 192.804 16.6291C192.804 16.5021 192.747 16.3814 192.721 16.2735L193.293 16.1401C193.318 16.2481 193.344 16.3687 193.375 16.4958Z" fill="black"/>
<path d="M193.915 15.6511C193.899 15.5943 193.873 15.5406 193.839 15.4924L193.794 15.4543H193.756C193.465 15.3392 193.146 15.308 192.838 15.3641C192.529 15.4202 192.243 15.5614 192.01 15.7718C192.008 15.7844 192.008 15.7972 192.01 15.8099V15.867V15.9051C191.997 15.9616 191.997 16.0201 192.01 16.0766C192.023 16.1316 192.047 16.1834 192.08 16.229C192.207 16.4195 192.632 16.4957 193.109 16.3814C193.585 16.2671 193.928 16.0194 193.96 15.7908C193.954 15.7417 193.939 15.6942 193.915 15.6511Z" fill="#A6BC35"/>
<path opacity="0.3" d="M193.49 15.6004C193.521 15.7591 193.293 15.9433 192.962 16.0195C192.632 16.0957 192.327 16.0195 192.327 15.8734C192.327 15.7274 192.385 15.6702 192.524 15.5877C192.397 15.721 192.461 15.8798 192.67 15.9116C192.893 15.9213 193.114 15.8661 193.305 15.7528C193.42 15.6702 193.471 15.5877 193.407 15.4988C193.444 15.5239 193.473 15.5592 193.49 15.6004Z" fill="black"/>
<path d="M190.384 20.0328C189.77 20.6905 189.005 21.1895 188.155 21.487C188.486 21.1695 188.403 20.3821 187.666 19.131C187.069 18.1086 186.46 17.137 186.015 16.4512C185.945 16.3496 185.882 16.2544 185.825 16.1591L186.403 15.7781L186.6 16.0702C187.05 16.7497 187.698 17.6895 188.403 18.6103C189.267 19.8232 189.959 20.2169 190.384 20.0328Z" fill="#A6BC35"/>
<path opacity="0.2" d="M186.644 16.1596C186.558 16.2359 186.467 16.306 186.371 16.3691C186.275 16.4358 186.173 16.4932 186.066 16.5406L185.825 16.1723L186.403 15.7913C186.479 15.9056 186.561 16.0262 186.644 16.1596Z" fill="black"/>
<path d="M187.044 14.6983C186.996 14.6286 186.933 14.5701 186.86 14.5269H186.809H186.726H186.682H186.612C186.169 14.5259 185.738 14.666 185.38 14.9269C185 15.1538 184.701 15.4934 184.523 15.8985V15.962C184.523 15.962 184.523 15.962 184.523 16.0065C184.52 16.036 184.52 16.0658 184.523 16.0954C184.526 16.1122 184.526 16.1294 184.523 16.1462C184.537 16.2315 184.567 16.3133 184.612 16.3875C184.661 16.454 184.721 16.5119 184.79 16.559C185.069 16.7622 185.698 16.6415 186.295 16.2478C186.892 15.8541 187.253 15.3206 187.177 14.9777C187.155 14.8756 187.109 14.78 187.044 14.6983Z" fill="#A6BC35"/>
<path opacity="0.3" d="M186.441 14.8511C186.568 15.048 186.339 15.4226 185.926 15.6957C185.513 15.9688 185.075 16.0259 184.948 15.8354C184.821 15.6449 184.948 15.5179 185.075 15.3274C184.967 15.5814 185.139 15.7656 185.444 15.7021C185.779 15.6068 186.077 15.4092 186.295 15.1369C186.409 14.9718 186.441 14.8257 186.295 14.7432C186.354 14.7619 186.405 14.7999 186.441 14.8511Z" fill="black"/>
<path d="M186.707 23.3921C186.398 24.1847 185.984 24.9322 185.475 25.6147C185.647 25.2146 185.475 24.7384 184.84 24.3066C184.332 23.9573 183.824 23.6715 183.45 23.4366L183.291 23.3477L183.615 22.7698C183.666 22.8021 183.719 22.8318 183.774 22.8587C184.148 23.0619 184.682 23.3286 185.247 23.5763C185.971 23.8493 186.46 23.7223 186.707 23.3921Z" fill="#A6BC35"/>
<path opacity="0.2" d="M183.888 22.8841C183.843 22.9793 183.799 23.0809 183.742 23.1826C183.689 23.2798 183.63 23.3731 183.564 23.462L183.316 23.3223L183.64 22.7444L183.888 22.8841Z" fill="black"/>
<path d="M183.621 21.8616C183.567 21.836 183.509 21.8188 183.45 21.8108H183.393H183.329H183.297H183.253C182.982 21.9529 182.76 22.1745 182.618 22.4458C182.45 22.7152 182.375 23.0315 182.402 23.3476C182.402 23.3476 182.402 23.3476 182.402 23.3984C182.402 23.3984 182.402 23.4492 182.402 23.3984C182.4 23.4173 182.4 23.4365 182.402 23.4555C182.435 23.5067 182.481 23.5483 182.535 23.5762C182.588 23.6045 182.647 23.6218 182.707 23.627C182.948 23.6651 183.31 23.3793 183.558 22.9284C183.805 22.4776 183.85 22.0267 183.691 21.8425C183.667 21.8465 183.644 21.8528 183.621 21.8616Z" fill="#A6BC35"/>
<path opacity="0.3" d="M183.291 22.1608C183.437 22.2434 183.418 22.5545 183.247 22.8657C183.075 23.1769 182.821 23.361 182.675 23.2785C182.529 23.1959 182.554 23.088 182.586 22.9165C182.586 23.1134 182.77 23.1705 182.948 23.0308C183.119 22.856 183.236 22.6355 183.285 22.3958C183.285 22.2497 183.285 22.1481 183.158 22.1418C183.203 22.1317 183.25 22.1384 183.291 22.1608Z" fill="black"/>
<path d="M184.802 27.7612C184.938 28.6516 184.86 29.5616 184.574 30.4157C184.529 29.9584 183.862 29.533 182.434 29.3361C181.265 29.171 180.135 29.0503 179.328 28.9741L178.979 28.9424L179.043 28.2566H179.386C180.198 28.3201 181.329 28.3963 182.51 28.4344C183.951 28.5042 184.675 28.2058 184.802 27.7612Z" fill="#A6BC35"/>
<path opacity="0.2" d="M179.474 28.2886C179.484 28.4048 179.484 28.5216 179.474 28.6379C179.463 28.7553 179.444 28.872 179.417 28.9871L178.979 28.9427L179.043 28.2568L179.474 28.2886Z" fill="black"/>
<path d="M178.516 26.9291C178.423 26.9253 178.33 26.9382 178.242 26.9672H178.185L178.103 27.0244H178.065L178.014 27.0752C177.72 27.457 177.551 27.9207 177.531 28.4024C177.463 28.8833 177.552 29.3733 177.785 29.7995C177.796 29.823 177.811 29.8445 177.83 29.863L177.861 29.9011L177.931 29.9646H177.982C178.061 30.0118 178.15 30.0401 178.242 30.0471C178.333 30.0557 178.424 30.0449 178.509 30.0154C178.877 29.9138 179.201 29.2914 179.265 28.5104C179.328 27.7293 179.119 27.0625 178.782 26.9037C178.693 26.8958 178.602 26.9044 178.516 26.9291Z" fill="#A6BC35"/>
<path opacity="0.3" d="M178.236 27.5515C178.49 27.5515 178.662 28.0278 178.617 28.5676C178.573 29.1074 178.325 29.5201 178.065 29.4947C177.912 29.4947 177.785 29.3042 177.722 29.0438C177.868 29.3106 178.141 29.2915 178.293 28.9803C178.428 28.6346 178.457 28.2566 178.376 27.8944C178.306 27.6849 178.204 27.5579 178.039 27.6214C178.066 27.5971 178.097 27.5784 178.13 27.5664C178.164 27.5544 178.2 27.5493 178.236 27.5515Z" fill="black"/>
<path d="M184.841 32.5369C185.284 33.3653 185.593 34.2592 185.755 35.1849C185.545 34.7531 184.955 34.5499 183.971 34.8103C183.17 35.0135 182.408 35.2548 181.862 35.4453L181.634 35.5215L181.399 34.823L181.627 34.7468C182.167 34.5499 182.897 34.2705 183.672 33.9339C184.599 33.5529 184.942 33.0068 184.841 32.5369Z" fill="#A6BC35"/>
<path opacity="0.2" d="M181.71 34.7148C181.761 34.8228 181.805 34.9308 181.85 35.0514C181.891 35.1675 181.925 35.2863 181.951 35.407L181.634 35.515L181.399 34.8228L181.71 34.7148Z" fill="black"/>
<path d="M180.624 34.1876C180.558 34.2121 180.498 34.2488 180.446 34.2956C180.428 34.314 180.413 34.3355 180.401 34.3591V34.4099C180.324 34.7551 180.342 35.1151 180.454 35.4508C180.566 35.7865 180.767 36.0853 181.036 36.315H181.081H181.119H181.183H181.246C181.313 36.3302 181.382 36.3302 181.449 36.315C181.512 36.2951 181.569 36.2602 181.614 36.2134C181.83 36.0419 181.862 35.5275 181.672 34.9877C181.481 34.448 181.094 34.1876 180.821 34.1876C180.756 34.1748 180.689 34.1748 180.624 34.1876Z" fill="#A6BC35"/>
<path opacity="0.3" d="M180.617 34.7021C180.795 34.6386 181.043 34.8926 181.176 35.2673C181.31 35.642 181.265 35.9912 181.087 36.0547C180.91 36.1182 180.84 36.0103 180.719 35.8515C180.897 35.9912 181.075 35.896 181.081 35.642C181.07 35.3691 180.977 35.1058 180.814 34.8863C180.706 34.7656 180.605 34.7148 180.51 34.8037C180.519 34.7802 180.534 34.7591 180.553 34.7416C180.571 34.7241 180.593 34.7106 180.617 34.7021Z" fill="black"/>
<path d="M187.038 37.2678C187.531 37.7385 187.997 38.2367 188.435 38.7601C188.231 38.5696 187.882 38.3855 187.634 38.5188C187.447 38.6235 187.27 38.7469 187.107 38.8872L187.057 38.9316L186.764 38.6141L186.815 38.5696C186.965 38.4197 187.091 38.2485 187.19 38.0616C187.249 37.9296 187.266 37.7827 187.239 37.6407C187.212 37.4987 187.141 37.3685 187.038 37.2678Z" fill="#A6BC35"/>
<path opacity="0.2" d="M186.879 38.5063L187.038 38.6588L187.177 38.8239L187.057 38.9318L186.764 38.6143L186.879 38.5063Z" fill="black"/>
<path d="M185.939 38.4301C185.9 38.4648 185.869 38.5083 185.85 38.5571C185.847 38.5696 185.847 38.5826 185.85 38.5952C185.847 38.6119 185.847 38.6292 185.85 38.646C185.847 38.6585 185.847 38.6716 185.85 38.6841C185.896 38.9532 186.027 39.2004 186.225 39.389C186.402 39.5981 186.639 39.7468 186.904 39.8144H187.044H187.076C187.128 39.8006 187.176 39.7744 187.216 39.7382C187.251 39.7015 187.279 39.6584 187.298 39.6112C187.393 39.4207 187.254 39.0461 186.955 38.7285C186.657 38.411 186.288 38.2396 186.092 38.3221C186.03 38.3409 185.977 38.3787 185.939 38.4301Z" fill="#A6BC35"/>
<path opacity="0.3" d="M186.091 38.7858C186.199 38.6842 186.453 38.7858 186.663 39.0081C186.872 39.2304 186.955 39.4907 186.847 39.5923C186.739 39.6939 186.657 39.6368 186.523 39.5606C186.688 39.605 186.784 39.4844 186.714 39.3002C186.617 39.115 186.469 38.9609 186.288 38.8557C186.174 38.8049 186.085 38.7985 186.047 38.8938C186.046 38.8737 186.05 38.8536 186.057 38.835C186.065 38.8163 186.077 38.7996 186.091 38.7858Z" fill="black"/>
<path d="M190.651 40.3477C191.537 40.5026 192.381 40.8423 193.128 41.3447C192.677 41.243 192.289 41.2367 191.75 42.3925C191.305 43.3387 191.242 43.3831 190.975 44.0562C190.93 44.1515 190.892 44.2467 190.854 44.3357L190.219 44.0816C190.257 43.9927 190.295 43.8975 190.334 43.7959C190.594 43.1227 190.607 43.0529 190.937 42.0686C191.331 40.8557 191.045 40.589 190.651 40.3477Z" fill="#A6BC35"/>
<path opacity="0.2" d="M190.372 43.675C190.486 43.7011 190.599 43.7351 190.708 43.7767C190.816 43.8185 190.92 43.8695 191.019 43.9291L190.854 44.3355L190.219 44.0815C190.264 43.9545 190.321 43.8148 190.372 43.675Z" fill="black"/>
<path d="M189.038 44.1712C189.009 44.246 188.993 44.3257 188.994 44.4061C188.994 44.4061 188.994 44.4442 188.994 44.4569C188.994 44.4569 188.994 44.4696 188.994 44.4569C188.991 44.4844 188.991 44.512 188.994 44.5395V44.5776V44.6348C189.229 44.9836 189.573 45.2448 189.972 45.3777C190.354 45.5548 190.783 45.606 191.197 45.5238H191.261H191.299L191.369 45.4857C191.369 45.4857 191.4 45.4857 191.407 45.4857C191.466 45.4311 191.513 45.3641 191.544 45.2895C191.574 45.2149 191.588 45.1345 191.585 45.0539C191.585 44.7237 191.159 44.2982 190.524 44.0442C189.889 43.7902 189.286 43.8029 189.063 44.0442C189.05 44.0854 189.042 44.128 189.038 44.1712Z" fill="#A6BC35"/>
<path opacity="0.3" d="M189.47 44.5578C189.559 44.3483 189.978 44.3228 190.41 44.5007C190.841 44.6785 191.134 44.9833 191.045 45.1865C190.956 45.3897 190.81 45.377 190.575 45.3579C190.835 45.3135 190.886 45.0785 190.67 44.869C190.415 44.6716 190.109 44.5525 189.787 44.5261C189.597 44.5261 189.463 44.5832 189.476 44.7356C189.452 44.6792 189.45 44.6158 189.47 44.5578Z" fill="black"/>
<path d="M195.522 41.6618C196.258 41.4875 197.022 41.4594 197.77 41.5793C197.389 41.6491 197.103 42.1445 197.077 43.1351C197.039 43.4362 197.024 43.7398 197.033 44.0432C197.033 44.1258 197.033 44.202 197.033 44.2782H196.449C196.449 44.2083 196.449 44.1258 196.449 44.0432C196.433 43.7402 196.395 43.4388 196.334 43.1415C196.233 42.1762 195.909 41.7063 195.522 41.6618Z" fill="#A6BC35"/>
<path opacity="0.2" d="M196.455 43.9297C196.552 43.9228 196.65 43.9228 196.747 43.9297C196.844 43.9199 196.942 43.9199 197.039 43.9297C197.039 44.0567 197.039 44.1837 197.039 44.298H196.455C196.455 44.1837 196.455 44.063 196.455 43.9297Z" fill="black"/>
<path d="M195.763 44.666C195.765 44.7237 195.78 44.7802 195.807 44.8311L195.846 44.8756H195.884C196.143 45.0273 196.442 45.096 196.741 45.0724C197.04 45.0752 197.331 44.9817 197.573 44.8057H197.611C197.624 44.7903 197.634 44.7732 197.643 44.7549V44.7168C197.663 44.6641 197.674 44.6082 197.674 44.5517C197.669 44.4945 197.654 44.4386 197.63 44.3866C197.541 44.1707 197.135 44.0246 196.652 44.0437C196.169 44.0627 195.776 44.2405 195.7 44.4628C195.7 44.5354 195.722 44.6062 195.763 44.666Z" fill="#A6BC35"/>
<path opacity="0.3" d="M196.163 44.7865C196.163 44.6277 196.424 44.4944 196.754 44.4817C197.084 44.469 197.389 44.5833 197.389 44.742C197.389 44.9008 197.294 44.9325 197.135 44.9897C197.294 44.8817 197.255 44.7166 197.052 44.6468C196.833 44.5784 196.598 44.5784 196.379 44.6468C196.258 44.7039 196.189 44.7738 196.239 44.869C196.222 44.861 196.206 44.8496 196.193 44.8354C196.18 44.8212 196.17 44.8046 196.163 44.7865Z" fill="black"/>
<path d="M200.132 41.0461C200.829 40.4826 201.649 40.091 202.526 39.9031C202.151 40.1761 202.139 40.9636 202.704 42.2844C203.161 43.3703 203.637 44.3927 203.974 45.1294C204.029 45.2352 204.08 45.3368 204.126 45.4342L203.491 45.7454C203.447 45.6501 203.396 45.5421 203.339 45.4342C202.977 44.7039 202.456 43.7006 201.878 42.6782C201.205 41.389 200.576 40.9191 200.132 41.0461Z" fill="#A6BC35"/>
<path opacity="0.2" d="M203.326 45.3197C203.425 45.2553 203.526 45.196 203.631 45.1419C203.736 45.0914 203.844 45.0489 203.955 45.0149C204.018 45.1546 204.088 45.2816 204.145 45.4023L203.51 45.7134C203.44 45.6182 203.396 45.4594 203.326 45.3197Z" fill="black"/>
<path d="M202.755 46.717C202.794 46.7926 202.848 46.8595 202.913 46.9138H202.958L203.034 46.9519H203.078H203.148C203.586 46.9837 204.025 46.8981 204.419 46.7038C204.813 46.5096 205.148 46.2138 205.39 45.847C205.391 45.8258 205.391 45.8046 205.39 45.7835C205.393 45.7688 205.393 45.7537 205.39 45.739C205.396 45.7097 205.396 45.6794 205.39 45.6501C205.396 45.6316 205.396 45.6115 205.39 45.593C205.389 45.5072 205.37 45.4227 205.333 45.3453C205.296 45.2715 205.244 45.2064 205.18 45.1548C204.926 44.9135 204.291 44.9579 203.65 45.2691C203.009 45.5803 202.583 46.0692 202.621 46.4121C202.634 46.5249 202.68 46.6313 202.755 46.717Z" fill="#A6BC35"/>
<path opacity="0.3" d="M203.371 46.6407C203.269 46.4312 203.542 46.0819 204.006 45.866C204.469 45.6501 204.888 45.6437 204.99 45.866C205.092 46.0882 204.99 46.1835 204.8 46.3486C204.946 46.1136 204.8 45.9104 204.482 45.9358C204.148 45.9926 203.839 46.1473 203.593 46.3804C203.46 46.5391 203.409 46.6725 203.536 46.7741C203.5 46.7664 203.466 46.7503 203.437 46.7271C203.409 46.7039 203.386 46.6743 203.371 46.6407Z" fill="black"/>
<path d="M204.711 38.0743C205.12 37.3295 205.626 36.6419 206.216 36.0295C205.993 36.4042 206.082 36.8995 206.641 37.4012C207.098 37.8076 207.555 38.1759 207.911 38.43L208.051 38.5379L207.663 39.0713L207.517 38.9634C207.174 38.7157 206.685 38.3855 206.158 38.0743C205.517 37.6933 205.022 37.7568 204.711 38.0743Z" fill="#A6BC35"/>
<path opacity="0.2" d="M207.441 38.8999C207.494 38.8046 207.553 38.7133 207.619 38.6268C207.684 38.5363 207.754 38.4494 207.828 38.3665L208.057 38.5379L207.67 39.0713L207.441 38.8999Z" fill="black"/>
<path d="M207.568 39.9473C207.618 39.9822 207.674 40.006 207.733 40.0171H207.791C207.811 40.0235 207.833 40.0235 207.854 40.0171H207.886H207.937C208.232 39.9039 208.485 39.702 208.661 39.4392C208.862 39.1954 208.979 38.8919 208.991 38.5756V38.5248V38.4676V38.4359C208.963 38.3824 208.923 38.3358 208.875 38.2996C208.826 38.2633 208.771 38.2383 208.711 38.2263C208.476 38.1565 208.076 38.3978 207.778 38.8042C207.479 39.2106 207.371 39.6615 207.505 39.8711C207.523 39.8991 207.544 39.9247 207.568 39.9473Z" fill="#A6BC35"/>
<path opacity="0.3" d="M207.936 39.6933C207.803 39.598 207.86 39.2869 208.07 39.0011C208.279 38.7153 208.559 38.5693 208.705 38.6645C208.851 38.7598 208.8 38.8677 208.743 39.0392C208.743 38.836 208.597 38.7598 208.406 38.8741C208.212 39.0228 208.066 39.2262 207.987 39.4583C207.956 39.598 207.987 39.6996 208.083 39.725C208.057 39.7299 208.031 39.7295 208.006 39.7241C207.981 39.7186 207.957 39.7081 207.936 39.6933Z" fill="black"/>
<path d="M206.997 34.4293C206.98 33.5285 207.235 32.6436 207.727 31.8892C207.727 32.3527 208.464 32.9433 210.197 33.5148C210.61 33.6545 211.518 34.0483 212.509 34.334L212.928 34.4547L212.744 35.1215L212.318 35.0072C211.321 34.7277 210.248 34.4356 209.956 34.3721C208.178 33.9149 207.251 34.0229 206.997 34.4293Z" fill="#A6BC35"/>
<path opacity="0.2" d="M212.331 34.9815C212.36 34.7489 212.425 34.522 212.521 34.3083L212.94 34.429L212.756 35.0958L212.331 34.9815Z" fill="black"/>
<path d="M213.01 36.4928C213.1 36.5149 213.194 36.5149 213.284 36.4928H213.347L213.436 36.4547H213.474L213.544 36.4103C213.909 36.0926 214.164 35.6682 214.274 35.1973C214.425 34.7373 214.425 34.2413 214.274 33.7812C214.265 33.7574 214.254 33.7341 214.242 33.7114C214.245 33.6966 214.245 33.6817 214.242 33.6669L214.185 33.5907L214.141 33.5526C214.07 33.4924 213.988 33.4471 213.9 33.4193C213.809 33.4006 213.717 33.4006 213.626 33.4193C213.252 33.4193 212.814 34.0035 212.604 34.7528C212.395 35.5022 212.471 36.2007 212.776 36.423C212.849 36.4613 212.928 36.485 213.01 36.4928Z" fill="#A6BC35"/>
<path opacity="0.3" d="M213.398 35.9406C213.157 35.8707 213.074 35.3944 213.22 34.8737C213.366 34.353 213.684 33.991 213.931 34.0609C214.179 34.1307 214.179 34.3022 214.185 34.5752C214.096 34.2831 213.823 34.2514 213.614 34.5244C213.416 34.8395 213.316 35.2066 213.328 35.5786C213.328 35.7945 213.43 35.9406 213.607 35.9088C213.544 35.9459 213.469 35.9572 213.398 35.9406Z" fill="black"/>
<path d="M207.81 29.8508C207.484 28.9637 207.348 28.0185 207.409 27.0757C207.549 27.5393 208.241 27.825 209.556 27.7107C210.629 27.6218 210.521 27.6155 211.258 27.5139L211.569 27.4758L211.671 28.1933L211.359 28.2378C210.623 28.3521 210.724 28.4092 209.683 28.6252C208.394 28.8982 207.816 29.3681 207.81 29.8508Z" fill="#A6BC35"/>
<path opacity="0.2" d="M211.34 28.2503C211.34 28.136 211.289 28.0154 211.27 27.8884C211.251 27.7613 211.27 27.6407 211.239 27.5264L211.569 27.4819L211.67 28.1995L211.34 28.2503Z" fill="black"/>
<path d="M212.331 28.9552C212.398 28.9494 212.461 28.9252 212.515 28.8853H212.553L212.598 28.8345C212.596 28.8177 212.596 28.8006 212.598 28.7837C212.731 28.458 212.775 28.1025 212.724 27.7542C212.674 27.4059 212.532 27.0773 212.312 26.8024L212.267 26.7643L212.204 26.7262H212.159C212.093 26.7101 212.023 26.7101 211.956 26.7262C211.891 26.7348 211.829 26.7564 211.772 26.7897C211.531 26.9231 211.404 27.4248 211.486 27.9899C211.569 28.5551 211.829 28.9996 212.121 29.0568C212.2 29.0441 212.272 29.0088 212.331 28.9552Z" fill="#A6BC35"/>
<path opacity="0.3" d="M212.413 28.4721C212.229 28.5039 212.032 28.2054 211.975 27.8371C211.918 27.4688 212.02 27.1068 212.21 27.0814C212.401 27.056 212.445 27.1703 212.528 27.3481C212.382 27.183 212.191 27.2465 212.134 27.4878C212.097 27.7585 212.139 28.034 212.255 28.2816C212.337 28.415 212.432 28.4912 212.54 28.4213C212.505 28.452 212.46 28.4699 212.413 28.4721Z" fill="black"/>
<path d="M206.616 24.7385C206.219 24.182 205.854 23.6032 205.523 23.0049C205.688 23.2335 206 23.4812 206.273 23.3923C206.476 23.3275 206.672 23.2402 206.857 23.1319H206.914L207.143 23.4939L207.085 23.532C206.909 23.6476 206.752 23.7913 206.622 23.9574C206.545 24.0731 206.504 24.2084 206.503 24.347C206.502 24.4856 206.541 24.6216 206.616 24.7385Z" fill="#A6BC35"/>
<path opacity="0.2" d="M206.984 23.551C206.94 23.4942 206.9 23.4349 206.863 23.3732C206.824 23.3117 206.788 23.2481 206.755 23.1826L206.889 23.1001L207.117 23.4621L206.984 23.551Z" fill="black"/>
<path opacity="0.3" d="M207.809 23.4242C207.689 23.5004 207.454 23.3543 207.295 23.1003C207.136 22.8463 207.098 22.5669 207.225 22.4653C207.352 22.3637 207.416 22.4653 207.536 22.5542C207.378 22.478 207.263 22.5542 207.295 22.7764C207.352 22.9785 207.469 23.1582 207.632 23.2908C207.733 23.367 207.822 23.3861 207.873 23.2908C207.877 23.3168 207.873 23.3433 207.861 23.3671C207.85 23.3908 207.832 23.4107 207.809 23.4242Z" fill="black"/>
<path opacity="0.1" d="M202.977 39.6616C200.094 41.5667 191.254 42.2017 187.025 34.829C182.796 27.4563 189.057 20.6678 191.692 19.2834C190.166 19.9145 188.79 20.8609 187.655 22.0608C186.52 23.2607 185.651 24.6868 185.106 26.2459C184.561 27.8049 184.351 29.4616 184.49 31.1073C184.63 32.7531 185.116 34.3508 185.916 35.7957C186.716 37.2406 187.812 38.5002 189.133 39.4918C190.454 40.4834 191.97 41.1846 193.581 41.5496C195.191 41.9146 196.861 41.9351 198.48 41.6098C200.1 41.2844 201.632 40.6205 202.977 39.6616Z" fill="black"/>
<path d="M189.171 30.1044C189.276 30.4623 189.239 30.847 189.068 31.1783C188.896 31.5095 188.603 31.7618 188.25 31.8825C187.615 31.9904 186.949 31.3745 186.796 30.5045C186.691 30.1465 186.728 29.7619 186.9 29.4306C187.071 29.0993 187.364 28.8471 187.717 28.7264C188.371 28.6184 189.025 29.2344 189.171 30.1044Z" fill="#A6BC35"/>
<path opacity="0.15" d="M189.171 30.1044C189.276 30.4623 189.239 30.847 189.068 31.1783C188.896 31.5095 188.603 31.7618 188.25 31.8825C187.615 31.9904 186.949 31.3745 186.796 30.5045C186.691 30.1465 186.728 29.7619 186.9 29.4306C187.071 29.0993 187.364 28.8471 187.717 28.7264C188.371 28.6184 189.025 29.2344 189.171 30.1044Z" fill="black"/>
<path opacity="0.15" d="M187.412 29.3108C187.647 28.9678 188.314 29.2218 188.504 30.0156C188.589 30.2693 188.599 30.5421 188.532 30.8011C188.466 31.0602 188.326 31.2946 188.13 31.4762C188.07 31.5053 188.005 31.5223 187.939 31.5262C187.873 31.5302 187.807 31.521 187.744 31.4991C187.682 31.4773 187.624 31.4432 187.575 31.399C187.525 31.3547 187.485 31.3011 187.457 31.2412C187.673 31.4127 187.958 31.3492 188.123 30.9999C188.221 30.7691 188.261 30.5182 188.241 30.2684C188.222 30.0186 188.142 29.7773 188.009 29.5648C187.831 29.3044 187.565 29.2155 187.412 29.3108Z" fill="black"/>
<path d="M203.085 32.4542C203.187 31.5779 203.809 30.9301 204.469 31.0063C205.13 31.0825 205.581 31.8573 205.479 32.7336C205.377 33.61 204.755 34.2577 204.076 34.1878C203.396 34.118 202.983 33.3305 203.085 32.4542Z" fill="#A6BC35"/>
<path opacity="0.15" d="M203.085 32.4542C203.187 31.5779 203.809 30.9301 204.469 31.0063C205.13 31.0825 205.581 31.8573 205.479 32.7336C205.377 33.61 204.755 34.2577 204.076 34.1878C203.396 34.118 202.983 33.3305 203.085 32.4542Z" fill="black"/>
<path opacity="0.15" d="M204.552 33.7049C204.228 33.9652 203.663 33.5398 203.701 32.7269C203.739 32.0919 204.094 31.5013 204.469 31.4569C204.534 31.4459 204.601 31.448 204.665 31.4628C204.729 31.4777 204.79 31.5051 204.844 31.5434C204.897 31.5817 204.943 31.6303 204.978 31.6863C205.013 31.7422 205.036 31.8046 205.047 31.8696C204.888 31.6474 204.602 31.6283 204.342 31.9204C204.193 32.1132 204.091 32.3383 204.045 32.5777C203.998 32.817 204.009 33.0639 204.075 33.2984C204.145 33.5969 204.355 33.7493 204.552 33.7049Z" fill="black"/>
<path d="M195.674 26.4469C195.386 26.5711 195.061 26.579 194.768 26.4689C194.474 26.3588 194.234 26.1392 194.099 25.8563C193.94 25.3229 194.391 24.7196 195.102 24.51C195.39 24.3853 195.714 24.3765 196.007 24.4854C196.301 24.5943 196.541 24.8124 196.677 25.0942C196.836 25.6277 196.385 26.2373 195.674 26.4469Z" fill="#A6BC35"/>
<path opacity="0.15" d="M195.674 26.4469C195.386 26.5711 195.061 26.579 194.768 26.4689C194.474 26.3588 194.234 26.1392 194.099 25.8563C193.94 25.3229 194.391 24.7196 195.102 24.51C195.39 24.3853 195.714 24.3765 196.007 24.4854C196.301 24.5943 196.541 24.8124 196.677 25.0942C196.836 25.6277 196.385 26.2373 195.674 26.4469Z" fill="black"/>
<path opacity="0.15" d="M196.157 24.8972C196.468 25.0623 196.328 25.6402 195.68 25.8815C195.476 25.9831 195.246 26.0216 195.02 25.9922C194.794 25.9628 194.582 25.8668 194.41 25.7164C194.38 25.6699 194.359 25.6177 194.349 25.563C194.339 25.5082 194.34 25.452 194.351 25.3977C194.363 25.3433 194.386 25.2918 194.418 25.2462C194.45 25.2006 194.49 25.1619 194.537 25.1322C194.417 25.329 194.493 25.5576 194.804 25.6593C195.006 25.7186 195.22 25.7283 195.427 25.6874C195.633 25.6465 195.827 25.5562 195.992 25.4243C196.208 25.2465 196.252 25.0369 196.157 24.8972Z" fill="black"/>
<path d="M194.626 33.0124C195.414 33.4125 195.814 34.2126 195.509 34.8032C195.204 35.3937 194.334 35.5589 193.54 35.1588C192.747 34.7587 192.359 33.9586 192.658 33.368C192.956 32.7774 193.839 32.6187 194.626 33.0124Z" fill="#A6BC35"/>
<path opacity="0.15" d="M194.626 33.0124C195.414 33.4125 195.814 34.2126 195.509 34.8032C195.204 35.3937 194.334 35.5589 193.54 35.1588C192.747 34.7587 192.359 33.9586 192.658 33.368C192.956 32.7774 193.839 32.6187 194.626 33.0124Z" fill="black"/>
<path opacity="0.15" d="M192.943 33.9653C192.81 33.5653 193.407 33.1779 194.156 33.5018C194.753 33.7494 195.172 34.2892 195.115 34.6639C195.104 34.7288 195.08 34.7908 195.044 34.8463C195.008 34.9017 194.962 34.9495 194.907 34.9868C194.853 35.024 194.792 35.0501 194.727 35.0633C194.662 35.0766 194.596 35.0768 194.531 35.0639C194.791 34.9941 194.912 34.7337 194.722 34.3908C194.595 34.1747 194.418 33.9925 194.206 33.8598C193.993 33.7271 193.752 33.6478 193.502 33.6288C193.185 33.6161 192.975 33.7621 192.943 33.9653Z" fill="black"/>
<path d="M193.871 23.0305C193.518 23.1673 193.126 23.1608 192.779 23.0125C192.431 22.8641 192.155 22.5857 192.01 22.2367C191.858 21.6017 192.429 20.8968 193.28 20.6936C194.131 20.4904 194.963 20.846 195.115 21.4938C195.268 22.1415 194.734 22.8273 193.871 23.0305Z" fill="#A6BC35"/>
<path opacity="0.15" d="M193.871 23.0305C193.518 23.1673 193.126 23.1608 192.779 23.0125C192.431 22.8641 192.155 22.5857 192.01 22.2367C191.858 21.6017 192.429 20.8968 193.28 20.6936C194.131 20.4904 194.963 20.846 195.115 21.4938C195.268 22.1415 194.734 22.8273 193.871 23.0305Z" fill="black"/>
<path opacity="0.15" d="M194.55 21.2202C194.906 21.4425 194.702 22.122 193.915 22.3569C193.669 22.4622 193.398 22.493 193.135 22.4456C192.872 22.3982 192.629 22.2746 192.435 22.0902C192.368 21.9739 192.35 21.8358 192.385 21.7061C192.419 21.5765 192.504 21.4657 192.62 21.398C192.467 21.6266 192.543 21.906 192.912 22.0331C193.148 22.1146 193.401 22.1381 193.648 22.1017C193.896 22.0652 194.131 21.9698 194.334 21.8235C194.582 21.6393 194.652 21.3917 194.55 21.2202Z" fill="black"/>
<path d="M199.186 32.2828C199.382 32.2187 199.593 32.2107 199.794 32.2597C199.994 32.3087 200.178 32.4127 200.323 32.5601C200.467 32.7075 200.568 32.8924 200.614 33.0941C200.66 33.2957 200.648 33.506 200.581 33.7015C200.513 33.8969 200.393 34.0697 200.233 34.2004C200.073 34.3311 199.879 34.4145 199.674 34.4413C199.469 34.468 199.261 34.4371 199.072 34.352C198.884 34.2668 198.723 34.1308 198.608 33.9592C198.466 33.6596 198.448 33.3166 198.556 33.0035C198.664 32.6903 198.89 32.4316 199.186 32.2828Z" fill="#A6BC35"/>
<path opacity="0.15" d="M199.186 32.2828C199.382 32.2187 199.593 32.2107 199.794 32.2597C199.994 32.3087 200.178 32.4127 200.323 32.5601C200.467 32.7075 200.568 32.8924 200.614 33.0941C200.66 33.2957 200.648 33.506 200.581 33.7015C200.513 33.8969 200.393 34.0697 200.233 34.2004C200.073 34.3311 199.879 34.4145 199.674 34.4413C199.469 34.468 199.261 34.4371 199.072 34.352C198.884 34.2668 198.723 34.1308 198.608 33.9592C198.466 33.6596 198.448 33.3166 198.556 33.0035C198.664 32.6903 198.89 32.4316 199.186 32.2828Z" fill="black"/>
<path opacity="0.15" d="M199.192 33.9655C198.83 33.8956 198.786 33.2733 199.364 32.8288C199.536 32.668 199.751 32.5602 199.983 32.5186C200.215 32.4769 200.454 32.503 200.672 32.5938C200.719 32.6307 200.758 32.6768 200.786 32.7293C200.815 32.7818 200.832 32.8395 200.837 32.899C200.843 32.9585 200.836 33.0184 200.817 33.0751C200.799 33.1318 200.769 33.1842 200.729 33.2288C200.786 32.9939 200.64 32.7907 200.291 32.7843C200.068 32.7924 199.85 32.8544 199.657 32.965C199.463 33.0756 199.3 33.2315 199.18 33.4194C199.033 33.6289 199.052 33.8575 199.192 33.9655Z" fill="black"/>
<path d="M202.247 27.3927C201.573 26.3703 201.65 25.132 202.412 24.624C203.174 24.116 204.355 24.5287 205.028 25.5511C205.701 26.5735 205.631 27.8118 204.863 28.3199C204.095 28.8279 202.92 28.4088 202.247 27.3927Z" fill="#A6BC35"/>
<path opacity="0.15" d="M202.247 27.3927C201.573 26.3703 201.65 25.132 202.412 24.624C203.174 24.116 204.355 24.5287 205.028 25.5511C205.701 26.5735 205.631 27.8118 204.863 28.3199C204.095 28.8279 202.92 28.4088 202.247 27.3927Z" fill="black"/>
<path opacity="0.15" d="M204.92 27.4057C204.812 27.9709 203.828 28.0407 203.142 27.1263C202.602 26.4087 202.469 25.4816 202.793 25.0688C202.851 24.998 202.924 24.9397 203.005 24.8971C203.087 24.8546 203.176 24.8287 203.268 24.821C203.359 24.8133 203.451 24.824 203.539 24.8524C203.626 24.8807 203.707 24.9262 203.777 24.9862C203.409 24.8973 203.085 25.1259 203.078 25.6657C203.08 26.0124 203.166 26.3535 203.33 26.659C203.494 26.9646 203.73 27.2253 204.018 27.4184C204.393 27.6534 204.749 27.628 204.92 27.4057Z" fill="black"/>
<path d="M190.429 35.293C190.515 35.4451 190.557 35.6182 190.55 35.793C190.544 35.9677 190.488 36.1371 190.39 36.2821C190.293 36.4271 190.156 36.542 189.997 36.6138C189.837 36.6855 189.661 36.7114 189.488 36.6884C189.314 36.6655 189.151 36.5946 189.016 36.4838C188.88 36.3729 188.779 36.2266 188.722 36.0611C188.665 35.8957 188.656 35.7177 188.695 35.5472C188.734 35.3767 188.82 35.2205 188.943 35.0961C189.168 34.9301 189.448 34.8579 189.725 34.8946C190.003 34.9313 190.255 35.0741 190.429 35.293Z" fill="#A6BC35"/>
<path opacity="0.15" d="M190.429 35.293C190.515 35.4451 190.557 35.6182 190.55 35.793C190.544 35.9677 190.488 36.1371 190.39 36.2821C190.293 36.4271 190.156 36.542 189.997 36.6138C189.837 36.6855 189.661 36.7114 189.488 36.6884C189.314 36.6655 189.151 36.5946 189.016 36.4838C188.88 36.3729 188.779 36.2266 188.722 36.0611C188.665 35.8957 188.656 35.7177 188.695 35.5472C188.734 35.3767 188.82 35.2205 188.943 35.0961C189.168 34.9301 189.448 34.8579 189.725 34.8946C190.003 34.9313 190.255 35.0741 190.429 35.293Z" fill="black"/>
<path opacity="0.15" d="M189.012 35.5853C189.012 35.2741 189.521 35.1344 189.984 35.5281C190.147 35.6438 190.273 35.8045 190.347 35.9905C190.42 36.1766 190.437 36.3801 190.397 36.5759C190.374 36.62 190.343 36.659 190.305 36.6906C190.267 36.7223 190.223 36.7459 190.175 36.7601C190.128 36.7743 190.078 36.7789 190.029 36.7734C189.98 36.7679 189.932 36.7526 189.889 36.7284C190.092 36.7284 190.238 36.5759 190.181 36.2902C190.142 36.1029 190.056 35.9284 189.932 35.783C189.808 35.6376 189.649 35.5259 189.47 35.4583C189.391 35.4222 189.302 35.4151 189.218 35.4384C189.134 35.4616 189.061 35.5136 189.012 35.5853Z" fill="black"/>
<path d="M195.763 37.236C196.658 37.3122 197.338 37.9218 197.274 38.595C197.211 39.2681 196.442 39.7507 195.547 39.6745C194.652 39.5983 193.978 38.9823 194.036 38.3092C194.093 37.6361 194.867 37.1534 195.763 37.236Z" fill="#A6BC35"/>
<path opacity="0.15" d="M195.763 37.236C196.658 37.3122 197.338 37.9218 197.274 38.595C197.211 39.2681 196.442 39.7507 195.547 39.6745C194.652 39.5983 193.978 38.9823 194.036 38.3092C194.093 37.6361 194.867 37.1534 195.763 37.236Z" fill="black"/>
<path opacity="0.15" d="M194.55 38.7599C194.277 38.4361 194.69 37.8455 195.522 37.8709C196.157 37.8709 196.792 38.2329 196.868 38.6075C196.886 38.6761 196.889 38.7475 196.878 38.8174C196.867 38.8873 196.841 38.9541 196.803 39.0137C196.765 39.0733 196.715 39.1244 196.656 39.1638C196.598 39.2032 196.531 39.23 196.462 39.2426C196.684 39.0711 196.697 38.779 196.392 38.5313C196.191 38.3739 195.954 38.2679 195.703 38.2225C195.452 38.1772 195.194 38.1938 194.95 38.271C194.633 38.3472 194.487 38.5631 194.55 38.7599Z" fill="black"/>
<path d="M200.767 36.7282C200.932 36.5591 201.154 36.4585 201.39 36.4467C201.625 36.4349 201.857 36.5128 202.037 36.6647C202.13 36.8798 202.151 37.1193 202.097 37.3473C202.042 37.5753 201.916 37.7796 201.736 37.9297C201.555 38.0797 201.332 38.1675 201.098 38.1799C200.864 38.1922 200.632 38.1285 200.437 37.9982C200.315 37.7853 200.282 37.5333 200.344 37.296C200.405 37.0588 200.557 36.855 200.767 36.7282Z" fill="#A6BC35"/>
<path opacity="0.15" d="M200.767 36.7282C200.932 36.5591 201.154 36.4585 201.39 36.4467C201.625 36.4349 201.857 36.5128 202.037 36.6647C202.13 36.8798 202.151 37.1193 202.097 37.3473C202.042 37.5753 201.916 37.7796 201.736 37.9297C201.555 38.0797 201.332 38.1675 201.098 38.1799C200.864 38.1922 200.632 38.1285 200.437 37.9982C200.315 37.7853 200.282 37.5333 200.344 37.296C200.405 37.0588 200.557 36.855 200.767 36.7282Z" fill="black"/>
<path opacity="0.15" d="M200.9 37.9981C200.627 37.9981 200.551 37.5155 200.938 37.1535C201.053 37.0212 201.203 36.9249 201.371 36.8764C201.539 36.8279 201.717 36.8293 201.885 36.8805C201.957 36.9295 202.007 37.0051 202.023 37.0907C202.04 37.1764 202.022 37.2652 201.974 37.3377C201.974 37.1599 201.872 37.0202 201.618 37.0456C201.456 37.0649 201.301 37.1236 201.167 37.2166C201.033 37.3096 200.924 37.434 200.85 37.579C200.754 37.7314 200.786 37.8965 200.9 37.9981Z" fill="black"/>
<path d="M198.887 22.4274C198.762 22.4241 198.639 22.3919 198.529 22.3334C198.418 22.2748 198.322 22.1915 198.249 22.0899C198.176 21.9883 198.127 21.8711 198.107 21.7476C198.086 21.624 198.095 21.4974 198.131 21.3776C198.168 21.2579 198.232 21.1482 198.318 21.0571C198.403 20.966 198.509 20.896 198.627 20.8525C198.744 20.8091 198.87 20.7933 198.995 20.8065C199.119 20.8198 199.239 20.8616 199.345 20.9287C199.891 21.0938 200.24 21.5638 200.113 21.9829C200.006 22.2011 199.818 22.3693 199.59 22.4522C199.361 22.5351 199.109 22.5262 198.887 22.4274Z" fill="#A6BC35"/>
<path opacity="0.15" d="M198.887 22.4274C198.762 22.4241 198.639 22.3919 198.529 22.3334C198.418 22.2748 198.322 22.1915 198.249 22.0899C198.176 21.9883 198.127 21.8711 198.107 21.7476C198.086 21.624 198.095 21.4974 198.131 21.3776C198.168 21.2579 198.232 21.1482 198.318 21.0571C198.403 20.966 198.509 20.896 198.627 20.8525C198.744 20.8091 198.87 20.7933 198.995 20.8065C199.119 20.8198 199.239 20.8616 199.345 20.9287C199.891 21.0938 200.24 21.5638 200.113 21.9829C200.006 22.2011 199.818 22.3693 199.59 22.4522C199.361 22.5351 199.109 22.5262 198.887 22.4274Z" fill="black"/>
<path opacity="0.15" d="M199.859 21.6333C199.992 21.8746 199.649 22.1858 199.129 22.0651C198.722 21.9698 198.392 21.6714 198.386 21.4301C198.386 21.3865 198.394 21.3433 198.411 21.3031C198.429 21.263 198.454 21.2267 198.485 21.1965C198.516 21.1662 198.554 21.1426 198.594 21.1271C198.635 21.1116 198.679 21.1045 198.722 21.1062C198.557 21.1824 198.513 21.3602 198.671 21.5634C198.778 21.6872 198.912 21.7836 199.064 21.8444C199.215 21.9052 199.379 21.9286 199.541 21.9127C199.745 21.8809 199.865 21.7603 199.859 21.6333Z" fill="black"/>
<path d="M192.645 28.815C192.688 29.0545 192.637 29.3015 192.502 29.5041C192.367 29.7066 192.159 29.8488 191.921 29.9009C191.483 29.9009 191.108 29.4754 191.076 28.9039C191.038 28.6681 191.091 28.4267 191.224 28.2285C191.357 28.0304 191.561 27.8904 191.794 27.837C192.226 27.7926 192.6 28.2434 192.645 28.815Z" fill="#A6BC35"/>
<path opacity="0.15" d="M192.645 28.815C192.688 29.0545 192.637 29.3015 192.502 29.5041C192.367 29.7066 192.159 29.8488 191.921 29.9009C191.483 29.9009 191.108 29.4754 191.076 28.9039C191.038 28.6681 191.091 28.4267 191.224 28.2285C191.357 28.0304 191.561 27.8904 191.794 27.837C192.226 27.7926 192.6 28.2434 192.645 28.815Z" fill="black"/>
<path opacity="0.15" d="M191.546 28.1739C191.731 27.9707 192.143 28.1739 192.181 28.7073C192.218 28.8781 192.204 29.0558 192.142 29.2192C192.081 29.3825 191.973 29.5245 191.832 29.6281C191.791 29.643 191.748 29.6496 191.705 29.6474C191.661 29.6453 191.619 29.6344 191.58 29.6154C191.54 29.5964 191.506 29.5698 191.477 29.5371C191.448 29.5043 191.427 29.4662 191.413 29.4249C191.54 29.5519 191.731 29.5328 191.858 29.3169C191.94 29.1765 191.987 29.0178 191.994 28.855C192 28.6921 191.967 28.5302 191.896 28.3834C191.819 28.1993 191.673 28.1231 191.546 28.1739Z" fill="black"/>
<path d="M199.503 28.0215C199.456 27.8802 199.448 27.7285 199.48 27.583C199.513 27.4376 199.585 27.3039 199.689 27.1967C199.793 27.0894 199.924 27.0128 200.068 26.9751C200.212 26.9374 200.364 26.9402 200.507 26.983C200.65 27.0259 200.778 27.1072 200.878 27.2181C200.978 27.3289 201.045 27.4651 201.072 27.6117C201.1 27.7582 201.087 27.9095 201.034 28.049C200.981 28.1885 200.891 28.3108 200.773 28.4025C200.665 28.4614 200.546 28.4983 200.424 28.5111C200.301 28.5238 200.177 28.5121 200.059 28.4767C199.941 28.4413 199.831 28.3828 199.736 28.3047C199.64 28.2265 199.561 28.1303 199.503 28.0215Z" fill="#A6BC35"/>
<path opacity="0.15" d="M199.503 28.0215C199.456 27.8802 199.448 27.7285 199.48 27.583C199.513 27.4376 199.585 27.3039 199.689 27.1967C199.793 27.0894 199.924 27.0128 200.068 26.9751C200.212 26.9374 200.364 26.9402 200.507 26.983C200.65 27.0259 200.778 27.1072 200.878 27.2181C200.978 27.3289 201.045 27.4651 201.072 27.6117C201.1 27.7582 201.087 27.9095 201.034 28.049C200.981 28.1885 200.891 28.3108 200.773 28.4025C200.665 28.4614 200.546 28.4983 200.424 28.5111C200.301 28.5238 200.177 28.5121 200.059 28.4767C199.941 28.4413 199.831 28.3828 199.736 28.3047C199.64 28.2265 199.561 28.1303 199.503 28.0215Z" fill="black"/>
<path opacity="0.15" d="M200.761 27.9767C200.716 28.2434 200.259 28.2879 199.916 27.8815C199.794 27.7577 199.71 27.602 199.673 27.4323C199.636 27.2626 199.647 27.0859 199.706 26.9226C199.733 26.8879 199.765 26.8587 199.803 26.8368C199.84 26.8148 199.882 26.8005 199.925 26.7946C199.968 26.7887 200.012 26.7913 200.054 26.8024C200.096 26.8135 200.135 26.8327 200.17 26.8591C199.992 26.8591 199.846 26.9416 199.852 27.1956C199.862 27.359 199.911 27.5176 199.995 27.658C200.079 27.7985 200.196 27.9165 200.335 28.0021C200.397 28.0501 200.474 28.074 200.553 28.0693C200.631 28.0646 200.705 28.0317 200.761 27.9767Z" fill="black"/>
<path d="M189.635 24.8591C189.515 25.0764 189.315 25.2381 189.078 25.3093C188.84 25.3806 188.584 25.3558 188.365 25.2402C188.155 25.1589 187.976 25.0141 187.853 24.826C187.729 24.638 187.668 24.4161 187.676 24.1913C187.685 23.9665 187.764 23.7501 187.902 23.5723C188.04 23.3945 188.229 23.2642 188.445 23.1996C188.66 23.1349 188.891 23.1392 189.104 23.2118C189.316 23.2844 189.501 23.4217 189.632 23.6045C189.764 23.7873 189.834 24.0065 189.835 24.2314C189.835 24.4564 189.765 24.6758 189.635 24.8591Z" fill="#A6BC35"/>
<path opacity="0.15" d="M189.635 24.8591C189.515 25.0764 189.315 25.2381 189.078 25.3093C188.84 25.3806 188.584 25.3558 188.365 25.2402C188.155 25.1589 187.976 25.0141 187.853 24.826C187.729 24.638 187.668 24.4161 187.676 24.1913C187.685 23.9665 187.764 23.7501 187.902 23.5723C188.04 23.3945 188.229 23.2642 188.445 23.1996C188.66 23.1349 188.891 23.1392 189.104 23.2118C189.316 23.2844 189.501 23.4217 189.632 23.6045C189.764 23.7873 189.834 24.0065 189.835 24.2314C189.835 24.4564 189.765 24.6758 189.635 24.8591Z" fill="black"/>
<path opacity="0.15" d="M189.197 23.678C189.47 23.6336 189.654 24.059 189.368 24.5099C189.14 24.8655 188.733 25.0751 188.517 24.9989C188.436 24.9688 188.37 24.908 188.333 24.8296C188.296 24.7512 188.292 24.6615 188.321 24.5798C188.321 24.7576 188.498 24.8592 188.74 24.7766C188.894 24.7187 189.033 24.6244 189.143 24.5017C189.254 24.3791 189.333 24.2316 189.375 24.0717C189.394 23.8685 189.324 23.7161 189.197 23.678Z" fill="black"/>
<path d="M197.439 31.1585C197.181 31.3555 196.869 31.4687 196.544 31.4832C196.219 31.4976 195.898 31.4125 195.623 31.2393C195.349 31.066 195.133 30.813 195.006 30.5139C194.879 30.2149 194.847 29.8842 194.913 29.5661C194.979 29.248 195.141 28.9578 195.376 28.7342C195.612 28.5107 195.911 28.3645 196.232 28.3153C196.553 28.2661 196.881 28.3162 197.173 28.4589C197.465 28.6016 197.707 28.83 197.865 29.1137C198.077 29.442 198.152 29.8407 198.072 30.2235C197.992 30.6062 197.765 30.9422 197.439 31.1585Z" fill="#A6BC35"/>
<path opacity="0.15" d="M197.439 31.1585C197.181 31.3555 196.869 31.4687 196.544 31.4832C196.219 31.4976 195.898 31.4125 195.623 31.2393C195.349 31.066 195.133 30.813 195.006 30.5139C194.879 30.2149 194.847 29.8842 194.913 29.5661C194.979 29.248 195.141 28.9578 195.376 28.7342C195.612 28.5107 195.911 28.3645 196.232 28.3153C196.553 28.2661 196.881 28.3162 197.173 28.4589C197.465 28.6016 197.707 28.83 197.865 29.1137C198.077 29.442 198.152 29.8407 198.072 30.2235C197.992 30.6062 197.765 30.9422 197.439 31.1585Z" fill="black"/>
<path opacity="0.15" d="M196.544 28.6824C196.049 28.6824 195.598 29.1904 195.744 29.9524C195.89 30.7145 196.893 31.2606 197.382 30.7589C197.129 30.7407 196.886 30.6551 196.677 30.511C196.468 30.367 196.302 30.1698 196.195 29.9397C196.131 29.8352 196.09 29.7188 196.073 29.5977C196.057 29.4766 196.065 29.3533 196.098 29.2355C196.13 29.1177 196.187 29.0079 196.264 28.9127C196.34 28.8176 196.436 28.7392 196.544 28.6824Z" fill="black"/>
<path d="M138.667 90.2038C138.536 90.2101 138.407 90.1759 138.296 90.1059C138.186 90.0358 138.099 89.9333 138.049 89.8123C137.999 89.6913 137.988 89.5579 138.017 89.4301C138.045 89.3024 138.113 89.1867 138.21 89.0988L138.902 88.413C138.962 88.3533 139.033 88.3061 139.112 88.274C139.19 88.2419 139.274 88.2255 139.358 88.2258C139.443 88.2261 139.527 88.2431 139.605 88.2757C139.683 88.3084 139.754 88.3561 139.813 88.4162C139.873 88.4762 139.92 88.5474 139.952 88.6257C139.984 88.704 140.001 88.7878 140 88.8724C140 88.9571 139.983 89.0408 139.951 89.1189C139.918 89.1969 139.87 89.2678 139.81 89.3274L139.124 90.0133C139.065 90.074 138.994 90.1222 138.915 90.1549C138.836 90.1876 138.752 90.2043 138.667 90.2038Z" fill="#E0E0E0"/>
<path d="M141.957 86.8951C141.826 86.9015 141.696 86.8673 141.586 86.7972C141.475 86.7271 141.389 86.6246 141.339 86.5037C141.289 86.3827 141.277 86.2492 141.306 86.1215C141.335 85.9938 141.402 85.878 141.499 85.7902L142.808 84.5201C142.929 84.3988 143.093 84.3307 143.265 84.3307C143.436 84.3307 143.601 84.3988 143.722 84.5201C143.843 84.6414 143.911 84.8058 143.911 84.9773C143.911 85.1488 143.843 85.3133 143.722 85.4345L142.414 86.7046C142.354 86.7654 142.283 86.8136 142.205 86.8463C142.126 86.879 142.042 86.8956 141.957 86.8951ZM145.875 82.9833C145.745 82.9883 145.616 82.9531 145.506 82.8825C145.397 82.8119 145.312 82.7093 145.263 82.5887C145.213 82.468 145.202 82.3352 145.231 82.2081C145.26 82.081 145.327 81.9659 145.424 81.8784L146.726 80.6083C146.847 80.4871 147.011 80.4189 147.183 80.4189C147.354 80.4189 147.519 80.4871 147.64 80.6083C147.761 80.7296 147.83 80.8941 147.83 81.0655C147.83 81.237 147.761 81.4015 147.64 81.5228L146.332 82.8309C146.271 82.8883 146.199 82.9329 146.121 82.9624C146.042 82.9918 145.959 83.0054 145.875 83.0024V82.9833ZM149.799 79.0779C149.668 79.0843 149.539 79.0501 149.428 78.98C149.318 78.9099 149.232 78.8074 149.182 78.6864C149.131 78.5655 149.12 78.432 149.149 78.3043C149.178 78.1765 149.245 78.0608 149.342 77.9729L150.65 76.7029C150.71 76.6433 150.781 76.596 150.86 76.5639C150.938 76.5318 151.022 76.5154 151.106 76.5157C151.191 76.516 151.275 76.533 151.353 76.5656C151.431 76.5983 151.502 76.646 151.561 76.7061C151.621 76.7661 151.668 76.8373 151.7 76.9156C151.733 76.9939 151.749 77.0777 151.749 77.1623C151.748 77.247 151.731 77.3307 151.699 77.4088C151.666 77.4868 151.618 77.5577 151.558 77.6173L150.256 78.8874C150.199 78.9516 150.128 79.0033 150.05 79.0394C149.971 79.0754 149.886 79.095 149.799 79.0969V79.0779ZM153.717 75.1661C153.587 75.1725 153.457 75.1383 153.347 75.0682C153.236 74.9981 153.15 74.8956 153.1 74.7746C153.05 74.6537 153.038 74.5202 153.067 74.3925C153.096 74.2648 153.163 74.149 153.26 74.0611L154.568 72.7911C154.69 72.6698 154.856 72.602 155.028 72.6026C155.2 72.6032 155.365 72.6722 155.486 72.7943C155.607 72.9164 155.675 73.0816 155.674 73.2537C155.674 73.4258 155.605 73.5906 155.483 73.7119L154.175 75.0137C154.113 75.071 154.042 75.1157 153.963 75.1451C153.885 75.1746 153.801 75.1882 153.717 75.1852V75.1661ZM157.636 71.2607C157.505 71.2656 157.377 71.2304 157.267 71.1598C157.158 71.0892 157.073 70.9867 157.023 70.866C156.974 70.7454 156.963 70.6125 156.992 70.4854C157.021 70.3584 157.088 70.2433 157.185 70.1557L158.455 68.8857C158.576 68.7644 158.74 68.6963 158.912 68.6963C159.083 68.6963 159.248 68.7644 159.369 68.8857C159.49 69.0069 159.559 69.1714 159.559 69.3429C159.559 69.5144 159.49 69.6788 159.369 69.8001L158.061 71.1019C157.946 71.2124 157.795 71.2759 157.636 71.2797V71.2607ZM161.56 67.3552C161.429 67.3616 161.3 67.3274 161.189 67.2573C161.079 67.1873 160.992 67.0847 160.942 66.9638C160.892 66.8428 160.881 66.7093 160.91 66.5816C160.938 66.4539 161.006 66.3382 161.103 66.2503L162.411 64.9421C162.533 64.8208 162.698 64.7531 162.87 64.7537C163.043 64.7542 163.207 64.8232 163.329 64.9453C163.45 65.0674 163.518 65.2327 163.517 65.4048C163.516 65.5768 163.448 65.7416 163.325 65.8629L162.017 67.2092C161.956 67.2654 161.883 67.3089 161.805 67.3372C161.727 67.3655 161.643 67.3781 161.56 67.3743V67.3552ZM165.478 63.4434C165.347 63.4498 165.218 63.4156 165.107 63.3455C164.997 63.2755 164.911 63.1729 164.86 63.052C164.81 62.931 164.799 62.7975 164.828 62.6698C164.856 62.5421 164.924 62.4264 165.021 62.3385L166.329 61.0367C166.45 60.9154 166.615 60.8473 166.786 60.8473C166.958 60.8473 167.122 60.9154 167.244 61.0367C167.365 61.1579 167.433 61.3224 167.433 61.4939C167.433 61.6654 167.365 61.8299 167.244 61.9511L165.935 63.2529C165.877 63.3172 165.807 63.3689 165.728 63.4049C165.65 63.4409 165.565 63.4605 165.478 63.4625V63.4434ZM169.403 59.5888C169.272 59.5952 169.142 59.561 169.032 59.4909C168.921 59.4208 168.835 59.3183 168.785 59.1973C168.735 59.0764 168.723 58.9429 168.752 58.8152C168.781 58.6875 168.848 58.5717 168.945 58.4839L170.247 57.2138C170.369 57.0925 170.533 57.0244 170.704 57.0244C170.876 57.0244 171.04 57.0925 171.162 57.2138C171.283 57.3351 171.351 57.4995 171.351 57.671C171.351 57.8425 171.283 58.007 171.162 58.1282L169.854 59.43C169.73 59.5397 169.568 59.5966 169.403 59.5888ZM173.321 55.677C173.19 55.6834 173.06 55.6492 172.95 55.5791C172.839 55.509 172.753 55.4065 172.703 55.2855C172.653 55.1646 172.642 55.0311 172.67 54.9034C172.699 54.7757 172.767 54.6599 172.864 54.5721L174.172 53.302C174.231 53.2405 174.302 53.1917 174.381 53.1583C174.459 53.1249 174.544 53.1077 174.629 53.1077C174.714 53.1077 174.799 53.1249 174.877 53.1583C174.956 53.1917 175.027 53.2405 175.086 53.302C175.148 53.3612 175.197 53.4323 175.23 53.5108C175.263 53.5894 175.281 53.6739 175.281 53.7592C175.281 53.8446 175.263 53.9291 175.23 54.0076C175.197 54.0862 175.148 54.1572 175.086 54.2164L173.778 55.4865C173.653 55.5977 173.488 55.6548 173.321 55.6453V55.677Z" fill="#E0E0E0"/>
<path d="M177.239 51.7402C177.108 51.7466 176.979 51.7124 176.868 51.6423C176.757 51.5722 176.671 51.4697 176.621 51.3487C176.571 51.2277 176.56 51.0943 176.588 50.9665C176.617 50.8388 176.685 50.7231 176.782 50.6352L177.467 49.9494C177.589 49.8281 177.753 49.76 177.925 49.76C178.096 49.76 178.261 49.8281 178.382 49.9494C178.503 50.0707 178.571 50.2351 178.571 50.4066C178.571 50.5781 178.503 50.7426 178.382 50.8638L177.696 51.5497C177.636 51.6104 177.565 51.6586 177.487 51.6913C177.408 51.7241 177.324 51.7407 177.239 51.7402Z" fill="#E0E0E0"/>
<path d="M195.966 55.5435C194.734 55.5429 193.503 55.4537 192.283 55.2767C185.775 54.3262 179.89 50.8885 175.865 45.6869C171.84 40.4854 169.99 33.9255 170.703 27.3875C171.416 20.8494 174.638 14.8428 179.689 10.6315C184.741 6.42013 191.229 4.33234 197.789 4.80735C204.349 5.28237 210.468 8.28314 214.861 13.1784C219.253 18.0736 221.575 24.4816 221.339 31.0542C221.103 37.6268 218.327 43.8517 213.595 48.4191C208.862 52.9865 202.543 55.5404 195.966 55.5435ZM195.884 6.43654C190.594 6.45011 185.464 8.24821 181.323 11.5399C177.182 14.8315 174.273 19.4241 173.067 24.5744C171.861 29.7247 172.428 35.1314 174.676 39.9195C176.924 44.7076 180.723 48.5969 185.456 50.9581C190.189 53.3192 195.581 54.0141 200.759 52.9301C205.936 51.8462 210.596 49.0469 213.985 44.9853C217.374 40.9237 219.293 35.8374 219.432 30.5495C219.571 25.2616 217.921 20.0816 214.75 15.8477C212.56 12.9137 209.712 10.534 206.436 8.89966C203.159 7.26527 199.545 6.42167 195.884 6.43654Z" fill="#455A64"/>
<path d="M179.296 12.125L177.808 13.5173L211.214 49.2413L212.703 47.849L179.296 12.125Z" fill="#455A64"/>
</svg>
