<svg width="331" height="360" viewBox="0 0 331 360" fill="none" xmlns="http://www.w3.org/2000/svg">
<path fill-rule="evenodd" clip-rule="evenodd" d="M321.996 277.182C288.515 327.123 231.556 359.999 166.914 359.999C147.419 359.999 128.624 357.005 110.959 351.458C107.606 326.406 106.241 289.91 109.754 255.802C98.0054 256.522 87.5363 254.782 79.852 249.656C67.0516 246.673 57.1405 235.648 55.8693 221.259C54.2374 202.785 67.4637 185.764 85.4115 183.245C90.1035 182.586 94.6534 182.984 98.8443 184.261C117.852 177.373 143.563 172.439 173.626 170.161L173.554 169.316C172.469 169.434 171.646 169.497 171.159 169.531C136.821 160.9 131.96 120.804 133.023 91.8916C128.151 90.5653 124.217 88.2541 121.104 85.317C104.321 76.8764 106.035 59.2572 106.038 59.1984L106.952 59.2737C106.947 59.3269 105.474 74.4808 118.971 83.0545C102.721 63.785 114.903 25.2065 131.287 43.6077C138.099 38.9386 205.51 2.10591 223.506 40.465C223.787 37.3782 223.881 24.8229 207.854 18.9513L208.167 18.0913C224.134 23.9408 224.687 36.2667 224.444 40.1245C225.672 38.4714 229.39 35.0762 238.793 36.1208L238.694 37.0322C228.609 35.9106 225.534 39.9859 224.898 41.0799C249.555 37.3048 241.583 69.5225 236.216 88.6763H236.221C236.346 88.6837 236.468 88.6956 236.592 88.7075L236.674 88.7167C236.796 88.7305 236.915 88.7461 237.035 88.7644L237.119 88.7764C237.24 88.7956 237.359 88.8168 237.478 88.8397L237.557 88.8562C237.679 88.881 237.8 88.9085 237.923 88.937L237.965 88.948C238.079 88.9774 238.192 89.0077 238.303 89.0398L238.372 89.0591C238.487 89.094 238.601 89.1307 238.715 89.1692L238.799 89.1986C238.911 89.2371 239.021 89.2803 239.131 89.3234L239.215 89.3574C239.325 89.4033 239.435 89.4492 239.544 89.4997L239.612 89.5318C239.719 89.5813 239.825 89.6337 239.929 89.6878L239.963 89.7043C240.076 89.7631 240.186 89.8246 240.297 89.8888L240.358 89.9237C240.462 89.9861 240.568 90.0513 240.672 90.1183L240.738 90.1623C240.842 90.2312 240.945 90.3019 241.046 90.3762L241.105 90.4184C241.207 90.4928 241.307 90.5699 241.406 90.6506L241.454 90.6892C241.547 90.7663 241.639 90.8452 241.73 90.926L241.769 90.9609C241.866 91.0481 241.96 91.1362 242.054 91.2271L242.11 91.2849C242.201 91.3748 242.29 91.4685 242.378 91.5639L242.431 91.6236C242.519 91.7209 242.605 91.8209 242.692 91.9228L242.734 91.976C242.821 92.0834 242.907 92.1908 242.99 92.3037L242.996 92.311L243 92.3166C243.084 92.4295 243.165 92.5478 243.247 92.6672L243.283 92.7213C243.36 92.8351 243.432 92.9526 243.505 93.072L243.555 93.1536C243.625 93.272 243.693 93.3923 243.759 93.5144L243.801 93.5924C243.868 93.72 243.935 93.8503 243.999 93.9815L244.026 94.0403C244.087 94.1697 244.147 94.3019 244.204 94.435L244.227 94.4873C244.287 94.6286 244.343 94.7718 244.397 94.9159L244.43 95.004C244.482 95.1472 244.534 95.2932 244.582 95.4409L244.611 95.5309C244.66 95.6823 244.706 95.8365 244.75 95.9944L244.77 96.0706C244.813 96.2294 244.854 96.3891 244.893 96.5525L244.902 96.5938C244.94 96.7599 244.975 96.9279 245.009 97.0986L245.027 97.1867C245.059 97.3556 245.089 97.5291 245.116 97.7053L245.131 97.8035C245.158 97.9806 245.182 98.1578 245.203 98.3404L245.206 98.3616L245.215 98.4377V98.4405L245.216 98.4469L245.217 98.4552V98.4653L245.218 98.4726L245.219 98.4818L245.221 98.4992L245.222 98.5084L245.223 98.5167V98.5176L245.224 98.524L245.225 98.5332V98.5424L245.226 98.5516L245.227 98.5598L245.228 98.569L245.229 98.5782L245.23 98.5864V98.5956V98.5965L245.231 98.6039L245.231 98.6121L245.232 98.6213L245.233 98.6305V98.6388L245.234 98.6479L245.235 98.6571L245.236 98.6663L245.237 98.6755V98.6764C245.248 98.7847 245.257 98.893 245.266 99.0022L245.27 99.0527L245.272 99.0747V99.0757V99.0839L245.273 99.0931L245.274 99.1023V99.1105L245.275 99.1197L245.276 99.1289V99.1372L245.276 99.1472V99.1564L245.277 99.1647L245.278 99.1739V99.183V99.1913L245.279 99.2014L245.28 99.2097V99.2188L245.281 99.228V99.2372L245.282 99.24V99.2455V99.2556L245.283 99.2638V99.273L245.284 99.2822L245.285 99.2996L245.286 99.3097V99.318V99.3226L245.287 99.3363L245.287 99.3455L245.29 99.4052V99.4079L245.291 99.4263V99.4355L245.295 99.4878V99.4896L245.297 99.5171V99.5263L245.298 99.5447L245.298 99.5539V99.563L245.299 99.5805V99.5897L245.3 99.5988V99.6071V99.6172L245.301 99.6264V99.6346V99.6447L245.302 99.6539V99.6548L245.303 99.6723L245.306 99.7117V99.72V99.7301L245.307 99.7393V99.7402V99.7503V99.7595L245.308 99.7686V99.7787L245.309 99.787V99.7971V99.8063V99.8154L245.309 99.8228V99.8255V99.8347V99.8448L245.31 99.8531V99.8632V99.8723L245.311 99.8815V99.8907V99.9008L245.312 99.9063L245.311 99.9109L245.312 99.9494L245.313 99.9586C245.331 100.513 245.325 101.089 245.298 101.686L245.298 101.695C245.287 101.897 245.276 102.101 245.261 102.306L245.26 102.318V102.329L245.259 102.34L245.258 102.351V102.362L245.257 102.373L245.256 102.384V102.389L245.255 102.394L245.254 102.405V102.416L245.253 102.427L245.253 102.438V102.449L245.252 102.46L245.251 102.471L245.25 102.482V102.485V102.492L245.249 102.502L245.248 102.513L245.247 102.524L245.246 102.535V102.546L245.245 102.557L245.244 102.568L245.243 102.579C245.225 102.794 245.204 103.004 245.18 103.212L245.179 103.222L245.16 103.388L245.159 103.397L245.158 103.407C245.135 103.602 245.109 103.796 245.081 103.985L245.079 103.995L245.078 104.005L245.068 104.067L245.067 104.076L245.066 104.085C245.039 104.258 245.009 104.428 244.979 104.597L244.976 104.607L244.975 104.616L244.974 104.624L244.949 104.762L244.947 104.771L244.946 104.78L244.943 104.789C244.908 104.974 244.872 105.156 244.831 105.334L244.829 105.343L244.807 105.438L244.805 105.447L244.803 105.455L244.802 105.463C244.764 105.625 244.726 105.785 244.684 105.943L244.682 105.95L244.681 105.953L244.658 106.043L244.657 106.046C244.608 106.231 244.557 106.412 244.503 106.592V106.593L244.468 106.707L244.465 106.714L244.462 106.721C244.416 106.868 244.371 107.013 244.322 107.156L244.319 107.163L244.316 107.17L244.315 107.178L244.289 107.255V107.257L244.285 107.264C244.227 107.432 244.168 107.597 244.105 107.759L244.102 107.768L244.101 107.771L244.059 107.877V107.878L244.056 107.885L244.053 107.892C243.996 108.037 243.937 108.181 243.878 108.323L243.875 108.329L243.871 108.337L243.852 108.383L243.849 108.392C243.782 108.547 243.712 108.701 243.641 108.852L243.637 108.858L243.634 108.866L243.589 108.962L243.582 108.977C243.517 109.111 243.451 109.244 243.384 109.375L243.324 109.489C243.253 109.622 243.182 109.754 243.108 109.883L243.108 109.886L243.057 109.972L243.054 109.979L243.051 109.985C242.972 110.122 242.891 110.257 242.809 110.391L242.805 110.397L242.8 110.404L242.774 110.445L242.772 110.45L242.768 110.455L242.763 110.462C242.686 110.585 242.609 110.703 242.53 110.822H242.529L242.525 110.829L242.469 110.914L242.464 110.92L242.46 110.926C242.377 111.046 242.294 111.167 242.208 111.284L242.203 111.29L242.199 111.296L242.196 111.302L242.144 111.373L242.139 111.378L242.136 111.383L242.132 111.389C242.058 111.491 241.979 111.592 241.902 111.693L241.898 111.698L241.895 111.704L241.89 111.708L241.836 111.779L241.832 111.784L241.826 111.791C241.736 111.905 241.644 112.017 241.552 112.128L241.547 112.133L241.542 112.139L241.481 112.209L241.476 112.215C241.389 112.318 241.298 112.421 241.208 112.521L241.203 112.527L241.198 112.532L241.194 112.537L241.166 112.568L241.161 112.574C241.063 112.682 240.963 112.788 240.863 112.891L240.858 112.897L240.853 112.902L240.848 112.908L240.783 112.974L240.777 112.979V112.98L240.767 112.989L240.762 112.994C240.669 113.089 240.574 113.185 240.478 113.277L240.472 113.281L240.455 113.3L240.449 113.305C240.348 113.402 240.247 113.496 240.145 113.588L240.139 113.592L240.134 113.598L240.129 113.603L240.042 113.682L240.037 113.685C239.934 113.777 239.831 113.869 239.726 113.957L239.721 113.961L239.715 113.966L239.713 113.967L239.666 114.007L239.661 114.01C239.564 114.092 239.466 114.172 239.367 114.25L239.363 114.252L239.285 114.316L239.279 114.318L239.274 114.323L239.268 114.328C239.166 114.408 239.065 114.486 238.963 114.563L238.957 114.566L238.951 114.571L238.948 114.575L238.941 114.58L238.902 114.609L238.895 114.614C238.797 114.686 238.7 114.756 238.603 114.824L238.598 114.829L238.593 114.832L238.588 114.835L238.583 114.838L238.504 114.894L238.498 114.899L238.493 114.902L238.488 114.907C238.384 114.978 238.283 115.046 238.18 115.115L238.176 115.118L238.169 115.123L238.165 115.126L238.077 115.184L238.071 115.187L238.067 115.19L238.062 115.193C237.97 115.253 237.879 115.311 237.786 115.369L237.781 115.372L237.777 115.374L237.776 115.375L237.708 115.417L237.703 115.421L237.698 115.424L237.692 115.427C237.592 115.488 237.493 115.548 237.392 115.607L237.402 115.591L237.397 115.593L237.391 115.597L237.387 115.6L237.28 115.662L237.274 115.665L237.269 115.669L237.265 115.671L237.261 115.673C237.178 115.721 237.095 115.768 237.013 115.813L237.008 115.816L237.004 115.817L236.995 115.824L236.897 115.877L236.892 115.881L236.887 115.883L236.882 115.886L236.876 115.889C236.779 115.942 236.679 115.995 236.58 116.046L236.574 116.05L236.569 116.052L236.566 116.054L236.464 116.106L236.46 116.109L236.456 116.112L236.45 116.115L236.446 116.118L236.442 116.119L236.437 116.122L236.433 116.125L236.428 116.127L236.424 116.129L236.419 116.132C236.348 116.169 236.275 116.206 236.203 116.24L236.199 116.242L236.194 116.245L236.19 116.247L236.185 116.25L236.18 116.252L236.175 116.254L236.024 116.33L235.789 116.44L235.777 116.445L235.633 116.511L235.626 116.515L235.621 116.517L235.617 116.52L235.611 116.522C235.52 116.564 235.427 116.606 235.335 116.646L235.33 116.648L235.325 116.649L235.32 116.653H235.32L235.199 116.703L234.981 116.795L234.966 116.8L234.836 116.849L234.827 116.854L234.822 116.856L234.817 116.857C234.728 116.893 234.638 116.93 234.549 116.963L234.544 116.966L234.538 116.968L234.534 116.969L234.529 116.971H234.527L234.382 117.026L234.191 117.099L234.024 117.159H234.022L234.021 117.16L234.016 117.161L234.012 117.162L234.008 117.163L234.003 117.166L233.999 117.167L233.996 117.169L233.991 117.17L233.987 117.171L233.984 117.172L233.779 117.244L233.775 117.246L233.767 117.248L233.764 117.249L233.755 117.252L233.745 117.256L233.567 117.315L233.552 117.321L233.452 117.355L233.446 117.356L233.441 117.358L233.434 117.36L233.429 117.362L233.422 117.364L233.417 117.365L233.41 117.367L233.398 117.371L233.393 117.372L233.198 117.435L233.193 117.436L233.186 117.438L233.181 117.441L233.175 117.442L233.169 117.444L233.163 117.447L233.158 117.447L233.152 117.449L233.146 117.451L233.14 117.452L233.134 117.454L233.128 117.456L233.122 117.458L233.117 117.459L233.11 117.461L233.105 117.462L233.099 117.465L233.093 117.467L233.087 117.468L233.082 117.47L233.075 117.473L232.994 117.498L232.795 117.558L232.788 117.559L232.691 117.588L232.685 117.591L232.68 117.592L232.673 117.593L232.668 117.594L232.662 117.595L232.656 117.598L232.65 117.6L232.645 117.601L232.639 117.604L232.633 117.604L232.627 117.606L232.622 117.607L232.616 117.61L232.61 117.611L232.605 117.613L232.598 117.614C232.534 117.633 232.469 117.651 232.404 117.669L232.399 117.67L232.392 117.671L232.387 117.673L232.381 117.674L232.376 117.677L232.37 117.678L232.364 117.679L232.359 117.682L232.353 117.682L232.348 117.684L232.342 117.685L232.336 117.688L232.33 117.689L232.325 117.69L232.253 117.709L232.041 117.765L232.039 117.766L232.03 117.768C230.969 123.66 229.169 136.839 228.937 159.308C232.48 158.064 234.628 157.483 234.628 157.483L247.494 153.997C247.494 153.997 258 161.754 265.992 176.865C265.992 176.865 272.988 177.994 271.557 185.196C271.55 185.238 271.54 185.28 271.53 185.321C286.945 190.566 295.953 198.251 300.561 207.768C308.677 219.689 315.258 239.449 319.251 261.137C320.242 266.495 321.169 271.871 321.996 277.182Z" fill="#3A3C6C"/>
<path fill-rule="evenodd" clip-rule="evenodd" d="M186.702 194.3L178.194 152.1C143.64 147.069 13.087 195.473 59.4296 235.118C87.0957 258.788 159.514 224.503 186.702 194.3Z" fill="#F1F2FF"/>
<path fill-rule="evenodd" clip-rule="evenodd" d="M153.381 158.703L104.506 181.483C86.6009 227.601 92.8423 310.209 101.859 348.334C122.116 355.871 144.032 359.998 166.914 359.998C200.952 359.998 232.859 350.878 260.331 334.956C261.229 264.685 325.857 182.779 249.191 163.099L208.215 152.293C208.215 152.293 179.282 169.944 153.381 158.703Z" fill="white"/>
<path fill-rule="evenodd" clip-rule="evenodd" d="M182.486 194.93C184.433 260.192 244.234 272.128 217.831 332.707H201.215C212.487 274.533 149.605 270.491 171.077 194.702C168.604 192.449 167.808 189.177 167.272 187.364C170.828 183.455 174.332 179.793 177.404 176.361L181.817 180.007C184.272 182.487 186.043 185.216 187.727 188.34C186.982 191.95 182.486 194.93 182.486 194.93Z" fill="#F1F2FF"/>
<path fill-rule="evenodd" clip-rule="evenodd" d="M137.983 357.765C147.412 359.235 157.073 360 166.914 360C200.761 360 232.499 350.981 259.869 335.224C258.162 327.466 256.415 319.871 256.415 319.871C256.415 319.871 179.473 333.978 120.355 320.641L115.393 323.42C115.393 323.42 111.764 334.234 129.205 334.747C129.205 334.747 131.149 347.054 137.983 357.765Z" fill="#F1F2FF"/>
<path fill-rule="evenodd" clip-rule="evenodd" d="M153.381 158.703L104.507 181.483C98.7012 196.435 95.4373 215.224 93.9797 235.089C104.54 230.746 130.368 219.573 146.774 207.793C167.798 192.696 199.68 186.111 199.68 186.111C199.68 186.111 226.049 190.614 231.255 186.943C234.073 184.957 237.344 172.044 239.755 160.612L208.214 152.294C208.214 152.294 179.282 169.944 153.381 158.703Z" fill="#F1F2FF"/>
<path fill-rule="evenodd" clip-rule="evenodd" d="M208.752 160.61C208.752 160.61 199.876 175.285 179.584 178.54C175.645 183.387 170.886 188.694 166.374 194.506C165.629 195.465 164.597 195.987 163.382 196.017C162.167 196.046 161.109 195.577 160.319 194.654C156.249 189.912 151.804 176.854 156.002 163.884C156.002 163.884 158.599 177.203 179.583 178.539C186.038 182.701 189.171 187.458 192.805 193.711C193.374 194.692 194.234 195.32 195.341 195.564C196.448 195.809 197.494 195.602 198.423 194.953C205.114 190.286 215.742 176.866 208.752 160.61Z" fill="#F1F2FF"/>
<path fill-rule="evenodd" clip-rule="evenodd" d="M228.348 349.642C239.532 345.743 250.232 340.811 260.331 334.957C261.155 270.493 312.142 200.991 261.372 174.751C251.588 177.696 243.37 184.154 238.926 196.195C223.988 236.678 227.117 324.803 228.348 349.642Z" fill="#F1F2FF"/>
<path fill-rule="evenodd" clip-rule="evenodd" d="M110.739 78.0371C104.663 77.1927 99.8061 74.8733 96.0145 71.6488C78.8175 64.0894 79.6142 46.4059 79.616 46.3472L80.5311 46.3747C80.5284 46.428 79.8436 61.6387 93.7666 69.5001C76.5394 51.098 86.7046 11.9404 104.021 29.4678C110.582 24.4517 175.992 -15.8275 195.953 21.5485C196.073 18.4508 195.517 5.90733 179.208 0.874717L179.476 0C195.724 5.01425 196.915 17.2943 196.873 21.1584C198.015 19.4439 201.551 15.8606 210.995 16.4177L210.943 17.331C200.814 16.7334 197.954 20.9638 197.375 22.0882C231.792 14.9776 205.232 82.5759 208.989 82.7567L110.739 78.0371Z" fill="#2E3458"/>
<path fill-rule="evenodd" clip-rule="evenodd" d="M152.559 9.0971C162.064 6.90526 169.916 6.77492 170.095 8.8043C170.274 10.8337 162.712 14.2564 153.207 16.4473C143.701 18.6391 135.849 18.7695 135.67 16.7401C135.49 14.7107 143.053 11.288 152.559 9.0971Z" fill="#3A3C6C"/>
<path fill-rule="evenodd" clip-rule="evenodd" d="M209.06 94.5542C209.06 94.5542 205.007 113.479 208.832 160.628L208.753 160.609C193.845 174.599 177.405 176.359 177.405 176.359C157.455 175.167 154.264 163.036 154.264 163.036C152.457 151.656 150.255 135.34 150.467 124.555C150.824 106.517 209.06 94.5542 209.06 94.5542Z" fill="#D77F7F"/>
<path fill-rule="evenodd" clip-rule="evenodd" d="M108.425 65.5824C107.251 93.9947 110.479 145.301 150.37 153.155C155.933 152.484 204.323 145.713 203.635 99.2889C203.635 99.2889 220.398 98.3362 220.888 82.4343C221.393 66.0845 206.03 65.7357 199.858 75.7716C199.858 75.7716 194.119 71.4108 191.009 60.9775C191.009 60.9775 160.395 75.3594 108.425 65.5824Z" fill="#EAAB9F"/>
<path fill-rule="evenodd" clip-rule="evenodd" d="M156.144 152.186C170.462 149.204 204.211 138.115 203.635 99.2889C203.635 99.2889 220.398 98.3362 220.888 82.4343C221.393 66.0845 206.03 65.7357 199.858 75.7716C199.858 75.7716 194.119 71.4108 191.009 60.9775C191.009 60.9775 174.023 68.9528 143.883 68.9858C144.549 81.409 146.345 93.522 147.559 100.867C133.949 102.031 138.991 117.418 150.698 113.859C150.698 113.859 152.508 135.305 156.144 152.186Z" fill="#E0998F"/>
<path fill-rule="evenodd" clip-rule="evenodd" d="M203.634 99.2889C203.634 99.2889 220.397 98.3362 220.887 82.4343C220.951 80.4233 220.772 78.6546 220.4 77.1181C213.715 73.2438 205.618 80.3774 205.618 80.3774C212.8 78.5885 212.323 90.6151 203.59 91.8726L203.634 99.2889Z" fill="#D77F7F"/>
<path fill-rule="evenodd" clip-rule="evenodd" d="M199.857 75.7725C199.857 75.7725 194.118 71.4118 191.008 60.9785C191.008 60.9785 160.394 75.3595 108.424 65.5834C108.424 65.5834 145.278 79.6964 187.556 67.3677C187.556 67.3677 190.166 72.9152 199.857 75.7725Z" fill="#D77F7F"/>
<path fill-rule="evenodd" clip-rule="evenodd" d="M103.523 61.2295C103.523 61.2295 138.391 75.3865 168.58 70.9129C168.58 70.9129 145.582 87.0571 103.523 61.2295Z" fill="#2E3458"/>
<path fill-rule="evenodd" clip-rule="evenodd" d="M112.031 84.3885C112.031 84.3885 126.885 84.7676 135.222 77.0916C135.222 77.0916 136.669 79.2926 136.147 82.3454C136.147 82.3454 127.143 89.0632 112.031 84.3885ZM136.239 76.1875C136.239 76.1875 137.795 79.891 136.425 82.5914C136.425 82.5914 140.764 79.5973 136.239 76.1875Z" fill="#2E3458"/>
<path fill-rule="evenodd" clip-rule="evenodd" d="M184.404 76.5344C184.404 76.5344 170.252 81.6312 160.227 76.9612C160.227 76.9612 159.63 78.8547 160.292 81.1319C158.859 78.8042 159.046 75.8809 159.046 75.8809C156.448 79.175 159.331 81.2109 160.554 81.88C160.607 82.0085 160.664 82.1388 160.726 82.2701C160.726 82.2701 171.139 85.813 184.404 76.5344Z" fill="#2E3458"/>
<path fill-rule="evenodd" clip-rule="evenodd" d="M162.267 95.2906C162.267 95.2906 170.791 90.5242 178.508 93.8588C176.653 90.068 168.064 85.8027 162.267 95.2906Z" fill="#2E3458"/>
<path fill-rule="evenodd" clip-rule="evenodd" d="M135.856 97.6209C135.856 97.6209 126.63 94.4185 119.616 99.0528C120.78 94.9959 128.49 89.2923 135.856 97.6209Z" fill="#2E3458"/>
<path fill-rule="evenodd" clip-rule="evenodd" d="M139.713 105.569C139.713 105.569 139.136 115.938 152.06 113.112C150.202 115.758 136.65 118.465 139.713 105.569Z" fill="#2E3458"/>
<path fill-rule="evenodd" clip-rule="evenodd" d="M152.897 108.22C154.631 108.066 156.111 108.793 156.204 109.843C156.241 110.263 156.05 110.672 155.697 111.02C155.343 110.51 154.467 110.197 153.474 110.285C152.248 110.393 151.302 111.071 151.328 111.811C150.528 111.534 149.98 111.022 149.924 110.398C149.832 109.348 151.163 108.373 152.897 108.22Z" fill="#D77F7F"/>
<path fill-rule="evenodd" clip-rule="evenodd" d="M150.732 144.74C150.732 144.74 159.246 145.34 166.65 138.331C166.65 138.331 162.802 149.197 150.732 144.74Z" fill="#D77F7F"/>
<path fill-rule="evenodd" clip-rule="evenodd" d="M143.796 123.648C156.32 124.406 161.285 116.423 165.368 127.724C170.79 142.736 140.07 145.582 140.588 137.077C140.728 134.789 140.705 131.651 140.051 128.259C139.607 125.958 141.415 123.504 143.796 123.648Z" fill="#D77F7F"/>
<path fill-rule="evenodd" clip-rule="evenodd" d="M143.796 123.648C152.377 124.168 157.409 120.584 161.041 121.912C161.076 122.037 161.1 122.165 161.11 122.298C161.335 124.831 157.128 127.494 151.718 128.244C146.307 128.993 141.739 127.546 141.515 125.013C141.495 124.793 141.51 124.572 141.555 124.35C142.181 123.872 142.952 123.597 143.796 123.648Z" fill="white"/>
<path fill-rule="evenodd" clip-rule="evenodd" d="M165.933 132.241C165.103 138.19 157.599 141.333 150.969 141.761C151.716 136.508 155.994 132.268 161.505 131.782C163.044 131.647 164.54 131.817 165.933 132.241Z" fill="#CF4970"/>
<path fill-rule="evenodd" clip-rule="evenodd" d="M160.996 138.856C155.709 142.027 147.575 142.63 143.348 140.748C144.912 139.128 148.012 137.754 151.661 137.248C155.77 136.678 159.393 137.376 160.996 138.856Z" fill="white"/>
<path fill-rule="evenodd" clip-rule="evenodd" d="M184.021 194.93C191.361 260.192 252.148 272.128 230.752 332.707H214.136C220.601 274.533 157.385 270.491 172.593 194.702C169.933 192.449 168.869 189.177 168.183 187.364C171.416 183.455 174.616 179.793 177.405 176.361L182.12 180.007C184.78 182.487 186.776 185.216 188.718 188.34C188.27 191.95 184.021 194.93 184.021 194.93Z" fill="#60629A"/>
<path fill-rule="evenodd" clip-rule="evenodd" d="M232.448 291.264C236.291 302.78 236.701 315.862 230.752 332.705H214.136C215.655 319.042 213.328 308.365 209.078 299.042C216.896 299.392 226.028 297.965 232.448 291.264Z" fill="#2E3458"/>
<path fill-rule="evenodd" clip-rule="evenodd" d="M238.926 196.196C238.926 196.196 240.631 172.777 265.587 173.774C280.696 174.377 294.951 203.105 303.017 236.96C312.849 278.22 319.147 320.844 301.399 326.11C287.387 330.268 271.074 317.309 256.499 272.127C245.425 237.798 237.641 199.014 238.926 196.196Z" fill="white"/>
<path fill-rule="evenodd" clip-rule="evenodd" d="M312.38 291.584C312.955 300.923 312.542 309.051 310.722 315.191C308.209 319.652 304.582 323.707 300.196 326.988C288.076 330.257 274.351 320.704 261.562 288.706C267.164 283.76 274.35 280.144 282.186 278.822C295.939 276.502 307.689 281.929 312.38 291.584Z" fill="#F1F2FF"/>
<path fill-rule="evenodd" clip-rule="evenodd" d="M282.186 280.638C300.067 280.204 314.562 292.373 314.562 307.818C314.562 323.261 300.066 336.132 282.186 336.564C264.305 336.998 249.81 324.829 249.81 309.386C249.81 293.943 264.305 281.072 282.186 280.638Z" fill="white"/>
<path fill-rule="evenodd" clip-rule="evenodd" d="M103.874 225.764L144.408 226.489L143.727 235.972C129.88 235.722 116.032 235.459 102.185 235.194L103.664 225.761L103.874 225.764ZM143.889 226.962L104.076 226.251L102.748 234.721L143.278 235.481L143.889 226.962Z" fill="#2E3458"/>
<path fill-rule="evenodd" clip-rule="evenodd" d="M174.98 309.057L145.512 307.401L149.862 350.051C149.862 350.051 162.575 347.638 177.573 340.865L174.98 309.057Z" fill="#EAAB9F"/>
<path fill-rule="evenodd" clip-rule="evenodd" d="M174.98 309.057C225.804 308.08 293.422 271.692 305.062 301.699C324.388 351.51 188.725 343.757 177.573 340.867L174.98 309.057Z" fill="#EAAB9F"/>
<path fill-rule="evenodd" clip-rule="evenodd" d="M271.718 290.642C300.286 293.764 305.633 323.437 279.489 335.794C297.441 330.369 309.577 321.247 306.454 306.318C306.143 304.836 305.683 303.295 305.061 301.697C300.656 290.337 288.224 288.494 271.718 290.642Z" fill="#D77F7F"/>
<path fill-rule="evenodd" clip-rule="evenodd" d="M145.512 307.401L116.717 316.575C115.075 317.099 112.12 326.84 121.894 326.84C121.894 326.84 123.239 339.058 132.28 350.054L149.861 350.052L145.512 307.401Z" fill="#D77F7F"/>
<path fill-rule="evenodd" clip-rule="evenodd" d="M262.114 293.512C272.206 292.424 280.388 293.523 280.388 295.966C280.388 298.409 272.206 301.271 262.114 302.36C252.021 303.447 243.84 302.348 243.84 299.904C243.84 297.461 252.021 294.598 262.114 293.512Z" fill="#EEC1B8"/>
<path fill-rule="evenodd" clip-rule="evenodd" d="M208.571 160.568C208.571 160.568 197.696 173.104 177.404 176.36C183.858 180.522 186.992 185.279 190.626 191.532C191.195 192.513 192.055 193.139 193.162 193.385C194.269 193.63 195.315 193.422 196.243 192.774C202.933 188.106 213.639 174.774 208.571 160.568Z" fill="white"/>
<path fill-rule="evenodd" clip-rule="evenodd" d="M153.823 161.704C153.823 161.704 156.419 175.023 177.404 176.359C173.465 181.206 168.706 186.512 164.195 192.325C163.449 193.284 162.416 193.807 161.201 193.837C159.987 193.866 158.93 193.395 158.139 192.474C154.07 187.732 149.625 174.675 153.823 161.704Z" fill="white"/>
<path fill-rule="evenodd" clip-rule="evenodd" d="M65.4486 171.297C83.2412 167.848 99.7645 179.94 102.352 198.305C104.94 216.669 92.6135 234.352 74.8199 237.8C57.0272 241.248 40.5058 229.157 37.9165 210.791C35.3282 192.427 47.6559 174.744 65.4486 171.297Z" fill="white"/>
<path fill-rule="evenodd" clip-rule="evenodd" d="M186.828 150.495L193.478 181.711C127.162 194.337 70.5843 257.658 47.4699 212.837C31.9507 182.744 95.1709 156.02 186.828 150.495Z" fill="#EAAB9F"/>
<path fill-rule="evenodd" clip-rule="evenodd" d="M88.0263 225.466C70.4053 231.328 56.4236 230.201 47.4699 212.836C41.6847 201.619 46.8458 190.872 60.3346 181.516C55.0569 190.923 54.7182 202.102 60.5228 211.284C66.3099 220.441 76.8248 225.423 88.0263 225.466Z" fill="#D77F7F"/>
<path fill-rule="evenodd" clip-rule="evenodd" d="M193.477 181.711L222.913 179.576L213.133 137.834C213.133 137.834 200.833 141.857 186.827 150.495L193.477 181.711Z" fill="#EAAB9F"/>
<path fill-rule="evenodd" clip-rule="evenodd" d="M203.642 149.557L213.135 137.833L225.802 133.684C225.802 133.684 236.696 140.887 245.461 155.563C245.461 155.563 252.505 156.326 251.45 163.595C250.396 170.862 224.45 179.173 215.716 175.395C206.979 171.617 203.642 149.557 203.642 149.557Z" fill="#EAAB9F"/>
<path fill-rule="evenodd" clip-rule="evenodd" d="M203.932 173.047L204.502 180.911C204.502 180.911 217.893 182.233 228.971 186.676C230.484 187.283 232.095 187.021 233.339 185.964C235.053 184.509 237.538 182.366 239.531 180.52C240.927 179.227 241.306 177.261 240.492 175.542C238.767 171.902 235.793 165.341 234.236 160.262C233.821 158.908 232.87 157.923 231.53 157.465C230.189 157.005 228.833 157.198 227.675 158.015C224.794 160.042 222.365 163.9 224.909 171.161C224.91 171.163 214.359 160.151 203.932 173.047Z" fill="#EAAB9F"/>
<path fill-rule="evenodd" clip-rule="evenodd" d="M224.291 163.168C222.618 162.289 220.835 160.821 220.369 158.461C220.369 158.461 213.901 155.333 210.926 148.226C210.926 148.226 211.716 157.786 199.71 166.343C199.71 166.343 204.405 166.348 211.006 168.067C218.665 165.136 224.947 171.69 224.947 171.69C223.678 168.067 223.647 165.292 224.291 163.168Z" fill="#D77F7F"/>
<path fill-rule="evenodd" clip-rule="evenodd" d="M240.497 175.864C239.485 173.728 238.041 170.584 236.707 167.326C235.766 165.028 234.879 162.669 234.232 160.561C234.034 159.912 233.706 159.352 233.269 158.9C232.832 158.447 232.282 158.103 231.641 157.883C230.999 157.662 230.354 157.598 229.732 157.688C229.109 157.777 228.506 158.019 227.953 158.409C226.542 159.402 225.241 160.843 224.606 162.923C223.966 165.014 223.997 167.755 225.254 171.344L225.528 172.126L224.949 171.534C224.931 171.517 221.294 167.72 216.193 167.256L216.178 166.87C220.273 167.233 223.457 169.691 224.674 170.769C223.62 167.435 223.634 164.836 224.252 162.816C224.916 160.645 226.27 159.143 227.74 158.108C228.344 157.684 228.999 157.42 229.679 157.323C230.359 157.226 231.062 157.295 231.761 157.535C232.459 157.773 233.056 158.149 233.534 158.644C234.012 159.136 234.368 159.746 234.583 160.452C235.224 162.543 236.109 164.891 237.048 167.184C238.379 170.438 239.819 173.574 240.829 175.707L240.497 175.864Z" fill="white"/>
<path fill-rule="evenodd" clip-rule="evenodd" d="M99.1799 169.464C100.569 171.66 93.2322 177.14 82.7953 181.703C72.3574 186.266 62.7713 188.185 61.3826 185.988C59.9939 183.792 67.3294 178.313 77.7673 173.748C88.2051 169.185 97.7912 167.267 99.1799 169.464Z" fill="#EEC1B8"/>
<path fill-rule="evenodd" clip-rule="evenodd" d="M191.017 307.752C194.18 307.329 197.376 306.821 200.59 306.244C196.788 309.124 194.701 316.215 195.689 324.508C196.702 333.007 200.645 340.243 205.282 342.979C202.246 342.906 199.374 342.799 196.698 342.672C187.355 336.567 184.197 315.316 191.017 307.752Z" fill="#D77F7F"/>
<path fill-rule="evenodd" clip-rule="evenodd" d="M196.29 307.867C204.712 307.867 211.538 314.694 211.538 323.114C211.538 331.535 204.712 338.362 196.29 338.362C187.869 338.362 181.043 331.535 181.043 323.114C181.043 314.694 187.87 307.867 196.29 307.867Z" fill="#D77F7F"/>
<path fill-rule="evenodd" clip-rule="evenodd" d="M201.203 305.799C196.859 308.334 194.093 315.751 194.686 324.507C195.301 333.591 199.337 341.233 204.266 343.478C183.419 351.673 179.133 298.167 201.203 305.799Z" fill="#2E3458"/>
<path d="M203.607 332.227C209.561 326.272 209.561 316.618 203.607 310.664C197.652 304.709 187.998 304.709 182.044 310.664C176.089 316.618 176.089 326.272 182.044 332.227C187.998 338.181 197.652 338.181 203.607 332.227Z" fill="#2E3458"/>
<path fill-rule="evenodd" clip-rule="evenodd" d="M192.828 332.549C198.943 332.549 203.931 327.56 203.931 321.446C203.931 315.332 198.943 310.345 192.828 310.345C186.714 310.345 181.728 315.331 181.728 321.446C181.728 327.56 186.714 332.549 192.828 332.549Z" fill="white"/>
<path fill-rule="evenodd" clip-rule="evenodd" d="M182.426 321.675C183.364 316.494 187.898 312.564 193.35 312.564C195.241 312.564 197.023 313.038 198.581 313.871C201.024 315.179 202.92 317.373 203.841 320.024C203.402 316.593 201.395 313.65 198.562 311.938C196.888 310.927 194.927 310.346 192.829 310.346C186.698 310.346 181.728 315.316 181.728 321.447C181.728 321.528 181.729 321.609 181.73 321.69C181.755 322.879 181.968 324.021 182.339 325.09C182.279 324.624 182.248 324.149 182.248 323.667C182.248 322.986 182.31 322.321 182.426 321.675Z" fill="#F1F2FF"/>
<path fill-rule="evenodd" clip-rule="evenodd" d="M193.246 319.213C193.564 319.272 193.861 319.399 194.119 319.576L197.281 316.98L198.081 317.954L194.918 320.548C195.038 320.823 195.103 321.128 195.103 321.446C195.103 322.701 194.086 323.72 192.83 323.72C191.575 323.72 190.557 322.702 190.557 321.446C190.557 320.487 191.15 319.666 191.992 319.333L191.404 313.247L192.657 313.128L193.246 319.213Z" fill="#CF4970"/>
<path fill-rule="evenodd" clip-rule="evenodd" d="M190.948 305.856C194.901 305.856 198.48 307.458 201.07 310.048C203.66 312.638 205.262 316.217 205.262 320.169C205.262 324.121 203.66 327.7 201.07 330.29C198.48 332.88 194.902 334.482 190.948 334.482C186.995 334.482 183.417 332.88 180.827 330.29C178.237 327.7 176.635 324.122 176.635 320.169C176.635 316.217 178.237 312.638 180.827 310.048C183.417 307.459 186.996 305.856 190.948 305.856ZM200.753 310.365C198.245 307.857 194.778 306.305 190.948 306.305C187.119 306.305 183.652 307.857 181.144 310.365C178.635 312.874 177.082 316.341 177.082 320.17C177.082 323.998 178.635 327.465 181.144 329.974C183.652 332.483 187.119 334.036 190.948 334.036C194.778 334.036 198.245 332.484 200.753 329.974C203.262 327.465 204.814 323.999 204.814 320.17C204.814 316.341 203.262 312.873 200.753 310.365Z" fill="white"/>
<path fill-rule="evenodd" clip-rule="evenodd" d="M285.965 64.4131C287.229 65.4393 289.086 65.2465 290.112 63.9817C291.138 62.7178 290.945 60.861 289.681 59.8339C288.416 58.8087 286.559 59.0014 285.533 60.2653C284.507 61.5292 284.7 63.386 285.965 64.4131Z" fill="#96C042"/>
<path fill-rule="evenodd" clip-rule="evenodd" d="M286.809 59.3547C287.383 59.1014 288.012 58.6782 288.592 58.1275C288.976 57.7622 289.295 57.3804 289.537 57.0142C289.913 57.3997 290.315 57.7659 290.744 58.1138C291.276 58.5451 291.829 58.9316 292.401 59.2721C292.079 59.5906 291.759 59.9926 291.469 60.4626C291.159 60.9646 290.923 61.4795 290.768 61.9623C290.725 61.161 290.355 60.3809 289.683 59.8338C288.846 59.1564 287.752 59.0096 286.809 59.3547Z" fill="#96C042"/>
<path fill-rule="evenodd" clip-rule="evenodd" d="M276.024 50.9395C276.218 52.801 277.883 54.153 279.744 53.9584C281.605 53.7656 282.957 52.0988 282.762 50.2392C282.57 48.3778 280.904 47.0267 279.043 47.2195C277.183 47.4141 275.832 49.0791 276.024 50.9395Z" fill="#BDD95B"/>
<path fill-rule="evenodd" clip-rule="evenodd" d="M280.82 47.5151C281.491 47.7758 282.346 47.9438 283.263 47.9658C283.874 47.9814 284.442 47.9309 284.937 47.829C284.93 48.4468 284.959 49.0727 285.025 49.7024C285.106 50.4853 285.241 51.2481 285.428 51.9897C284.907 51.986 284.321 52.0539 283.704 52.1999C283.045 52.3559 282.435 52.5826 281.918 52.8479C282.533 52.1604 282.866 51.2269 282.763 50.2375C282.635 49.0094 281.866 48.0025 280.82 47.5151Z" fill="#BDD95B"/>
<path fill-rule="evenodd" clip-rule="evenodd" d="M314.799 61.0332C315.825 59.7684 315.632 57.9106 314.368 56.8854C313.103 55.8592 311.247 56.052 310.22 57.3168C309.193 58.5807 309.387 60.4375 310.651 61.4637C311.916 62.4907 313.773 62.298 314.799 61.0332Z" fill="#BDD95B"/>
<path fill-rule="evenodd" clip-rule="evenodd" d="M309.74 60.1894C309.487 59.6158 309.063 58.987 308.514 58.4069C308.147 58.0224 307.767 57.7029 307.399 57.4615C307.784 57.0852 308.152 56.6832 308.5 56.2555C308.931 55.724 309.317 55.1706 309.658 54.6006C309.976 54.9218 310.379 55.2413 310.849 55.5304C311.351 55.8406 311.866 56.0765 312.348 56.2316C311.545 56.2757 310.764 56.6447 310.22 57.3174C309.542 58.1527 309.397 59.2477 309.74 60.1894Z" fill="#BDD95B"/>
<path fill-rule="evenodd" clip-rule="evenodd" d="M296.352 28.2113C294.732 28.3802 293.557 29.8295 293.724 31.4495C293.892 33.0695 295.343 34.2453 296.963 34.0773C298.583 33.9093 299.758 32.4591 299.59 30.8391C299.421 29.22 297.971 28.0433 296.352 28.2113Z" fill="#96C042"/>
<path fill-rule="evenodd" clip-rule="evenodd" d="M299.332 32.3862C299.107 32.9709 298.96 33.7144 298.939 34.5129C298.926 35.0425 298.969 35.5382 299.058 35.9686C298.519 35.9631 297.975 35.987 297.427 36.0448C296.746 36.1155 296.082 36.233 295.437 36.3954C295.44 35.9429 295.382 35.4317 295.254 34.8947C295.118 34.3202 294.921 33.7906 294.689 33.339C295.288 33.875 296.101 34.165 296.963 34.076C298.033 33.9659 298.91 33.2958 299.332 32.3862Z" fill="#96C042"/>
<path fill-rule="evenodd" clip-rule="evenodd" d="M312.378 31.0785C311.113 30.0523 309.257 30.246 308.23 31.5098C307.204 32.7737 307.397 34.6306 308.662 35.6576C309.925 36.6829 311.782 36.4901 312.809 35.2262C313.835 33.9624 313.642 32.1055 312.378 31.0785Z" fill="#BDD95B"/>
<path fill-rule="evenodd" clip-rule="evenodd" d="M311.533 36.1369C310.962 36.3903 310.331 36.8134 309.753 37.3641C309.368 37.7294 309.048 38.1112 308.806 38.4784C308.43 38.0929 308.028 37.7257 307.599 37.3779C307.068 36.9465 306.515 36.561 305.945 36.2195C306.267 35.902 306.586 35.499 306.876 35.0291C307.186 34.527 307.421 34.0121 307.577 33.5293C307.621 34.3306 307.99 35.1108 308.662 35.6578C309.498 36.3361 310.591 36.482 311.533 36.1369Z" fill="#BDD95B"/>
<path fill-rule="evenodd" clip-rule="evenodd" d="M281.52 34.657C280.493 35.9209 280.686 37.7777 281.951 38.8048C283.215 39.8301 285.072 39.6373 286.099 38.3734C287.124 37.1086 286.931 35.2509 285.667 34.2256C284.403 33.1985 282.546 33.3922 281.52 34.657Z" fill="#96C042"/>
<path fill-rule="evenodd" clip-rule="evenodd" d="M286.578 35.501C286.831 36.0746 287.254 36.7043 287.805 37.2835C288.17 37.668 288.552 37.9875 288.918 38.2288C288.534 38.6052 288.167 39.0072 287.819 39.4358C287.387 39.9682 287.002 40.5207 286.659 41.0926C286.341 40.7704 285.939 40.451 285.469 40.1609C284.966 39.8507 284.451 39.6148 283.969 39.4597C284.771 39.4166 285.551 39.0467 286.098 38.3748C286.776 37.5377 286.922 36.4445 286.578 35.501Z" fill="#96C042"/>
<path fill-rule="evenodd" clip-rule="evenodd" d="M301.267 70.1178C302.888 69.949 304.065 68.4997 303.896 66.8796C303.727 65.2596 302.278 64.0838 300.658 64.2518C299.038 64.4198 297.862 65.8691 298.03 67.49C298.198 69.11 299.647 70.2858 301.267 70.1178Z" fill="#BDD95B"/>
<path fill-rule="evenodd" clip-rule="evenodd" d="M298.288 65.9436C298.513 65.359 298.66 64.6155 298.68 63.8161C298.693 63.2846 298.649 62.7908 298.56 62.3603C299.098 62.3658 299.643 62.3411 300.191 62.2842C300.872 62.2135 301.536 62.0942 302.181 61.9326C302.179 62.3851 302.237 62.8964 302.365 63.4324C302.502 64.007 302.699 64.5384 302.929 64.9882C302.331 64.453 301.518 64.1621 300.657 64.252C299.588 64.364 298.711 65.0331 298.288 65.9436Z" fill="#BDD95B"/>
<path fill-rule="evenodd" clip-rule="evenodd" d="M320.557 45.7668C320.389 44.1468 318.94 42.9711 317.32 43.139C315.7 43.307 314.522 44.7563 314.692 46.3772C314.86 47.9972 316.309 49.173 317.929 49.005C319.55 48.8362 320.727 47.3869 320.557 45.7668Z" fill="#96C042"/>
<path fill-rule="evenodd" clip-rule="evenodd" d="M316.383 48.7476C315.799 48.5227 315.055 48.3758 314.257 48.3556C313.725 48.3428 313.231 48.3859 312.799 48.475C312.806 47.9362 312.781 47.3919 312.725 46.8439C312.653 46.1629 312.535 45.4983 312.373 44.854C312.825 44.8568 313.337 44.7971 313.873 44.6704C314.448 44.5355 314.978 44.3373 315.428 44.106C314.893 44.7044 314.602 45.5167 314.692 46.3795C314.803 47.4479 315.474 48.3244 316.383 48.7476Z" fill="#96C042"/>
<path fill-rule="evenodd" clip-rule="evenodd" d="M307.598 37.3779C301.569 32.4839 292.714 33.4045 287.819 39.4348C282.924 45.4651 283.846 54.3216 289.876 59.2165C295.906 64.1096 304.762 63.1899 309.656 57.1586C314.55 51.1292 313.63 42.2728 307.598 37.3779Z" fill="#BDD95B"/>
<path fill-rule="evenodd" clip-rule="evenodd" d="M304.301 45.0225C302.247 43.3538 299.228 43.6686 297.561 45.7228C295.893 47.7769 296.207 50.7949 298.261 52.4626C300.317 54.1304 303.334 53.8164 305.002 51.7623C306.669 49.7063 306.356 46.6893 304.301 45.0225Z" fill="#96C042"/>
<path fill-rule="evenodd" clip-rule="evenodd" d="M304.034 38.0566C303.076 37.6298 301.955 38.0594 301.528 39.0158C301.099 39.9731 301.529 41.0957 302.487 41.5234C303.444 41.9502 304.566 41.5206 304.994 40.5642C305.421 39.6069 304.992 38.4853 304.034 38.0566Z" fill="#96C042"/>
<path fill-rule="evenodd" clip-rule="evenodd" d="M292.15 38.7585C291.027 39.5726 290.776 41.1431 291.59 42.2665C292.404 43.39 293.975 43.6397 295.098 42.8264C296.222 42.0123 296.472 40.4409 295.658 39.3184C294.844 38.1949 293.273 37.9444 292.15 38.7585Z" fill="#96C042"/>
<path fill-rule="evenodd" clip-rule="evenodd" d="M286.369 50.5103C286.489 51.6622 287.521 52.5002 288.673 52.3809C289.827 52.2606 290.664 51.229 290.545 50.0752C290.426 48.9215 289.393 48.0844 288.24 48.2037C287.086 48.3239 286.248 49.3565 286.369 50.5103Z" fill="#96C042"/>
<path fill-rule="evenodd" clip-rule="evenodd" d="M309.26 46.3049C309.88 45.957 310.664 46.1764 311.012 46.795C311.36 47.4145 311.141 48.1975 310.522 48.5472C309.903 48.8951 309.12 48.6757 308.771 48.057C308.422 47.4375 308.642 46.6536 309.26 46.3049Z" fill="#96C042"/>
<path fill-rule="evenodd" clip-rule="evenodd" d="M304.668 58.4701C305.417 57.9286 305.584 56.8813 305.041 56.1314C304.497 55.3824 303.45 55.2154 302.702 55.7587C301.953 56.3003 301.786 57.3476 302.327 58.0974C302.872 58.8464 303.919 59.0135 304.668 58.4701Z" fill="#96C042"/>
<path fill-rule="evenodd" clip-rule="evenodd" d="M294.231 58.7444C295.749 59.4227 297.529 58.7407 298.206 57.2226C298.883 55.7054 298.203 53.9257 296.685 53.2474C295.168 52.5682 293.387 53.2501 292.71 54.7683C292.032 56.2864 292.713 58.067 294.231 58.7444Z" fill="#96C042"/>
<path fill-rule="evenodd" clip-rule="evenodd" d="M92.8586 141.167L83.4102 147.925C82.5869 148.513 81.5837 148.701 80.6245 148.447C79.6662 148.193 79.021 147.567 78.8356 146.711L76.9264 137.919C76.741 137.064 77.066 136.218 77.8305 135.573C78.5933 134.928 79.5809 134.663 80.5703 134.841L91.927 136.874C93.0036 137.067 93.7599 137.733 93.9628 138.664C94.1638 139.596 93.7544 140.527 92.8586 141.167Z" fill="white"/>
<path fill-rule="evenodd" clip-rule="evenodd" d="M93.5222 121.617L82.4602 119.438C81.4973 119.248 80.6575 118.658 80.1297 117.801C79.601 116.944 79.5331 116.06 79.9406 115.348L84.127 108.035C84.5345 107.324 85.3037 106.984 86.261 107.093C87.2183 107.203 88.094 107.728 88.6924 108.555L95.5662 118.046C96.2179 118.945 96.34 119.937 95.8967 120.711C95.4543 121.488 94.5704 121.824 93.5222 121.617Z" fill="white"/>
<path d="M16.0495 128.988C19.0042 126.033 19.0042 121.243 16.0495 118.288C13.0949 115.334 8.30448 115.334 5.34984 118.288C2.3952 121.243 2.39521 126.033 5.34985 128.988C8.30449 131.943 13.0949 131.943 16.0495 128.988Z" fill="#BDD95B"/>
<path fill-rule="evenodd" clip-rule="evenodd" d="M257.685 40.9244C260.156 40.9244 262.173 38.9079 262.173 36.4361C262.173 33.9643 260.156 31.9478 257.685 31.9478C255.213 31.9478 253.196 33.9643 253.196 36.4361C253.196 38.9079 255.213 40.9244 257.685 40.9244Z" fill="#BDD95B"/>
<path fill-rule="evenodd" clip-rule="evenodd" d="M327.441 203.263C329.136 203.263 330.518 201.881 330.518 200.185C330.518 198.489 329.136 197.108 327.441 197.108C325.745 197.108 324.363 198.49 324.363 200.185C324.363 201.881 325.745 203.263 327.441 203.263Z" fill="white"/>
<path fill-rule="evenodd" clip-rule="evenodd" d="M273.201 116.974C275.376 116.974 277.348 117.856 278.773 119.283C280.199 120.708 281.082 122.679 281.082 124.855C281.082 127.031 280.2 129.001 278.773 130.426C277.348 131.852 275.377 132.735 273.201 132.735C271.026 132.735 269.055 131.853 267.63 130.426C266.204 129.001 265.321 127.031 265.321 124.855C265.321 122.679 266.203 120.708 267.63 119.283C269.056 117.856 271.026 116.974 273.201 116.974ZM277.06 120.996C276.073 120.009 274.708 119.398 273.201 119.398C271.694 119.398 270.33 120.009 269.343 120.996C268.357 121.983 267.745 123.348 267.745 124.855C267.745 126.362 268.357 127.726 269.343 128.713C270.331 129.699 271.695 130.311 273.201 130.311C274.708 130.311 276.073 129.699 277.06 128.713C278.047 127.725 278.658 126.361 278.658 124.855C278.658 123.348 278.047 121.983 277.06 120.996Z" fill="white"/>
<path fill-rule="evenodd" clip-rule="evenodd" d="M21.2153 207.188C23.3906 207.188 25.3612 208.07 26.7876 209.496C28.213 210.922 29.096 212.892 29.096 215.067C29.096 217.243 28.2139 219.213 26.7876 220.64C25.3612 222.065 23.3915 222.948 21.2153 222.948C19.0399 222.948 17.0702 222.066 15.6439 220.64C14.2184 219.213 13.3354 217.244 13.3354 215.067C13.3354 212.893 14.2175 210.922 15.6439 209.496C17.0693 208.07 19.039 207.188 21.2153 207.188ZM25.073 211.208C24.0863 210.221 22.7215 209.61 21.2143 209.61C19.7081 209.61 18.3433 210.221 17.3566 211.208C16.3699 212.195 15.7586 213.56 15.7586 215.066C15.7586 216.573 16.3699 217.938 17.3566 218.924C18.3442 219.912 19.709 220.522 21.2143 220.522C22.7215 220.522 24.0863 219.912 25.073 218.924C26.0606 217.937 26.671 216.573 26.671 215.066C26.671 213.561 26.0606 212.196 25.073 211.208Z" fill="white"/>
<path fill-rule="evenodd" clip-rule="evenodd" d="M271.561 277.667C274.088 277.667 276.149 275.607 276.149 273.079C276.149 270.552 274.089 268.492 271.561 268.492C269.034 268.492 266.973 270.552 266.973 273.079C266.973 275.607 269.034 277.667 271.561 277.667Z" fill="#BDD95B"/>
<path fill-rule="evenodd" clip-rule="evenodd" d="M208.39 254.213C207.365 255.477 207.558 257.334 208.821 258.359C210.086 259.386 211.944 259.193 212.969 257.929C213.996 256.664 213.803 254.806 212.538 253.781C211.274 252.755 209.416 252.949 208.39 254.213Z" fill="#96C042"/>
<path fill-rule="evenodd" clip-rule="evenodd" d="M213.449 255.057C213.703 255.631 214.126 256.26 214.676 256.84C215.042 257.225 215.423 257.544 215.79 257.785C215.405 258.161 215.037 258.563 214.689 258.992C214.259 259.524 213.872 260.078 213.53 260.649C213.213 260.327 212.81 260.006 212.34 259.717C211.838 259.407 211.323 259.171 210.842 259.016C211.642 258.973 212.423 258.603 212.968 257.931C213.648 257.094 213.794 256 213.449 255.057Z" fill="#96C042"/>
<path fill-rule="evenodd" clip-rule="evenodd" d="M221.864 244.272C220.004 244.466 218.652 246.131 218.846 247.993C219.039 249.853 220.704 251.205 222.566 251.011C224.427 250.818 225.779 249.153 225.584 247.291C225.391 245.43 223.726 244.079 221.864 244.272Z" fill="#BDD95B"/>
<path fill-rule="evenodd" clip-rule="evenodd" d="M225.288 249.068C225.029 249.739 224.861 250.594 224.837 251.511C224.822 252.122 224.872 252.69 224.974 253.184C224.356 253.178 223.73 253.207 223.101 253.272C222.318 253.353 221.555 253.488 220.814 253.676C220.817 253.155 220.749 252.569 220.604 251.952C220.447 251.292 220.221 250.682 219.955 250.165C220.643 250.78 221.577 251.114 222.566 251.01C223.795 250.883 224.802 250.113 225.288 249.068Z" fill="#BDD95B"/>
<path fill-rule="evenodd" clip-rule="evenodd" d="M211.771 283.048C213.035 284.073 214.892 283.881 215.919 282.617C216.945 281.352 216.751 279.496 215.487 278.469C214.222 277.443 212.367 277.635 211.339 278.9C210.312 280.164 210.505 282.021 211.771 283.048Z" fill="#BDD95B"/>
<path fill-rule="evenodd" clip-rule="evenodd" d="M212.613 277.988C213.187 277.734 213.817 277.312 214.396 276.762C214.78 276.395 215.099 276.015 215.341 275.648C215.717 276.033 216.121 276.401 216.548 276.748C217.08 277.18 217.633 277.566 218.205 277.908C217.883 278.225 217.563 278.628 217.273 279.098C216.963 279.6 216.727 280.115 216.573 280.598C216.528 279.796 216.159 279.015 215.486 278.469C214.651 277.79 213.557 277.644 212.613 277.988Z" fill="#BDD95B"/>
<path fill-rule="evenodd" clip-rule="evenodd" d="M244.592 264.6C244.424 262.98 242.975 261.805 241.355 261.973C239.734 262.14 238.558 263.591 238.727 265.211C238.895 266.831 240.346 268.007 241.965 267.839C243.584 267.67 244.761 266.22 244.592 264.6Z" fill="#96C042"/>
<path fill-rule="evenodd" clip-rule="evenodd" d="M240.418 267.58C239.834 267.355 239.089 267.208 238.291 267.188C237.76 267.175 237.266 267.218 236.834 267.307C236.841 266.769 236.816 266.224 236.758 265.676C236.688 264.995 236.569 264.331 236.407 263.686C236.86 263.689 237.37 263.63 237.907 263.502C238.482 263.367 239.013 263.17 239.463 262.938C238.928 263.536 238.637 264.349 238.727 265.211C238.838 266.279 239.508 267.157 240.418 267.58Z" fill="#96C042"/>
<path fill-rule="evenodd" clip-rule="evenodd" d="M241.725 280.625C242.752 279.361 242.558 277.505 241.294 276.478C240.03 275.452 238.172 275.644 237.147 276.909C236.121 278.173 236.313 280.03 237.577 281.057C238.842 282.083 240.7 281.889 241.725 280.625Z" fill="#BDD95B"/>
<path fill-rule="evenodd" clip-rule="evenodd" d="M236.666 279.782C236.412 279.209 235.99 278.579 235.439 278.001C235.074 277.616 234.693 277.296 234.326 277.055C234.711 276.678 235.079 276.276 235.426 275.848C235.857 275.316 236.244 274.763 236.586 274.193C236.903 274.515 237.306 274.834 237.775 275.124C238.278 275.434 238.793 275.67 239.274 275.825C238.473 275.869 237.693 276.239 237.147 276.911C236.468 277.745 236.322 278.84 236.666 279.782Z" fill="#BDD95B"/>
<path fill-rule="evenodd" clip-rule="evenodd" d="M238.147 249.767C236.882 248.741 235.026 248.934 233.999 250.199C232.973 251.463 233.166 253.32 234.431 254.346C235.695 255.372 237.552 255.179 238.579 253.915C239.605 252.649 239.411 250.793 238.147 249.767Z" fill="#96C042"/>
<path fill-rule="evenodd" clip-rule="evenodd" d="M237.303 254.825C236.73 255.078 236.1 255.501 235.52 256.052C235.136 256.417 234.816 256.798 234.575 257.165C234.198 256.78 233.796 256.413 233.368 256.066C232.836 255.634 232.283 255.249 231.712 254.908C232.034 254.589 232.354 254.187 232.643 253.717C232.953 253.214 233.188 252.699 233.343 252.217C233.388 253.019 233.757 253.799 234.43 254.346C235.266 255.023 236.36 255.17 237.303 254.825Z" fill="#96C042"/>
<path fill-rule="evenodd" clip-rule="evenodd" d="M202.687 269.515C202.854 271.136 204.304 272.312 205.924 272.143C207.545 271.975 208.721 270.526 208.552 268.906C208.384 267.287 206.934 266.109 205.314 266.278C203.695 266.446 202.518 267.896 202.687 269.515Z" fill="#BDD95B"/>
<path fill-rule="evenodd" clip-rule="evenodd" d="M206.86 266.535C207.445 266.761 208.189 266.907 208.987 266.927C209.519 266.941 210.013 266.898 210.444 266.809C210.438 267.347 210.462 267.891 210.52 268.439C210.591 269.12 210.708 269.784 210.87 270.429C210.418 270.427 209.907 270.486 209.371 270.612C208.797 270.749 208.265 270.946 207.815 271.177C208.351 270.578 208.641 269.765 208.551 268.905C208.44 267.836 207.769 266.958 206.86 266.535Z" fill="#BDD95B"/>
<path fill-rule="evenodd" clip-rule="evenodd" d="M227.036 288.806C228.657 288.638 229.833 287.188 229.664 285.568C229.496 283.949 228.046 282.772 226.427 282.94C224.808 283.108 223.63 284.558 223.799 286.178C223.967 287.798 225.416 288.974 227.036 288.806Z" fill="#96C042"/>
<path fill-rule="evenodd" clip-rule="evenodd" d="M224.056 284.631C224.283 284.047 224.429 283.303 224.448 282.505C224.463 281.973 224.419 281.479 224.33 281.048C224.868 281.054 225.412 281.03 225.961 280.973C226.642 280.901 227.306 280.783 227.951 280.621C227.948 281.074 228.007 281.585 228.134 282.12C228.271 282.695 228.469 283.226 228.699 283.676C228.1 283.141 227.287 282.85 226.426 282.94C225.357 283.051 224.48 283.722 224.056 284.631Z" fill="#96C042"/>
<path fill-rule="evenodd" clip-rule="evenodd" d="M235.425 275.847C240.319 269.818 239.399 260.961 233.369 256.066C227.339 251.172 218.482 252.093 213.588 258.123C208.693 264.154 209.615 273.01 215.644 277.903C221.675 282.798 230.532 281.877 235.425 275.847Z" fill="#BDD95B"/>
<path fill-rule="evenodd" clip-rule="evenodd" d="M227.783 272.548C229.45 270.494 229.137 267.476 227.081 265.808C225.027 264.141 222.008 264.454 220.342 266.509C218.674 268.564 218.988 271.581 221.042 273.249C223.097 274.917 226.115 274.603 227.783 272.548Z" fill="#96C042"/>
<path fill-rule="evenodd" clip-rule="evenodd" d="M234.746 272.281C235.174 271.324 234.744 270.202 233.786 269.775C232.829 269.347 231.707 269.776 231.28 270.733C230.852 271.691 231.281 272.814 232.238 273.24C233.196 273.669 234.32 273.239 234.746 272.281Z" fill="#96C042"/>
<path fill-rule="evenodd" clip-rule="evenodd" d="M234.045 260.397C233.231 259.274 231.66 259.023 230.537 259.838C229.414 260.652 229.163 262.222 229.977 263.346C230.791 264.469 232.362 264.719 233.485 263.905C234.609 263.091 234.859 261.521 234.045 260.397Z" fill="#96C042"/>
<path fill-rule="evenodd" clip-rule="evenodd" d="M222.295 254.616C221.141 254.736 220.303 255.769 220.423 256.921C220.543 258.074 221.575 258.912 222.728 258.792C223.882 258.673 224.72 257.64 224.599 256.487C224.48 255.334 223.449 254.496 222.295 254.616Z" fill="#96C042"/>
<path fill-rule="evenodd" clip-rule="evenodd" d="M226.499 277.508C226.847 278.127 226.627 278.912 226.009 279.26C225.39 279.608 224.606 279.389 224.257 278.77C223.909 278.151 224.129 277.368 224.748 277.019C225.366 276.67 226.151 276.889 226.499 277.508Z" fill="#96C042"/>
<path fill-rule="evenodd" clip-rule="evenodd" d="M214.333 272.915C214.877 273.664 215.924 273.831 216.673 273.288C217.421 272.745 217.589 271.698 217.045 270.95C216.502 270.201 215.455 270.034 214.706 270.576C213.957 271.119 213.79 272.166 214.333 272.915Z" fill="#96C042"/>
<path fill-rule="evenodd" clip-rule="evenodd" d="M214.059 262.479C213.382 263.997 214.063 265.777 215.58 266.455C217.098 267.132 218.878 266.451 219.556 264.934C220.233 263.416 219.552 261.636 218.035 260.958C216.516 260.279 214.736 260.96 214.059 262.479Z" fill="#96C042"/>
</svg>
