<svg width="330" height="361" viewBox="0 0 330 361" fill="none" xmlns="http://www.w3.org/2000/svg">
<path d="M328.461 230.669C327.153 238.107 325.065 245.412 322.347 252.246C320.319 257.361 317.996 262.314 315.409 267.12C314.762 268.341 314.101 269.546 313.41 270.736C312.837 271.75 312.249 272.75 311.632 273.734C305.047 284.625 297.067 294.62 288.027 303.571C288.027 303.586 288.027 303.586 288.013 303.586C281.045 310.508 273.432 316.799 265.319 322.399C265.231 322.487 265.113 322.56 265.011 322.619C263.423 323.721 261.806 324.794 260.175 325.837C254.78 329.291 249.18 332.437 243.433 335.274C241.567 336.199 239.685 337.081 237.789 337.934C232.733 340.212 227.575 342.256 222.327 344.019C219.167 345.107 215.963 346.091 212.729 346.959C210.142 347.679 207.526 348.34 204.925 348.899C204.175 349.075 203.411 349.238 202.662 349.399C169.209 356.366 134.081 353.632 101.247 343.343C99.2181 342.711 97.1903 342.05 95.1761 341.359C92.0901 340.315 89.0475 339.184 86.0049 337.993C71.2483 332.218 57.1086 324.897 43.9549 316.285C42.6316 315.432 41.339 314.55 40.0455 313.669C35.2249 310.362 30.8012 306.908 26.8178 303.292C-2.18133 277.1 -8.79517 243.192 13.4864 205.478C27.4934 181.77 28.5669 162.927 17.3075 137.897C7.62215 116.321 3.62336 98.1247 9.62019 81.2077C13.1183 71.36 20.0118 61.939 31.1377 52.5171C34.9444 49.2985 38.9125 46.2406 43.0132 43.3603C79.6112 17.5653 126.747 4.88158 170.297 1.19219C192.828 -0.718353 216.33 0.633821 236.643 10.7314C256.97 20.7992 273.475 40.9943 274.402 63.9523C275.357 87.5274 260.674 112.603 271.624 133.399C279.856 149.097 299.094 154.637 311.999 166.661C318.305 172.54 322.758 179.712 325.654 187.59C330.533 200.774 331.032 215.986 328.461 230.669Z" fill="#FFE6C6"/>
<path d="M290.171 132.142C294.544 136.434 301.321 139.362 306.784 136.589C312.33 133.774 313.909 126.488 313.256 120.303C312.16 109.921 306.424 100.117 297.911 94.0751C296.045 92.7509 293.978 91.5737 291.703 91.3338C283.858 90.5048 281.598 103.868 281.442 109.603C281.218 117.86 284.229 126.31 290.171 132.142Z" fill="#FFE6C6"/>
<path d="M120.305 334.52C120.305 334.52 111.978 338.506 101.247 343.347C99.6168 344.073 97.9381 344.832 96.2278 345.591C80.2353 352.692 61.2246 360.583 55.8502 360.455C46.1026 360.244 22.7512 332.599 24.7682 311.976C25.0109 309.409 25.737 306.472 26.8177 303.293C27.9317 300.001 29.4165 296.435 31.1421 292.755C31.1421 292.755 31.1421 292.755 31.1584 292.739C33.1916 288.413 35.564 283.944 38.0654 279.554C39.8893 276.31 41.7773 273.115 43.6653 270.065C45.0211 267.87 46.3606 265.739 47.6514 263.722V263.706C51.0729 258.364 54.1706 253.797 56.3337 250.667C58.2704 247.875 59.4647 246.229 59.4647 246.229C59.4647 246.229 60.5787 243.469 62.3215 239.241C63.6773 235.997 65.42 231.866 67.3243 227.46C68.3246 225.136 69.39 222.715 70.4715 220.311C72.8439 214.985 75.3128 209.692 77.5237 205.383C79.7825 200.961 81.7841 197.589 83.1237 196.297C83.8174 195.636 84.705 194.941 85.7216 194.247C88.3357 192.44 91.8537 190.568 95.3402 188.906C97.3409 187.937 99.3425 187.034 101.133 186.26C101.601 186.05 102.069 185.856 102.505 185.679C102.521 185.679 102.521 185.663 102.538 185.663C104.232 184.936 105.669 184.355 106.701 183.952C106.797 183.904 106.895 183.871 106.975 183.823C107.846 183.484 108.346 183.291 108.346 183.291L108.507 185.372L108.685 187.599L108.734 188.18L108.83 189.487L109.427 196.975L109.556 198.653L110.364 208.771L110.67 212.693L111.01 217.035V217.051L112.946 241.388L114.883 265.933L115.787 277.456L120.305 334.52Z" fill="#D94562"/>
<path d="M217.635 231.913C217.651 232.026 217.635 232.139 217.635 232.236C217.457 235.238 215.827 240.435 213.81 245.889C211.357 252.473 208.339 259.445 206.58 263.351C205.709 265.304 205.16 266.498 205.16 266.498L212.729 346.963C210.148 347.673 207.533 348.335 204.919 348.899C204.176 349.077 203.417 349.239 202.66 349.4C169.205 356.372 134.089 353.629 101.248 343.348C99.6176 344.074 97.9389 344.833 96.2286 345.592C95.8254 344.107 95.4862 342.671 95.1796 341.364C94.3082 337.459 93.8562 334.65 93.8562 334.65L97.5844 322.627L100.634 312.799L108.445 287.64L111.35 278.296C111.35 278.296 105.523 269.501 100.424 260.044C98.8266 257.074 97.2931 254.024 96.0509 251.168C95.4538 249.812 94.9207 248.489 94.4696 247.246C93.9374 245.762 93.5333 244.39 93.2916 243.164C93.0814 242.245 92.9849 241.421 92.9849 240.679C92.9849 238.451 93.6785 234.45 94.7601 229.575C95.6477 225.525 96.8258 220.877 98.0688 216.148C98.6822 213.841 99.3118 211.533 99.9406 209.241C100.957 205.53 101.99 201.931 102.91 198.704C105.121 191.054 106.815 185.502 106.815 185.502H106.831L108.51 185.373L119.548 184.502L128.456 183.791L138.527 183L173.515 180.24L191.347 178.853L208.648 177.481H208.663C208.663 177.481 211.391 190.811 213.843 204.464V204.48C214.15 206.255 214.472 208.031 214.779 209.773C216.424 219.406 217.747 228.33 217.635 231.913Z" fill="#D94562"/>
<path d="M101.197 200.819C101.197 200.819 84.6591 238.811 86.5218 249.613C88.3845 260.416 101.197 276.432 101.197 276.432C101.197 276.432 93.8564 253.126 94.4725 247.273C95.0886 241.419 101.197 200.819 101.197 200.819Z" fill="#AA2B48"/>
<path d="M208.191 152.297C208.2 152.297 208.21 152.298 208.22 152.298C208.242 152.298 208.235 152.296 208.245 152.295C208.255 152.293 208.262 152.29 208.273 152.287C208.243 152.275 208.123 152.266 208.191 152.297Z" fill="#161818"/>
<path d="M217.635 149.044C215.973 147.253 213.391 146.559 210.954 146.866H210.938C210.744 146.898 210.551 146.931 210.357 146.979C210.276 146.979 210.196 146.995 210.115 147.01C209.89 146.429 209.631 145.865 209.34 145.364C209.195 145.121 209.05 144.896 208.889 144.67C208.985 144.541 209.082 144.412 209.163 144.283V144.266C210.486 142.459 211.664 140.571 212.633 138.554C212.972 137.827 213.294 137.101 213.568 136.343C214.875 132.97 215.585 129.355 215.554 125.772C215.554 125.192 215.538 124.594 215.474 124.013C215.474 123.691 215.441 123.369 215.392 123.062C215.392 122.981 215.392 122.9 215.376 122.82C215.376 122.771 215.36 122.724 215.36 122.675C215.295 122.207 215.215 121.739 215.134 121.287C215.038 120.771 214.908 120.27 214.779 119.754C214.65 119.27 214.521 118.786 214.359 118.318C214.343 118.269 214.327 118.205 214.295 118.156C214.133 117.672 213.955 117.205 213.761 116.737C212.761 114.332 211.34 112.153 209.808 110.039C209.211 109.2 208.581 108.36 207.951 107.538V107.521H207.935C207.031 106.327 206.127 105.133 205.272 103.906C204.869 103.341 204.481 102.76 204.11 102.179C204.336 100.517 204.546 98.7741 204.724 96.9664C204.805 96.0788 204.869 95.1425 204.95 94.2224C204.95 94.1096 204.95 94.0131 204.966 93.9157C204.999 93.351 205.03 92.7701 205.048 92.1891C205.063 91.9311 205.08 91.6723 205.095 91.4143V91.0435C205.144 89.8655 205.16 88.6874 205.144 87.5093C205.144 87.2026 205.144 86.8797 205.128 86.573C205.112 85.9758 205.095 85.3949 205.063 84.7977C205.063 84.6687 205.063 84.5398 205.048 84.427C205.031 84.1041 205.015 83.7974 204.983 83.4907C204.95 83.1037 204.918 82.7158 204.886 82.3288C204.805 81.5702 204.725 80.8116 204.612 80.0692C204.499 79.3268 204.369 78.6006 204.209 77.8907C204.063 77.1808 203.886 76.5025 203.692 75.825C203.594 75.4859 203.498 75.1638 203.385 74.8409C202.949 73.5338 202.433 72.3395 201.803 71.2417C200.463 68.8856 199.011 67.0625 197.543 65.658C197.187 65.3035 196.816 64.9806 196.446 64.6739C196.09 64.3672 195.719 64.093 195.348 63.835C195.17 63.706 194.993 63.5761 194.816 63.4642C194.638 63.3515 194.445 63.2216 194.267 63.1251C193.896 62.8996 193.525 62.7056 193.17 62.5117C192.816 62.334 192.46 62.1725 192.121 62.0273C191.767 61.882 191.428 61.7531 191.088 61.6403C190.475 61.431 189.878 61.2696 189.313 61.1559C189.248 61.1397 189.2 61.1397 189.135 61.1243H189.119C188.765 61.0594 188.409 60.9953 188.07 60.9629C188.021 60.9466 187.957 60.9466 187.909 60.9304C187.602 60.8979 187.295 60.8817 187.021 60.8654C186.86 60.8492 186.714 60.8492 186.569 60.8492C184.632 60.7843 183.374 61.1234 183.374 61.1234C183.423 61.1072 183.455 61.0747 183.471 61.0422C183.536 60.9295 183.519 60.7355 183.438 60.4613C183.26 59.7352 182.631 58.4759 181.792 56.992C181.663 56.7819 181.55 56.5726 181.421 56.3462C181.324 56.1531 181.212 55.9754 181.114 55.7977C180.904 55.4432 180.679 55.0716 180.469 54.6999C180.356 54.5222 180.258 54.3292 180.146 54.1515C179.565 53.2152 178.968 52.2473 178.403 51.3434C178.194 51.0042 177.983 50.6813 177.789 50.3746C177.644 50.1653 177.515 49.9551 177.386 49.7612C177.177 49.422 176.967 49.1153 176.757 48.8086C176.159 47.8885 175.643 47.1137 175.272 46.5815C174.998 46.1945 174.804 45.9203 174.723 45.8391C174.433 45.5161 174.142 45.2257 173.836 44.9352C173.255 44.3381 172.674 43.7896 172.077 43.3052C171.786 43.0626 171.48 42.8046 171.189 42.5791C168.413 40.4493 165.541 39.1738 162.362 38.5289C162.039 38.4639 161.717 38.3999 161.394 38.3512C160.748 38.2384 160.087 38.1572 159.408 38.0932C157.826 37.9479 156.181 37.9155 154.422 37.9967C153.777 38.0291 153.131 38.0616 152.485 38.1094C151.323 38.1906 150.178 38.3196 149.015 38.4802C148.741 38.5126 148.45 38.5613 148.16 38.6092C147.853 38.6416 147.563 38.6903 147.256 38.7381C147.111 38.7706 146.982 38.7869 146.836 38.8193C146.32 38.8996 145.804 38.997 145.288 39.1098C144.723 39.2225 144.141 39.3362 143.577 39.4805C143.19 39.5617 142.819 39.6582 142.432 39.7548C141.964 39.8675 141.495 39.9974 141.011 40.1255C140.769 40.1742 140.543 40.2383 140.317 40.3032C140.075 40.3681 139.833 40.4484 139.607 40.5287C139.01 40.6902 138.429 40.8679 137.848 41.0609C137.816 41.0609 137.8 41.0772 137.784 41.0772C137.477 41.1899 137.154 41.3027 136.847 41.4163C136.364 41.5778 135.896 41.7555 135.427 41.9332C134.959 42.1109 134.507 42.2886 134.055 42.4663C133.603 42.644 133.152 42.8371 132.7 43.031C132.378 43.1762 132.056 43.3052 131.732 43.4505C131.603 43.5154 131.474 43.5795 131.345 43.6282C131.216 43.6931 131.103 43.7572 130.974 43.8059C130.651 43.9511 130.329 44.1126 130.021 44.2578C129.569 44.468 129.134 44.6935 128.698 44.9199C128.262 45.1454 127.843 45.3718 127.407 45.6136C127.391 45.6136 127.391 45.6136 127.391 45.6136C126.972 45.8553 126.536 46.098 126.116 46.3397C125.697 46.5815 125.277 46.8404 124.857 47.0983C124.018 47.6152 123.195 48.1312 122.388 48.6796C121.581 49.2281 120.791 49.809 120.016 50.3899C119.225 50.9871 118.467 51.6005 117.725 52.2292C116.982 52.8588 116.256 53.5038 115.546 54.1821C115.191 54.5213 114.836 54.8434 114.497 55.1825C113.448 56.2154 112.464 57.2807 111.511 58.3938C111.205 58.7492 110.914 59.1037 110.624 59.4754C110.478 59.6531 110.333 59.8308 110.204 60.0238C110.108 60.1366 110.027 60.2502 109.946 60.363C109.494 60.9277 109.091 61.4933 108.687 62.0733C108.09 62.9284 107.509 63.7998 106.96 64.7037C106.718 65.0915 106.492 65.4785 106.251 65.8817C105.751 66.7531 105.283 67.657 104.831 68.5608C104.718 68.7872 104.604 69.0128 104.508 69.2383C104.281 69.6902 104.072 70.1584 103.878 70.6265C103.733 70.9495 103.604 71.2562 103.475 71.5791C103.313 71.9823 103.168 72.3693 103.023 72.7572C102.975 72.9024 102.91 73.0476 102.862 73.1929C102.829 73.2894 102.797 73.3859 102.764 73.4833C102.619 73.8703 102.49 74.2744 102.377 74.6614C102.312 74.8391 102.264 75.0168 102.216 75.1936C102.151 75.4038 102.103 75.5968 102.038 75.7908C101.957 76.065 101.877 76.3392 101.812 76.5981C101.715 77.0338 101.602 77.4857 101.505 77.9214C101.408 78.3246 101.327 78.7287 101.263 79.132C101.247 79.2285 101.231 79.3259 101.214 79.4224C101.149 79.7129 101.102 80.0033 101.069 80.2938C101.053 80.3425 101.037 80.3903 101.053 80.439C101.02 80.5355 101.004 80.633 100.989 80.7457C100.989 80.7944 100.973 80.8422 100.973 80.891C100.925 81.2139 100.892 81.5359 100.86 81.8426C100.86 81.8589 100.86 81.8751 100.86 81.8751C100.795 82.4082 100.747 82.9566 100.731 83.5051C100.731 83.5538 100.715 83.5854 100.715 83.6341C100.682 84.086 100.682 84.5371 100.682 84.9899C100.666 85.6836 100.682 86.3781 100.715 87.0718C100.747 87.7655 100.811 88.4601 100.892 89.1375C100.94 89.6544 101.021 90.1703 101.102 90.671C101.247 91.5261 101.408 92.3497 101.602 93.1886C101.619 93.2689 101.635 93.3663 101.667 93.4466C101.78 93.9148 101.909 94.3829 102.023 94.8673C102.152 95.3355 102.281 95.8028 102.41 96.2709C102.41 96.2709 102.41 96.2709 102.41 96.2871C102.571 96.8843 102.749 97.4652 102.926 98.0462C103.152 98.7885 103.378 99.5472 103.604 100.289C103.975 101.563 104.363 102.823 104.685 104.097C104.798 104.5 104.912 104.904 104.992 105.308C105.056 105.533 105.105 105.776 105.154 106.001C105.25 106.372 105.331 106.744 105.396 107.131C105.477 107.486 105.542 107.841 105.589 108.196C105.638 108.405 105.671 108.599 105.686 108.809C105.735 109.149 105.782 109.487 105.815 109.81C105.88 110.293 105.928 110.794 105.944 111.278C105.976 111.746 105.993 112.198 105.993 112.667C105.993 113.15 105.976 113.618 105.944 114.103C105.928 114.538 105.879 114.99 105.815 115.426C105.799 115.587 105.782 115.749 105.751 115.894C105.477 117.766 104.976 119.605 104.363 121.398C104.201 121.849 104.04 122.301 103.878 122.753C103.12 124.787 102.232 126.772 101.377 128.789C101.184 129.225 100.99 129.677 100.812 130.128C99.7955 132.55 98.8591 135.018 98.2782 137.552C98.1005 138.246 97.9715 138.94 97.875 139.634C97.6333 141.216 97.5845 142.782 97.6657 144.314C97.0199 144.524 96.3911 144.766 95.8093 145.024C94.0341 145.831 92.1786 147.073 90.8543 148.672C90.3059 148.607 89.7574 148.591 89.209 148.687C86.9494 149.075 85.6098 150.931 85.4808 153.142C85.3996 154.481 87.4816 154.481 87.5628 153.142C87.643 151.915 88.3854 150.996 89.5798 150.753C89.4832 151.011 89.3696 151.254 89.2893 151.512C88.9014 152.884 89.0791 154.352 89.854 155.546C90.6288 156.741 92.1289 158.209 93.6787 157.984C96.8746 157.532 95.5991 152.335 94.4048 150.673C94.0341 150.157 93.5497 149.77 93.0166 149.447C94.0819 148.381 95.4052 147.51 96.7123 146.897C97.0668 146.735 97.4709 146.574 97.8903 146.429C99.1009 154.82 104.652 162.502 111.947 167.521C114.207 169.07 116.627 170.362 119.144 171.346C121.21 172.153 123.324 172.782 125.454 173.25H125.471C125.922 173.363 126.374 173.459 126.842 173.541C126.874 173.557 126.907 173.557 126.938 173.557H126.954C131.505 174.444 136.169 174.67 140.881 174.444C140.881 174.461 140.881 174.461 140.897 174.444C144.27 174.299 147.659 173.912 151.016 173.348C153.969 172.879 156.89 172.282 159.763 171.605C162.232 171.024 164.702 170.394 167.154 169.701C169.979 168.893 172.77 168.006 175.53 167.005H175.546C180.533 165.197 185.358 163.052 189.941 160.453C192.7 158.92 195.379 157.193 197.946 155.305C201.448 152.722 204.74 149.77 207.516 146.429C207.774 146.864 207.984 147.3 208.145 147.719C208.064 147.752 207.984 147.784 207.903 147.816C206.709 148.494 205.418 149.559 204.966 150.914C204.418 152.544 205.709 153.787 207.177 154.239C208.097 154.514 209.13 154.417 209.856 153.723C210.501 153.093 210.744 152.205 210.824 151.334C210.906 150.591 210.824 149.817 210.679 149.043C211.131 148.946 211.599 148.897 212.1 148.881C213.632 148.881 215.086 149.382 216.151 150.527C217.07 151.513 218.539 150.045 217.635 149.044ZM93.565 154.676C93.5812 155.079 93.5488 155.515 93.4198 155.822C93.4198 155.839 93.3873 155.887 93.3548 155.919C93.3548 155.919 93.3548 155.919 93.3386 155.919C91.4344 155.306 90.7732 153.112 91.5318 151.466C91.5967 151.337 91.6933 151.223 91.7573 151.095C92.0965 151.273 92.4032 151.498 92.6287 151.789C93.2421 152.579 93.5488 153.676 93.565 154.676ZM208.742 151.336C208.742 151.352 208.742 151.352 208.742 151.352C208.742 151.368 208.742 151.368 208.726 151.384C208.694 151.546 208.646 151.724 208.613 151.884C208.597 151.933 208.597 151.949 208.597 151.965C208.581 151.965 208.581 151.982 208.548 152.014C208.516 152.063 208.484 152.111 208.468 152.159C208.452 152.192 208.403 152.224 208.387 152.24C208.371 152.256 208.355 152.256 208.355 152.256C208.355 152.272 208.338 152.272 208.338 152.272C208.322 152.272 208.307 152.272 208.274 152.288C208.274 152.288 208.258 152.288 208.242 152.288C208.226 152.304 208.209 152.304 208.209 152.304C208.193 152.304 208.193 152.304 208.193 152.304C208.161 152.304 208.112 152.304 208.08 152.288C208.015 152.272 207.79 152.256 207.726 152.224C207.5 152.143 207.241 152.046 207.047 151.885C206.918 151.772 206.951 151.789 206.918 151.692C206.935 151.595 206.951 151.499 207 151.418C207 151.402 207.177 151.111 207.241 151.031C207.548 150.628 207.968 150.272 208.387 149.982C208.484 149.917 208.597 149.869 208.71 149.804C208.71 149.868 208.71 149.868 208.741 150.094C208.758 150.417 208.774 150.756 208.758 151.079C208.759 151.174 208.742 151.255 208.742 151.336Z" fill="#161818"/>
<path d="M206.916 151.69V151.692C206.917 151.696 206.917 151.695 206.918 151.699L206.919 151.696C206.917 151.692 206.917 151.694 206.916 151.69Z" fill="#161818"/>
<path d="M206.918 151.695C206.972 151.826 206.946 151.644 206.918 151.695Z" fill="#161818"/>
<path d="M121.916 175.395L141.092 163.8L144.512 163.105L146.096 163.165L167.646 164L169.39 164.067L172.189 165.157L193.165 176.745C176.854 196.295 147.335 212.923 121.916 175.395Z" fill="#FFA07F"/>
<path d="M150.68 156.383C156.489 157.442 162.582 156.327 167.886 153.682C167.568 146.82 167.605 138.534 167.605 138.534L144.435 138.784C144.435 138.784 144.827 146.187 144.236 153.022C145.991 154.861 148.579 155.939 150.68 156.383Z" fill="#FF7D6F"/>
<path d="M146.432 170.652C143.993 168.863 142.626 166.223 140.982 163.888C141.018 163.858 141.058 163.83 141.092 163.801C142.932 162.295 143.825 157.798 144.237 153.023C145.991 154.861 148.579 155.939 150.68 156.383C156.488 157.442 162.582 156.327 167.885 153.682C168.056 157.365 168.328 160.637 168.762 161.999C169 162.744 170.279 163.853 172.188 165.158C168.099 169.292 163.662 172.956 158.321 174.249C154.27 175.308 150.185 173.32 146.432 170.652Z" fill="#FFA07F"/>
<path d="M182.324 122.815C186.932 121.835 189.935 117.952 191.427 114.813C191.761 114.106 192.02 113.436 192.203 112.846C193.195 109.636 192.403 98.9697 188.705 96.8787C186.113 95.4165 184.643 98.1164 183.995 99.8672C183.995 99.8699 183.996 99.8726 183.996 99.8726C183.72 100.617 183.592 101.189 183.592 101.189L182.324 122.815Z" fill="#FFBF90"/>
<path d="M182.324 122.816C186.932 121.835 189.935 117.952 191.427 114.814C191.55 114.497 191.656 114.196 191.743 113.912C192.735 110.701 191.944 100.036 188.245 97.9481C186.146 96.761 184.782 98.308 183.995 99.8685C183.995 99.8712 183.996 99.8739 183.996 99.8739C183.72 100.618 183.592 101.19 183.592 101.19L182.324 122.816Z" fill="#FFA07F"/>
<path d="M190.718 105.199C190.984 106.029 190.974 106.926 190.846 107.789C190.304 111.458 187.799 114.489 185.393 117.31C186.011 115.492 186.094 113.507 185.717 111.624C185.587 110.969 185.402 110.323 185.323 109.66C185.008 106.989 189.148 100.288 190.718 105.199Z" fill="#FF7D6F"/>
<path d="M184.156 118.474C184.156 118.474 184.205 118.431 184.297 118.348C184.386 118.262 184.531 118.146 184.694 117.972C185.019 117.628 185.462 117.084 185.85 116.307C186.236 115.533 186.553 114.521 186.627 113.356C186.682 112.197 186.498 110.874 185.874 109.648C185.805 109.491 185.717 109.346 185.627 109.202L185.561 109.094C185.545 109.066 185.555 109.084 185.553 109.081L185.554 109.084L185.551 109.083H185.551C185.551 109.083 185.548 109.088 185.556 109.063L185.588 108.955L185.657 108.743C185.705 108.602 185.75 108.462 185.8 108.325C185.996 107.775 186.216 107.254 186.447 106.767C186.679 106.28 186.924 105.828 187.171 105.413C187.42 105 187.66 104.612 187.909 104.316C188.157 104.019 188.443 103.812 188.725 103.733C189.007 103.66 189.287 103.713 189.482 103.807C189.679 103.903 189.798 104.042 189.852 104.149C189.91 104.256 189.916 104.324 189.92 104.323C189.92 104.323 189.926 104.257 189.891 104.134C189.859 104.011 189.764 103.833 189.561 103.679C189.36 103.531 189.056 103.404 188.675 103.434C188.296 103.472 187.906 103.678 187.57 103.979C187.231 104.282 186.938 104.647 186.629 105.046C186.325 105.448 186.02 105.896 185.734 106.389C185.449 106.883 185.179 107.42 184.944 107.997C184.885 108.14 184.83 108.287 184.775 108.436L184.695 108.661L184.592 108.977L184.52 109.199C184.553 109.267 184.598 109.333 184.636 109.4L184.806 109.687C184.882 109.812 184.96 109.939 185.018 110.075C185.56 111.138 185.781 112.289 185.818 113.339C185.837 114.392 185.662 115.349 185.407 116.12C185.151 116.894 184.825 117.483 184.575 117.876C184.453 118.073 184.335 118.213 184.266 118.316C184.195 118.421 184.156 118.474 184.156 118.474Z" fill="#CF4A57"/>
<path d="M128.431 128.771C123.721 128.82 119.941 125.686 117.8 122.949C117.319 122.332 116.921 121.734 116.613 121.199C114.945 118.282 113.388 107.701 116.541 104.854C118.751 102.861 120.775 105.175 121.789 106.742C121.789 106.744 121.79 106.747 121.79 106.747C122.222 107.413 122.471 107.943 122.471 107.943L128.431 128.771Z" fill="#FFBF90"/>
<path d="M128.431 128.77C123.72 128.82 119.941 125.686 117.8 122.948C117.61 122.666 117.441 122.395 117.294 122.137C115.625 119.221 114.069 108.64 117.222 105.795C119.012 104.178 120.68 105.39 121.788 106.741C121.788 106.744 121.789 106.746 121.789 106.746C122.221 107.412 122.47 107.943 122.47 107.943L128.431 128.77Z" fill="#FFA07F"/>
<path d="M116.392 113.411C116.315 114.28 116.521 115.153 116.833 115.966C118.164 119.428 121.269 121.839 124.233 124.068C123.232 122.428 122.718 120.509 122.674 118.59C122.659 117.921 122.698 117.251 122.63 116.587C122.356 113.912 116.852 108.276 116.392 113.411Z" fill="#FF7D6F"/>
<path d="M125.694 124.934C125.694 124.934 125.637 124.902 125.53 124.841C125.424 124.777 125.257 124.696 125.061 124.561C124.668 124.296 124.117 123.862 123.568 123.188C123.022 122.517 122.493 121.599 122.165 120.478C121.859 119.359 121.75 118.028 122.09 116.695C122.123 116.528 122.178 116.366 122.233 116.206L122.274 116.086C122.284 116.055 122.278 116.074 122.279 116.071V116.075L122.282 116.073H122.283C122.283 116.073 122.286 116.078 122.273 116.055L122.217 115.957L122.104 115.764C122.027 115.637 121.952 115.511 121.873 115.388C121.562 114.894 121.234 114.434 120.902 114.009C120.57 113.584 120.23 113.197 119.9 112.845C119.567 112.497 119.248 112.17 118.941 111.936C118.633 111.7 118.309 111.56 118.018 111.545C117.726 111.535 117.465 111.647 117.295 111.782C117.124 111.919 117.038 112.08 117.008 112.198C116.975 112.314 116.986 112.383 116.98 112.382C116.986 112.382 116.96 112.319 116.968 112.19C116.973 112.064 117.026 111.868 117.191 111.675C117.356 111.487 117.624 111.296 118.002 111.242C118.38 111.196 118.807 111.312 119.199 111.533C119.596 111.755 119.963 112.047 120.35 112.368C120.736 112.694 121.131 113.065 121.518 113.484C121.904 113.903 122.284 114.369 122.638 114.881C122.727 115.008 122.813 115.14 122.9 115.273L123.027 115.475L123.196 115.762L123.315 115.963C123.297 116.036 123.269 116.111 123.245 116.185L123.142 116.502C123.095 116.641 123.048 116.781 123.02 116.927C122.723 118.083 122.758 119.254 122.952 120.287C123.165 121.319 123.543 122.216 123.96 122.912C124.379 123.61 124.826 124.116 125.156 124.444C125.319 124.61 125.463 124.721 125.553 124.807C125.645 124.89 125.694 124.934 125.694 124.934Z" fill="#CF4A57"/>
<path d="M122.038 106.035C122.038 106.035 125.162 126.594 131.484 133.652C136.781 139.561 144.417 149.062 155.211 151.392C157.319 151.847 159.531 151.602 161.489 150.698C171.514 146.068 176.891 135.129 180.77 128.206C185.399 119.939 183.959 99.1928 183.959 99.1928C183.853 97.8145 183.719 96.4885 183.557 95.2094L183.553 95.1688C178.61 56.1425 148.47 61.6396 148.47 61.6396C148.47 61.6396 118.578 65.2225 121.843 104.004C121.896 104.672 121.962 105.347 122.038 106.035Z" fill="#FFBF90"/>
<path d="M121.842 104.004C122.385 107.288 125.485 124.703 131.2 131.082C136.497 136.99 144.133 146.492 154.927 148.822C157.035 149.276 159.247 149.032 161.205 148.128C171.23 143.498 176.607 132.559 180.487 125.636C185.116 117.369 183.676 96.6228 183.676 96.6228C183.641 96.1438 183.6 95.6748 183.557 95.2084L183.553 95.1678C178.61 56.1415 148.47 61.6386 148.47 61.6386C148.47 61.6386 118.577 65.2234 121.842 104.004Z" fill="#FFA07F"/>
<path d="M167.287 111.897C165.691 111.888 164.104 111.314 162.871 110.3C161.639 109.287 160.769 107.841 160.452 106.276C161.987 108.632 164.682 110.843 167.287 111.897Z" fill="#FF7D6F"/>
<path d="M141.071 114.964C142.621 114.587 144.033 113.662 144.998 112.391C145.963 111.12 146.476 109.513 146.423 107.918C145.473 110.564 143.362 113.337 141.071 114.964Z" fill="#FF7D6F"/>
<path d="M167.111 132.385C166.748 132.82 166.253 133.138 165.681 133.344C162.406 134.552 156.485 132.344 155.41 132.562C154.266 132.795 149.363 134.966 147.022 134.648C146.727 134.617 146.477 134.542 146.273 134.421C144.461 133.327 145.984 126.969 155.832 125.76C162.859 124.89 169.627 129.4 167.111 132.385Z" fill="#3F0727"/>
<path d="M165.681 133.344C162.406 134.552 156.485 132.344 155.41 132.562C154.266 132.795 149.363 134.966 147.022 134.648C148.289 132.169 150.772 128.848 155.192 128.653C159.755 128.447 163.547 131.287 165.681 133.344Z" fill="#FC5B68"/>
<path d="M130.897 102.979C130.897 102.979 139.452 101.421 144.476 106.334C144.476 106.334 137.53 111.466 131.536 111.15C131.536 111.15 137.154 106.938 140.332 106.219C140.332 106.219 132.927 104.037 130.897 102.979Z" fill="#161818"/>
<path d="M174.62 97.5806C174.62 97.5806 165.936 98.0388 162.183 103.979C162.183 103.979 170.126 107.37 175.885 105.679C175.885 105.679 169.447 102.877 166.188 102.912C166.188 102.912 172.889 99.0789 174.62 97.5806Z" fill="#161818"/>
<path d="M153.729 116.508C152.176 116.736 150.795 117.889 150.293 119.377C150.231 119.561 150.182 119.767 150.257 119.948C150.369 120.218 150.701 120.311 150.99 120.361C153.025 120.712 155.135 120.629 157.137 120.117C160.75 119.195 155.536 116.243 153.729 116.508Z" fill="#FF7D6F"/>
<path d="M156.009 119.298C156.009 119.298 155.977 119.076 155.904 118.688C155.866 118.495 155.82 118.259 155.777 117.984C155.733 117.71 155.669 117.406 155.622 117.063C155.567 116.723 155.506 116.355 155.455 115.958C155.39 115.565 155.347 115.142 155.284 114.704C155.18 113.822 155.076 112.863 154.977 111.856C154.888 110.848 154.815 109.887 154.755 109.001C154.736 108.559 154.7 108.135 154.691 107.736C154.669 107.337 154.662 106.963 154.653 106.619C154.636 106.275 154.644 105.963 154.636 105.686C154.627 105.407 154.629 105.168 154.631 104.971C154.632 104.576 154.623 104.353 154.623 104.353C154.623 104.353 154.515 104.546 154.34 104.905C154.249 105.084 154.145 105.306 154.042 105.57C153.937 105.834 153.81 106.135 153.707 106.478C153.595 106.819 153.481 107.197 153.39 107.609C153.284 108.02 153.213 108.466 153.141 108.938C153.019 109.881 152.973 110.936 153.071 112.034C153.177 113.131 153.416 114.16 153.709 115.065C153.866 115.516 154.018 115.941 154.198 116.325C154.363 116.714 154.545 117.064 154.718 117.379C154.883 117.697 155.063 117.969 155.215 118.209C155.364 118.45 155.508 118.649 155.63 118.809C155.869 119.128 156.009 119.298 156.009 119.298Z" fill="#FC5B68"/>
<path d="M127.257 123.765C127.257 123.765 127.129 123.306 126.879 122.501C126.816 122.3 126.746 122.079 126.669 121.835C126.598 121.59 126.52 121.323 126.437 121.037C126.274 120.464 126.066 119.829 125.878 119.108C125.778 118.753 125.672 118.38 125.562 117.992C125.452 117.606 125.356 117.197 125.243 116.781C125.009 115.952 124.804 115.052 124.562 114.121C124.114 112.244 123.647 110.192 123.194 108.03C122.753 105.864 122.367 103.793 122.034 101.888C121.886 100.934 121.717 100.025 121.602 99.1665C121.541 98.738 121.466 98.3222 121.414 97.9217C121.361 97.5202 121.309 97.1342 121.26 96.7661C121.146 96.0273 121.084 95.3562 121.006 94.7618C120.969 94.4641 120.934 94.1872 120.902 93.9319C120.875 93.6766 120.851 93.4421 120.829 93.2319C120.738 92.3876 120.673 91.9131 120.673 91.9131C120.673 91.9131 120.56 92.3596 120.38 93.1814C120.337 93.3879 120.288 93.6171 120.235 93.8678C120.187 94.1204 120.145 94.3955 120.096 94.6923C120.005 95.2859 119.887 95.966 119.821 96.7246C119.785 97.1053 119.747 97.504 119.707 97.9189C119.672 98.3357 119.659 98.7696 119.638 99.2215C119.586 100.124 119.602 101.092 119.622 102.113C119.697 104.153 119.927 106.404 120.398 108.717C120.883 111.028 121.561 113.168 122.294 115.045C122.679 115.977 123.046 116.857 123.447 117.649C123.644 118.045 123.826 118.432 124.022 118.792C124.221 119.149 124.411 119.491 124.595 119.818C124.953 120.472 125.326 121.03 125.643 121.524C125.803 121.769 125.949 121.998 126.092 122.203C126.239 122.405 126.373 122.589 126.493 122.754C126.979 123.416 127.257 123.765 127.257 123.765Z" fill="#161818"/>
<path d="M182.475 123.97C182.475 123.97 182.625 123.54 182.872 122.752C183.121 121.963 183.448 120.811 183.792 119.365C184.138 117.92 184.482 116.176 184.766 114.215C185.042 112.253 185.251 110.073 185.32 107.77C185.382 105.467 185.295 103.262 185.131 101.263C184.959 99.2641 184.714 97.4708 184.451 95.9743C184.19 94.4769 183.93 93.2763 183.726 92.45C183.525 91.6237 183.398 91.1709 183.398 91.1709C183.398 91.1709 183.345 91.6391 183.278 92.4789C183.213 93.3187 183.114 94.531 183.014 96.0176C182.917 97.5042 182.8 99.265 182.702 101.212C182.596 103.158 182.502 105.29 182.441 107.53C182.375 109.768 182.348 111.905 182.346 113.861C182.335 115.815 182.351 117.587 182.365 119.083C182.38 120.58 182.411 121.802 182.428 122.649C182.449 123.495 182.475 123.97 182.475 123.97Z" fill="#161818"/>
<path d="M172.058 116.875C172.714 118.174 176.419 117.623 180.332 115.644C184.245 113.665 186.885 111.008 186.228 109.71C185.571 108.411 181.867 108.963 177.954 110.941C174.04 112.92 171.401 115.577 172.058 116.875Z" fill="#FF7D6F"/>
<path d="M122.056 116.529C121.648 117.926 124.728 120.056 128.937 121.287C133.146 122.518 136.889 122.383 137.297 120.987C137.706 119.59 134.625 117.46 130.417 116.229C126.208 114.997 122.465 115.133 122.056 116.529Z" fill="#FF7D6F"/>
<path d="M193.876 87.0419C193.993 88.2281 194.07 89.4179 194.083 90.6167C194.134 91.7677 194.141 92.9034 194.129 94.0625C194.091 97.5183 193.804 101.003 193.488 104.406C183.594 98.6206 175.876 89.4855 171.422 78.9388C169.744 75.032 168.524 70.9024 167.803 66.7151C165.287 73.0908 162.33 76.9507 158.259 79.931C154.893 82.4505 150.74 84.3664 145.495 86.6639C146.335 84.6713 147.157 82.703 147.974 80.6924C148.192 80.2251 148.391 79.7596 148.567 79.2969C148.136 79.7479 147.668 80.244 147.141 80.769C137.469 90.5491 116.224 108.249 116.224 108.249C116.224 108.249 115.654 102.297 115.275 95.2713C115.06 91.277 114.913 86.9598 114.997 83.1829C115.07 80.5652 115.194 78.2153 115.507 76.3896C115.774 74.7172 116.148 73.0529 116.648 71.3949C116.766 70.9601 116.905 70.5235 117.044 70.1077C117.148 69.7378 117.297 69.3833 117.423 69.0324C117.439 68.9882 117.453 68.9233 117.489 68.8773C117.657 68.3316 117.868 67.8021 118.101 67.2698C118.214 66.983 118.307 66.6988 118.442 66.4093C118.724 65.7661 119.027 65.1203 119.333 64.496C119.673 63.8042 120.036 63.1303 120.441 62.4511C120.911 61.6176 121.426 60.7994 122.006 59.9957C122.147 59.7684 122.31 59.5393 122.473 59.3101C122.706 58.9674 122.982 58.6192 123.256 58.2719C123.73 57.6486 124.269 57.0379 124.829 56.4254C125.333 55.8824 125.82 55.3628 126.371 54.8567C126.483 54.7386 126.577 54.6429 126.694 54.5663C126.713 54.5428 126.752 54.5176 126.77 54.4941C127.302 54.0106 127.818 53.5515 128.376 53.1067C131.824 50.3889 135.843 48.4035 140.03 47.1352C146.034 45.4014 152.564 45.1001 158.531 46.9908C160.018 47.4689 161.526 48.1346 162.948 48.9573C163.31 49.1675 163.668 49.3569 164.031 49.5878C164.372 49.8007 164.736 50.0317 165.061 50.2887C165.287 50.4304 165.517 50.5927 165.725 50.7578C166.021 50.9545 166.3 51.1746 166.557 51.3965C166.907 51.6923 167.232 51.9485 167.564 52.2678L168.629 53.279C168.936 53.5596 169.221 53.841 169.489 54.1468C172.336 57.9805 172.76 58.7301 173.102 59.4897C176.793 60.4684 180.246 62.2743 183.225 64.7234C183.367 64.8542 183.529 64.9822 183.671 65.1139C184.132 65.4594 184.536 65.8545 184.94 66.2487C185.508 66.7927 186.033 67.3204 186.523 67.9148C187.032 68.4867 187.504 69.1046 187.953 69.7045C189.684 72.0904 190.999 74.6928 191.906 77.4062C192.982 80.4759 193.612 83.7061 193.876 87.0419Z" fill="#161818"/>
<path d="M181.384 91.8076C181.384 91.8076 167.665 81.8535 162.778 85.3057C159.924 87.3208 162.179 88.7289 162.179 88.7289L181.384 91.8076Z" fill="#424242"/>
<path d="M122.398 96.6216C122.398 96.6216 134.678 84.9382 139.979 87.712C143.074 89.3312 141.025 91.0261 141.025 91.0261L122.398 96.6216Z" fill="#424242"/>
<path d="M215.556 125.769C207.978 116.218 197.826 107.684 195.976 95.822C182.775 86.235 172.769 70.8442 169.981 54.757C162.98 62.1836 153.684 67.438 143.689 69.5966C144.41 67.3027 144.455 64.8149 143.805 62.4921C135.391 76.7328 123.655 89.007 109.791 98.0356C109.446 96.5192 109.1 95.002 108.774 93.4829C107.724 99.4347 107.972 105.508 107.834 111.521C107.718 117.553 107.178 123.719 104.705 129.205C103.251 132.427 101.055 135.419 98.2745 137.554C100.135 129.529 105.417 122.346 105.946 114.098C106.416 106.951 103.222 100.171 101.606 93.1853C101.402 92.3464 101.243 91.5228 101.102 90.6767C99.2172 79.4281 103.646 68.1786 110.624 59.4711C120.633 47.0003 136.673 39.3157 152.483 38.1178C160.034 37.5495 165.821 38.4506 171.186 42.5793C172.369 43.5139 173.545 44.5756 174.725 45.8475C174.797 45.9232 174.998 46.1939 175.274 46.5826C177.399 49.6379 184.575 60.7926 183.372 61.1219C183.372 61.1219 185.778 60.4616 189.117 61.1237C191.616 61.6099 194.621 62.8367 197.538 65.652C199.007 67.0583 200.463 68.8867 201.81 71.233C204.744 76.3404 205.407 83.9853 205.096 91.4073C204.947 95.1707 204.56 98.8772 204.104 102.171C207.204 107.09 211.511 111.343 213.762 116.74C214.98 119.586 215.552 122.675 215.556 125.769Z" fill="#424242"/>
<path d="M110.35 55.6211C110.369 55.6825 110.364 55.6706 110.35 55.6211Z" fill="#595959"/>
<path d="M152.484 38.1183C137.129 39.281 121.574 46.5768 111.522 58.4189C111.456 58.3413 111.392 58.2575 111.319 58.1889C111.303 58.1664 111.287 58.1438 111.271 58.1213C111.23 58.0617 111.19 58.0004 111.151 57.939C111.066 57.8046 110.989 57.6666 110.916 57.525C110.886 57.4682 110.858 57.4095 110.83 57.3518C110.818 57.3256 110.806 57.2986 110.793 57.2724C110.768 57.1425 110.683 56.9955 110.642 56.8737C110.592 56.7276 110.547 56.5806 110.507 56.4317C110.428 56.1394 110.412 55.8192 110.322 55.5333C110.339 55.5829 110.343 55.5982 110.349 55.6217C110.339 55.5811 110.325 55.5297 110.32 55.4927C110.314 55.4295 110.31 55.3664 110.304 55.3023C110.293 55.1382 110.287 54.9731 110.287 54.8071C110.286 54.2605 109.807 53.7364 109.243 53.7616C108.677 53.7869 108.196 54.2208 108.197 54.8071C108.202 56.6085 108.821 58.7437 110.196 60.0282C110.11 60.1409 110.024 60.2519 109.937 60.3647C107.52 57.7893 103.693 56.4516 100.681 58.9105C100.244 59.2678 100.31 60.0174 100.681 60.3881C101.114 60.8211 101.72 60.7462 102.159 60.3881C103.399 59.376 105.012 59.5303 106.366 60.2194C107.23 60.6587 108.036 61.3235 108.683 62.0713C102.857 70.3594 99.3985 80.5156 101.101 90.6763C101.242 91.5224 101.402 92.345 101.605 93.1848C105.069 90.5906 107.831 87.0482 109.442 83.0088C109.291 84.9627 109.161 86.9138 109.01 88.846C123.848 80.0609 136.106 67.0317 143.992 51.695C144.302 54.1622 144.609 56.6103 144.919 59.0783C155.281 57.0027 164.781 50.968 171.185 42.5798C165.822 38.4511 160.034 37.55 152.484 38.1183Z" fill="#595959"/>
<path d="M205.095 91.4148C205.144 90.124 205.176 88.8169 205.144 87.5099C205.16 87.2681 205.16 87.0092 205.144 86.7675C205.144 86.4608 205.128 86.1387 205.112 85.8311C205.112 85.4757 205.095 85.1375 205.063 84.7983C205.063 84.6693 205.063 84.5403 205.047 84.4276C205.031 84.1046 205.015 83.7979 204.983 83.4912C204.95 83.1043 204.918 82.7164 204.886 82.3294C204.805 81.5708 204.725 80.8121 204.612 80.0698C204.499 79.3274 204.369 78.6012 204.209 77.8913C204.063 77.1814 203.886 76.503 203.692 75.8256C203.594 75.4864 203.498 75.1644 203.385 74.8415C202.949 73.5344 202.432 72.3401 201.803 71.2423C200.463 68.8861 199.011 67.0631 197.542 65.6586C197.187 65.3041 196.816 64.9812 196.446 64.6745C196.09 64.3678 195.719 64.0935 195.348 63.8356C194.993 63.5767 194.622 63.3349 194.266 63.1256C193.895 62.9001 193.524 62.7062 193.169 62.5122C192.815 62.3345 192.459 62.1731 192.12 62.0278C191.766 61.8826 191.427 61.7536 191.087 61.6409C190.474 61.4316 189.877 61.2701 189.312 61.1565C189.247 61.1402 189.199 61.1402 189.134 61.1249C189.134 60.9634 189.118 60.7857 189.118 60.608C189.102 58.9131 189.28 56.9773 190.2 55.5565C190.361 55.976 190.555 56.3801 190.797 56.7671C191.636 58.0417 193.186 59.3497 194.799 59.3172C196.219 59.2685 197.043 58.0263 197.026 56.703C196.979 54.2017 194.541 52.4427 192.153 52.3939C192.443 51.8608 192.96 51.4901 193.702 51.3449C195.026 51.0869 194.461 49.069 193.138 49.3279C191.104 49.7473 190.072 51.2483 189.878 52.9749C188.086 54.0564 187.409 56.4279 187.151 58.4296C187.054 59.2207 187.022 60.0271 187.022 60.866C186.86 60.8498 186.715 60.8498 186.57 60.8498C184.633 60.7848 183.375 61.124 183.375 61.124C183.424 61.1078 183.456 61.0753 183.471 61.0428C183.536 60.93 183.52 60.7361 183.439 60.4619C183.23 59.7195 182.6 58.4765 181.793 56.9926C181.664 56.7824 181.551 56.5731 181.422 56.3467C181.324 56.1537 181.213 55.976 181.115 55.7983C180.905 55.4438 180.679 55.0721 180.469 54.7005C180.357 54.5228 180.259 54.3297 180.146 54.152C179.565 53.2157 178.968 52.2478 178.404 51.344C178.194 51.0048 177.984 50.6819 177.79 50.3752C177.645 50.1659 177.516 49.9557 177.387 49.7618C177.178 49.4226 176.968 49.1159 176.757 48.8092C176.16 47.8891 175.643 47.1142 175.273 46.582C175.951 51.73 177.08 56.7815 178.662 61.6878C181.97 71.9522 187.166 81.5374 194.058 89.8814C195.575 91.6891 197.14 93.4481 198.803 95.1259C197.318 90.8005 195.866 86.4761 194.397 82.167C197.511 85.7346 201.109 88.8494 205.095 91.4148ZM194.187 55.2336C194.493 55.4916 194.719 55.847 194.848 56.234C194.961 56.5731 194.961 56.9601 194.88 57.1216C194.88 57.1378 194.848 57.1703 194.832 57.2028C194.799 57.219 194.767 57.219 194.687 57.219C194.267 57.2028 193.702 56.832 193.331 56.5253C192.717 56.0085 192.265 55.2823 192.024 54.4921C192.782 54.4912 193.621 54.7492 194.187 55.2336Z" fill="#595959"/>
<path d="M157.104 330.817C155.587 331.586 154.815 333.363 155.539 334.965L159.582 343.902C160.258 345.396 162.219 346.233 163.731 345.466C165.247 344.697 166.019 342.919 165.295 341.318L161.253 332.381C160.576 330.887 158.615 330.05 157.104 330.817Z" fill="#DD9700"/>
<path d="M165.671 327.325C164.155 328.094 163.383 329.871 164.107 331.473L168.149 340.41C168.825 341.904 170.786 342.741 172.298 341.974C173.814 341.204 174.586 339.427 173.862 337.825L169.819 328.889C169.143 327.395 167.182 326.558 165.671 327.325Z" fill="#DD9700"/>
<path d="M174.843 322.902C173.327 323.671 172.555 325.448 173.279 327.05L177.321 335.987C177.997 337.481 179.958 338.318 181.47 337.551C182.986 336.782 183.758 335.004 183.034 333.403L178.992 324.466C178.315 322.971 176.354 322.134 174.843 322.902Z" fill="#DD9700"/>
<path d="M183.736 316.523C182.219 317.292 181.447 319.069 182.172 320.671L186.214 329.608C186.889 331.102 188.85 331.939 190.362 331.172C191.879 330.403 192.651 328.625 191.926 327.024L187.883 318.087C187.209 316.593 185.248 315.756 183.736 316.523Z" fill="#DD9700"/>
<path d="M190.928 317.654C177.635 329.567 154.165 337.028 154.165 337.028C152.2 334.186 150.361 331.03 148.626 327.581C147.707 325.742 146.809 323.819 145.951 321.833C145.345 320.454 144.76 319.032 144.175 317.591C143.422 315.688 142.69 313.724 141.98 311.718C125.803 266.03 122.376 197.854 122.376 197.854L147.016 208.136C148.605 228.096 165.763 266.656 178.157 292.28C179.14 294.329 180.101 296.293 181.021 298.153C181.878 299.888 182.693 301.54 183.487 303.086C184.512 305.176 185.494 307.098 186.35 308.791C189.172 314.331 190.928 317.654 190.928 317.654Z" fill="#FFB600"/>
<path d="M186.351 308.792C175.859 318.322 162.336 323.673 148.626 327.581C147.707 325.742 146.809 323.819 145.951 321.833C159.515 318.092 173.456 312.972 183.487 303.086C184.512 305.177 185.494 307.099 186.351 308.792Z" fill="#FFF7F1"/>
<path d="M181.022 298.154C170.906 307.955 157.718 313.536 144.175 317.591C143.422 315.688 142.69 313.724 141.98 311.718C155.335 307.851 168.711 302.438 178.158 292.28C179.141 294.33 180.101 296.294 181.022 298.154Z" fill="#FFF7F1"/>
<path d="M208.651 177.476C208.651 177.476 206.645 183.831 201.671 191.25C194.669 201.721 181.753 214.303 160.33 213.864C123.776 213.112 106.826 185.503 106.826 185.503C106.826 185.503 104.841 171.771 114.12 165.815C123.399 159.838 128.311 163.788 128.311 163.788C128.311 163.788 128.708 154.195 144.238 153.025C144.238 153.025 144.948 161.844 155.001 161.615C165.075 161.385 167.959 154.989 167.959 154.989C167.959 154.989 170.133 153.714 173.247 153.067C176.695 152.377 181.272 152.44 185.452 155.742C193.415 162.075 192.119 167.864 192.119 167.864C192.119 167.864 202.297 164.56 208.651 177.476Z" fill="#FFB600"/>
<path d="M201.671 191.25C194.669 201.721 181.753 214.303 160.33 213.865C123.776 213.112 106.826 185.503 106.826 185.503C106.826 185.503 104.841 171.771 114.12 165.815C123.399 159.838 128.311 163.788 128.311 163.788C128.311 163.788 128.708 154.196 144.238 153.025C144.238 153.025 144.948 161.844 155.001 161.615C165.075 161.385 167.959 154.99 167.959 154.99C167.959 154.99 170.133 153.714 173.247 153.067C172.034 159.379 167.248 165.043 161.041 166.819C153.245 169.055 144.154 164.98 140.642 157.686C137.361 160.633 135.271 164.854 134.937 169.244C141.103 176.12 149.629 179.966 158.868 180.049C168.106 180.113 177.281 176.162 183.572 169.39C177.761 178.879 167.228 186.173 156.109 186.799C145.011 187.426 133.725 182.286 126.911 173.508C122.939 175.535 119.868 179.631 119.199 184.042C131.635 201.221 155.879 207.722 176.465 202.559C185.494 200.28 193.875 196.329 201.671 191.25Z" fill="#DD9700"/>
<path d="M48.9199 293.107C48.9199 293.107 43.8107 302.505 43.3145 306.231C42.8184 309.955 44.5558 324.409 47.5361 329.101C50.5156 333.794 76.3413 344.472 80.5629 342.981C84.7845 341.491 100.677 319.143 101.173 316.411C101.67 313.68 94.4725 293.107 94.4725 293.107C94.4725 293.107 75.3472 281.647 67.8981 283.386C60.4481 285.124 48.9199 293.107 48.9199 293.107Z" fill="#AA2B48"/>
<path d="M122.373 214.876L136.187 257.479L161.472 251.997L156.404 207.498L122.373 214.876Z" fill="#FFF7F1"/>
<path d="M158.151 200.811L118.368 209.437L119.673 215.457L159.456 206.831L158.151 200.811Z" fill="#F1E8DF"/>
<path d="M164.763 251.278L132.918 258.183L134.223 264.203L166.068 257.299L164.763 251.278Z" fill="#F1E8DF"/>
<path d="M111.526 246.555C111.887 245.071 112.372 243.323 112.934 241.425C113.31 240.248 113.692 238.979 114.116 237.71C115.65 233.065 117.654 228.222 120.025 224.84C121.021 223.412 122.08 222.2 123.18 221.46C130.914 216.133 142.791 208.086 145.369 210.943C147.937 213.843 126.14 229.184 126.14 229.184L127.976 236.329L137.685 230.787L153.98 230.411C153.98 230.411 155.358 233.258 156.857 236.833C157.023 237.161 157.156 237.491 157.262 237.825C157.279 237.852 157.284 237.879 157.295 237.911C157.332 238.003 157.364 238.132 157.401 238.223C157.577 238.616 157.753 239.065 157.908 239.48C158.617 241.242 159.251 243.101 159.708 244.761C159.756 244.96 159.825 245.181 159.895 245.359C160.149 246.405 160.329 247.352 160.406 248.187C160.5 249.092 160.465 249.834 160.199 250.366L147.872 253.368C147.872 253.368 140.413 269.246 138.244 270.766C137.38 271.377 132.75 271.673 127.517 271.814C125.665 271.851 123.766 271.838 121.93 271.858C121.93 271.858 121.887 271.858 121.779 271.868C121.144 271.855 120.482 271.869 119.826 271.877L105.885 255.099C105.977 254.709 111.427 246.995 111.526 246.555Z" fill="#FFA07F"/>
<path d="M156.865 236.848C157.055 237.295 157.237 237.755 157.426 238.218C157.319 238.241 157.205 238.249 157.096 238.261C155.216 238.47 152.676 238.792 149.944 239.2C147.204 239.621 144.764 240.168 142.976 240.786C142.527 240.947 142.124 241.087 141.77 241.218C141.415 241.376 141.113 241.519 140.864 241.627C140.353 241.854 140.068 241.979 140.068 241.979C140.068 241.979 140.267 241.738 140.656 241.301C140.854 241.089 141.096 240.818 141.394 240.523C141.702 240.253 142.07 239.953 142.478 239.629C144.136 238.357 146.786 237.054 149.784 236.595C152.564 236.18 155.058 236.447 156.865 236.848Z" fill="#CF4A57"/>
<path d="M159.708 244.758C159.772 244.954 159.823 245.161 159.88 245.353C159.354 245.412 158.664 245.48 157.834 245.569C155.954 245.778 153.414 246.101 150.676 246.504C147.942 246.929 145.501 247.476 143.714 248.094C143.265 248.255 142.859 248.402 142.498 248.529C142.15 248.691 141.845 248.823 141.598 248.942C141.091 249.161 140.797 249.29 140.797 249.29C140.797 249.29 140.999 249.043 141.395 248.609C141.587 248.394 141.835 248.127 142.126 247.828C142.441 247.562 142.798 247.265 143.217 246.938C144.865 245.67 147.515 244.365 150.517 243.901C153.514 243.459 156.174 243.805 158.013 244.253C158.692 244.423 159.258 244.601 159.708 244.758Z" fill="#CF4A57"/>
<path d="M105.884 255.101L59.3304 297.291C59.3304 297.291 54.8607 310.327 59.3304 319.268C63.8 328.207 77.5816 330.442 77.5816 330.442L119.825 271.88L105.884 255.101Z" fill="#FFA07F"/>
<path d="M112.031 108.532C112.031 112.654 108.69 115.995 104.568 115.995C100.447 115.995 97.1056 112.654 97.1056 108.532C97.1056 104.411 104.568 92.7095 104.568 92.7095C104.568 92.7095 112.031 104.41 112.031 108.532Z" fill="#C0F8FD"/>
<path d="M116.523 84.0814C116.523 86.9193 114.222 89.2204 111.384 89.2204C108.546 89.2204 106.245 86.9193 106.245 84.0814C106.245 81.2427 111.384 73.1855 111.384 73.1855C111.384 73.1855 116.523 81.2427 116.523 84.0814Z" fill="#C0F8FD"/>
<path d="M154.874 123.432C154.874 124.718 153.832 125.76 152.547 125.76C151.261 125.76 150.219 124.718 150.219 123.432C150.219 122.147 152.547 118.499 152.547 118.499C152.547 118.499 154.874 122.147 154.874 123.432Z" fill="#C0F8FD"/>
<path d="M241.552 117.809L209.55 120.147L236.456 132.509L241.552 117.809Z" fill="#FFF7F1"/>
<path d="M214.099 93.9878L205.279 113.414L221.058 101.641L214.099 93.9878Z" fill="#FFF7F1"/>
<path d="M220.408 141.563L201.671 127.25L210.441 147.161L220.408 141.563Z" fill="#FFF7F1"/>
<path d="M117.171 197.143C117.171 197.143 117.171 197.143 114.934 204.375C113.868 207.824 112.301 212.902 109.98 220.426C109.061 223.394 108.016 226.759 106.846 230.542C106.533 231.545 106.219 232.59 105.884 233.656C105.403 235.182 104.86 236.687 104.191 238.15C101.223 244.963 96.5002 251.233 90.8362 256.918C89.3316 258.422 87.7638 259.885 86.1546 261.307C82.4968 264.546 78.5674 267.535 74.5759 270.294C72.862 271.506 71.1273 272.635 69.4134 273.743C64.8355 276.669 60.2378 279.281 55.9124 281.581C53.9893 282.584 52.1292 283.545 50.3314 284.423C39.3382 289.857 31.1448 292.763 31.1448 292.763C30.6225 291.404 31.6879 286.932 33.6949 281.1C35.472 275.833 37.9797 269.479 40.6966 263.335C43.4966 256.939 46.5275 250.795 49.1606 246.343C50.1646 244.651 51.1045 243.208 51.9822 242.08C52.233 241.724 52.5045 241.411 52.7553 241.118C53.9045 239.802 54.9914 238.13 56.036 236.207C58.4815 231.671 60.6545 225.756 62.87 219.653C63.7891 217.082 64.73 214.491 65.6916 211.942C65.7754 211.733 65.8593 211.524 65.9423 211.294C67.1547 208.138 68.4085 205.087 69.767 202.328C70.5401 200.719 71.3555 199.214 72.2125 197.855C73.3409 196.037 74.9502 194.24 76.8517 192.483C78.3356 191.125 80.008 189.788 81.7841 188.492C84.6689 186.422 87.845 184.479 90.9391 182.723C92.8406 181.636 94.7214 180.633 96.4776 179.755C102.789 176.537 107.763 174.531 107.763 174.531L107.011 183.372L106.822 185.503L109.874 188.952L112.006 191.356L117.171 197.143Z" fill="#FF8035"/>
<path d="M99.8909 219.165C99.5039 218.535 99.116 217.889 98.7453 217.26C98.5189 218.761 98.2934 220.294 98.0679 221.844C97.9713 222.521 97.8577 223.216 97.7612 223.893C97.551 225.313 97.3408 226.75 97.1315 228.153C97.3408 228.041 97.5672 227.911 97.7765 227.782C98.2122 228.476 98.6316 229.186 99.0673 229.88L103.376 217.066C102.215 217.76 101.053 218.454 99.8909 219.165ZM112.866 201.477C111.897 200.186 110.913 198.895 109.913 197.604C109.751 197.394 109.59 197.184 109.429 196.974C107.993 195.101 106.541 193.246 105.088 191.39C106.331 190.762 107.573 190.116 108.832 189.486C109.041 189.373 109.268 189.261 109.493 189.147C109.622 189.082 109.751 189.018 109.88 188.954L108.686 187.598L106.847 185.516L106.83 185.5L106.976 183.821L107.008 183.369C106.895 183.417 106.798 183.482 106.685 183.531C105.298 184.257 103.926 184.952 102.538 185.662C102.521 185.662 102.521 185.678 102.505 185.678C102.086 185.903 101.634 186.13 101.198 186.355C101.165 186.323 101.149 186.29 101.133 186.259C99.5193 184.128 97.9704 181.982 96.4857 179.755C94.7267 180.626 92.8387 181.643 90.9335 182.724C92.3218 184.823 93.8066 186.888 95.3392 188.905L95.5809 189.244C92.2884 190.923 89.0131 192.601 85.7206 194.247C85.5591 194.328 85.3977 194.409 85.2362 194.49C84.0906 192.504 82.9287 190.504 81.7831 188.487C80.0079 189.794 78.3454 191.117 76.8607 192.489C77.7483 194.119 78.7008 195.717 79.6047 197.33C79.4919 197.395 79.362 197.459 79.233 197.523C76.0542 199.106 72.907 200.702 69.7759 202.333C68.4039 205.093 67.1618 208.142 65.9513 211.29C69.7922 209.304 73.6494 207.32 77.5228 205.383C79.1528 204.56 80.7665 203.737 82.3965 202.93C82.5418 202.865 82.6708 202.801 82.816 202.72C86.2862 208.708 89.8204 214.63 93.3862 220.52C93.7579 221.15 94.1448 221.763 94.5156 222.393C93.757 222.845 92.9983 223.313 92.2406 223.764C91.4333 224.249 90.6593 224.717 89.852 225.185C85.6566 227.638 81.3637 229.816 77.0384 231.947C74.8599 228.058 72.6815 224.184 70.4696 220.311C68.8883 217.519 67.2908 214.727 65.6924 211.936C64.7236 214.485 63.7881 217.084 62.8681 219.65C64.3528 222.248 65.8538 224.847 67.3224 227.461C68.6935 229.866 70.0493 232.286 71.405 234.707C69.5973 235.578 67.7743 236.482 65.9828 237.386C64.756 237.983 63.5302 238.613 62.3196 239.242C61.0612 239.904 59.8182 240.582 58.5599 241.259C57.7047 239.597 56.8649 237.903 56.0422 236.208C54.9931 238.128 53.9116 239.807 52.7497 241.114C52.508 241.405 52.2329 241.728 51.9749 242.083C52.3303 242.809 52.6848 243.519 53.0718 244.261C51.7647 244.971 50.4739 245.649 49.1668 246.342C46.5202 250.797 43.5019 256.945 40.6938 263.336C41.6617 265.58 42.6468 267.823 43.6634 270.065C44.5988 272.164 45.5676 274.262 46.5355 276.36C47.7785 279.055 49.0531 281.734 50.3277 284.413V284.429C50.8121 284.186 51.3119 283.944 51.8125 283.686C52.7967 283.186 53.7979 282.686 54.7983 282.154C55.169 281.976 55.5407 281.783 55.9114 281.589V281.573C54.7009 279.055 53.5066 276.538 52.3285 274.004C50.731 270.582 49.165 267.177 47.6487 263.724V263.708C46.4868 261.061 45.3403 258.398 44.2272 255.735C48.1971 253.928 52.0867 251.927 55.9114 249.861C56.0567 250.136 56.1857 250.394 56.3309 250.669C57.8319 253.573 59.3491 256.478 60.898 259.367C62.3503 262.094 63.964 264.789 65.594 267.485C66.8686 269.567 68.1604 271.649 69.4187 273.747C69.6442 273.601 69.8707 273.456 70.0962 273.295C70.7736 272.859 71.452 272.407 72.1456 271.955C72.2421 271.89 72.3224 271.843 72.4199 271.778C73.1298 271.294 73.8559 270.793 74.5667 270.293C73.2759 268.146 71.9679 266.016 70.6771 263.87C69.3376 261.627 68.0142 259.367 66.8037 257.092C64.9806 253.703 63.1892 250.282 61.4293 246.86C62.8816 246.069 64.3339 245.279 65.8196 244.504C68.6592 243.003 71.5485 241.599 74.4531 240.195C75.7439 242.535 77.0672 244.875 78.3418 247.231C79.5686 249.507 80.7792 251.798 82.0222 254.074C83.3455 256.511 84.7013 258.931 86.1536 261.304C86.6055 260.917 87.0412 260.529 87.4607 260.126C87.7349 259.884 87.9938 259.641 88.2517 259.4C88.6874 259.013 89.1069 258.609 89.5263 258.189C89.5588 258.173 89.5913 258.14 89.6075 258.108C90.027 257.721 90.4302 257.317 90.8343 256.914C89.3973 254.509 88.0587 252.072 86.7354 249.619C86.6389 249.441 86.5415 249.28 86.4612 249.103C85.5573 247.424 84.6535 245.746 83.7496 244.067C82.5553 241.857 81.2969 239.678 80.0864 237.467C83.2012 235.966 86.2835 234.401 89.3333 232.706C89.4461 232.641 89.576 232.577 89.6887 232.513C91.3828 231.561 93.0777 230.576 94.7555 229.576C95.5466 229.108 96.3368 228.64 97.1279 228.156C97.3372 228.043 97.5636 227.914 97.7729 227.785C98.2086 228.479 98.628 229.189 99.0637 229.883C100.759 232.642 102.469 235.401 104.195 238.145C104.357 237.775 104.518 237.419 104.664 237.048C104.858 236.58 105.034 236.096 105.212 235.628C105.454 234.982 105.664 234.321 105.873 233.659C106.131 232.804 106.39 231.964 106.648 231.157C106.713 230.948 106.777 230.738 106.842 230.544C105.583 228.542 104.357 226.558 103.146 224.54C105.422 223.169 107.697 221.781 109.973 220.425C110.118 219.957 110.247 219.488 110.393 219.036C110.441 218.875 110.489 218.714 110.554 218.552C110.603 218.391 110.651 218.229 110.699 218.069C110.716 218.004 110.732 217.94 110.748 217.875C110.78 217.826 110.797 217.762 110.813 217.713C110.845 217.617 110.862 217.52 110.894 217.423C110.943 217.294 110.975 217.165 111.007 217.052V217.036C111.023 217.003 111.023 216.987 111.039 216.955C111.087 216.777 111.136 216.615 111.201 216.455C111.894 214.211 112.508 212.226 113.057 210.467C113.09 210.306 113.154 210.144 113.202 210C113.202 209.967 113.219 209.935 113.219 209.903C113.235 209.887 113.235 209.855 113.251 209.838C113.284 209.693 113.332 209.548 113.38 209.403C113.396 209.354 113.413 209.306 113.413 209.274C113.444 209.176 113.477 209.096 113.494 208.999C113.509 208.983 113.509 208.983 113.509 208.983C113.509 208.951 113.525 208.918 113.525 208.902C113.607 208.676 113.671 208.434 113.752 208.208C113.833 207.95 113.897 207.708 113.977 207.466C113.994 207.401 114.01 207.337 114.026 207.272C114.091 207.079 114.139 206.917 114.204 206.74C114.22 206.659 114.252 206.578 114.269 206.497C114.365 206.223 114.446 205.965 114.51 205.722C114.543 205.609 114.575 205.497 114.623 205.383C114.655 205.27 114.687 205.158 114.72 205.044C114.801 204.801 114.865 204.576 114.93 204.366C114.27 203.381 113.576 202.429 112.866 201.477ZM110.671 212.693C108.219 214.146 105.798 215.598 103.376 217.066C102.215 217.76 101.052 218.454 99.89 219.165C99.503 218.535 99.116 217.889 98.7453 217.26C98.5189 216.889 98.2925 216.518 98.067 216.146C97.4373 215.113 96.8239 214.081 96.2105 213.032C93.5802 208.675 90.9822 204.301 88.4159 199.895C92.0954 198.039 95.7911 196.183 99.4705 194.279C100.616 195.764 101.778 197.232 102.908 198.701C104.457 200.669 105.974 202.638 107.459 204.624C107.475 204.656 107.492 204.672 107.524 204.704C108.493 206.043 109.445 207.399 110.365 208.77C111.026 209.755 111.672 210.739 112.318 211.724C111.769 212.047 111.22 212.37 110.671 212.693ZM99.8909 219.165C99.5039 218.535 99.116 217.889 98.7453 217.26C98.5189 218.761 98.2934 220.294 98.0679 221.844C97.9551 222.521 97.8577 223.216 97.7612 223.893C97.551 225.313 97.3408 226.75 97.1315 228.153C97.3408 228.041 97.5672 227.911 97.7765 227.782C98.2122 228.476 98.6316 229.186 99.0673 229.88L103.376 217.066C102.215 217.76 101.053 218.454 99.8909 219.165Z" fill="#E94E21"/>
<path d="M117.171 197.143C117.171 197.143 117.171 197.143 105.885 233.656C94.5995 270.169 31.1457 292.762 31.1457 292.762C30.6234 291.403 31.6887 286.931 33.6958 281.099C42.4105 278.047 58.0241 272.258 65.6518 267.451C76.5829 260.533 95.2878 241.116 95.2878 241.116L112.008 191.353L117.171 197.143Z" fill="#FFF7F1"/>
<path d="M265.324 322.4C265.226 322.481 265.114 322.561 265.017 322.625C263.419 323.722 261.806 324.787 260.176 325.837C254.785 329.29 249.185 332.437 243.44 335.277C241.568 336.197 239.68 337.085 237.791 337.94C232.74 340.216 227.576 342.249 222.331 344.025C219.168 345.106 215.956 346.09 212.729 346.962C210.147 347.672 207.532 348.334 204.918 348.898C201.981 325.079 195.009 267.497 194.944 257.766C194.751 232.881 207.806 180.819 208.613 177.624C208.63 177.576 208.646 177.543 208.646 177.511C208.661 177.495 208.661 177.479 208.661 177.479C208.661 177.479 213.035 179.158 218.748 181.982C219.12 182.16 219.507 182.353 219.894 182.547C222.057 183.645 224.365 184.887 226.689 186.259C228.593 187.388 230.53 188.599 232.385 189.889C232.886 190.229 233.369 190.583 233.854 190.939C234.774 191.6 235.629 192.246 236.468 192.939C238.259 194.424 239.937 195.973 241.325 197.603C241.39 197.699 241.471 197.781 241.535 197.861C241.696 198.039 241.841 198.216 242.003 198.426C242.148 198.619 242.277 198.796 242.422 199.006C243.003 199.894 243.584 200.911 244.133 202.072C244.245 202.33 244.374 202.605 244.52 202.895C244.988 203.977 245.423 205.155 245.859 206.413C245.988 206.784 246.134 207.156 246.231 207.543C246.585 208.576 246.908 209.673 247.215 210.819C247.328 211.207 247.441 211.594 247.522 211.997C247.699 212.61 247.845 213.224 248.006 213.853C248.119 214.305 248.216 214.757 248.329 215.224C248.603 216.322 248.862 217.468 249.088 218.613C249.507 220.63 249.926 222.729 250.298 224.859C251.153 229.588 251.912 234.509 252.606 239.335L252.946 241.756C253.316 244.419 253.656 247.017 253.995 249.535V249.551C254.043 249.89 254.091 250.213 254.14 250.551C254.253 251.31 254.349 252.036 254.447 252.779C254.512 253.295 254.592 253.828 254.673 254.345C254.737 254.86 254.802 255.377 254.882 255.877C255.173 257.894 255.463 259.815 255.737 261.59C255.802 261.961 255.866 262.316 255.915 262.671C255.947 263.042 256.012 263.398 256.077 263.737C256.189 264.301 256.287 264.85 256.351 265.383C256.48 266.06 256.625 266.69 256.722 267.303C257.093 269.16 257.497 270.709 257.884 271.887C258.013 272.306 258.159 272.791 258.305 273.339C258.417 273.79 258.546 274.307 258.675 274.84C258.708 275.066 258.772 275.292 258.804 275.534C258.901 275.969 258.998 276.438 259.095 276.921C259.708 280.02 260.354 283.99 260.968 288.476C261.258 290.51 261.532 292.608 261.806 294.802V294.819C262.645 301.274 263.436 308.358 264.13 315.169H264.146C264.179 315.508 264.211 315.846 264.259 316.185C264.275 316.331 264.292 316.46 264.308 316.605C264.549 318.382 264.903 320.334 265.324 322.4Z" fill="#FFF7F1"/>
<path d="M265.324 322.4C265.226 322.481 265.114 322.561 265.017 322.625C263.419 323.722 261.806 324.788 260.176 325.837C254.785 329.291 249.185 332.437 243.44 335.278C241.568 336.198 239.68 337.085 237.791 337.94C232.74 340.216 227.576 342.25 222.331 344.025C221.799 340.701 221.331 337.957 221.073 336.682V336.666C220.653 334.713 220.234 332.631 219.765 330.501C218.442 324.126 217.022 317.123 215.538 309.973C215.295 308.747 215.053 307.504 214.795 306.261C214.634 305.439 214.472 304.631 214.311 303.809V303.792C212.197 293.303 210.132 282.878 208.518 274.147C208.082 271.952 207.727 269.854 207.372 267.901V267.885C207.082 266.271 206.823 264.754 206.581 263.35C205.693 258.089 205.177 254.264 205.161 252.602C205.161 250.923 205.532 247.793 206.194 243.71C206.372 242.613 206.565 241.435 206.775 240.207C206.985 238.981 207.227 237.689 207.47 236.334C207.937 233.639 208.519 230.751 209.083 227.732C209.261 226.812 209.439 225.893 209.632 224.957C210.358 221.277 211.117 217.469 211.908 213.66C212.117 212.725 212.311 211.756 212.505 210.82C212.73 209.803 212.941 208.803 213.151 207.803C213.376 206.689 213.619 205.575 213.844 204.478V204.461C213.925 204.042 214.021 203.622 214.102 203.202C215.894 194.908 217.556 187.322 218.734 182.045V182.029C218.751 182.013 218.751 182.013 218.751 181.98C219.122 182.158 219.509 182.351 219.897 182.545C222.059 183.643 224.368 184.885 226.691 186.257C228.596 187.386 230.532 188.597 232.388 189.888C232.888 190.227 233.372 190.582 233.856 190.937C234.776 191.598 235.632 192.244 236.471 192.938C238.262 194.422 239.94 195.971 241.328 197.601C241.393 197.698 241.473 197.779 241.537 197.859C241.699 198.037 241.844 198.215 242.006 198.424C242.151 198.618 242.28 198.795 242.425 199.005C243.006 199.892 243.587 200.909 244.135 202.071C244.248 202.329 244.377 202.603 244.522 202.894C244.99 203.975 245.426 205.153 245.862 206.412C245.991 206.782 246.137 207.154 246.233 207.542C246.588 208.575 246.911 209.672 247.218 210.817C247.33 211.205 247.444 211.592 247.524 211.995C247.702 212.609 247.847 213.222 248.009 213.852C248.121 214.304 248.219 214.756 248.332 215.223C248.606 216.321 248.865 217.466 249.09 218.612C249.51 220.629 249.929 222.727 250.301 224.858C251.156 229.586 251.915 234.508 252.609 239.334L252.948 241.755C253.319 244.418 253.658 247.016 253.997 249.533V249.549C254.046 249.889 254.094 250.212 254.143 250.55C254.255 251.308 254.352 252.035 254.449 252.777C254.514 253.294 254.595 253.826 254.676 254.343C254.74 254.859 254.805 255.376 254.885 255.876C255.175 257.893 255.466 259.813 255.74 261.588C255.805 261.96 255.869 262.314 255.918 262.67C255.966 263.041 256.014 263.396 256.079 263.735C256.192 264.3 256.289 264.848 256.354 265.381C256.483 266.059 256.628 266.688 256.725 267.302C257.096 269.158 257.5 270.707 257.887 271.885C258.016 272.305 258.161 272.789 258.307 273.337C258.42 273.788 258.549 274.305 258.678 274.838C258.711 275.064 258.775 275.29 258.807 275.532C258.904 275.968 259.001 276.436 259.098 276.919C259.711 280.018 260.357 283.988 260.97 288.475C261.261 290.508 261.535 292.606 261.809 294.801V294.817C262.648 301.272 263.439 308.357 264.133 315.167C264.165 315.506 264.214 315.845 264.262 316.184C264.278 316.329 264.294 316.458 264.311 316.603C264.549 318.382 264.903 320.334 265.324 322.4Z" fill="#FF8035"/>
<path d="M264.307 316.606C264.291 316.461 264.275 316.332 264.258 316.187C264.21 315.848 264.177 315.509 264.146 315.17H264.129C264.081 315.186 264.033 315.203 264 315.235C262.339 308.731 260.644 302.228 258.917 295.756C259.886 295.433 260.838 295.127 261.806 294.804C261.531 292.609 261.257 290.511 260.967 288.478C259.756 288.897 258.514 289.285 257.303 289.688C254.479 279.198 251.575 268.708 248.621 258.251L254.882 255.878C254.801 255.378 254.737 254.862 254.673 254.346C254.593 253.829 254.512 253.297 254.447 252.78C254.35 252.038 254.253 251.311 254.14 250.553C254.107 250.214 254.059 249.875 254.011 249.536H253.995V249.552C251.622 250.424 249.266 251.344 246.894 252.231C244.667 244.517 242.407 236.819 240.083 229.122L250.298 224.861C249.927 222.731 249.507 220.633 249.088 218.616C245.473 220.117 241.858 221.618 238.259 223.118C237.259 219.825 236.274 216.534 235.258 213.257C234.112 209.498 232.902 205.753 231.724 201.993C234.919 200.524 238.115 199.072 241.326 197.603C239.938 195.973 238.26 194.424 236.469 192.94C234.258 193.973 232.047 194.973 229.82 195.99C228.803 192.762 227.754 189.486 226.689 186.258C224.365 184.887 222.057 183.644 219.895 182.546C219.508 182.353 219.12 182.159 218.748 181.965C218.748 181.982 218.748 181.982 218.748 181.982C218.748 182.014 218.748 182.014 218.732 182.03V182.047C220.539 187.565 222.315 193.085 224.074 198.621L214.101 203.204C214.019 203.624 213.923 204.043 213.843 204.463V204.48C213.616 205.577 213.375 206.691 213.149 207.805L212.519 210.807C213.278 210.467 214.02 210.112 214.779 209.774C218.507 208.047 222.252 206.337 225.979 204.626C228.174 211.581 230.352 218.569 232.45 225.541C227.496 227.655 222.574 229.785 217.635 231.915C217.344 232.028 217.054 232.158 216.764 232.286C216.489 231.253 216.215 230.237 215.941 229.188C214.601 224.023 213.278 218.81 211.906 213.662C211.115 217.471 210.356 221.279 209.63 224.959C209.452 225.895 209.275 226.815 209.097 227.719C209.694 230.092 210.324 232.448 210.921 234.804C209.775 235.304 208.613 235.837 207.468 236.337C207.21 237.693 206.983 238.984 206.773 240.21C206.564 241.437 206.37 242.615 206.192 243.712C208.29 242.776 210.404 241.824 212.518 240.904C212.954 242.567 213.374 244.229 213.809 245.891C215.327 251.749 216.843 257.608 218.344 263.433C214.664 264.918 211.034 266.386 207.37 267.887H207.354C207.709 269.857 208.08 271.954 208.5 274.149H208.516C212.325 272.567 216.133 271.035 219.942 269.501L227.688 299.405C223.218 300.874 218.764 302.342 214.31 303.794H214.295C214.456 304.618 214.634 305.441 214.794 306.263C215.053 307.49 215.295 308.732 215.553 309.959L229.287 305.472L234.482 325.581C229.592 327.243 224.687 328.906 219.765 330.503C220.233 332.633 220.652 334.715 221.072 336.668C226.058 335.022 231.061 333.328 236.048 331.633C236.435 333.101 237.048 335.345 237.79 337.942C239.678 337.087 241.566 336.2 243.439 335.28C242.858 333.004 242.374 331.019 242.003 329.615C247.877 327.582 253.751 325.532 259.609 323.45C259.787 324.16 259.98 324.967 260.174 325.839C261.804 324.79 263.418 323.724 265.015 322.627C264.759 320.561 264.516 318.528 264.307 316.606ZM218.345 238.401C223.638 236.078 228.948 233.803 234.273 231.543C236.549 239.192 238.808 246.842 241.003 254.491C235.403 256.67 229.803 258.848 224.219 261.075C222.251 253.507 220.298 245.938 218.345 238.401ZM233.676 297.451L225.817 267.144C231.434 264.901 237.081 262.706 242.746 260.511C245.683 270.856 248.556 281.25 251.348 291.658C245.457 293.578 239.566 295.514 233.676 297.451ZM240.439 323.53C238.712 316.865 236.969 310.2 235.242 303.519L252.978 297.693C254.576 303.729 256.157 309.78 257.707 315.832C257.836 316.333 257.948 316.833 258.077 317.333C252.203 319.431 246.328 321.496 240.439 323.53Z" fill="#E94E21"/>
<path d="M77.8178 66.9796V81.2067H9.62012C13.1183 71.359 20.0117 61.938 31.1376 52.5161C34.9443 49.2976 38.9124 46.2396 43.0131 43.3594V66.9787L77.8178 66.9796Z" fill="#FFCB99"/>
<path d="M221.285 28.7139H195.661V38.4533H221.285V28.7139Z" fill="#FFCB99"/>
<path d="M239.623 42.5449H213.999V52.2844H239.623V42.5449Z" fill="#FFCB99"/>
<path d="M328.461 230.669C327.153 238.107 325.065 245.412 322.347 252.246C320.319 257.361 317.996 262.314 315.409 267.12C314.762 268.341 314.101 269.546 313.41 270.736C312.837 271.751 312.249 272.75 311.632 273.734C305.047 284.626 297.067 294.62 288.027 303.571H268.759V230.67H328.461V230.669Z" fill="#FFCB99"/>
<path d="M328.461 230.669C327.153 238.107 325.065 245.411 322.347 252.246C320.319 257.361 317.996 262.314 315.409 267.12C314.762 268.341 314.101 269.546 313.41 270.736C312.837 271.75 312.249 272.75 311.632 273.734H308.311C305.445 273.734 302.858 272.602 300.962 270.736C299.918 269.736 299.08 268.502 298.537 267.12C298.037 265.915 297.773 264.593 297.773 263.196V198.129C297.773 192.309 302.491 187.591 308.312 187.591H325.655C330.533 200.774 331.032 215.986 328.461 230.669Z" fill="#FFCB99"/>
<path d="M297.765 225.126H265.017V235.763H297.765V225.126Z" fill="#F1AC7F"/>
<path d="M315.409 267.121C314.762 268.341 314.101 269.546 313.41 270.736H294.141V235.77H297.772V267.12L315.409 267.121Z" fill="#FFF7F1"/>
<path d="M288.026 303.57C288.026 303.585 288.026 303.585 288.012 303.585V303.57H288.026Z" fill="#8C8CB7"/>
<path d="M58.7477 154.723V115.578C58.7477 111.967 55.8205 109.04 52.2096 109.04C48.5987 109.04 45.6716 111.967 45.6716 115.578V154.723C40.5795 157.166 37.0552 162.355 37.0552 168.38C37.0552 176.75 43.8404 183.534 52.2096 183.534C60.5788 183.534 67.3641 176.75 67.3641 168.38C67.365 162.355 63.8398 157.166 58.7477 154.723Z" fill="#FFF7F1"/>
<path d="M62.0176 168.581C62.0176 173.995 57.6282 178.385 52.2141 178.385C46.8 178.385 42.4106 173.995 42.4106 168.581C42.4106 163.902 45.6995 159.98 50.1006 159.019V115.505C50.1006 114.341 51.0496 113.392 52.2132 113.392C53.3769 113.392 54.3123 114.341 54.3123 115.505V159.019C58.7161 159.98 62.0176 163.902 62.0176 168.581Z" fill="#F1AC7F"/>
<path d="M54.3141 159.019V130.456H50.1015V159.019C45.7004 159.98 42.4115 163.901 42.4115 168.581C42.4115 173.995 46.8009 178.385 52.215 178.385C57.6282 178.385 62.0185 173.995 62.0185 168.581C62.0176 163.901 58.7161 159.98 54.3141 159.019Z" fill="#D94562"/>
<path d="M77.632 107.57H67.364V110.51H77.632V107.57Z" fill="#F1AC7F"/>
<path d="M77.632 116.23H67.364V119.17H77.632V116.23Z" fill="#F1AC7F"/>
<path d="M77.632 124.891H67.364V127.83H77.632V124.891Z" fill="#F1AC7F"/>
<path d="M77.632 133.551H67.364V136.491H77.632V133.551Z" fill="#F1AC7F"/>
<path d="M22.1425 241.483C12.6854 241.483 12.6692 256.181 22.1425 256.181C31.6005 256.181 31.6158 241.483 22.1425 241.483Z" fill="#FFCB99"/>
<path d="M238.582 147.072C229.125 147.072 229.109 161.77 238.582 161.77C248.039 161.769 248.056 147.072 238.582 147.072Z" fill="#FFCB99"/>
<path d="M38.558 220.709C33.8295 220.709 33.8213 228.058 38.558 228.058C43.2865 228.058 43.2947 220.709 38.558 220.709Z" fill="#FFCB99"/>
<path d="M100.255 31.105C95.5261 31.105 95.518 38.454 100.255 38.454C104.983 38.4531 104.99 31.105 100.255 31.105Z" fill="#FFCB99"/>
<path d="M251.348 176.8C246.619 176.8 246.611 184.149 251.348 184.149C256.076 184.149 256.084 176.8 251.348 176.8Z" fill="#FFCB99"/>
<path d="M243.173 87.4951C238.444 87.4951 238.436 94.8441 243.173 94.8441C247.901 94.8441 247.909 87.4951 243.173 87.4951Z" fill="#FFCB99"/>
<path d="M294.141 167.802C289.413 167.802 289.405 175.151 294.141 175.151C298.87 175.151 298.877 167.802 294.141 167.802Z" fill="#FFCB99"/>
<path d="M191.016 11.4168C190.471 10.6546 189.194 11.3879 189.747 12.1583C191.679 14.8536 194.827 19.63 191.496 22.5725C190.568 23.3924 189.513 23.737 188.429 23.7596C188.427 19.5948 185.683 15.2406 182.179 13.1424C180.62 12.2088 178.348 11.7046 177.044 13.3301C175.532 15.2126 176.845 17.5733 178.195 19.0833C180.449 21.6028 183.471 24.5029 186.874 25.1018C186.457 27.6817 184.865 30.0893 182.295 30.9128C182.084 30.9805 181.867 31.0021 181.653 31.049C181.208 29.6644 180.479 28.3528 179.663 27.191C178.268 25.2037 176.5 23.4871 174.452 22.1801C172.789 21.1193 170.419 20.2163 168.66 21.5811C167.118 22.7772 167.071 25.0748 167.959 26.6795C169.06 28.6703 171.389 29.8502 173.345 30.8217C175.539 31.9105 177.98 32.8035 180.465 32.7025C180.488 32.7016 180.508 32.6944 180.531 32.6935C180.819 34.595 180.275 36.7942 178.461 37.744C176.474 38.785 173.978 37.8757 172.128 36.9584C168.427 35.1236 165.371 32.201 163.329 28.6162C162.861 27.7944 161.59 28.5341 162.06 29.3577C164.382 33.4341 167.991 36.7798 172.306 38.6542C174.354 39.5445 176.814 40.1291 178.94 39.1404C180.901 38.2285 181.985 36.1267 182.087 34.0258C182.112 33.508 182.07 32.9948 181.991 32.4869C185.415 31.6868 187.772 28.7253 188.315 25.2191C189.212 25.1938 190.131 24.9954 191.066 24.5714C193.227 23.5909 194.376 21.4079 194.356 19.0779C194.33 16.1625 192.65 13.6972 191.016 11.4168ZM171.444 28.0696C170.013 27.1468 168.436 25.6674 168.915 23.7767C169.458 21.6316 171.984 22.4182 173.335 23.2192C176.243 24.9413 179.047 27.909 180.158 31.2249C177.084 31.2773 173.898 29.6509 171.444 28.0696ZM180.074 18.9453C179.388 18.2192 178.623 17.4912 178.175 16.5856C177.792 15.8152 177.636 14.7138 178.354 14.077C178.993 13.5096 179.952 13.7242 180.668 14.0165C182.339 14.6976 183.775 16.2545 184.815 17.687C185.885 19.16 186.676 20.8613 186.92 22.6762C186.962 22.9829 186.965 23.295 186.971 23.6062C185.131 23.2048 183.333 22.0736 182.042 20.9064C181.354 20.284 180.709 19.6192 180.074 18.9453Z" fill="#FFF7F1"/>
</svg>
