<svg width="286" height="369" viewBox="0 0 286 369" fill="none" xmlns="http://www.w3.org/2000/svg">
<g filter="url(#filter0_d_431_1949)">
<path d="M210.526 315.002H101.813C101.813 315.002 96.3691 334.51 92.7852 360.064H226.055C226.055 360.064 223.269 336.904 210.526 315.002Z" fill="#737478"/>
<path d="M137.121 321.374H136.325V360.064H137.121V321.374Z" fill="#494A4D"/>
<path d="M110.434 321.447L109.651 321.302C109.628 321.426 107.372 332.975 96.9714 335.778C96.9133 336.065 96.8551 336.352 96.7954 336.644C108 333.901 110.41 321.578 110.434 321.447Z" fill="#494A4D"/>
<path d="M146.654 321.374H145.858V360.064H146.654V321.374Z" fill="#494A4D"/>
<path d="M217.796 339.251C218.877 339.219 219.986 339.169 221.11 339.109C221.028 338.852 220.941 338.59 220.856 338.33C209.949 338.912 201.251 338.111 193.783 335.86C185.77 333.444 184.256 321.448 184.241 321.328L183.451 321.421C183.512 321.935 185.039 334.055 193.554 336.622C199.536 338.426 206.282 339.311 214.293 339.311C215.174 339.311 216.071 339.299 216.985 339.278C217.456 341.324 220.121 353.063 220.927 360.064H221.731C220.948 353.138 218.367 341.734 217.796 339.251Z" fill="#494A4D"/>
<path d="M214.298 322.089C213.148 319.732 211.897 317.359 210.526 315.002H101.813C101.813 315.002 101.073 317.654 99.9619 322.272C114.44 323.872 165.989 328.666 214.298 322.089Z" fill="#CC8E69"/>
<path d="M173.358 311.362H168.182V328.94H173.358V311.362Z" fill="#737478"/>
<path d="M120.811 311.362H115.634V328.94H120.811V311.362Z" fill="#737478"/>
<path d="M153.316 324.162C153.316 325.482 152.245 326.551 150.926 326.551H132.342C131.024 326.551 129.953 325.482 129.953 324.162V316.837C129.953 315.517 131.024 314.448 132.342 314.448H150.926C152.245 314.448 153.316 315.517 153.316 316.837V324.162Z" fill="#E4E6ED"/>
<path d="M178.613 140.782C177.961 134.709 179.762 118.482 181.156 113.604H146.71C146.71 113.604 146.71 132.619 146.71 138.393C146.71 144.167 146.511 149.643 143.724 154.023C140.936 158.403 133.868 162.186 133.868 162.186V200.913H188.722V157.209C182.053 152.629 179.265 146.855 178.613 140.782Z" fill="#FFD4C0"/>
<path d="M152.186 155.218C156.965 153.525 172.794 139.457 177.075 123.643V113.604H146.711C146.711 113.604 146.711 132.619 146.711 138.393C146.711 143.173 146.569 147.746 144.941 151.665C146.976 156.019 148.599 156.488 152.186 155.218Z" fill="#FFC0A3"/>
<path d="M183.312 152.302C183.312 152.302 167.253 177.618 149.997 192.617C149.997 192.617 139.818 176.821 139.332 157.839C139.332 157.839 121.192 168.192 113.493 173.635C105.795 179.078 106.592 180.006 105.928 183.457C105.264 186.908 103.671 207.749 103.671 207.749C103.671 207.749 98.3618 221.287 98.3618 225.137C98.3618 228.987 102.742 245.446 103.539 248.632C104.335 251.818 104.866 283.144 104.998 290.577C103.273 296.02 97.0341 300.002 96.5029 303.453C95.9717 306.904 98.76 310.356 101.813 315.002C101.813 315.002 158.625 322.435 210.526 315.002C210.526 315.002 216.101 308.895 216.101 306.108C216.101 303.32 210.127 294.294 210.127 294.294C210.127 294.294 225.393 221.686 227.251 208.147C229.109 194.607 228.976 189.165 224.728 184.785C220.481 180.405 183.312 152.302 183.312 152.302Z" fill="#99C364"/>
<path d="M103.771 250.412C104.458 249.459 104.9 248.746 105.142 248.507C105.749 247.91 108.452 245.959 109.055 243.691C109.658 241.423 111.101 231.501 111.101 231.501C111.101 231.501 115.298 228.791 115.609 227.291C115.819 226.282 114.763 222.478 114.047 220.084C114.05 220.082 115.29 219.264 115.564 217.795C115.839 216.324 117.431 204.583 117.215 203.856C117 203.129 116.734 201.994 115.263 201.719C115.156 201.699 114.914 201.677 114.576 201.656C115.81 192.697 118.142 176.052 119.272 169.815C117.074 171.205 115.064 172.522 113.492 173.634C105.794 179.076 106.591 180.005 105.927 183.456C105.263 186.907 103.67 207.747 103.67 207.747C103.67 207.747 98.3608 221.286 98.3608 225.136C98.3608 228.986 102.741 245.445 103.538 248.63C103.618 248.953 103.696 249.573 103.771 250.412Z" fill="#82A656"/>
<path d="M210.128 294.295C210.128 294.295 216.42 264.363 221.418 239.351L202.24 239.938C202.24 239.938 196.388 254.656 195.891 254.963C195.393 255.27 190.543 242.825 190.031 243.522C189.519 244.219 191.311 259.75 191.411 260.944C191.51 262.139 184.741 266.718 184.143 268.61C183.546 270.501 182.75 301.562 182.75 301.562C182.75 301.562 191.51 309.626 193.601 310.92C195.692 312.215 199.733 310.92 202.59 312.115C205.448 313.31 210.526 315.002 210.526 315.002C210.526 315.002 216.101 308.896 216.101 306.108C216.101 303.321 210.128 294.295 210.128 294.295Z" fill="#82A656"/>
<path d="M142.901 318.031C143.123 244.888 148.943 203.346 150.807 191.897C150.537 192.137 150.267 192.382 149.997 192.618C149.997 192.618 149.847 192.384 149.588 191.951C147.673 203.804 141.929 245.338 141.707 317.99C142.104 318.004 142.501 318.018 142.901 318.031Z" fill="#6E8C48"/>
<path d="M116.845 294.544C116.35 294.467 124.66 305.943 132.226 312.663C136.755 316.685 139.096 317.193 138.896 315.799C138.697 314.405 134.715 307.984 133.968 307.386C133.221 306.789 133.783 311.888 131.628 310.174C127.248 306.689 118.139 294.743 116.845 294.544Z" fill="#82A656"/>
<path d="M127.447 314.404C125.704 312.562 109.676 302.657 108.979 302.706C108.283 302.756 109.826 306.639 111.966 308.232C114.106 309.825 115.359 308.132 116.823 308.829C118.288 309.526 129.19 316.246 127.447 314.404Z" fill="#82A656"/>
<path d="M149.1 311.617C148.099 314.508 148.105 315.35 149.598 315.151C151.091 314.952 179.066 294.394 178.369 293.747C177.672 293.101 154.377 309.825 152.933 310.721C151.489 311.617 152.385 307.485 151.738 307.834C151.091 308.183 149.715 309.84 149.1 311.617Z" fill="#82A656"/>
<path d="M160.549 312.463C158.879 312.861 159.005 314.753 163.038 314.405C167.07 314.057 188.176 308.083 185.437 308.282C182.699 308.481 164.73 311.468 160.549 312.463Z" fill="#82A656"/>
<path d="M149.997 192.617C149.997 192.617 173.773 167.03 182.26 150.886C182.26 150.886 183.114 150.306 183.779 150.886C184.443 151.468 190.614 156.18 190.946 156.844C191.279 157.507 189.752 174.166 189.487 174.963C189.221 175.759 188.573 176.754 187.669 176.887C186.765 177.02 167.652 179.343 167.652 179.343C167.652 179.343 170.438 182.993 171.169 183.922C171.899 184.852 171.415 185.913 170.495 186.378C169.575 186.843 157.364 191.223 149.997 192.617Z" fill="#C8F294"/>
<path d="M142.98 155.059C142.98 155.059 141.701 154.388 141.037 154.521C140.373 154.654 132.807 159.233 132.342 159.698C131.878 160.162 130.948 161.314 130.484 162.995C130.019 164.675 128.095 172.972 127.697 173.967C127.299 174.963 128.095 175.493 128.958 175.825C129.82 176.158 139.576 179.078 139.576 179.078C139.576 179.078 136.657 184.321 136.325 185.117C135.992 185.914 136.192 186.643 137.187 187.175C138.183 187.706 149.997 192.617 149.997 192.617C149.997 192.617 142.238 175.434 141.713 156.681L142.98 155.059Z" fill="#C8F294"/>
<path d="M167.385 47.9312C179.481 47.9312 189.287 38.1254 189.287 26.0293C189.287 13.9332 179.481 4.12744 167.385 4.12744C155.289 4.12744 145.483 13.9332 145.483 26.0293C145.483 38.1254 155.289 47.9312 167.385 47.9312Z" fill="#946554"/>
<path d="M166.224 29.879V47.8998C166.608 47.9197 166.996 47.9309 167.386 47.9309C176.639 47.9309 184.548 42.1886 187.755 34.0746C177.889 27.9946 166.224 29.879 166.224 29.879Z" fill="#734E42"/>
<path d="M111.533 110.549C115.089 118.053 116.443 125.005 120.793 130.23C125.139 135.454 138.287 143.009 143.444 143.826C148.601 144.643 149.697 144.079 153.209 142.786C160.298 140.174 173.197 131.217 178.612 122.613C184.03 114.007 185.7 103.982 185.7 103.982C185.7 103.982 191.382 94.9385 183.436 66.9957C175.491 39.0529 156.494 25.8448 124.722 34.9935C92.9515 44.1405 96.6724 70.4801 99.5379 83.5487C102.408 96.6166 111.533 110.549 111.533 110.549Z" fill="#FFD4C0"/>
<path d="M150.839 106.386C150.362 106.942 153.337 108.736 155.68 108.169C157.496 107.731 160.832 103.513 160.691 103.126C160.55 102.738 155.738 105.489 154.642 105.798C153.548 106.108 151.191 105.974 150.839 106.386Z" fill="#7A5D52"/>
<path d="M125.741 112.431C125.276 112.214 123.431 113.36 122.41 113.56C121.391 113.759 117.838 113.191 117.894 113.598C117.949 114.006 120.945 116.532 122.604 116.134C124.744 115.622 126.365 112.722 125.741 112.431Z" fill="#7A5D52"/>
<path d="M136.158 131.866C136.158 131.866 136.266 131.791 136.507 131.674C136.623 131.619 136.767 131.533 136.931 131.475C137.096 131.411 137.282 131.338 137.485 131.259C137.69 131.184 137.919 131.134 138.159 131.065C138.4 130.998 138.653 130.925 138.924 130.899C139.193 130.86 139.472 130.821 139.755 130.78C140.038 130.738 140.329 130.764 140.619 130.753C140.909 130.753 141.201 130.743 141.487 130.754C141.77 130.793 142.049 130.831 142.318 130.868C142.589 130.905 142.85 130.942 143.097 130.977C143.345 131.017 143.564 131.103 143.774 131.157C144.612 131.404 145.17 131.569 145.17 131.569C145.487 131.662 145.668 131.995 145.574 132.312C145.481 132.628 145.149 132.809 144.832 132.715C144.819 132.712 144.807 132.708 144.796 132.703L144.715 132.673C144.715 132.673 144.215 132.489 143.465 132.213C143.276 132.149 143.076 132.052 142.853 132.001C142.629 131.955 142.393 131.906 142.149 131.855C141.904 131.803 141.65 131.75 141.393 131.696C141.133 131.669 140.867 131.662 140.601 131.643C140.335 131.635 140.066 131.59 139.805 131.611C139.543 131.631 139.285 131.65 139.035 131.669C138.782 131.675 138.547 131.727 138.321 131.774C138.097 131.823 137.879 131.853 137.688 131.909C137.497 131.969 137.322 132.024 137.167 132.073C137.007 132.116 136.892 132.18 136.785 132.22C136.578 132.299 136.45 132.374 136.45 132.374C136.31 132.456 136.13 132.409 136.048 132.27C135.969 132.137 136.008 131.968 136.132 131.881L136.158 131.866Z" fill="#B56262"/>
<path d="M143.27 95.106C142.081 94.8312 143.75 90.3481 145.06 89.8559C149.897 88.0345 156.555 87.8832 156.755 88.7242C156.958 89.5636 148.869 95.8172 143.27 95.106Z" fill="#7A5D52"/>
<path d="M122.52 102.163C123.451 101.377 119.927 98.1443 118.535 98.302C113.4 98.8834 111.569 102.402 111.771 103.243C111.973 104.083 117.857 105.345 122.52 102.163Z" fill="#7A5D52"/>
<path d="M132.375 117.291C132.101 117.766 131.996 123.622 132.226 124.315C132.454 125.008 134.797 125.536 135.563 125.602C136.327 125.666 136.386 125.278 136.242 125.063C136.099 124.847 134.533 123.541 134.249 122.61C133.964 121.682 132.769 116.603 132.375 117.291Z" fill="#D58D80"/>
<path d="M131.906 98.0528C131.369 98.0218 130.556 98.9177 128.917 100.888C127.279 102.858 122.319 107.196 121.424 108.715C121.028 109.389 120.113 111.269 119.22 113.152C119.548 111.413 119.841 109.766 119.836 109.453C119.826 108.747 120.77 106.334 122.147 104.319C123.525 102.304 124.624 99.9627 125.192 97.8163C125.759 95.6699 124.64 93.6669 124.045 93.7178C123.45 93.7688 122.695 94.8814 121.202 97.3066C120.212 98.9161 117.779 101.9 116.036 104.256C116.42 103.462 116.898 102.612 117.44 101.82C118.886 99.7022 120.043 97.2428 120.639 94.9882C121.234 92.7335 120.058 90.6293 119.432 90.6826C118.807 90.736 118.016 91.9052 116.447 94.4521C115.625 95.7878 113.857 98.0249 112.246 100.127C112.824 98.9353 113.29 97.7191 113.596 96.5587C114.163 94.4123 113.044 92.4093 112.449 92.4595C111.854 92.5104 111.099 93.6231 109.607 96.0482C108.9 97.1951 107.461 99.042 106.06 100.861C108.926 106.564 111.534 110.549 111.534 110.549C115.09 118.053 116.444 125.006 120.794 130.23C121.399 130.956 122.176 131.728 123.075 132.519C123.565 126.118 123.948 119.037 124.021 117.969C124.617 116.27 126.09 112.041 126.155 111.539C126.236 110.908 127.384 108.879 128.869 107.259C130.351 105.638 131.63 103.692 132.409 101.852C133.185 100.01 132.443 98.0839 131.906 98.0528Z" fill="#EBCEC1"/>
<path d="M137.976 124.615C138.09 124.392 138.583 122.816 139.163 122.644C139.747 122.473 140.874 123.043 140.673 123.372C140.469 123.703 137.803 124.96 137.976 124.615Z" fill="#D58D80"/>
<path d="M159.354 70.5965C159.354 70.5965 167.916 91.5538 183.147 95.1625H194.618C194.618 95.1625 199.275 85.1314 196.886 75.176C194.497 65.2206 190.116 62.5327 188.623 56.1612C187.13 49.7897 183.867 39.8089 176.577 33.4629C172.097 29.5636 166.223 29.8789 166.223 29.8789C166.223 29.8789 159.055 21.3173 141.235 22.8106C123.415 24.3039 112.365 33.2638 104.599 43.5178C96.8341 53.7719 95.5399 67.5104 95.5399 69.8997C93.1506 75.7733 90.1926 88.4884 94.5443 97.5685C99.2234 107.332 109.892 107.879 109.892 107.879C109.677 105.391 110.772 96.6805 110.772 96.6805C110.772 96.6805 111.568 102.554 119.085 104.844C118.487 101.459 117.215 96.6805 117.215 96.6805C123.017 101.111 127.696 103.5 131.629 103.5C130.583 98.8707 130.534 93.7934 131.031 90.0104C133.57 94.4409 135.96 96.432 140.091 97.676C141.435 97.5263 142.032 96.8294 142.032 96.8294C142.032 96.8294 139.444 94.1415 138.199 90.2588C141.285 93.6939 148.254 95.9836 155.123 96.2321C156.418 95.8833 157.051 95.1625 157.051 95.1625C157.051 95.1625 150.942 90.2087 148.703 86.7745C153.481 90.9557 157.862 93.2956 162.391 94.5397C163.486 94.0913 163.785 93.2455 163.785 93.2455C163.785 93.2455 159.752 83.5386 159.354 70.5965Z" fill="#946554"/>
<path d="M191.411 87.1225C186.52 84.7062 181.963 88.2455 180.689 94.0427L183.64 108.784C196.56 107.125 196.613 89.6926 191.411 87.1225Z" fill="#FFD4C0"/>
<path d="M182.259 90.1055H179.131C171.83 100.09 175.282 108.129 180.688 110.783C179.06 95.5849 182.259 90.1055 182.259 90.1055Z" fill="#946554"/>
<path d="M132.076 260.446C132.076 260.446 115.55 249.396 114.356 248.699C113.161 248.002 109.876 248.4 108.681 248.699C107.486 248.997 102.31 250.989 101.812 251.188C101.314 251.387 98.8251 255.17 98.5265 255.767C98.2278 256.364 99.6216 260.446 99.6216 260.446C99.6216 260.446 96.7377 267.714 96.4374 269.306C96.1372 270.899 98.0287 276.673 98.4269 277.37C98.8251 278.067 102.907 279.859 103.604 279.959C104.301 280.058 107.486 277.968 107.486 277.968C107.486 277.968 113.26 279.063 117.044 279.361C120.827 279.66 128.094 278.665 129.488 278.764C130.882 278.864 182.849 294.394 184.84 295.091V267.813C184.84 267.813 141.832 263.333 137.751 262.437C133.669 261.541 132.076 260.446 132.076 260.446Z" fill="#FFD4C0"/>
<path d="M99.6218 256.813C99.4975 256.959 99.2084 257.535 98.9146 258.159C99.2363 259.316 99.6218 260.446 99.6218 260.446C100.17 259.6 102.459 254.906 102.111 254.963C101.762 255.021 99.9204 256.464 99.6218 256.813Z" fill="#FFC0A3"/>
<path d="M101.513 277.072C101.563 277.37 102.36 278.266 102.608 278.317C102.857 278.367 103.555 277.321 104.102 277.62C104.401 277.783 105.147 278.453 105.762 279.026C106.663 278.509 107.487 277.969 107.487 277.969C107.487 277.969 103.753 276.276 103.454 276.177C103.156 276.077 101.463 276.773 101.513 277.072Z" fill="#FFC0A3"/>
<path d="M187.031 267.216L188.491 301.065C188.491 301.065 192.606 306.507 193.801 307.436C194.996 308.365 199.774 304.26 200.969 304.454C202.163 304.649 212.516 302.923 221.145 301.463C229.773 300.003 230.836 298.807 231.366 296.684C231.897 294.561 232.959 285.525 232.561 279.026C232.163 272.526 233.889 251.42 233.756 245.181C233.623 238.943 236.543 216.111 236.012 208.811C235.481 201.511 232.029 192.219 229.507 189.299C226.986 186.378 225.113 185.197 225.113 185.197C225.113 185.197 210.102 210.165 203.093 234.696C200.969 242.129 200.836 262.039 200.836 262.039C200.836 262.039 198.846 262.172 198.713 263.234C198.58 264.296 198.048 266.155 198.048 266.155C198.048 266.155 195.659 263.765 193.27 264.03C190.88 264.296 187.031 267.216 187.031 267.216Z" fill="#99C364"/>
<path d="M223.068 276.055C222.457 274.997 221.793 273.986 221.085 272.997C220.729 272.505 220.365 272.02 219.981 271.547C219.597 271.076 219.207 270.606 218.786 270.165C218.375 269.714 217.935 269.288 217.478 268.878C217.02 268.467 216.529 268.095 216.013 267.746C215.738 267.587 215.463 267.418 215.186 267.27C214.898 267.151 214.656 267.032 214.33 266.913C214.031 266.83 213.73 266.736 213.429 266.663L212.521 266.486C211.915 266.402 211.307 266.319 210.7 266.277C210.092 266.218 209.485 266.202 208.879 266.172C207.666 266.129 206.455 266.128 205.246 266.131C204.039 266.137 202.834 266.151 201.634 266.138C201.035 266.131 200.438 266.114 199.85 266.073C199.401 266.036 198.932 265.99 198.531 265.889C198.624 265.546 198.719 265.203 198.781 264.871L199.064 263.498L199.128 263.204C199.149 263.146 199.176 263.088 199.225 263.033C199.317 262.921 199.471 262.817 199.647 262.734C200.002 262.57 200.453 262.476 200.859 262.437H200.861L201.232 262.402L201.233 262.042C201.238 259.758 201.285 257.469 201.343 255.182L201.461 251.753C201.501 250.609 201.578 249.468 201.634 248.326C201.685 247.184 201.763 246.043 201.864 244.904C201.97 243.768 202.021 242.619 202.169 241.492L202.589 238.103L203.277 234.737L203.278 234.732C203.299 234.63 203.234 234.53 203.132 234.508C203.03 234.486 202.928 234.551 202.905 234.653L202.165 238.009L201.686 241.432C201.52 242.575 201.451 243.716 201.329 244.859C201.21 246.001 201.113 247.144 201.046 248.289C200.972 249.433 200.878 250.577 200.822 251.722L200.65 255.158C200.563 257.333 200.487 259.508 200.445 261.687C200.313 261.707 200.183 261.734 200.05 261.764C199.802 261.824 199.556 261.897 199.31 262.013C199.067 262.129 198.816 262.281 198.609 262.528C198.505 262.649 198.421 262.803 198.367 262.964C198.317 263.155 198.306 263.228 198.28 263.353L197.998 264.725C197.951 264.973 197.89 265.205 197.827 265.436C197.579 265.23 197.326 265.035 197.059 264.852C196.612 264.55 196.14 264.274 195.633 264.061C195.377 263.957 195.119 263.858 194.848 263.788C194.574 263.715 194.31 263.656 194.004 263.636C193.672 263.607 193.477 263.616 193.155 263.652L192.337 263.834C192.063 263.894 191.826 264.016 191.57 264.106C191.317 264.201 191.064 264.297 190.831 264.422C190.35 264.652 189.878 264.895 189.426 265.166C188.513 265.696 187.637 266.27 186.79 266.899L186.79 266.9C186.613 267.031 186.577 267.281 186.708 267.457C186.84 267.634 187.09 267.67 187.266 267.539C188.083 266.929 188.945 266.366 189.826 265.856C190.263 265.592 190.714 265.362 191.169 265.144C191.394 265.023 191.625 264.935 191.858 264.848C192.091 264.769 192.321 264.648 192.554 264.599L193.253 264.442C193.443 264.416 193.77 264.402 193.954 264.431C194.164 264.444 194.413 264.496 194.638 264.557C194.869 264.616 195.095 264.703 195.32 264.793C195.769 264.981 196.199 265.232 196.61 265.51C197.01 265.782 197.403 266.098 197.744 266.42C197.768 266.45 197.795 266.477 197.827 266.499L197.829 266.5L197.834 266.502C197.868 266.523 197.904 266.545 197.946 266.555C197.967 266.561 197.988 266.556 198.009 266.558C198.64 266.769 199.213 266.799 199.795 266.849C200.411 266.883 201.02 266.894 201.628 266.894C202.841 266.893 204.047 266.864 205.252 266.845C206.457 266.828 207.658 266.815 208.856 266.843C209.454 266.864 210.055 266.874 210.648 266.925C211.246 266.958 211.834 267.032 212.423 267.106L213.293 267.265C213.578 267.331 213.856 267.415 214.138 267.488C214.379 267.571 214.684 267.71 214.955 267.818L215.698 268.239C216.184 268.561 216.66 268.912 217.106 269.302C217.551 269.692 217.985 270.1 218.39 270.537C218.806 270.962 219.194 271.418 219.576 271.878C219.958 272.337 220.324 272.812 220.681 273.292C221.389 274.256 222.062 275.257 222.67 276.281L222.673 276.287C222.736 276.393 222.873 276.429 222.982 276.368C223.093 276.302 223.131 276.163 223.068 276.055Z" fill="#6E8C48"/>
<path d="M189.275 266.184C189.178 265.39 188.523 264.926 187.528 264.926C186.532 264.926 177.573 264.528 176.278 264.926C174.984 265.325 174.586 265.424 174.387 268.61C174.188 271.796 173.127 298.078 173.359 299.472C173.59 300.865 173.889 301.761 175.283 302.06C176.677 302.359 187.13 303.553 188.125 303.454C189.121 303.354 189.756 302.707 189.756 302.707C189.756 302.707 190.624 277.198 189.275 266.184Z" fill="#C8F294"/>
<path d="M93.549 140.783C93.549 140.783 91.6575 124.255 91.558 121.418C91.4584 118.582 91.7571 115.098 93.549 113.206C95.341 111.315 99.3232 108.415 101.215 105.684C103.106 102.953 104.721 107.033 103.963 110.22C103.206 113.406 100.518 116.89 100.219 117.687C99.9205 118.483 104.009 121.072 104.154 127.543C104.301 134.013 100.518 140.086 93.549 140.783Z" fill="#FFC0A3"/>
<path d="M97.2995 112.045C97.6977 110.385 99.688 109.455 101.348 109.721C103.008 109.987 115.02 112.477 118.405 113.04C121.79 113.602 122.151 114.133 121.885 115.859C121.619 117.584 119.175 135.207 117.894 139.787C116.612 144.366 114.025 147.685 112.366 149.875C110.706 152.065 109.246 159.101 108.649 164.609C108.051 170.117 107.487 204.497 107.487 204.497H78.2178C78.2178 204.497 89.8656 156.014 91.4585 148.746C93.0513 141.479 97.2995 112.045 97.2995 112.045Z" fill="#FFD4C0"/>
<path d="M97.2466 112.404C97.2466 112.404 100.666 103.698 101.562 101.956C102.458 100.215 107.685 95.0871 109.378 92.7974C111.07 90.5076 111.917 89.4619 112.514 89.4619C113.112 89.4619 114.058 91.5525 113.311 93.6432C112.564 95.7338 111.269 97.9742 109.727 99.8657C108.184 101.757 107.039 104.081 106.989 104.786C106.938 105.491 104.798 112.858 104.798 112.858L97.2466 112.404Z" fill="#FFD4C0"/>
<path d="M106.988 104.786C107.039 104.081 108.183 101.757 109.727 99.8658C110.994 98.3112 112.089 96.5224 112.855 94.7734C111.296 96.2333 107.72 99.6333 107.254 100.569C106.657 101.771 104.66 109.676 104.66 109.676L106.198 107.928C106.613 106.415 106.968 105.067 106.988 104.786Z" fill="#FFC0A3"/>
<path d="M103.586 112.381C103.586 112.381 107.179 103.236 108.12 101.406C109.061 99.5759 114.551 94.1905 116.329 91.7852C118.107 89.38 118.996 88.2817 119.623 88.2817C120.251 88.2817 121.244 90.4783 120.46 92.6741C119.676 94.8698 118.316 97.2225 116.696 99.2096C115.075 101.197 113.872 103.638 113.821 104.378C113.769 105.118 111.52 112.856 111.52 112.856L103.586 112.381Z" fill="#FFD4C0"/>
<path d="M112.168 104.213C111.768 105.275 110.31 110.586 110.31 110.586H112.172C112.841 108.24 113.786 104.856 113.82 104.379C113.872 103.639 115.074 101.197 116.695 99.2111C116.748 99.145 116.8 99.0757 116.854 99.0088C116.732 99.1251 112.562 103.165 112.168 104.213Z" fill="#FFC0A3"/>
<path d="M108.695 114.639C108.695 114.639 112.115 105.933 113.011 104.191C113.907 102.449 119.134 97.322 120.827 95.0322C122.519 92.7425 123.366 91.6968 123.963 91.6968C124.56 91.6968 125.506 93.7874 124.759 95.878C124.012 97.9687 122.718 100.209 121.175 102.101C119.633 103.992 118.487 106.316 118.437 107.021C118.387 107.726 116.247 115.093 116.247 115.093L108.695 114.639Z" fill="#FFD4C0"/>
<path d="M114.906 115.179C114.906 115.179 119.061 107.859 120.081 106.42C121.101 104.982 126.411 101.079 128.21 99.2548C130.01 97.4301 130.896 96.6066 131.428 96.6831C131.96 96.7587 132.538 98.7419 131.607 100.51C130.675 102.277 129.236 104.108 127.621 105.598C126.005 107.086 124.689 109.011 124.555 109.632C124.42 110.253 121.576 116.545 121.576 116.545L114.906 115.179Z" fill="#FFD4C0"/>
<path d="M74.269 217.638C74.269 217.638 67.3655 221.553 67.2333 222.284C67.1011 223.014 68.8931 227.859 68.8931 227.859C68.8931 227.859 64.3789 240.867 65.1092 244.584C65.8396 248.301 70.02 251.553 70.8834 252.681C71.7467 253.809 76.3262 259.451 78.2177 261.044C80.1092 262.637 83.029 263.698 85.6174 262.105C88.2058 260.513 94.7763 257.327 98.2942 253.942C101.812 250.557 103.205 246.84 103.736 246.177C104.267 245.513 106.723 243.257 107.055 240.934C107.387 238.611 107.652 228.589 107.652 228.589C107.652 228.589 111.501 225.403 111.634 223.877C111.767 222.35 108.383 214.983 108.383 214.983L74.269 217.638Z" fill="#99C364"/>
<path d="M81.5025 200.913C81.5025 200.913 73.8369 201.909 72.6422 202.207C71.4476 202.506 70.9498 202.606 70.8503 204.497C70.7507 206.389 71.4739 217.838 71.348 218.634C71.2222 219.429 72.7418 220.824 74.5338 220.824C76.3257 220.824 95.3533 221.745 109.234 216.904C109.234 216.904 110.373 215.946 110.473 214.453C110.572 212.959 110.771 201.112 110.473 200.415C110.174 199.719 109.776 198.623 108.283 198.524C106.789 198.424 81.5025 200.913 81.5025 200.913Z" fill="#C8F294"/>
<path d="M214.647 47.6299C216.487 45.6292 218.31 43.6143 220.107 41.5786C221.044 40.5249 221.96 39.4545 222.885 38.3913C223.302 39.6624 223.711 40.9359 224.141 42.2022C224.964 44.6719 225.831 47.1265 226.683 49.5851L228.109 53.6947L230.8 50.2844L234.431 45.6834C235.624 44.1359 236.837 42.6028 238.014 41.0434C240.388 37.9381 242.726 34.8049 245.028 31.6407C247.322 28.4725 249.589 25.282 251.794 22.0421C252.88 20.4094 253.992 18.7966 255.057 17.1472C256.128 15.5018 257.191 13.8492 258.205 12.1592C256.78 13.5219 255.403 14.9228 254.035 16.3301C252.661 17.7326 251.334 19.1742 249.982 20.5942C247.308 23.4598 244.697 26.3747 242.113 29.3127C239.536 32.2555 236.996 35.2278 234.492 38.2288C233.231 39.7213 232.004 41.2425 230.757 42.7477L229.759 43.9822C229.362 42.8704 228.963 41.7602 228.554 40.6531C227.664 38.2065 226.749 35.7694 225.823 33.3363L224.406 29.6154L222.06 32.6832C220.412 34.84 218.77 37.0015 217.157 39.1861C215.537 41.3651 213.941 43.5649 212.364 45.779C210.78 47.9875 209.241 50.2326 207.713 52.4865C206.936 53.6039 206.202 54.754 205.449 55.8905C204.697 57.0262 203.97 58.1842 203.251 59.3478C204.241 58.404 205.224 57.4547 206.18 56.4838C207.137 55.513 208.111 54.5564 209.044 53.5665C210.933 51.6049 212.812 49.6353 214.647 47.6299Z" fill="#828282"/>
<path d="M276.171 66.1672C274.343 66.8863 272.544 67.6597 270.729 68.4035C267.119 69.9271 263.544 71.5216 259.986 73.1479C256.431 74.7806 252.899 76.4563 249.387 78.1726C247.626 79.02 245.884 79.9064 244.133 80.7721L242.717 81.4913C242.808 80.3142 242.898 79.1378 242.977 77.9599C243.164 75.3636 243.324 72.7656 243.473 70.166L243.699 66.1911L240.304 68.0332C237.918 69.3282 235.538 70.6304 233.172 71.966C230.803 73.2936 228.448 74.6492 226.104 76.0254C223.757 77.3945 221.434 78.8145 219.118 80.2473C217.954 80.9505 216.813 81.7 215.662 82.4295C214.511 83.159 213.375 83.9196 212.244 84.6874C213.533 84.2302 214.818 83.7659 216.087 83.2697C217.357 82.7736 218.637 82.2989 219.893 81.7764C222.418 80.7586 224.937 79.728 227.431 78.6464C229.928 77.5721 232.415 76.4778 234.887 75.3548C236.169 74.7766 237.447 74.1904 238.721 73.5987C238.585 74.9231 238.439 76.246 238.313 77.5713C238.057 80.1621 237.845 82.756 237.62 85.3492L237.242 89.6818L241.091 87.6684L246.286 84.9518C248.007 84.0264 249.739 83.1224 251.451 82.1802C254.886 80.3158 258.301 78.4107 261.693 76.4626C265.081 74.509 268.453 72.5219 271.79 70.4647C273.448 69.4182 275.122 68.4011 276.768 67.3299C278.418 66.2659 280.062 65.1915 281.678 64.063C279.822 64.7248 277.995 65.4408 276.171 66.1672Z" fill="#828282"/>
<path d="M264.704 123.939C260.831 123.34 256.951 122.82 253.069 122.337C249.187 121.86 245.3 121.432 241.411 121.049C239.467 120.846 237.519 120.686 235.574 120.503L233.992 120.371C234.688 119.418 235.382 118.463 236.066 117.502C237.589 115.391 239.09 113.264 240.581 111.129L242.859 107.866L239.004 107.651C236.294 107.501 233.583 107.359 230.869 107.254C228.156 107.14 225.44 107.057 222.722 106.998C220.005 106.931 217.283 106.92 214.56 106.924C213.2 106.911 211.835 106.95 210.472 106.966C209.11 106.983 207.744 107.034 206.377 107.094C207.714 107.382 209.051 107.661 210.393 107.905C211.734 108.15 213.072 108.417 214.415 108.632C217.099 109.092 219.785 109.538 222.474 109.927C225.164 110.324 227.855 110.698 230.549 111.04C231.944 111.222 233.339 111.393 234.736 111.559C233.923 112.614 233.104 113.664 232.302 114.726C230.723 116.796 229.18 118.892 227.628 120.981L225.032 124.471L229.365 124.779L235.212 125.193C237.162 125.309 239.111 125.449 241.064 125.546C244.966 125.762 248.872 125.933 252.782 126.057C256.692 126.173 260.605 126.253 264.524 126.254C266.485 126.234 268.444 126.246 270.407 126.199C272.37 126.16 274.333 126.109 276.301 125.997C274.373 125.585 272.441 125.235 270.508 124.895C268.575 124.546 266.638 124.259 264.704 123.939Z" fill="#828282"/>
<path d="M78.0151 52.486C76.4868 50.2321 74.9473 47.987 73.364 45.7785C71.7871 43.5644 70.191 41.3654 68.5703 39.1856C66.9567 37.001 65.3152 34.8387 63.6666 32.6827L61.3211 29.6149L59.9043 33.3358C58.978 35.7689 58.0637 38.206 57.1733 40.6526C56.764 41.7597 56.3649 42.8707 55.9683 43.9817L54.9696 42.7473C53.724 41.242 52.4967 39.7216 51.2359 38.2283C48.7311 35.2273 46.1913 32.2551 43.6149 29.3122C41.0312 26.3742 38.4197 23.4593 35.7461 20.5937C34.3938 19.1737 33.0669 17.7329 31.6923 16.3296C30.324 14.9215 28.9478 13.5214 27.5229 12.1587C28.5368 13.8487 29.5992 15.5013 30.6704 17.1467C31.7353 18.797 32.8471 20.4089 33.9342 22.0416C36.1395 25.2815 38.4054 28.4728 40.6999 31.6402C43.0016 34.8036 45.3391 37.9376 47.7133 41.0429C48.8904 42.6031 50.1034 44.1354 51.2964 45.6829L54.9274 50.2839L57.6185 53.6942L59.0449 49.5846C59.8971 47.126 60.7636 44.6714 61.5871 42.2017C62.0172 40.9354 62.4258 39.6619 62.8431 38.3908C63.7678 39.454 64.6845 40.5244 65.6203 41.5781C67.4186 43.613 69.2409 45.628 71.0806 47.6294C72.9156 49.6348 74.7936 51.6044 76.6835 53.5652C77.6169 54.5552 78.591 55.5117 79.5475 56.4825C80.5032 57.4534 81.4868 58.4035 82.4768 59.3465C81.7584 58.1829 81.032 57.0249 80.2786 55.8892C79.526 54.7535 78.7909 53.6034 78.0151 52.486Z" fill="#828282"/>
<path d="M24.033 76.4626C27.4258 78.4099 30.8401 80.3158 34.2743 82.1802C35.9866 83.1232 37.7189 84.0271 39.44 84.9518L44.6335 87.6684L48.4826 89.6818L48.1051 85.3492C47.8797 82.756 47.6679 80.1621 47.4114 77.5713C47.2864 76.246 47.1399 74.9223 47.0037 73.5987C48.2788 74.1904 49.5554 74.7766 50.8377 75.3548C53.3098 76.4778 55.7971 77.5729 58.2939 78.6464C60.7875 79.7272 63.3066 80.7586 65.8321 81.7764C67.0881 82.2989 68.368 82.7736 69.6375 83.2697C70.907 83.7659 72.1916 84.2302 73.4811 84.6874C72.3493 83.9188 71.2136 83.159 70.0628 82.4295C68.9119 81.7 67.7706 80.9505 66.6063 80.2473C64.291 78.8145 61.9686 77.3945 59.6215 76.0254C57.2776 74.6484 54.9226 73.2928 52.5532 71.966C50.1878 70.6312 47.8073 69.3282 45.4212 68.0332L42.0268 66.1911L42.253 70.166C42.4019 72.7656 42.562 75.3636 42.7483 77.9599C42.8272 79.1378 42.9172 80.3142 43.0088 81.4913L41.5927 80.7721C39.8414 79.9072 38.0996 79.0208 36.3387 78.1726C32.8272 76.4563 29.2942 74.7814 25.7397 73.1479C22.1813 71.5216 18.6069 69.9271 14.9967 68.4035C13.1816 67.6597 11.3824 66.8871 9.55464 66.1672C7.73081 65.4408 5.9022 64.7248 4.04492 64.063C5.66088 65.1915 7.30552 66.2659 8.95493 67.3299C10.6012 68.4011 12.2753 69.4182 13.9334 70.4647C17.2713 72.5219 20.6442 74.509 24.033 76.4626Z" fill="#828282"/>
<path d="M71.1656 106.924C68.4426 106.92 65.7212 106.931 63.0038 106.998C60.2864 107.057 57.5705 107.14 54.8571 107.254C52.1428 107.359 49.4318 107.501 46.7223 107.651L42.8668 107.866L45.1454 111.129C46.6355 113.265 48.1368 115.392 49.6596 117.502C50.3437 118.464 51.0382 119.418 51.7343 120.371L50.1518 120.503C48.2069 120.686 46.2588 120.846 44.3147 121.049C40.4257 121.432 36.5392 121.861 32.6565 122.337C28.7747 122.82 24.8953 123.34 21.0223 123.939C19.0877 124.259 17.1508 124.546 15.2171 124.893C13.2833 125.233 11.3512 125.584 9.42383 125.996C11.3926 126.107 13.3558 126.158 15.3182 126.198C17.2814 126.245 19.2398 126.232 21.2015 126.252C25.1199 126.251 29.0336 126.172 32.9433 126.055C36.8529 125.932 40.7586 125.761 44.6612 125.544C46.6132 125.447 48.5621 125.307 50.5133 125.191L56.3599 124.777L60.6933 124.47L58.097 120.98C56.5447 118.891 55.002 116.794 53.4227 114.724C52.6207 113.662 51.802 112.612 50.9896 111.557C52.3858 111.391 53.7811 111.22 55.1757 111.039C57.87 110.696 60.5611 110.323 63.2507 109.925C65.9402 109.536 68.6258 109.09 71.3098 108.631C72.6534 108.416 73.9914 108.149 75.3326 107.904C76.6737 107.659 78.011 107.381 79.3482 107.092C77.9815 107.033 76.6156 106.982 75.2529 106.965C73.891 106.95 72.5259 106.911 71.1656 106.924Z" fill="#828282"/>
<path d="M191.31 32.3207C190.452 31.9488 189.567 31.5792 188.665 31.2113C188.602 31.4717 188.533 31.7298 188.46 31.987C189.323 32.3406 190.17 32.695 190.993 33.0511C202.466 38.0256 208.644 42.797 207.945 46.1428C207.255 49.4496 199.817 51.3467 187.543 51.3467C174.621 51.3467 157.783 49.3142 140.129 45.6235C104.852 38.2486 76.3012 26.0241 77.7834 18.9303C78.4747 15.6227 85.911 13.7256 98.1848 13.7256C111.107 13.7256 127.945 15.7581 145.6 19.4496C145.881 19.5085 146.157 19.5698 146.437 19.6288C146.515 19.3723 146.601 19.1199 146.687 18.8682C146.378 18.8029 146.073 18.7352 145.764 18.6699C128.057 14.9681 111.159 12.9292 98.1848 12.9292C89.0784 12.9292 78.0127 13.9415 77.0037 18.767C75.3781 26.5426 103.034 38.681 139.966 46.4024C157.672 50.1043 174.568 52.1431 187.543 52.1431C196.65 52.1431 207.716 51.1309 208.725 46.3053C209.52 42.5015 203.335 37.5342 191.31 32.3207Z" fill="#FFB60A"/>
<path d="M208.595 19.5863C207.575 14.9176 197.067 13.938 188.433 13.938C187.531 13.938 186.606 13.9507 185.666 13.9714C185.837 14.2303 186.005 14.4915 186.165 14.7575C186.932 14.7432 187.691 14.7344 188.433 14.7344C200.054 14.7344 207.12 16.5646 207.818 19.7567C208.548 23.0954 202.413 27.9233 190.986 33.0022C179.223 38.23 163.148 43.2085 145.72 47.0194C127.544 50.9928 110.347 53.1814 97.2952 53.1814C85.6737 53.1814 78.6077 51.3512 77.9092 48.1591C76.3618 41.0796 104.799 28.5947 140.008 20.8964C142.174 20.4225 144.325 19.9765 146.457 19.5544C146.548 19.2613 146.647 18.9722 146.75 18.6847C144.466 19.1331 142.161 19.611 139.838 20.1191C102.979 28.1782 75.4355 40.5699 77.1319 48.3295C78.153 52.9982 88.6611 53.9778 97.2952 53.9778C110.402 53.9778 127.66 51.7828 145.889 47.7967C163.369 43.9754 179.5 38.9794 191.309 33.7301C203.287 28.406 209.426 23.3829 208.595 19.5863Z" fill="#FFB60A"/>
<path d="M87.4383 0.766418L90.6009 2.15539L93.3486 0.0639648L93.0045 3.50057L95.8438 5.46776L92.4686 6.20286L91.4746 9.51044L89.7336 6.52781L86.2803 6.60506L88.5788 4.02701L87.4383 0.766418Z" fill="#FFB60A"/>
<path d="M176.593 59.5446L179.28 60.7241L181.615 58.9473L181.323 61.867L183.735 63.5387L180.867 64.1631L180.023 66.9729L178.543 64.4387L175.609 64.5048L177.562 62.3146L176.593 59.5446Z" fill="#FFB60A"/>
<path d="M191.835 3.65088L192.044 5.15375L193.458 5.6985L192.095 6.36114L192.013 7.87516L190.961 6.78324L189.497 7.1727L190.21 5.83549L189.387 4.562L190.879 4.82801L191.835 3.65088Z" fill="#FFB60A"/>
<path d="M90.2895 61.9507L90.499 63.4528L91.9127 63.9983L90.5492 64.6602L90.4672 66.1742L89.4159 65.083L87.9512 65.4717L88.6648 64.1345L87.8413 62.8618L89.3338 63.1278L90.2895 61.9507Z" fill="#FFB60A"/>
</g>
<defs>
<filter id="filter0_d_431_1949" x="0.0449219" y="0.0639648" width="285.633" height="368" filterUnits="userSpaceOnUse" color-interpolation-filters="sRGB">
<feFlood flood-opacity="0" result="BackgroundImageFix"/>
<feColorMatrix in="SourceAlpha" type="matrix" values="0 0 0 0 0 0 0 0 0 0 0 0 0 0 0 0 0 0 127 0" result="hardAlpha"/>
<feOffset dy="4"/>
<feGaussianBlur stdDeviation="2"/>
<feComposite in2="hardAlpha" operator="out"/>
<feColorMatrix type="matrix" values="0 0 0 0 0 0 0 0 0 0 0 0 0 0 0 0 0 0 0.25 0"/>
<feBlend mode="normal" in2="BackgroundImageFix" result="effect1_dropShadow_431_1949"/>
<feBlend mode="normal" in="SourceGraphic" in2="effect1_dropShadow_431_1949" result="shape"/>
</filter>
</defs>
</svg>
