<svg width="360" height="360" viewBox="0 0 360 360" fill="none" xmlns="http://www.w3.org/2000/svg">
<path d="M354.706 153.767C344.948 89.5403 304.942 10.6332 225.904 2.37557C225.904 2.37557 165.896 -4.96457 106.74 6.16007C71.6318 12.7625 40.8465 32.4165 21.3668 60.6643C1.8872 88.9123 -4.6197 123.357 3.27723 156.195C8.40624 177.524 11.8721 199.598 10.9209 221.515C9.26542 259.659 10.2179 295.264 47.0293 318.011C79.8975 338.323 121.263 356.237 160.726 359.374C187.545 361.507 217.62 358.056 243.468 351.035C375.197 315.251 364.463 217.994 354.706 153.767Z" fill="#F4F7FA"/>
<path d="M234.273 281.337C290.843 256.003 301.935 238.725 301.125 227.475C300.654 220.934 295.929 213.22 297.256 198.581C298.375 186.243 302.41 184.249 301.088 176.254C298.795 162.385 285.688 162.53 282.553 149.713C279.12 135.681 293.255 129.061 289.846 111.838C287.981 102.418 283.588 103.57 281.406 94.3989C276.959 75.7045 294.065 66.0941 290.478 48.9484C288.39 38.9668 280.007 29.87 270.854 27.3446C252.495 22.2791 230.741 43.5687 224.115 64.1565C223.262 66.8087 217.047 87.0837 226.68 104.451C232.493 114.93 239.834 116.705 240.347 125.118C241.07 136.987 226.859 140.011 226.976 150.909C227.135 165.674 253.338 170.652 253.4 187.348C253.424 193.81 249.504 194.704 249.971 201.83C250.738 213.55 261.779 217.855 265.341 225.646C269.165 234.012 265.833 249.607 234.273 281.337Z" fill="url(#paint0_linear_431_1780)"/>
<path opacity="0.2" d="M240.86 86.8951C244.427 106.6 261.578 109.045 261.876 126.278C262.118 140.275 250.914 144.908 254.269 155.836C257.485 166.309 268.653 164.909 272.993 176.423C276.571 185.913 270.249 190.221 270.973 205.118C271.702 220.113 278.548 224.797 279.614 233.539C280.759 242.924 275.146 256.217 248.523 274.662C244.127 276.822 239.388 279.046 234.273 281.337C265.833 249.607 269.165 234.012 265.341 225.646C261.779 217.855 250.738 213.55 249.97 201.83C249.504 194.704 253.423 193.81 253.4 187.348C253.338 170.652 227.135 165.674 226.976 150.909C226.859 140.011 241.07 136.987 240.346 125.118C239.834 116.705 232.493 114.93 226.68 104.451C217.047 87.0839 223.262 66.8087 224.115 64.1565C230.741 43.5689 252.495 22.2791 270.854 27.3446C270.942 27.3689 271.029 27.3979 271.118 27.4234C264.35 32.3285 256.795 39.4591 250.799 49.5913C246.142 57.4597 238.016 71.1911 240.86 86.8951Z" fill="white"/>
<path d="M228.106 251.985C234.8 252.809 245.523 253.68 258.587 252.627C285.491 250.458 329.112 239.578 336.448 215.281C337.35 212.295 339.733 204.403 336.292 197.058C332.715 189.422 326.025 189.168 325.052 183.918C323.722 176.74 335.432 172.913 344.006 160.87C351.288 150.643 357.824 132.36 350.616 116.462C342.712 99.0305 322.99 94.8527 320.859 94.4363C306.379 91.607 287.254 95.8131 279.324 109.26C272.308 121.159 276.695 135.819 279.591 145.493C286.142 167.384 298.605 173.647 294.99 183.537C291.699 192.544 279.941 191.24 276.241 202.997C274.659 208.021 276.315 209.82 274.413 219.202C272.974 226.301 270.67 231.957 269.635 234.045C261.623 250.209 230.845 251.866 228.106 251.985Z" fill="url(#paint1_linear_431_1780)"/>
<mask id="mask0_431_1780" style="mask-type:luminance" maskUnits="userSpaceOnUse" x="228" y="93" width="126" height="161">
<path d="M228.106 251.984C234.8 252.809 245.523 253.68 258.587 252.627C285.491 250.457 329.112 239.577 336.448 215.281C337.35 212.294 339.733 204.403 336.292 197.058C332.715 189.421 326.025 189.168 325.052 183.918C323.722 176.74 335.432 172.913 344.006 160.87C351.288 150.642 357.824 132.359 350.616 116.462C342.712 99.03 322.99 94.8522 320.859 94.4359C306.379 91.6065 287.254 95.8126 279.324 109.26C272.308 121.158 276.695 135.818 279.591 145.493C286.142 167.383 298.605 173.646 294.99 183.536C291.699 192.543 279.941 191.24 276.241 202.996C274.659 208.02 276.315 209.819 274.413 219.202C272.974 226.301 270.67 231.956 269.635 234.045C261.623 250.209 230.845 251.865 228.106 251.984Z" fill="white"/>
</mask>
<g mask="url(#mask0_431_1780)">
<path opacity="0.5" d="M228.789 259.187L228.66 258.762C246.318 253.374 263.331 246.305 279.226 237.752C311.36 220.461 312.333 211.522 312.653 208.585C313.146 204.062 311.592 200.96 309.946 197.677C308.124 194.041 306.058 189.92 306.527 183.208C306.955 177.09 309.136 173.515 311.244 170.059C313.337 166.629 315.313 163.388 315.683 157.84C316.161 150.685 313.459 146.005 310.599 141.049C309.002 138.282 307.35 135.419 306.124 131.958C301.286 118.304 305.394 100.942 318.334 80.3545L318.707 80.5916C305.843 101.058 301.75 118.29 306.539 131.809C307.752 135.232 309.394 138.076 310.981 140.827C313.876 145.842 316.611 150.58 316.124 157.87C315.746 163.527 313.649 166.966 311.621 170.291C309.54 173.702 307.388 177.229 306.968 183.24C306.507 189.829 308.456 193.717 310.34 197.477C312.016 200.821 313.599 203.98 313.092 208.633C312.766 211.628 311.773 220.742 279.435 238.143C263.513 246.71 246.474 253.791 228.789 259.187Z" fill="white"/>
</g>
<path opacity="0.5" d="M81.1773 312.981C76.9579 312.981 73.0496 312.125 69.5612 310.435C45.8166 298.939 47.6438 252.77 48.5219 230.583C49.0357 217.595 50.2387 187.182 68.791 155.069C79.6583 136.258 95.773 118.332 114.167 104.592C130.667 92.267 146.925 84.9087 157.658 84.9087C161.72 84.9087 164.976 85.9517 167.337 88.008C170.209 90.5089 171.355 93.8811 170.279 115.664C169.431 132.828 168.054 142.711 166.84 151.431C165.902 158.165 165.016 164.526 164.515 173.325C163.781 186.221 164.429 193.818 165.001 200.522C165.711 208.838 166.271 215.405 163.605 227.346C162.059 234.269 158.232 247.919 149.971 261.553C142.462 273.945 131.248 286.562 119.204 296.167C109.587 303.837 95.1822 312.981 81.1773 312.981Z" fill="white"/>
<path opacity="0.5" d="M282.357 312.981C268.352 312.979 253.948 303.836 244.331 296.166C232.287 286.561 221.073 273.945 213.564 261.553C205.302 247.917 201.476 234.268 199.93 227.345C197.264 215.405 197.824 208.838 198.534 200.522C199.106 193.818 199.754 186.22 199.02 173.325C198.519 164.526 197.633 158.164 196.695 151.43C195.481 142.71 194.104 132.827 193.256 115.664C192.18 93.8814 193.326 90.5093 196.198 88.0077C198.558 85.9517 201.815 84.9087 205.877 84.9087C216.61 84.9087 232.868 92.2668 249.368 104.592C267.762 118.332 283.877 136.258 294.744 155.069C313.296 187.181 314.499 217.595 315.013 230.582C315.891 252.77 317.718 298.938 293.974 310.435C290.485 312.125 286.578 312.981 282.361 312.981H282.357Z" fill="white"/>
<path d="M160.85 171.051C159.177 199.765 164.619 203.103 160.025 223.198C158.89 228.16 155.426 241.67 146.855 255.485C130.495 281.852 94.0719 311.712 71.8108 302.152C71.5813 302.054 71.3518 301.948 71.1226 301.841C49.5854 291.656 51.3729 247.532 52.1891 227.339C52.7365 213.843 54.2325 185.27 71.9476 155.322C89.4422 125.747 117.851 103.113 139.167 93.5618C150.942 88.2849 160.554 87.0024 164.963 90.7525C166.415 91.9908 167.66 94.0723 166.609 114.758C165.113 144.373 162.011 151.15 160.85 171.051Z" fill="url(#paint2_linear_431_1780)"/>
<path d="M186.187 123.404C186.129 114.657 186.165 105.91 186.043 97.1641L185.727 20.605L185.716 19.747C185.684 17.6869 184.113 15.939 182.026 15.7427C179.787 15.5321 177.803 17.186 177.594 19.4369C177.554 19.8706 177.521 20.4228 177.511 20.7661L177.485 21.6055L177.437 23.2699L177.356 77.4619L177.249 84.033L177.084 97.1627C176.959 105.914 177.006 114.664 176.966 123.413C176.956 132.163 176.9 140.913 176.97 149.662C176.974 150.744 176.998 151.918 176.932 152.747L176.877 154.111L176.675 155.457C176.442 157.261 175.869 158.991 175.234 160.688C173.797 164.017 171.621 167.039 168.862 169.423C166.06 171.751 162.727 173.42 159.177 174.246C158.283 174.41 157.383 174.573 156.476 174.677L155.106 174.758L154.42 174.804L153.614 174.817L147.133 174.908L140.649 175L139.838 175.012C139.715 175.014 139.508 175.015 139.59 175.014L139.355 174.995C138.959 174.954 138.513 174.907 138.085 174.821C137.214 174.683 136.362 174.441 135.544 174.18C133.909 173.64 132.477 172.842 131.422 171.84C130.383 170.825 129.579 169.673 129.284 168.139L129.118 167.591L129.073 166.979L128.951 165.751C129 164.878 129.038 163.991 129.126 163.088L129.697 160.298L130.58 157.263C131.833 153.229 133.326 149.231 134.933 145.192C136.537 141.156 138.24 137.046 139.44 132.526C139.985 130.25 140.482 127.867 140.314 125.317C140.186 122.788 139.366 120.251 138.05 118.125C137.54 117.309 136.485 116.984 135.602 117.414C134.656 117.875 134.26 119.02 134.719 119.972L134.752 120.041C136.391 123.445 136.002 127.213 134.602 131.069C133.237 134.917 131.222 138.75 129.353 142.727C128.579 144.344 127.817 145.985 127.073 147.644C126.697 147.439 126.287 147.283 125.839 147.215L125.752 147.202C121.901 146.624 117.77 146.816 113.985 148.161C110.167 149.457 106.954 152.072 104.564 154.653C102.117 157.225 100.144 159.664 97.3527 160.293C94.5584 161.07 91.3192 159.977 88.5558 158.189C88.2136 157.967 87.7484 158.027 87.478 158.348C87.1848 158.697 87.228 159.219 87.5755 159.515C88.9297 160.666 90.4244 161.722 92.1532 162.461C93.8681 163.195 95.8509 163.617 97.8438 163.382C99.847 163.208 101.81 162.363 103.383 161.307C104.976 160.255 106.321 159.09 107.635 158.067C110.238 155.98 112.802 154.54 115.637 154.009C118.455 153.461 121.37 153.74 124.2 154.594L124.203 154.594C124.149 154.739 124.09 154.879 124.037 155.024L122.911 158.232L121.967 161.824C121.758 163.08 121.614 164.382 121.506 165.684L121.598 167.73L121.661 168.754L121.886 169.799C122.335 172.595 123.881 175.378 125.885 177.436C126.794 178.375 127.796 179.158 128.838 179.841C128.672 179.917 128.501 179.988 128.335 180.065L124.838 181.718C123.668 182.288 122.576 182.792 121.293 183.504C118.819 184.795 116.527 186.415 114.438 188.23C111.365 185.709 107.576 183.84 103.56 183.322C99.1585 182.736 94.9457 183.818 91.4298 185.033C87.8725 186.204 84.6061 187.403 81.6867 186.337C78.6898 185.387 76.5338 182.237 75.2252 178.9C75.0743 178.514 74.6552 178.292 74.2472 178.4C73.8079 178.518 73.5464 178.971 73.6632 179.413C74.1558 181.278 74.8233 183.144 75.8979 184.877C76.957 186.592 78.4764 188.229 80.464 189.162C82.4163 190.177 84.7176 190.439 86.7638 190.294C88.8321 190.159 90.737 189.742 92.5517 189.399C96.1751 188.639 99.4898 188.356 102.464 189.157C105.14 189.879 107.474 191.434 109.429 193.467C107.454 195.916 105.73 198.544 104.302 201.301C103.061 203.747 101.99 206.237 101.221 208.935C100.425 211.606 99.9286 214.414 99.8067 217.193C99.7602 218.163 99.7654 219.108 99.7874 220.041C96.4138 218.636 92.5774 217.888 88.8144 218.43C84.7333 218.997 81.1436 221.083 78.3749 223.341C75.581 225.527 73.0589 228.11 71.1308 226.962C70.0762 226.415 69.148 225.039 68.4869 223.573C67.8133 222.086 67.3083 220.459 66.9036 218.8C66.8062 218.399 66.423 218.123 66.0051 218.173C65.5543 218.228 65.2324 218.641 65.287 219.094C65.4989 220.857 65.8114 222.626 66.3652 224.395C66.9493 226.127 67.6975 228.019 69.5679 229.424C70.4997 230.085 71.7561 230.496 72.9566 230.411C74.1521 230.355 75.2211 229.971 76.0956 229.539C77.8858 228.666 79.3102 227.643 80.7508 226.782C83.586 225.005 86.4224 223.916 89.2865 223.868C92.1526 223.826 94.9545 224.785 97.5194 226.356C97.6284 226.422 97.7581 226.492 97.8764 226.546C98.612 226.882 99.4014 226.914 100.126 226.719C100.199 228.6 100.166 230.369 99.807 232.003C98.945 236.213 96.2373 240.146 92.6841 243.164C90.8937 244.726 88.8475 246.121 86.748 247.823C85.9964 248.442 85.2382 249.145 84.5037 249.894C84.2567 249.9 84.0091 249.918 83.7639 249.921C82.6512 249.983 81.4911 250.241 80.4975 250.616C78.5408 251.371 76.5299 252.427 75.0894 254.632C74.3902 255.703 74.0079 257.176 74.1832 258.492C74.3577 259.784 74.867 260.721 74.9609 261.126C75.0146 261.325 75.08 261.373 75.0363 261.584C74.993 261.779 74.8526 261.998 74.6107 262.218C74.1321 262.671 73.3327 263.008 72.5084 263.301L72.4855 263.309C72.2817 263.382 72.1241 263.563 72.0908 263.793C72.0435 264.124 72.2717 264.432 72.6011 264.479C73.5593 264.619 74.5767 264.649 75.6954 264.251C76.249 264.051 76.8258 263.683 77.2903 263.128C77.7557 262.594 78.0886 261.731 78.0866 261.023C78.0802 259.615 77.8402 258.846 77.9578 258.318C78.0296 257.826 78.2297 257.475 78.5824 257.084C79.0669 256.537 79.9069 256.035 80.8536 255.637C79.9972 258.062 79.6878 260.603 79.9486 263.063C80.2247 265.919 81.1175 268.609 82.3041 271.055C82.7755 272.02 83.9283 272.449 84.9118 272.006C85.9174 271.553 86.3675 270.366 85.9174 269.356C84.9595 267.196 84.3225 264.944 84.1872 262.716C84.0191 260.496 84.4616 258.281 85.3581 256.415C87.1203 252.656 91.6744 250.467 95.8996 247.074C100.145 243.69 103.834 239.009 105.245 233.232C105.939 230.367 105.957 227.481 105.884 224.889C105.806 222.279 105.699 219.883 105.897 217.574C105.901 217.517 105.911 217.461 105.916 217.404C106.546 218.206 107.196 218.987 107.748 219.845C109.38 222.235 110.625 224.771 111.548 227.587C113.385 233.159 114.342 239.308 112.62 244.313C111.755 246.792 110.233 248.903 107.99 250.353C106.866 251.098 105.572 251.747 104.133 252.389C102.703 253.046 101.11 253.693 99.511 254.766C97.9017 255.794 96.4287 257.554 95.8052 259.46C95.1602 261.356 95.0992 263.354 95.4715 265.123C96.2024 268.699 98.0488 271.57 100.025 274.167C100.261 274.478 100.693 274.586 101.053 274.402C101.458 274.195 101.621 273.696 101.414 273.288L101.407 273.273C99.9984 270.482 98.7961 267.518 98.6514 264.702C98.5623 263.301 98.7995 262.002 99.3334 260.913C99.878 259.811 100.694 259.11 101.819 258.499C104.082 257.274 107.467 256.698 110.704 254.904C113.993 253.127 116.703 249.978 118.152 246.497C119.604 242.984 119.984 239.247 119.803 235.734C119.631 232.195 118.982 228.776 117.925 225.491C116.903 222.199 115.359 218.898 113.409 215.98C112.401 214.54 111.423 213.05 110.096 211.881C109.334 211.261 108.459 210.746 107.441 210.44C108.151 208.398 109.063 206.4 110.143 204.456C112.451 200.359 115.405 196.645 118.974 193.8C119.388 193.463 119.812 193.139 120.241 192.824C120.293 194.22 120.618 195.645 121.121 196.894C122.653 200.504 125.199 202.764 127.477 204.728C129.783 206.689 132.173 208.262 134.037 209.947C134.97 210.773 135.741 211.63 136.147 212.366C136.342 212.732 136.487 213.055 136.518 213.349C136.562 213.668 136.61 213.896 136.487 214.365C136.197 216.19 134.608 218.027 132.582 220.074C131.594 221.115 130.532 222.25 129.568 223.606C128.614 224.955 127.771 226.589 127.44 228.364C127.114 230.124 127.222 231.914 127.688 233.537C128.155 235.159 128.903 236.613 129.799 237.891C131.603 240.451 133.875 242.408 136.249 244.097C136.561 244.319 136.997 244.299 137.288 244.026C137.622 243.714 137.64 243.189 137.33 242.853L137.324 242.847C135.417 240.789 133.67 238.591 132.517 236.248C131.33 233.923 130.939 231.443 131.633 229.383C132.253 227.337 134.029 225.71 136.177 223.855C137.234 222.909 138.39 221.902 139.494 220.628C140.589 219.358 141.616 217.729 142.145 215.869C142.45 214.974 142.603 213.743 142.483 212.646C142.388 211.51 142.014 210.471 141.579 209.563C140.672 207.75 139.493 206.463 138.36 205.337C136.064 203.112 133.778 201.392 131.751 199.648C129.746 197.924 128.031 196.088 127.378 194.354C127.021 193.478 127.018 192.705 126.977 191.757C126.903 191.097 126.717 190.374 126.327 189.359C126.875 189.112 127.441 188.865 127.986 188.624L131.417 187.146C133.702 186.192 135.991 185.289 138.242 184.532C139.363 184.166 140.474 183.835 141.527 183.588C141.893 183.501 142.26 183.438 142.607 183.386L147.035 183.448L153.603 183.54L154.428 183.55L155.371 183.513L157.26 183.429C158.512 183.311 159.765 183.113 161.007 182.892C165.957 181.842 170.651 179.594 174.6 176.403C178.498 173.153 181.665 168.994 183.691 164.294C184.629 161.92 185.424 159.467 185.79 156.932L186.074 155.034L186.179 153.121C186.267 151.766 186.241 150.751 186.248 149.647C186.292 140.899 186.213 132.152 186.187 123.404Z" fill="url(#paint3_linear_431_1780)"/>
<path d="M198.57 90.7545C197.119 91.9889 195.877 94.0711 196.923 114.76C198.422 144.375 201.526 151.15 202.686 171.05C204.36 199.766 198.914 203.104 203.509 223.2C204.642 228.158 208.11 241.669 216.68 255.484C233.208 282.127 270.224 312.332 292.411 301.84C313.951 291.654 312.163 247.533 311.344 227.339C310.798 213.843 309.303 185.271 291.588 155.322C264.429 109.406 210.954 80.2167 198.57 90.7545Z" fill="url(#paint4_linear_431_1780)"/>
<path d="M177.349 123.404C177.406 114.657 177.37 105.91 177.492 97.1641L177.808 20.605L177.819 19.747C177.852 17.6869 179.422 15.939 181.509 15.7427C183.748 15.5321 185.732 17.186 185.941 19.4369C185.981 19.8706 186.014 20.4228 186.024 20.7661L186.05 21.6055L186.098 23.2699L186.179 77.4619L186.286 84.033L186.451 97.1627C186.576 105.914 186.529 114.664 186.569 123.413C186.579 132.163 186.635 140.913 186.565 149.662C186.561 150.744 186.537 151.918 186.603 152.747L186.658 154.111L186.86 155.457C187.093 157.261 187.666 158.991 188.301 160.688C189.738 164.017 191.914 167.039 194.673 169.423C197.475 171.751 200.808 173.42 204.358 174.246C205.252 174.41 206.152 174.573 207.059 174.677L208.429 174.758L209.115 174.804L209.921 174.817L216.403 174.908L222.886 175L223.697 175.012C223.82 175.014 224.027 175.015 223.945 175.014L224.18 174.995C224.576 174.954 225.022 174.907 225.45 174.821C226.321 174.683 227.173 174.441 227.991 174.18C229.626 173.64 231.058 172.842 232.113 171.84C233.152 170.825 233.956 169.673 234.251 168.139L234.418 167.591L234.462 166.979L234.584 165.751C234.535 164.878 234.497 163.991 234.409 163.088L233.838 160.298L232.955 157.263C231.702 153.229 230.209 149.231 228.602 145.192C226.998 141.156 225.295 137.046 224.095 132.526C223.55 130.25 223.053 127.867 223.222 125.317C223.349 122.788 224.169 120.251 225.485 118.125C225.995 117.309 227.05 116.984 227.932 117.414C228.879 117.875 229.275 119.02 228.816 119.972L228.783 120.041C227.143 123.445 227.533 127.213 228.933 131.069C230.298 134.917 232.312 138.75 234.182 142.727C234.955 144.344 235.718 145.985 236.462 147.644C236.838 147.439 237.248 147.283 237.696 147.215L237.783 147.202C241.634 146.624 245.765 146.816 249.55 148.161C253.368 149.457 256.581 152.072 258.971 154.653C261.418 157.225 263.391 159.664 266.182 160.293C268.977 161.07 272.216 159.977 274.979 158.189C275.321 157.967 275.787 158.027 276.057 158.348C276.35 158.697 276.307 159.219 275.96 159.515C274.605 160.666 273.111 161.722 271.382 162.461C269.667 163.195 267.684 163.617 265.691 163.382C263.688 163.208 261.725 162.363 260.152 161.307C258.559 160.255 257.215 159.09 255.9 158.067C253.297 155.98 250.733 154.54 247.898 154.009C245.081 153.461 242.165 153.74 239.335 154.594C239.335 154.594 239.333 154.594 239.332 154.594C239.386 154.739 239.446 154.879 239.498 155.024L240.624 158.232L241.568 161.824C241.777 163.08 241.921 164.382 242.029 165.684L241.937 167.73L241.875 168.754L241.649 169.799C241.2 172.595 239.654 175.378 237.65 177.436C236.741 178.375 235.739 179.158 234.697 179.841C234.863 179.917 235.034 179.988 235.2 180.065L238.697 181.718C239.867 182.288 240.959 182.792 242.242 183.504C244.716 184.795 247.008 186.415 249.097 188.23C252.17 185.709 255.959 183.84 259.975 183.322C264.377 182.736 268.59 183.818 272.105 185.033C275.663 186.204 278.929 187.403 281.849 186.337C284.845 185.387 287.001 182.237 288.31 178.9C288.461 178.514 288.88 178.292 289.288 178.4C289.727 178.518 289.989 178.971 289.872 179.413C289.379 181.278 288.712 183.144 287.637 184.877C286.578 186.592 285.059 188.229 283.071 189.162C281.119 190.177 278.818 190.439 276.771 190.294C274.703 190.159 272.798 189.742 270.983 189.399C267.36 188.639 264.045 188.356 261.071 189.157C258.395 189.879 256.061 191.434 254.107 193.467C256.081 195.916 257.805 198.544 259.233 201.301C260.474 203.747 261.545 206.237 262.315 208.935C263.11 211.606 263.607 214.414 263.729 217.193C263.775 218.163 263.77 219.108 263.748 220.041C267.121 218.636 270.958 217.888 274.721 218.43C278.802 218.997 282.392 221.083 285.16 223.341C287.954 225.527 290.476 228.11 292.405 226.962C293.459 226.415 294.387 225.039 295.049 223.573C295.722 222.086 296.227 220.459 296.632 218.8C296.729 218.399 297.112 218.123 297.53 218.173C297.981 218.228 298.303 218.641 298.248 219.094C298.036 220.857 297.724 222.626 297.17 224.395C296.586 226.127 295.838 228.019 293.967 229.424C293.036 230.085 291.779 230.496 290.579 230.411C289.383 230.355 288.314 229.971 287.44 229.539C285.649 228.666 284.225 227.643 282.784 226.782C279.949 225.005 277.113 223.916 274.249 223.868C271.383 223.826 268.581 224.785 266.016 226.356C265.907 226.422 265.777 226.492 265.659 226.546C264.923 226.882 264.134 226.914 263.409 226.719C263.337 228.6 263.37 230.369 263.728 232.003C264.59 236.213 267.298 240.146 270.851 243.164C272.641 244.726 274.688 246.121 276.787 247.823C277.539 248.442 278.297 249.145 279.031 249.894C279.278 249.9 279.526 249.918 279.771 249.921C280.884 249.983 282.044 250.241 283.037 250.616C284.994 251.371 287.005 252.427 288.446 254.632C289.145 255.703 289.527 257.176 289.352 258.492C289.177 259.784 288.668 260.721 288.574 261.126C288.52 261.325 288.455 261.373 288.498 261.584C288.542 261.779 288.682 261.998 288.924 262.218C289.403 262.671 290.202 263.008 291.026 263.301L291.049 263.309C291.253 263.382 291.411 263.563 291.444 263.793C291.491 264.124 291.263 264.432 290.934 264.479C289.975 264.619 288.958 264.649 287.839 264.251C287.286 264.051 286.709 263.683 286.245 263.128C285.779 262.594 285.446 261.731 285.448 261.023C285.455 259.615 285.695 258.846 285.577 258.318C285.505 257.826 285.305 257.475 284.952 257.084C284.468 256.537 283.628 256.035 282.681 255.637C283.538 258.062 283.847 260.603 283.586 263.063C283.31 265.919 282.417 268.609 281.231 271.055C280.759 272.02 279.606 272.449 278.623 272.006C277.617 271.553 277.167 270.366 277.617 269.356C278.575 267.196 279.212 264.944 279.348 262.716C279.516 260.496 279.073 258.281 278.177 256.415C276.414 252.656 271.86 250.467 267.635 247.074C263.39 243.69 259.701 239.009 258.29 233.232C257.596 230.367 257.578 227.481 257.651 224.889C257.728 222.279 257.836 219.883 257.638 217.574C257.634 217.517 257.624 217.461 257.619 217.404C256.989 218.206 256.339 218.987 255.786 219.845C254.155 222.235 252.91 224.771 251.987 227.587C250.149 233.159 249.192 239.308 250.915 244.313C251.779 246.792 253.302 248.903 255.545 250.353C256.669 251.098 257.963 251.747 259.402 252.389C260.832 253.046 262.425 253.693 264.024 254.766C265.633 255.794 267.106 257.554 267.729 259.46C268.374 261.356 268.435 263.354 268.063 265.123C267.332 268.699 265.486 271.57 263.509 274.167C263.273 274.478 262.842 274.586 262.482 274.402C262.076 274.195 261.914 273.696 262.12 273.288L262.127 273.273C263.536 270.482 264.738 267.518 264.883 264.702C264.972 263.301 264.735 262.002 264.201 260.913C263.657 259.811 262.84 259.11 261.715 258.499C259.453 257.274 256.068 256.698 252.831 254.904C249.541 253.127 246.832 249.978 245.382 246.497C243.931 242.984 243.55 239.247 243.732 235.734C243.904 232.195 244.553 228.776 245.61 225.491C246.632 222.199 248.176 218.898 250.126 215.98C251.133 214.54 252.112 213.05 253.439 211.881C254.201 211.261 255.075 210.746 256.094 210.44C255.383 208.398 254.472 206.4 253.392 204.456C251.084 200.359 248.13 196.645 244.561 193.8C244.146 193.463 243.723 193.139 243.294 192.824C243.242 194.22 242.917 195.645 242.414 196.894C240.882 200.504 238.336 202.764 236.058 204.728C233.752 206.689 231.362 208.262 229.498 209.947C228.564 210.773 227.793 211.63 227.387 212.366C227.192 212.732 227.048 213.055 227.017 213.349C226.973 213.668 226.924 213.896 227.048 214.365C227.338 216.19 228.927 218.027 230.953 220.074C231.941 221.115 233.003 222.25 233.967 223.606C234.921 224.955 235.764 226.589 236.095 228.364C236.42 230.124 236.312 231.914 235.847 233.537C235.379 235.159 234.632 236.613 233.735 237.891C231.931 240.451 229.66 242.408 227.286 244.097C226.973 244.319 226.538 244.299 226.247 244.026C225.913 243.714 225.894 243.189 226.205 242.853L226.211 242.847C228.118 240.789 229.865 238.591 231.017 236.248C232.205 233.923 232.595 231.443 231.902 229.383C231.282 227.337 229.505 225.71 227.357 223.855C226.3 222.909 225.145 221.902 224.041 220.628C222.946 219.358 221.919 217.729 221.39 215.869C221.085 214.974 220.932 213.743 221.052 212.646C221.147 211.51 221.521 210.471 221.956 209.563C222.863 207.75 224.042 206.463 225.175 205.337C227.471 203.112 229.757 201.392 231.784 199.648C233.789 197.924 235.504 196.088 236.157 194.354C236.513 193.478 236.516 192.705 236.557 191.757C236.632 191.097 236.817 190.374 237.208 189.359C236.66 189.112 236.093 188.865 235.549 188.624L232.117 187.146C229.833 186.192 227.544 185.289 225.292 184.532C224.172 184.166 223.06 183.835 222.007 183.588C221.642 183.501 221.275 183.438 220.927 183.386L216.499 183.448L209.931 183.54L209.107 183.55L208.163 183.513L206.275 183.429C205.022 183.311 203.77 183.113 202.528 182.892C197.578 181.842 192.884 179.594 188.935 176.403C185.037 173.153 181.869 168.994 179.844 164.294C178.905 161.92 178.11 159.467 177.745 156.932L177.46 155.034L177.356 153.121C177.268 151.766 177.294 150.751 177.287 149.647C177.243 140.899 177.322 132.152 177.349 123.404Z" fill="url(#paint5_linear_431_1780)"/>
<path d="M69.2688 340.195L71.3431 344.74C71.2195 344.536 70.2795 342.938 69.2688 340.195Z" fill="white"/>
<path opacity="0.3" d="M115.777 174.517C132.516 236.247 134.895 236.491 93.1405 274.49C82.4294 284.236 75.7785 293.609 71.8108 302.152C71.5813 302.055 71.3518 301.948 71.1226 301.841C49.5854 291.656 51.3729 247.533 52.1891 227.339C52.7365 213.843 54.2325 185.271 71.9476 155.322C89.4422 125.747 117.851 103.113 139.167 93.562C123.239 110.356 105.93 138.213 115.777 174.517Z" fill="white"/>
<path opacity="0.3" d="M247.719 174.517C230.979 236.247 228.601 236.491 270.355 274.49C281.066 284.236 287.717 293.609 291.685 302.152C291.914 302.055 292.144 301.948 292.373 301.841C313.91 291.656 312.123 247.533 311.307 227.339C310.759 213.843 309.263 185.271 291.548 155.322C274.054 125.747 245.645 103.113 224.329 93.562C240.256 110.356 257.566 138.213 247.719 174.517Z" fill="white"/>
<path opacity="0.52" d="M112.519 219.893L147.447 148.425L42.0156 161.501L98.2133 222.439C101.23 226.85 104.165 228.05 107.958 226.452C110.697 225.298 111.442 222.547 112.519 219.893Z" fill="white"/>
<path opacity="0.76" d="M107.374 224.254C109.957 222.977 111.022 219.837 109.753 217.239C108.483 214.641 105.36 213.57 102.777 214.847C100.194 216.123 99.1291 219.264 100.398 221.861C101.668 224.459 104.791 225.53 107.374 224.254Z" fill="white"/>
<path d="M156.219 113.183C156.219 150.41 128.849 182.392 93.1979 184.673C55.2752 187.1 22.8263 155.368 22.9668 113.735C23.107 72.189 55.6498 40.3738 93.4246 42.4705C128.944 44.4422 156.219 76.0265 156.219 113.183Z" fill="url(#paint6_linear_431_1780)"/>
<path d="M154.964 113.189C154.963 149.673 128.122 180.982 93.2003 183.172C56.1019 185.499 24.3964 154.434 24.5322 113.729C24.6677 73.1065 56.4652 41.9562 93.4222 43.9612C128.218 45.8489 154.965 76.7723 154.964 113.189Z" fill="url(#paint7_linear_431_1780)"/>
<path opacity="0.74" d="M148.864 113.214C148.858 146.085 124.599 174.146 93.2119 175.924C60.0776 177.8 31.9241 149.957 32.0382 113.697C32.1521 77.5041 60.3894 49.5693 93.4107 51.161C124.696 52.669 148.87 80.3973 148.864 113.214Z" fill="white"/>
<path opacity="0.3" d="M99.7428 162.184C96.2557 154.591 97.1564 150.763 94.4706 121.859C90.4621 78.72 86.9853 71.3599 84.1073 66.7C81.1568 61.9225 75.8286 55.1201 65.7145 48.9067C41.8369 59.1845 24.6311 84.0448 24.5322 113.728C24.3964 154.434 56.1018 185.499 93.2003 183.172C100.149 182.736 106.768 181.153 112.906 178.626C107.549 174.426 102.899 169.058 99.7428 162.184Z" fill="url(#paint8_linear_431_1780)"/>
<path d="M128.516 110.557C128.501 132.985 111.051 151.804 88.8596 152.594C65.8809 153.412 46.697 134.711 46.7599 110.822C46.8227 86.9606 66.0656 68.1954 88.9942 68.8619C111.139 69.5054 128.53 88.1546 128.516 110.557Z" fill="url(#paint9_linear_431_1780)"/>
<path d="M119.325 125.017C118.799 124.481 118.607 123.575 118.812 122.593C119.327 120.122 117.367 118.789 115.488 120.34C114.74 120.957 113.885 121.158 113.202 120.876C111.477 120.164 109.223 122.496 109.393 124.824C109.46 125.748 109.122 126.788 108.488 127.605C106.889 129.668 107.484 132.451 109.492 132.31C110.288 132.254 110.939 132.688 111.235 133.47C111.98 135.439 114.589 134.798 115.649 132.393C116.069 131.44 116.802 130.671 117.609 130.339C119.636 129.504 120.647 126.363 119.325 125.017Z" fill="url(#paint10_linear_431_1780)"/>
<path d="M128.525 113.749C127.773 113.63 127.117 113.01 126.773 112.091C125.904 109.777 123.447 109.866 122.614 112.25C122.283 113.198 121.633 113.872 120.875 114.052C118.962 114.507 118.223 117.74 119.627 119.518C120.184 120.223 120.444 121.262 120.323 122.297C120.017 124.905 122.034 126.783 123.73 125.477C124.402 124.96 125.21 124.921 125.888 125.372C127.595 126.506 129.554 124.445 129.209 121.887C129.073 120.871 129.311 119.817 129.847 119.069C131.195 117.189 130.416 114.049 128.525 113.749Z" fill="url(#paint11_linear_431_1780)"/>
<path d="M125.593 91.9712C124.772 91.9365 123.983 91.4 123.483 90.5358C122.221 88.3571 119.608 88.7144 119.063 91.1485C118.847 92.1157 118.249 92.849 117.465 93.1091C115.487 93.7655 115.166 97.0212 116.924 98.6106C117.62 99.2406 118.048 100.231 118.069 101.259C118.12 103.848 120.543 105.465 122.164 103.999C122.807 103.418 123.662 103.291 124.451 103.658C126.434 104.58 128.227 102.346 127.493 99.8781C127.201 98.8972 127.304 97.8378 127.769 97.0458C128.937 95.0542 127.654 92.0585 125.593 91.9712Z" fill="url(#paint12_linear_431_1780)"/>
<path d="M111.923 75.6992C111.333 76.0878 110.491 76.0629 109.669 75.6319C107.595 74.5441 105.976 76.1538 106.937 78.3565C107.318 79.2304 107.307 80.1109 106.906 80.712C105.897 82.2275 107.459 84.9487 109.543 85.3123C110.369 85.4563 111.205 86.0178 111.78 86.8133C113.224 88.8133 115.777 88.8633 116.103 86.9044C116.233 86.1269 116.756 85.5977 117.502 85.4892C119.376 85.2166 119.41 82.5597 117.559 80.9867C116.823 80.3608 116.317 79.4728 116.209 78.6126C115.936 76.446 113.405 74.722 111.923 75.6992Z" fill="url(#paint13_linear_431_1780)"/>
<path d="M104.637 149.548C104.538 148.876 104.868 148.113 105.518 147.508C107.154 145.989 106.443 143.973 104.312 144.092C103.464 144.139 102.753 143.828 102.413 143.258C101.555 141.822 98.7564 142.304 97.6765 144.081C97.247 144.787 96.4696 145.36 95.597 145.614C93.3944 146.254 92.3709 148.599 93.8701 149.575C94.4645 149.963 94.7022 150.63 94.5062 151.361C94.0124 153.203 96.2032 154.142 98.2062 152.954C98.9999 152.483 99.92 152.317 100.667 152.509C102.544 152.992 104.886 151.242 104.637 149.548Z" fill="url(#paint14_linear_431_1780)"/>
<path d="M118.419 107.366C117.576 106.927 117.013 106.021 116.915 104.943C116.667 102.228 113.755 101.282 111.98 103.349C111.274 104.172 110.285 104.582 109.333 104.444C106.931 104.098 104.972 107.075 106.027 109.48C106.446 110.434 106.402 111.604 105.91 112.609C104.67 115.144 106.416 117.917 108.856 117.298C109.822 117.052 110.786 117.353 111.435 118.101C113.064 119.98 116.061 118.699 116.511 115.941C116.689 114.847 117.321 113.873 118.2 113.337C120.409 111.991 120.537 108.469 118.419 107.366Z" fill="url(#paint15_linear_431_1780)"/>
<path d="M110.418 89.6757C109.23 89.1001 108.371 87.928 108.122 86.542C107.496 83.0495 103.444 81.784 101.256 84.4153C100.385 85.4628 99.0832 85.975 97.7739 85.7834C94.4655 85.2994 92.1174 89.106 93.8163 92.2184C94.4897 93.4522 94.5569 94.9573 93.996 96.2447C92.5811 99.4922 95.2585 103.079 98.5105 102.309C99.7972 102.005 101.139 102.402 102.1 103.369C104.512 105.799 108.436 104.187 108.749 100.654C108.874 99.2525 109.626 98.0105 110.758 97.334C113.601 95.6359 113.401 91.1206 110.418 89.6757Z" fill="url(#paint16_linear_431_1780)"/>
<path d="M94.4813 67.8177C93.922 68.5902 92.9437 68.9921 91.8643 68.892C89.138 68.6392 87.7699 71.4176 89.5574 73.5878C90.266 74.4479 90.5242 75.5174 90.2486 76.4486C89.5539 78.7956 92.189 81.274 94.6965 80.6425C95.6895 80.3923 96.8219 80.6395 97.7251 81.3026C99.994 82.9681 102.937 81.7197 102.714 79.1963C102.626 78.1941 103.065 77.289 103.888 76.7762C105.954 75.4883 105.185 72.2694 102.582 71.3195C101.545 70.9413 100.693 70.1278 100.305 69.1445C99.328 66.6655 95.8877 65.8758 94.4813 67.8177Z" fill="url(#paint17_linear_431_1780)"/>
<path d="M86.9061 144.872C85.9751 144.504 85.2734 143.772 85.0306 142.915C84.419 140.753 81.2746 139.933 79.7059 141.533C79.0818 142.17 78.1094 142.472 77.1048 142.341C74.5682 142.009 72.9293 144.326 74.3401 146.258C74.8994 147.025 75.0082 147.951 74.6311 148.736C73.6803 150.715 75.853 152.952 78.2982 152.518C79.2666 152.347 80.3042 152.607 81.0734 153.214C83.0064 154.74 85.9417 153.796 86.0473 151.624C86.0893 150.761 86.6169 150.004 87.4575 149.6C89.5696 148.586 89.2448 145.796 86.9061 144.872Z" fill="url(#paint18_linear_431_1780)"/>
<path d="M98.5496 105.646C97.2395 105.825 95.929 105.299 95.0466 104.237C92.8191 101.556 88.6752 102.776 88.0423 106.318C87.7908 107.726 86.9063 108.914 85.6753 109.496C82.5649 110.967 82.3713 115.597 85.3499 117.313C86.529 117.993 87.3124 119.249 87.4464 120.674C87.7838 124.262 91.8182 125.814 94.2619 123.314C95.2296 122.324 96.5803 121.904 97.8725 122.188C101.116 122.902 103.746 119.297 102.34 116.084C101.781 114.807 101.842 113.309 102.503 112.08C104.165 108.993 101.837 105.195 98.5496 105.646Z" fill="url(#paint19_linear_431_1780)"/>
<path d="M89.1094 89.3942C87.8814 88.8087 86.9937 87.6168 86.7376 86.2074C86.0921 82.6562 81.9028 81.3681 79.6393 84.0431C78.7381 85.1079 77.3919 85.6285 76.0384 85.4333C72.6172 84.9401 70.1868 88.8106 71.9423 91.9763C72.6381 93.2312 72.7067 94.7615 72.126 96.0708C70.6611 99.3734 73.4282 103.021 76.7915 102.238C78.1223 101.929 79.5096 102.333 80.5023 103.316C82.9956 105.787 87.0528 104.148 87.379 100.557C87.5086 99.1312 88.2864 97.8685 89.4574 97.1807C92.3968 95.4544 92.1919 90.8638 89.1094 89.3942Z" fill="url(#paint20_linear_431_1780)"/>
<path d="M83.0485 71.3492C82.0773 71.1728 81.2375 70.501 80.8037 69.5523C79.7102 67.1605 76.5278 67.0646 75.4181 69.3996C74.9769 70.328 74.1255 70.9569 73.1404 71.0814C70.653 71.3954 69.6507 74.5955 71.4502 76.4891C72.1633 77.2397 72.4872 78.3044 72.3165 79.3375C71.8865 81.9403 74.4775 83.9767 76.6922 82.7862C77.5695 82.3146 78.615 82.3338 79.4879 82.8369C81.6809 84.1007 84.2408 82.1717 83.8284 79.576C83.6645 78.5448 83.9865 77.5034 84.6889 76.7919C86.4541 75.0036 85.4878 71.792 83.0485 71.3492Z" fill="url(#paint21_linear_431_1780)"/>
<path d="M69.6273 137.862C68.8894 137.146 68.5143 136.157 68.6248 135.218C68.9028 132.852 66.2479 130.859 64.1239 131.848C63.2785 132.241 62.236 132.173 61.336 131.665C59.0645 130.383 56.5833 132.053 57.1464 134.494C57.3699 135.462 57.1015 136.42 56.4283 137.055C54.7299 138.657 55.8948 141.697 58.3936 142.192C59.3832 142.387 60.2654 143.039 60.7537 143.933C61.9815 146.183 65.1533 146.355 66.1218 144.235C66.506 143.393 67.3097 142.841 68.2701 142.758C70.6825 142.549 71.4819 139.66 69.6273 137.862Z" fill="url(#paint22_linear_431_1780)"/>
<path d="M56.8293 113.936C55.8209 114.05 54.7882 113.55 54.0682 112.599C52.2519 110.199 49.0945 111.128 48.7305 114.182C48.5858 115.395 47.9454 116.397 47.0169 116.861C44.673 118.034 44.6868 122.039 47.0406 123.626C47.973 124.255 48.621 125.371 48.7743 126.611C49.1602 129.732 52.3276 131.22 54.1283 129.138C54.842 128.313 55.872 127.995 56.8822 128.287C59.4192 129.021 61.3338 125.979 60.1314 123.137C59.6533 122.007 59.6484 120.707 60.1183 119.66C61.3001 117.03 59.3617 113.65 56.8293 113.936Z" fill="url(#paint23_linear_431_1780)"/>
<path d="M57.8438 95.2612C57.0426 94.8516 56.4974 93.9398 56.3861 92.8233C56.1061 90.0112 53.3496 89.1893 51.7166 91.4406C51.067 92.3362 50.1435 92.8181 49.2467 92.7285C46.9829 92.5022 45.1941 95.7083 46.2272 98.1502C46.637 99.119 46.6163 100.338 46.1718 101.41C45.0512 104.114 46.7391 106.901 49.0209 106.123C49.9249 105.815 50.8362 106.075 51.4587 106.817C53.0237 108.683 55.8207 107.186 56.1957 104.292C56.3446 103.143 56.9227 102.095 57.7407 101.488C59.7962 99.965 59.8568 96.2908 57.8438 95.2612Z" fill="url(#paint24_linear_431_1780)"/>
<path d="M67.1652 79.0464C66.2896 78.8944 65.5327 78.3003 65.1421 77.4575C64.1572 75.333 61.2901 75.2653 60.29 77.3506C59.8924 78.1797 59.1257 78.7444 58.2387 78.8602C56 79.1528 55.0972 82.0061 56.7159 83.6825C57.3576 84.3471 57.6486 85.2934 57.4946 86.2138C57.1068 88.5326 59.4387 90.334 61.4333 89.2643C62.2237 88.8404 63.1656 88.853 63.9519 89.2971C65.9282 90.4132 68.237 88.6834 67.8658 86.3725C67.7182 85.4545 68.009 84.5251 68.6426 83.8877C70.2357 82.2852 69.365 79.4281 67.1652 79.0464Z" fill="url(#paint25_linear_431_1780)"/>
<path d="M82.1215 117.893C80.8814 118.057 79.6269 117.51 78.768 116.429C76.5999 113.7 72.6937 114.877 72.1656 118.435C71.9556 119.849 71.1412 121.034 69.9859 121.604C67.0675 123.044 66.9785 127.701 69.8366 129.467C70.9681 130.166 71.7364 131.441 71.8923 132.877C72.2851 136.492 76.1421 138.11 78.4095 135.627C79.3075 134.643 80.5804 134.238 81.8126 134.543C84.9051 135.305 87.3302 131.711 85.9307 128.456C85.3742 127.162 85.4019 125.654 86.0049 124.425C87.5206 121.337 85.2338 117.48 82.1215 117.893Z" fill="url(#paint26_linear_431_1780)"/>
<path d="M101 126.185C99.7998 126.753 98.5049 126.775 97.5384 126.244C95.098 124.902 91.3896 127.201 91.2743 130.142C91.2284 131.31 90.5622 132.515 89.4915 133.366C86.787 135.516 87.2296 139.144 90.2376 139.493C91.4282 139.631 92.3271 140.342 92.6429 141.395C93.4375 144.043 97.4054 143.922 99.3508 141.203C100.122 140.126 101.326 139.362 102.569 139.159C105.69 138.651 107.668 135.016 105.93 133C105.238 132.197 105.096 131.022 105.551 129.859C106.694 126.932 104.014 124.761 101 126.185Z" fill="url(#paint27_linear_431_1780)"/>
<path d="M117.306 141.704C117.051 141.19 117.121 140.484 117.493 139.816C118.43 138.137 117.327 136.708 115.623 137.399C114.945 137.674 114.285 137.62 113.86 137.256C112.787 136.337 110.637 137.507 110.223 139.239C110.058 139.927 109.577 140.605 108.935 141.052C107.314 142.179 107.097 144.347 108.568 144.715C109.151 144.861 109.519 145.331 109.55 145.972C109.63 147.586 111.652 147.733 112.967 146.226C113.489 145.628 114.193 145.239 114.849 145.187C116.499 145.054 117.949 142.997 117.306 141.704Z" fill="url(#paint28_linear_431_1780)"/>
<path d="M66.256 99.806C65.388 100.61 64.1675 100.911 62.9914 100.608C60.0206 99.842 57.6109 102.85 58.927 105.696C59.4491 106.825 59.4005 108.121 58.7969 109.164C57.2745 111.795 59.4464 115.157 62.4598 114.847C63.6525 114.725 64.8447 115.21 65.6487 116.143C67.6692 118.489 71.3606 117.528 71.9021 114.53C72.117 113.34 72.8919 112.355 73.9729 111.896C76.6873 110.744 76.83 106.848 74.2157 105.29C73.1747 104.669 72.4769 103.573 72.3507 102.358C72.033 99.2989 68.4366 97.785 66.256 99.806Z" fill="url(#paint29_linear_431_1780)"/>
<path d="M216.943 196.16C216.943 196.16 242.851 171.308 268.357 196.833C268.357 196.833 278.733 148.036 246.346 146.743C210.781 145.323 216.943 196.16 216.943 196.16Z" fill="url(#paint30_linear_431_1780)"/>
<path d="M349.851 280.561C349.851 280.561 339.55 318.973 297.641 326.761C253.702 334.928 210.182 271.507 203.734 211.722C202.437 199.686 203.182 189.869 205.208 181.862C213.351 149.748 242.126 146.837 242.126 146.837C242.126 146.837 213.223 164.509 229.089 215.206C244.213 263.536 263.963 291.456 286.034 291.483C296.803 291.496 317.854 285.882 322.766 273.922C323.133 273.021 323.923 269.874 325.344 269.648C327.873 269.244 328.433 278.617 333.372 282.336C334.237 282.988 335.296 283.512 336.62 283.787C339.537 284.395 343.725 283.77 349.851 280.561Z" fill="url(#paint31_linear_431_1780)"/>
<path opacity="0.3" d="M349.851 280.561C349.851 280.561 339.55 318.973 297.641 326.761C253.702 334.928 210.182 271.438 203.734 211.653C202.437 199.617 203.182 189.713 205.208 181.725H205.213C205.213 181.725 204.357 203.846 213.183 215.683C222.01 227.515 224.587 235.835 224.327 250.334C224.036 266.693 235.762 285.856 250.961 291.554C255.979 293.436 262.365 295.646 266.346 299.388C273.77 306.36 279.423 312.861 290.214 313.385C298.886 313.811 309.341 313.347 317.431 309.939C321.005 308.43 325.512 305.542 327.634 302.151C332.343 294.637 334.109 288.211 336.62 283.787C339.537 284.395 343.725 283.77 349.851 280.561Z" fill="url(#paint32_linear_431_1780)"/>
<path d="M147.082 326.73C147.082 326.73 150.643 345.038 187.206 337.715C222.431 330.659 262.362 269.351 273.345 234.018C284.214 199.051 277.179 159.344 257.395 149.739C257.395 149.739 275.452 169.396 261.498 205.898C250.228 235.381 210.502 295.277 174.524 316.102C161.022 323.917 149.732 330.649 137.21 322.808L130.416 303.501L147.082 326.73Z" fill="url(#paint33_linear_431_1780)"/>
<path d="M191.355 336.676C191.249 336.698 191.139 336.721 191.033 336.743C186.143 337.763 181.615 338.562 177.418 339.166C161.393 341.469 150.152 340.884 141.908 338.46C125.574 333.645 121.02 321.6 114.329 310.465C106.036 296.653 94.0409 298.788 88.5066 300.745C86.7546 301.367 85.6513 301.97 85.5144 302.046C90.5632 298.22 95.2588 295.606 99.6283 293.986C108.649 290.631 116.293 291.501 122.86 294.674C134.922 300.506 143.347 314.113 149.98 323.624C150.589 324.494 151.242 325.31 151.935 326.074C164.16 339.53 188.853 336.974 191.179 336.698C191.293 336.685 191.355 336.676 191.355 336.676Z" fill="url(#paint34_linear_431_1780)"/>
<path opacity="0.3" d="M141.908 338.46C125.574 333.645 121.019 321.6 114.329 310.465C106.036 296.653 94.0407 298.788 88.5064 300.745C86.8426 302.139 85.2979 303.621 83.8593 305.121C80.3241 302.316 73.947 295.326 95.4663 293.564C96.8476 293.667 98.2378 293.804 99.6282 293.986C99.7297 293.999 99.8312 294.013 99.9327 294.026C101.627 294.252 103.318 294.545 104.964 294.914C110.203 296.076 116.752 297.67 121.104 300.941C123.778 302.947 125.963 306.621 126.669 309.905C128.866 320.082 133.664 331.452 141.908 338.46Z" fill="url(#paint35_linear_431_1780)"/>
<path d="M124.996 295.499C124.276 295.202 123.562 294.927 122.86 294.674C113.843 291.43 106.288 291.776 99.9326 294.026C95.5943 295.561 91.8164 297.976 88.5064 300.745C86.8427 302.139 85.2979 303.621 83.8593 305.121C79.5341 309.648 76.1933 314.357 73.5407 317.401C63.9462 328.416 58.7959 343.51 54.4179 342.72C49.5633 341.842 54.0382 323.024 45.3484 318.666C38.0225 314.987 27.2317 324.48 26.2696 322.997C24.9014 320.894 44.1789 298.521 72.7422 289.157C81.6394 286.241 97.3421 282.047 113.517 288.061C121.624 291.075 124.996 295.499 124.996 295.499Z" fill="url(#paint36_linear_431_1780)"/>
<defs>
<linearGradient id="paint0_linear_431_1780" x1="221.418" y1="140.859" x2="323.885" y2="184.367" gradientUnits="userSpaceOnUse">
<stop stop-color="#FCB148"/>
<stop offset="0.0521" stop-color="#FDBA46"/>
<stop offset="0.1424" stop-color="#FFC244"/>
<stop offset="0.3183" stop-color="#FFC444"/>
<stop offset="0.4849" stop-color="#FDB946"/>
<stop offset="0.7754" stop-color="#F99C4D"/>
<stop offset="0.8658" stop-color="#F8924F"/>
<stop offset="1" stop-color="#F8924F"/>
</linearGradient>
<linearGradient id="paint1_linear_431_1780" x1="295.192" y1="153.577" x2="275.832" y2="329.928" gradientUnits="userSpaceOnUse">
<stop offset="0.0036" stop-color="#E38DDD"/>
<stop offset="1" stop-color="#9571F6"/>
</linearGradient>
<linearGradient id="paint2_linear_431_1780" x1="116.1" y1="34.1164" x2="97.236" y2="414.914" gradientUnits="userSpaceOnUse">
<stop stop-color="#AA80F9"/>
<stop offset="0.9964" stop-color="#6165D7"/>
</linearGradient>
<linearGradient id="paint3_linear_431_1780" x1="140.801" y1="44.8283" x2="112.534" y2="307.595" gradientUnits="userSpaceOnUse">
<stop stop-color="#AB316D"/>
<stop offset="1" stop-color="#792D3D"/>
</linearGradient>
<linearGradient id="paint4_linear_431_1780" x1="260.689" y1="41.2809" x2="241.825" y2="422.075" gradientUnits="userSpaceOnUse">
<stop stop-color="#AA80F9"/>
<stop offset="0.9964" stop-color="#6165D7"/>
</linearGradient>
<linearGradient id="paint5_linear_431_1780" x1="244.77" y1="56.0128" x2="216.503" y2="318.78" gradientUnits="userSpaceOnUse">
<stop stop-color="#AB316D"/>
<stop offset="1" stop-color="#792D3D"/>
</linearGradient>
<linearGradient id="paint6_linear_431_1780" x1="101.529" y1="102.059" x2="110.483" y2="93.5791" gradientUnits="userSpaceOnUse">
<stop stop-color="#FF9085"/>
<stop offset="1" stop-color="#FB6FBB"/>
</linearGradient>
<linearGradient id="paint7_linear_431_1780" x1="74.1644" y1="45.9181" x2="105.596" y2="181.159" gradientUnits="userSpaceOnUse">
<stop stop-color="#FF9085"/>
<stop offset="1" stop-color="#FB6FBB"/>
</linearGradient>
<linearGradient id="paint8_linear_431_1780" x1="46.0542" y1="52.0098" x2="77.5848" y2="187.674" gradientUnits="userSpaceOnUse">
<stop stop-color="#FF9085"/>
<stop offset="1" stop-color="#FB6FBB"/>
</linearGradient>
<linearGradient id="paint9_linear_431_1780" x1="71.1586" y1="67.7032" x2="118.206" y2="189.343" gradientUnits="userSpaceOnUse">
<stop stop-color="#AB316D"/>
<stop offset="1" stop-color="#792D3D"/>
</linearGradient>
<linearGradient id="paint10_linear_431_1780" x1="118.233" y1="145.404" x2="95.0533" y2="56.3928" gradientUnits="userSpaceOnUse">
<stop stop-color="#FF9085"/>
<stop offset="1" stop-color="#FB6FBB"/>
</linearGradient>
<linearGradient id="paint11_linear_431_1780" x1="130.982" y1="141.467" x2="108.085" y2="53.5451" gradientUnits="userSpaceOnUse">
<stop stop-color="#FF9085"/>
<stop offset="1" stop-color="#FB6FBB"/>
</linearGradient>
<linearGradient id="paint12_linear_431_1780" x1="133.647" y1="140.875" x2="110.663" y2="52.6173" gradientUnits="userSpaceOnUse">
<stop stop-color="#FF9085"/>
<stop offset="1" stop-color="#FB6FBB"/>
</linearGradient>
<linearGradient id="paint13_linear_431_1780" x1="128.298" y1="143.086" x2="104.975" y2="53.5245" gradientUnits="userSpaceOnUse">
<stop stop-color="#FF9085"/>
<stop offset="1" stop-color="#FB6FBB"/>
</linearGradient>
<linearGradient id="paint14_linear_431_1780" x1="100.688" y1="150.494" x2="77.4252" y2="61.1651" gradientUnits="userSpaceOnUse">
<stop stop-color="#FF9085"/>
<stop offset="1" stop-color="#FB6FBB"/>
</linearGradient>
<linearGradient id="paint15_linear_431_1780" x1="121.067" y1="144.637" x2="97.8732" y2="55.5735" gradientUnits="userSpaceOnUse">
<stop stop-color="#FF9085"/>
<stop offset="1" stop-color="#FB6FBB"/>
</linearGradient>
<linearGradient id="paint16_linear_431_1780" x1="116.182" y1="146.275" x2="92.8248" y2="56.5829" gradientUnits="userSpaceOnUse">
<stop stop-color="#FF9085"/>
<stop offset="1" stop-color="#FB6FBB"/>
</linearGradient>
<linearGradient id="paint17_linear_431_1780" x1="115.891" y1="146.935" x2="92.3237" y2="56.4358" gradientUnits="userSpaceOnUse">
<stop stop-color="#FF9085"/>
<stop offset="1" stop-color="#FB6FBB"/>
</linearGradient>
<linearGradient id="paint18_linear_431_1780" x1="83.4669" y1="155.706" x2="59.8497" y2="65.0154" gradientUnits="userSpaceOnUse">
<stop stop-color="#FF9085"/>
<stop offset="1" stop-color="#FB6FBB"/>
</linearGradient>
<linearGradient id="paint19_linear_431_1780" x1="103.055" y1="150.231" x2="79.4663" y2="59.6495" gradientUnits="userSpaceOnUse">
<stop stop-color="#FF9085"/>
<stop offset="1" stop-color="#FB6FBB"/>
</linearGradient>
<linearGradient id="paint20_linear_431_1780" x1="96.2443" y1="152.387" x2="72.485" y2="61.151" gradientUnits="userSpaceOnUse">
<stop stop-color="#FF9085"/>
<stop offset="1" stop-color="#FB6FBB"/>
</linearGradient>
<linearGradient id="paint21_linear_431_1780" x1="98.1484" y1="152.37" x2="74.2328" y2="60.5342" gradientUnits="userSpaceOnUse">
<stop stop-color="#FF9085"/>
<stop offset="1" stop-color="#FB6FBB"/>
</linearGradient>
<linearGradient id="paint22_linear_431_1780" x1="68.4876" y1="160.322" x2="44.5113" y2="68.2527" gradientUnits="userSpaceOnUse">
<stop stop-color="#FF9085"/>
<stop offset="1" stop-color="#FB6FBB"/>
</linearGradient>
<linearGradient id="paint23_linear_431_1780" x1="63.9529" y1="162.071" x2="39.6363" y2="68.695" gradientUnits="userSpaceOnUse">
<stop stop-color="#FF9085"/>
<stop offset="1" stop-color="#FB6FBB"/>
</linearGradient>
<linearGradient id="paint24_linear_431_1780" x1="68.0944" y1="160.918" x2="43.8098" y2="67.6651" gradientUnits="userSpaceOnUse">
<stop stop-color="#FF9085"/>
<stop offset="1" stop-color="#FB6FBB"/>
</linearGradient>
<linearGradient id="paint25_linear_431_1780" x1="82.0882" y1="157.152" x2="57.8976" y2="64.2603" gradientUnits="userSpaceOnUse">
<stop stop-color="#FF9085"/>
<stop offset="1" stop-color="#FB6FBB"/>
</linearGradient>
<linearGradient id="paint26_linear_431_1780" x1="85.2492" y1="155.531" x2="61.3743" y2="63.8515" gradientUnits="userSpaceOnUse">
<stop stop-color="#FF9085"/>
<stop offset="1" stop-color="#FB6FBB"/>
</linearGradient>
<linearGradient id="paint27_linear_431_1780" x1="101.365" y1="150.51" x2="77.8749" y2="60.308" gradientUnits="userSpaceOnUse">
<stop stop-color="#FF9085"/>
<stop offset="1" stop-color="#FB6FBB"/>
</linearGradient>
<linearGradient id="paint28_linear_431_1780" x1="114.145" y1="146.58" x2="90.7976" y2="56.924" gradientUnits="userSpaceOnUse">
<stop stop-color="#FF9085"/>
<stop offset="1" stop-color="#FB6FBB"/>
</linearGradient>
<linearGradient id="paint29_linear_431_1780" x1="79.4605" y1="157.417" x2="55.4021" y2="65.0332" gradientUnits="userSpaceOnUse">
<stop stop-color="#FF9085"/>
<stop offset="1" stop-color="#FB6FBB"/>
</linearGradient>
<linearGradient id="paint30_linear_431_1780" x1="216.535" y1="171.774" x2="269.94" y2="171.774" gradientUnits="userSpaceOnUse">
<stop stop-color="#FF9085"/>
<stop offset="1" stop-color="#FB6FBB"/>
</linearGradient>
<linearGradient id="paint31_linear_431_1780" x1="216.063" y1="312.326" x2="301.923" y2="199.982" gradientUnits="userSpaceOnUse">
<stop stop-color="#FF9085"/>
<stop offset="1" stop-color="#FB6FBB"/>
</linearGradient>
<linearGradient id="paint32_linear_431_1780" x1="222.134" y1="307.66" x2="279.885" y2="232.096" gradientUnits="userSpaceOnUse">
<stop stop-color="#FF9085"/>
<stop offset="1" stop-color="#FB6FBB"/>
</linearGradient>
<linearGradient id="paint33_linear_431_1780" x1="132.871" y1="241.353" x2="276.689" y2="247.035" gradientUnits="userSpaceOnUse">
<stop stop-color="#FF9085"/>
<stop offset="1" stop-color="#FB6FBB"/>
</linearGradient>
<linearGradient id="paint34_linear_431_1780" x1="85.5144" y1="316.233" x2="191.355" y2="316.233" gradientUnits="userSpaceOnUse">
<stop stop-color="#FF9085"/>
<stop offset="1" stop-color="#FB6FBB"/>
</linearGradient>
<linearGradient id="paint35_linear_431_1780" x1="80.16" y1="316.012" x2="141.908" y2="316.012" gradientUnits="userSpaceOnUse">
<stop stop-color="#FF9085"/>
<stop offset="1" stop-color="#FB6FBB"/>
</linearGradient>
<linearGradient id="paint36_linear_431_1780" x1="26.201" y1="313.873" x2="124.996" y2="313.873" gradientUnits="userSpaceOnUse">
<stop stop-color="#FF9085"/>
<stop offset="1" stop-color="#FB6FBB"/>
</linearGradient>
</defs>
</svg>
